%FSLAX25Y25*%
%MOIN*%
G70*
G01*
G75*
G04 Layer_Physical_Order=2*
G04 Layer_Color=16711680*
%ADD10C,0.01500*%
%ADD11C,0.03937*%
%ADD12C,0.01000*%
%ADD13C,0.01575*%
%ADD14C,0.03150*%
%ADD15C,0.01400*%
%ADD16C,0.01969*%
%ADD17R,0.04724X0.06300*%
%ADD18O,0.04724X0.06300*%
%ADD19C,0.06689*%
%ADD20O,0.09840X0.08800*%
%ADD21O,0.08661X0.09840*%
%ADD22C,0.16929*%
%ADD23C,0.09840*%
%ADD24C,0.12000*%
%ADD25C,0.15700*%
%ADD26O,0.03937X0.09449*%
%ADD27C,0.02756*%
%ADD28C,0.02362*%
%ADD29O,0.05118X0.07087*%
%ADD30R,0.05118X0.07087*%
%ADD31O,0.07087X0.05906*%
%ADD32R,0.07087X0.05906*%
%ADD33C,0.07874*%
%ADD34C,0.07087*%
%ADD35C,0.13780*%
%ADD36O,0.14000X0.13000*%
%ADD37O,0.06300X0.04724*%
%ADD38R,0.06300X0.04724*%
%ADD39C,0.08661*%
G04:AMPARAMS|DCode=40|XSize=47.24mil|YSize=63mil|CornerRadius=0mil|HoleSize=0mil|Usage=FLASHONLY|Rotation=0.000|XOffset=0mil|YOffset=0mil|HoleType=Round|Shape=Octagon|*
%AMOCTAGOND40*
4,1,8,-0.01181,0.03150,0.01181,0.03150,0.02362,0.01969,0.02362,-0.01969,0.01181,-0.03150,-0.01181,-0.03150,-0.02362,-0.01969,-0.02362,0.01969,-0.01181,0.03150,0.0*
%
%ADD40OCTAGOND40*%

%ADD41O,0.08000X0.09840*%
%ADD42O,0.08661X0.09843*%
%ADD43C,0.06693*%
%ADD44O,0.08661X0.09839*%
%ADD45C,0.15669*%
%ADD46O,0.08661X0.09840*%
%ADD47O,0.09840X0.08661*%
%ADD48C,0.15669*%
%ADD49C,0.02441*%
%ADD50C,0.03150*%
%ADD51C,0.03937*%
%ADD52R,0.04331X0.04921*%
%ADD53R,0.00984X0.05118*%
%ADD54R,0.04921X0.04331*%
%ADD55R,0.05906X0.01969*%
%ADD56O,0.05906X0.01969*%
%ADD57O,0.07874X0.01969*%
%ADD58R,0.07874X0.01969*%
%ADD59R,0.01969X0.07874*%
%ADD60R,0.04724X0.03937*%
%ADD61R,0.03543X0.03937*%
%ADD62R,0.02559X0.07874*%
%ADD63O,0.02559X0.07874*%
%ADD64R,0.05118X0.04331*%
%ADD65R,0.03937X0.03937*%
%ADD66R,0.11811X0.09843*%
%ADD67R,0.03937X0.04724*%
%ADD68R,0.03937X0.03543*%
%ADD69R,0.19685X0.15748*%
%ADD70C,0.02362*%
%ADD71C,0.02756*%
%ADD72C,0.00394*%
D10*
X-183900Y410700D02*
G03*
X-186536Y404335I6365J-6365D01*
G01*
X-183900Y410700D02*
G03*
X-181600Y416253I-5553J5553D01*
G01*
X-28692Y282087D02*
Y290968D01*
X-25920Y293740D01*
X-10694D01*
X-4972Y288018D01*
X-42413Y282087D02*
X-28692D01*
X-18692Y271222D02*
Y282087D01*
Y271222D02*
X-15018Y267548D01*
X-7150D01*
X-190701Y431401D02*
Y436929D01*
Y431401D02*
X-181600Y422300D01*
Y416253D02*
Y422300D01*
X-186536Y396929D02*
Y404335D01*
D11*
X9388Y437974D02*
Y449619D01*
X8421Y437007D02*
X9388Y437974D01*
X-796142Y237968D02*
Y238327D01*
X-771918Y211929D02*
Y213745D01*
X-804744Y246929D02*
X-796142Y238327D01*
X-805102Y246929D02*
X-804744D01*
X-796142Y237968D02*
X-771918Y213745D01*
X5551Y376673D02*
Y396968D01*
X33071Y158858D02*
Y246075D01*
X29035Y154823D02*
X33071Y158858D01*
Y370983D02*
X41389Y379301D01*
X22432Y371054D02*
X36959Y385581D01*
Y425591D02*
Y436467D01*
Y385581D02*
Y425591D01*
X32284Y441141D02*
X36959Y436467D01*
X-1028937Y360531D02*
Y372244D01*
X5551Y396968D02*
Y420276D01*
X4134Y421693D02*
X11319D01*
X294Y437007D02*
X8421D01*
X-850Y423622D02*
X1079Y421693D01*
X-1969Y424409D02*
Y434744D01*
X294Y437007D01*
X-690551Y299606D02*
X-686811Y303346D01*
X-690551Y229921D02*
Y299606D01*
X-764961Y237008D02*
Y300000D01*
Y237008D02*
X-759433Y231480D01*
X-749488D01*
X-743307Y203150D02*
Y225299D01*
Y203150D02*
X-733465Y193307D01*
Y168898D02*
Y193307D01*
X-749488Y231480D02*
X-743307Y225299D01*
X-690551Y229921D02*
X-665158Y204527D01*
Y174213D02*
Y204527D01*
X22432Y287830D02*
Y371054D01*
X33071Y246075D02*
Y370983D01*
X-744995Y117655D02*
X-739208D01*
Y123587D01*
Y110911D02*
Y117655D01*
Y110911D02*
X-737189Y108891D01*
X-61965Y264305D02*
X-52694D01*
X-4972Y282087D02*
Y288018D01*
X5551Y298541D01*
Y376673D01*
D12*
X-201465Y422335D02*
G03*
X-198536Y429406I-7071J7071D01*
G01*
X-201465Y422335D02*
G03*
X-204100Y415974I6361J-6361D01*
G01*
X-134582Y380500D02*
Y382434D01*
Y361929D02*
Y380500D01*
X-1077339Y394347D02*
X-1044921Y361929D01*
X-1086339Y396929D02*
X-1053086Y363676D01*
Y361929D02*
Y363676D01*
X-975373Y368484D02*
X-969923Y363033D01*
X-982479Y375589D02*
X-967128Y360238D01*
X-1002356Y395466D02*
X-982479Y375589D01*
X-969923Y361929D02*
Y363033D01*
X-982479Y375589D02*
X-973622Y366732D01*
X-967128Y355118D02*
Y360238D01*
X-1011356Y395197D02*
Y396929D01*
Y395197D02*
X-978088Y361929D01*
X-278000Y420819D02*
X-273520Y425299D01*
X-278000Y410874D02*
Y420819D01*
Y410874D02*
X-269414Y402287D01*
X-279725Y399134D02*
Y424134D01*
X276470Y251720D02*
Y260810D01*
X236679Y211929D02*
X276470Y251720D01*
X230079Y211929D02*
X236679D01*
X256890Y280390D02*
X276470Y260810D01*
X256890Y280390D02*
Y286024D01*
X-115488Y211579D02*
Y218453D01*
X-111650Y222290D01*
X-103520D01*
X-97317Y228493D01*
Y241320D01*
X-111140Y255142D02*
X-97317Y241320D01*
X-138798Y255142D02*
X-111140D01*
X-147011Y246929D02*
X-138798Y255142D01*
X-158370Y246929D02*
X-147011D01*
X-107323Y211579D02*
X-95530Y223372D01*
Y242060D01*
X-110399Y256929D02*
X-95530Y242060D01*
X-149370Y256929D02*
X-110399D01*
X-210541Y211579D02*
X-195806Y226315D01*
Y244842D01*
X-207893Y256929D02*
X-195806Y244842D01*
X-240197Y256929D02*
X-207893D01*
X-194018Y224501D02*
X-181097Y211579D01*
X-206496Y258060D02*
Y270664D01*
X-194018Y224501D02*
Y245583D01*
X-206496Y258060D02*
X-194018Y245583D01*
X-173226Y303934D02*
X-162535Y293243D01*
X-191220Y321929D02*
X-173226Y303934D01*
X-206496Y270664D02*
X-173226Y303934D01*
X-88888Y268022D02*
X-13898Y193032D01*
X-88888Y268022D02*
Y299400D01*
X-121417Y331929D02*
X-88888Y299400D01*
X-50000Y140157D02*
X-48228Y138386D01*
X110236D01*
X-51181Y136417D02*
X110795D01*
X18262Y436117D02*
Y450013D01*
X11319Y429173D02*
X18262Y436117D01*
X16294Y440275D02*
Y450013D01*
X9770Y433751D02*
X16294Y440275D01*
X10431Y450840D02*
X11258Y450013D01*
X-809267Y286929D02*
Y307270D01*
X-801102Y297062D02*
Y303465D01*
Y286929D02*
Y297062D01*
X-838886Y212040D02*
Y224673D01*
X-871142Y256929D02*
X-838886Y224673D01*
Y212040D02*
X-838775Y211929D01*
X-233261Y153299D02*
X-217392D01*
X-235462Y155500D02*
X-233261Y153299D01*
X-425862Y155500D02*
X-235462D01*
X-234001Y151512D02*
X-216652D01*
X-236202Y153713D02*
X-234001Y151512D01*
X-424831Y153713D02*
X-236202D01*
X-215911Y149724D02*
X-211545Y154090D01*
X-234742Y149724D02*
X-215911D01*
X-236943Y151925D02*
X-234742Y149724D01*
X-424090Y151925D02*
X-236943D01*
X-215171Y147937D02*
X-210805Y152303D01*
X-235482Y147937D02*
X-215171D01*
X-237683Y150138D02*
X-235482Y147937D01*
X-423350Y150138D02*
X-237683D01*
X-210064Y150516D02*
X-170448D01*
X-214430Y146150D02*
X-210064Y150516D01*
X-236223Y146150D02*
X-214430D01*
X-238423Y148350D02*
X-236223Y146150D01*
X-422610Y148350D02*
X-238423D01*
X-209324Y148728D02*
X-171188D01*
X-213690Y144362D02*
X-209324Y148728D01*
X-236963Y144362D02*
X-213690D01*
X-239164Y146563D02*
X-236963Y144362D01*
X-421869Y146563D02*
X-239164D01*
X-207772Y125299D02*
Y136929D01*
X-211811Y121260D02*
X-207772Y125299D01*
X-211811Y110433D02*
Y121260D01*
X-191817Y110545D02*
Y122329D01*
X-195772Y106591D02*
X-191817Y110545D01*
X-345866Y256929D02*
X-313622Y224685D01*
X-310827Y184134D02*
Y209134D01*
X-51968Y133661D02*
X111830D01*
X-54165Y131496D02*
X85236D01*
X110236Y138386D02*
X125394Y153543D01*
X-65780Y151016D02*
X-51181Y136417D01*
X110795D02*
X126134Y151756D01*
X18799Y401472D02*
Y407087D01*
X12795Y395468D02*
X18799Y401472D01*
X29626D02*
Y407087D01*
X14583Y386429D02*
X29626Y401472D01*
X27010Y417183D02*
Y438850D01*
X24168Y444533D02*
Y450013D01*
X27010Y417183D02*
X29626Y414567D01*
X25878Y439982D02*
X27010Y438850D01*
X22199Y437446D02*
X24114Y435532D01*
Y423720D02*
Y435532D01*
X22244Y421850D02*
X24114Y423720D01*
X25878Y439982D02*
Y442823D01*
X26136Y445320D02*
Y450013D01*
X22199Y440354D02*
Y450013D01*
X18602Y421850D02*
X22244D01*
X33026Y450013D02*
Y453391D01*
X14325Y450013D02*
Y453892D01*
X28543Y442126D02*
X28937Y442520D01*
X26136Y445320D02*
X28937Y442520D01*
X28543Y442125D02*
Y442126D01*
X12795Y306102D02*
Y395468D01*
X14583Y306890D02*
Y386429D01*
X8712Y433751D02*
X9770D01*
X4134Y429173D02*
X8712Y433751D01*
X14583Y306890D02*
X15370Y306102D01*
X15945D01*
X7140Y452611D02*
X8912Y450840D01*
X9783Y449968D01*
X8912Y450840D02*
X10431D01*
X6239D02*
X8912D01*
X10192Y450013D02*
X10236Y449968D01*
X-609154Y121260D02*
X-602362D01*
X-595000Y113898D01*
Y98976D02*
Y113898D01*
X-612795Y120571D02*
X-608169Y115945D01*
Y110728D02*
Y115945D01*
X-612795Y120571D02*
Y125886D01*
X-608169Y130512D01*
X-571910D01*
X-608169Y110728D02*
X-600000Y102559D01*
Y98976D02*
Y102559D01*
X-613681Y110827D02*
X-605000Y102146D01*
X-613681Y110827D02*
Y117126D01*
X-605000Y98976D02*
Y102146D01*
X-617224Y109449D02*
X-610000Y102224D01*
X-617224Y109449D02*
Y125856D01*
X-610000Y98976D02*
Y102224D01*
X-619783Y107382D02*
X-615000Y102598D01*
X-619783Y107382D02*
Y120276D01*
X-622368Y105734D02*
Y128864D01*
Y105734D02*
X-620000Y103366D01*
X-615000Y98976D02*
Y102598D01*
X-620000Y98976D02*
Y103366D01*
X-605000Y148819D02*
Y155590D01*
Y138976D02*
Y148819D01*
X-570000Y138976D02*
X-566831D01*
X-570000Y132421D02*
Y138976D01*
X-566831Y138878D02*
Y138976D01*
X-571910Y130512D02*
X-570000Y132421D01*
X-25516Y325394D02*
Y327287D01*
X252165Y290748D02*
X256890Y286024D01*
X236024Y317323D02*
X264961D01*
X230685D02*
X236024D01*
Y312992D02*
Y317323D01*
X221914Y298883D02*
X236024Y312992D01*
X225394Y296457D02*
X243465Y314528D01*
X221914Y286732D02*
Y298883D01*
X243465Y314528D02*
X275079D01*
X143110Y238189D02*
X143185Y238264D01*
Y246732D01*
X229528Y226575D02*
Y243283D01*
X221914Y218961D02*
X229528Y226575D01*
X226079Y246732D02*
X229528Y243283D01*
X235079Y160669D02*
Y181929D01*
X226165Y151756D02*
X235079Y160669D01*
X226079Y321929D02*
Y331708D01*
X230033Y335662D01*
Y347329D01*
X280197Y284646D02*
X285079Y289528D01*
X276181Y284646D02*
X280197D01*
X275079Y298528D02*
X275984Y297622D01*
Y292126D02*
Y297622D01*
X256890Y320472D02*
Y322244D01*
X261614Y326969D01*
X307087Y331102D02*
X315079Y323110D01*
X278740Y331102D02*
X307087D01*
X264961Y317323D02*
X278740Y331102D01*
X315079Y310528D02*
Y323110D01*
X226079Y321929D02*
X230685Y317323D01*
X256890Y322244D02*
X310079Y375433D01*
Y406929D01*
X162795Y303227D02*
Y315354D01*
X156220Y321929D02*
X162795Y315354D01*
X146914Y286732D02*
Y287346D01*
X162795Y303227D01*
X151079Y321929D02*
X156220D01*
X76772Y294291D02*
X87008Y304528D01*
X71914Y286732D02*
Y292190D01*
X74016Y294291D01*
X76772D01*
X87008Y304528D02*
Y315945D01*
X81024Y321929D02*
X87008Y315945D01*
X76079Y321929D02*
X81024D01*
X210039Y271063D02*
X214079Y275102D01*
X210039Y260236D02*
Y271063D01*
X207874Y248937D02*
Y273937D01*
X205079Y276732D02*
X207874Y273937D01*
X221914Y280251D02*
X230033Y272132D01*
Y260465D02*
Y272132D01*
X226079Y256511D02*
X230033Y260465D01*
X226079Y246732D02*
Y256511D01*
X232874Y258937D02*
Y283937D01*
X143185Y321929D02*
X143701Y321413D01*
Y313189D02*
Y321413D01*
X217717Y313189D02*
X218185Y313657D01*
Y321929D01*
X202282D02*
X210079D01*
X201575Y321222D02*
X202282Y321929D01*
X146914Y280251D02*
Y286732D01*
X139079Y275102D02*
Y286732D01*
X129252Y202756D02*
X130079Y201929D01*
X120669Y202756D02*
X129252D01*
X203661Y203346D02*
X205079Y201929D01*
X196063Y203346D02*
X203661D01*
X62622Y213386D02*
X64079Y211929D01*
X45472Y213386D02*
X62622D01*
X137031Y213976D02*
X139079Y211929D01*
X119685Y213976D02*
X137031D01*
X218185Y171929D02*
X218701Y171413D01*
Y162992D02*
Y171413D01*
X208858Y153543D02*
X211417Y156102D01*
X309720Y152437D02*
X315079D01*
X301575Y144291D02*
X309720Y152437D01*
X290748Y144291D02*
X301575D01*
X286709Y148331D02*
X290748Y144291D01*
X275079Y148331D02*
X286709D01*
X287874Y142126D02*
X312874D01*
X285079Y139331D02*
X287874Y142126D01*
X289679Y164285D02*
X301463D01*
X281560Y156166D02*
X289679Y164285D01*
X277874Y167126D02*
X302874D01*
X-67535Y149228D02*
X-51968Y133661D01*
X272417Y145669D02*
X275079Y148331D01*
X265551Y145669D02*
X272417D01*
X283150Y137402D02*
X285079Y139331D01*
X263583Y137402D02*
X283150D01*
X32480Y120079D02*
X43331D01*
X-70110Y147441D02*
X-54165Y131496D01*
X-450197Y136221D02*
X-427343Y159075D01*
X-449457Y134433D02*
X-426602Y157287D01*
X-448716Y132646D02*
X-425862Y155500D01*
X-459976Y118567D02*
X-424831Y153713D01*
X-459236Y116779D02*
X-424090Y151925D01*
X-458496Y114992D02*
X-423350Y150138D01*
X-457755Y113205D02*
X-422610Y148350D01*
X-457015Y111417D02*
X-421869Y146563D01*
X-427343Y159075D02*
X-390581D01*
X-383644Y166012D01*
X-402953Y127953D02*
X-402559Y128347D01*
X-208087Y136614D02*
X-207772Y136929D01*
X43331Y120079D02*
X45181Y118228D01*
X35827Y107874D02*
X36181Y108228D01*
X26181Y107874D02*
X35827D01*
X-38976D02*
X-38622Y108228D01*
X-49213Y107874D02*
X-38976D01*
X-31472Y120079D02*
X-29622Y118228D01*
X-42323Y120079D02*
X-31472D01*
X-113976Y107677D02*
X-113425Y108228D01*
X-123819Y107677D02*
X-113976D01*
X-105095Y118898D02*
X-104425Y118228D01*
X-119488Y118898D02*
X-105095D01*
X-257126Y106929D02*
X-257087Y106890D01*
X-271220Y106929D02*
X-257126D01*
X-296299Y96850D02*
X-296220Y96929D01*
X-310433Y96850D02*
X-296299D01*
X-311445Y98847D02*
X-310433Y97835D01*
Y96850D02*
Y97835D01*
X-311445Y98847D02*
Y126547D01*
X-309646Y128347D01*
X-292535Y136614D02*
X-292220Y136929D01*
X-308858Y136614D02*
X-292535D01*
X-376787D02*
X-376472Y136929D01*
X-394291Y136614D02*
X-376787D01*
X-386890Y128347D02*
X-385472Y126929D01*
X-394882Y128347D02*
X-386890D01*
X-828740Y162523D02*
X-828271D01*
X-813780Y147047D02*
Y152362D01*
X-987535Y130448D02*
Y136929D01*
Y130448D02*
X-979416Y122329D01*
X-987535Y136929D02*
Y166645D01*
X-996236Y137795D02*
X-995370Y136929D01*
X-1008661Y137795D02*
X-996236D01*
X-917797Y171929D02*
Y181708D01*
X-913842Y185662D01*
X-1033661Y106890D02*
X-1032677Y107874D01*
X-1044488Y106890D02*
X-1033661D01*
X-1020866Y127165D02*
Y130315D01*
X-1104528Y127165D02*
Y130118D01*
X-1173307Y127165D02*
X-1173071Y126929D01*
X-1182480Y127165D02*
X-1173307D01*
X-1164937Y137795D02*
X-1164071Y136929D01*
X-1175787Y137795D02*
X-1164937D01*
X-1080488D02*
X-1079622Y136929D01*
X-1092224Y137795D02*
X-1080488D01*
X-1044528Y106929D02*
X-1044488Y106890D01*
X-1058622Y106929D02*
X-1044528D01*
X-1097756Y96929D02*
X-1083622D01*
X-1097835Y96850D02*
X-1097756Y96929D01*
X-1098847Y97862D02*
X-1097835Y96850D01*
X-1098847Y97862D02*
Y127138D01*
X-1098819Y127165D01*
X-1004606D02*
X-1004370Y126929D01*
X-1015158Y127165D02*
X-1004606D01*
X-1106728Y171929D02*
X-1071728Y136929D01*
X-1114472Y171929D02*
X-1106728D01*
X-1124213Y161614D02*
X-1122366Y163461D01*
Y171929D01*
X-1142323Y172441D02*
X-1130984D01*
X-1130472Y171929D01*
X-792927Y206102D02*
X-788753Y201929D01*
X-797244Y206102D02*
X-792927D01*
X-781210Y213386D02*
X-779753Y211929D01*
X-794291Y213386D02*
X-781210D01*
X-1176772Y246260D02*
X-1164961D01*
X-1139764Y296457D02*
Y319071D01*
Y283465D02*
Y296457D01*
X-1140354Y297047D02*
X-1139764Y296457D01*
X-1150787Y297047D02*
X-1140354D01*
X-1139764Y283465D02*
X-1128740Y272441D01*
Y262402D02*
Y272441D01*
X-1156236Y291599D02*
X-1150787Y297047D01*
X-1133173Y257968D02*
X-1128740Y262402D01*
X-1133173Y246929D02*
Y257968D01*
X-1124398Y257154D02*
Y282154D01*
X-1129173Y286929D02*
X-1124398Y282154D01*
X-1172847Y251705D02*
Y276705D01*
Y251705D02*
X-1168071Y246929D01*
X-1173071Y276929D02*
X-1172847Y276705D01*
X-1118637Y211929D02*
Y232393D01*
X-1133173Y246929D02*
X-1118637Y232393D01*
X-1156236Y286929D02*
Y291599D01*
X-1142622Y321929D02*
X-1139764Y319071D01*
X-1170276Y99134D02*
Y124134D01*
X-1168110Y110433D02*
X-1159965Y102287D01*
X-1168110Y110433D02*
Y121260D01*
X-1159965Y96929D02*
Y102287D01*
X-1161323Y396929D02*
Y406708D01*
X-1157368Y410662D01*
Y422329D01*
X-837598Y112795D02*
X-825984D01*
X-838780Y113976D02*
X-837598Y112795D01*
X-842131Y324134D02*
Y349134D01*
X-839966Y335433D02*
X-831820Y327287D01*
Y321929D02*
Y327287D01*
X-838780Y138779D02*
X-837795D01*
X-763799Y185662D02*
Y197329D01*
X-675118Y142126D02*
X-669921Y136929D01*
X-52694Y239506D02*
X-38386Y225197D01*
X-489764Y136221D02*
X-450197D01*
X-491323Y134433D02*
X-449457D01*
X-492063Y132646D02*
X-448716D01*
X-502197Y148653D02*
X-489764Y136221D01*
X-503756Y146866D02*
X-491323Y134433D01*
X-504496Y145079D02*
X-492063Y132646D01*
X-576512Y118567D02*
X-459976D01*
X-572984Y116779D02*
X-459236D01*
X-571228Y114992D02*
X-458496D01*
X-519881Y113205D02*
X-457755D01*
X-562894Y111417D02*
X-457015D01*
X-383644Y166012D02*
Y181929D01*
X-600000Y138976D02*
Y173220D01*
X-595000Y149094D02*
X-589764Y154331D01*
X-585000Y143500D02*
X-579847Y148653D01*
X-580000Y143500D02*
X-576634Y146866D01*
X-575000Y143500D02*
X-573422Y145079D01*
X-608710Y181929D02*
X-600000Y173220D01*
X-730709Y128543D02*
X-714764Y144488D01*
X-734842Y131693D02*
X-718701Y147835D01*
X-736220Y134843D02*
X-720276Y150787D01*
X-798032Y147047D02*
Y150640D01*
X-791732Y151575D02*
X-786630Y156677D01*
X-791732Y147047D02*
Y151575D01*
X-829470Y91331D02*
X-823039D01*
X-819291Y95079D02*
X-793701D01*
X-823039Y91331D02*
X-819291Y95079D01*
X-838780Y100640D02*
X-829470Y91331D01*
X-838780Y122677D02*
X-838346Y122244D01*
X-795472Y137992D02*
X-782677D01*
X-768701D02*
X-767520Y139173D01*
X-804921Y128543D02*
X-795472Y137992D01*
X-826772Y101181D02*
X-824213Y103740D01*
X-826772Y95079D02*
Y101181D01*
X-824213Y103740D02*
X-820079D01*
X-816929Y97441D02*
Y103740D01*
X-791732Y96654D02*
Y103740D01*
X-788583Y97441D02*
X-786024Y94882D01*
X-788583Y97441D02*
Y103740D01*
Y147047D02*
X-785039D01*
X-803307Y162523D02*
X-796063D01*
X-803543Y162759D02*
X-803307Y162523D01*
X-820079Y170082D02*
X-812835D01*
X-812598Y169845D01*
Y169304D02*
Y169845D01*
X-820079Y162601D02*
X-810630Y153153D01*
Y147047D02*
Y153153D01*
X-605315Y99291D02*
X-605000Y98976D01*
X-620000D02*
X-619882Y99094D01*
X-13780Y370550D02*
Y393087D01*
X-8622Y366929D02*
Y406929D01*
X-21787Y362543D02*
X-13780Y370550D01*
X-17622Y396929D02*
X-13780Y393087D01*
X-13622Y361929D02*
X-8622Y366929D01*
X230079Y361929D02*
Y401929D01*
X226079Y366708D02*
Y396929D01*
X291142Y387008D02*
X293185Y389051D01*
Y396929D01*
X82087Y229528D02*
Y240724D01*
X71914Y219355D02*
X82087Y229528D01*
X76079Y246732D02*
X82087Y240724D01*
X71914Y211929D02*
Y219355D01*
X156693Y227362D02*
Y241118D01*
X146914Y217583D02*
X156693Y227362D01*
X151079Y246732D02*
X156693Y241118D01*
X146914Y211929D02*
Y217583D01*
X221914Y211929D02*
Y218961D01*
X235079Y228583D02*
Y256732D01*
X234449Y227953D02*
X235079Y228583D01*
X160079Y227913D02*
X160630Y227362D01*
X160079Y227913D02*
Y256732D01*
X275079Y164331D02*
X279528Y168780D01*
Y232283D01*
X85079Y239134D02*
X90945Y233268D01*
X85079Y239134D02*
Y256732D01*
X-692732Y171929D02*
Y181708D01*
X-688777Y185662D01*
X-122244Y143685D02*
X-115370D01*
X-123819Y145472D02*
X-119976D01*
X-54528Y129331D02*
X-2559D01*
X-70669Y145472D02*
X-54528Y129331D01*
X-17622Y153032D02*
Y162810D01*
X-13668Y166765D01*
Y178431D01*
X-2559Y129331D02*
X-394Y127165D01*
X-122638Y147441D02*
X-70110D01*
X-123819Y145472D02*
X-70669D01*
X76079Y171929D02*
Y181708D01*
X80033Y185662D01*
Y197329D01*
X85236Y131496D02*
X87598Y129134D01*
X-122638Y147441D02*
X-120535D01*
X151079Y171929D02*
Y181708D01*
X155033Y185662D01*
Y197329D01*
X-123819Y149228D02*
X-67535D01*
X-123819D02*
X-121275D01*
X226079Y171929D02*
Y181708D01*
X230033Y185662D01*
Y197329D01*
X-124409Y151016D02*
X-65780D01*
X-124409D02*
X-122016D01*
X-519881Y113205D02*
X-516014D01*
X-568882D02*
X-519881D01*
X-580000Y138976D02*
Y143500D01*
X-585000Y138976D02*
Y143500D01*
X-590000Y138976D02*
Y145630D01*
X-595000Y138976D02*
Y149094D01*
X-542688Y171929D02*
Y181708D01*
X-538733Y185662D01*
Y197329D01*
X-533688Y162769D02*
Y181929D01*
X-617710Y171929D02*
Y181708D01*
X-613755Y185662D01*
Y197329D01*
X-477709Y150441D02*
X-458666Y169484D01*
X-467666Y171929D02*
Y181708D01*
X-463711Y185662D01*
Y197329D01*
X-458666Y169484D02*
Y181929D01*
X-520078Y150441D02*
X-477709D01*
X-520078D02*
X-517085D01*
X-392644Y171929D02*
Y181708D01*
X-388689Y185662D01*
Y197329D01*
X-520274Y148653D02*
X-502197D01*
X-519095Y146866D02*
X-503756D01*
X-519487Y145079D02*
X-504496D01*
X-520274Y148653D02*
X-516345D01*
X-519095Y146866D02*
X-515604D01*
X-214541Y181358D02*
X-210587Y185313D01*
Y196979D01*
X-519487Y145079D02*
X-514864D01*
X-111323Y171580D02*
Y181358D01*
X-107368Y185313D01*
Y196979D01*
X-562894Y111417D02*
X-515274D01*
X-570000Y104311D02*
X-562894Y111417D01*
X-570000Y98976D02*
Y104311D01*
X-575000Y107087D02*
X-568882Y113205D01*
X-575000Y98976D02*
Y107087D01*
X-580000Y106220D02*
X-571228Y114992D01*
X-580000Y98976D02*
Y106220D01*
X-585000Y104764D02*
X-572984Y116779D01*
X-585000Y98976D02*
Y104764D01*
X-590000Y105079D02*
X-576512Y118567D01*
X-590000Y98976D02*
Y105079D01*
X-605000Y138976D02*
Y143500D01*
X-575000Y138976D02*
Y143500D01*
X-669921Y136929D02*
X-667126Y134134D01*
Y109134D02*
Y134134D01*
Y109134D02*
X-664921Y106929D01*
X-705401Y212598D02*
X-704732Y211929D01*
X-724606Y212598D02*
X-705401D01*
X18602Y421850D02*
X18799Y421654D01*
Y414567D02*
Y421654D01*
X23564Y453798D02*
X24168Y453194D01*
X30771Y455647D02*
X33026Y453391D01*
X14325Y453892D02*
X16080Y455647D01*
X30771D01*
X22199Y437446D02*
Y440354D01*
X11319Y421693D02*
X15216Y425591D01*
X18602D01*
X27264Y421850D02*
X31250D01*
X91535Y302362D02*
Y325472D01*
X85079Y331929D02*
X91535Y325472D01*
X-8622Y302913D02*
X-5709Y300000D01*
X-8622Y302913D02*
Y331929D01*
X-270827Y256929D02*
X-240197D01*
X-354866Y246929D02*
X-321787Y213850D01*
X-313622Y211929D02*
Y224685D01*
X-321787Y211929D02*
Y213850D01*
X-388644Y211929D02*
Y224668D01*
X-420905Y256929D02*
X-388644Y224668D01*
X-396809Y211929D02*
Y213832D01*
X-429906Y246929D02*
X-396809Y213832D01*
X-504945Y246929D02*
X-471831Y213815D01*
X-463666Y211929D02*
Y224650D01*
X-495945Y256929D02*
X-463666Y224650D01*
X-471831Y211929D02*
Y213815D01*
X-546852Y211929D02*
Y213797D01*
X-579984Y246929D02*
X-546852Y213797D01*
X-570984Y256929D02*
X-538688Y224633D01*
Y211929D02*
Y224633D01*
X-621874Y205448D02*
Y211929D01*
X-629710Y200299D02*
Y211929D01*
X-846940D02*
Y213727D01*
X-880142Y246929D02*
X-846940Y213727D01*
X-1021260Y246063D02*
X-988819Y213622D01*
X-1030221Y246929D02*
X-996984Y213692D01*
X200984Y394882D02*
X203031Y396929D01*
X210079D01*
X-1077339Y394347D02*
Y406929D01*
X-130417Y321929D02*
Y331708D01*
X-126463Y335662D01*
Y347329D01*
X-123622Y334134D02*
X-121417Y331929D01*
X-123622Y334134D02*
Y359134D01*
X-162535Y286929D02*
Y293243D01*
X-214939Y331929D02*
X-198693D01*
X-154370Y287607D01*
Y286929D02*
Y287607D01*
X-298938Y321929D02*
Y331708D01*
X-294983Y335662D01*
Y347329D01*
X-289938Y317890D02*
Y331929D01*
X-275827Y286929D02*
Y303780D01*
X-283992Y286929D02*
Y306983D01*
X-439934Y322611D02*
X-425906Y308583D01*
Y286929D02*
Y308583D01*
X-439934Y322611D02*
Y331929D01*
X-364936Y321826D02*
X-350866Y307756D01*
Y286929D02*
Y307756D01*
X-364936Y321826D02*
Y331929D01*
X-359031Y286929D02*
Y307024D01*
X-373936Y321929D02*
X-359031Y307024D01*
X-448934Y321929D02*
Y331708D01*
X-444980Y335662D01*
Y347329D01*
X-448934Y321929D02*
X-434070Y307065D01*
Y286929D02*
Y307065D01*
X-514933Y321232D02*
X-500945Y307244D01*
X-523933Y321929D02*
Y331708D01*
X-519978Y335662D01*
Y347329D01*
X-514933Y321232D02*
Y331929D01*
X-500945Y286929D02*
Y307244D01*
X-509110Y286929D02*
Y307106D01*
X-523933Y321929D02*
X-509110Y307106D01*
X-575984Y286929D02*
Y317982D01*
X-589931Y331929D02*
X-575984Y317982D01*
X-598931Y321929D02*
X-584149Y307147D01*
Y286929D02*
Y307147D01*
X-664929Y317685D02*
X-651024Y303780D01*
X-673930Y321929D02*
Y331708D01*
X-669975Y335662D01*
Y347329D01*
X-664929Y317685D02*
Y331929D01*
X-651024Y286929D02*
Y303780D01*
X-659188Y286929D02*
Y307188D01*
X-673930Y321929D02*
X-659188Y307188D01*
X-739928Y318668D02*
X-726063Y304803D01*
X-748928Y321929D02*
Y331708D01*
X-744973Y335662D01*
Y347329D01*
X-739928Y318668D02*
Y331929D01*
X-726063Y286929D02*
Y304803D01*
X-734228Y286929D02*
Y307229D01*
X-748928Y321929D02*
X-734228Y307229D01*
X-814926Y317288D02*
X-801102Y303465D01*
X-823926Y321929D02*
Y331708D01*
X-819972Y335662D01*
Y347329D01*
X-814926Y317288D02*
Y331929D01*
X-823926Y321929D02*
X-809267Y307270D01*
X-889925Y319649D02*
X-876142Y305866D01*
X-898925Y321929D02*
Y331708D01*
X-894970Y335662D01*
Y347329D01*
X-889925Y319649D02*
Y331929D01*
X-876142Y286929D02*
Y305866D01*
X-884306Y286929D02*
Y307311D01*
X-898925Y321929D02*
X-884306Y307311D01*
X-964923Y321813D02*
X-951181Y308071D01*
Y286929D02*
Y308071D01*
X-964923Y321813D02*
Y331929D01*
X-959346Y286929D02*
Y307352D01*
X-973923Y321929D02*
X-959346Y307352D01*
X-625678Y171854D02*
X-625603Y171929D01*
X-868386Y170669D02*
X-867126Y171929D01*
X-858775D01*
X-850744Y162992D02*
Y171854D01*
X-850669Y171929D01*
X-943407Y170669D02*
X-942148Y171929D01*
X-933797D01*
X-925766Y162992D02*
Y171854D01*
X-925691Y171929D01*
X-1018429Y170669D02*
X-1017169Y171929D01*
X-1008819D01*
X-1000787Y162992D02*
Y171854D01*
X-1000713Y171929D01*
X-305437Y245669D02*
X-304177Y246929D01*
X-295827D01*
X-287795Y237992D02*
Y246854D01*
X-287720Y246929D01*
X-380476Y245669D02*
X-379217Y246929D01*
X-370866D01*
X-362835Y237992D02*
Y246854D01*
X-362760Y246929D01*
X-455516Y245669D02*
X-454256Y246929D01*
X-445905D01*
X-437874Y237992D02*
Y246854D01*
X-437799Y246929D01*
X-530555Y245669D02*
X-529295Y246929D01*
X-520945D01*
X-512913Y237992D02*
Y246854D01*
X-512839Y246929D01*
X-605595Y245669D02*
X-604335Y246929D01*
X-595984D01*
X-587953Y237992D02*
Y246854D01*
X-587878Y246929D01*
X-680634Y245669D02*
X-679374Y246929D01*
X-671024D01*
X-662992Y237992D02*
Y246854D01*
X-662917Y246929D01*
X-755673Y245669D02*
X-754414Y246929D01*
X-746063D01*
X-738031Y237992D02*
Y246854D01*
X-737957Y246929D01*
X-813071Y237992D02*
Y246854D01*
X-812996Y246929D01*
X-905752Y245669D02*
X-904492Y246929D01*
X-888110Y237992D02*
Y246854D01*
X-888035Y246929D01*
X-980791Y245669D02*
X-979532Y246929D01*
X-971181D01*
X-963150Y237992D02*
Y246854D01*
X-963075Y246929D01*
X-1038189Y246854D02*
X-1038114Y246929D01*
X-1038189Y237992D02*
Y246854D01*
X-1054571Y246929D02*
X-1046220D01*
X-1055831Y245669D02*
X-1054571Y246929D01*
X-992128Y324134D02*
X-989923Y321929D01*
X-999460Y320472D02*
X-997245D01*
X-999460D02*
X-991380D01*
X-989923Y321929D01*
X-982072Y311811D02*
Y321674D01*
X-981817Y321929D01*
X-917129Y324134D02*
X-914925Y321929D01*
X-924462Y320472D02*
X-922246D01*
X-924462D02*
X-916381D01*
X-914925Y321929D01*
X-907073Y311811D02*
Y321674D01*
X-906818Y321929D01*
X-842131Y324134D02*
X-839926Y321929D01*
X-849464Y320472D02*
X-847248D01*
X-849464D02*
X-841383D01*
X-839926Y321929D01*
X-832075Y311811D02*
Y321674D01*
X-831820Y321929D01*
X-767133Y324134D02*
X-764928Y321929D01*
X-774465Y320472D02*
X-772250D01*
X-774465D02*
X-766385D01*
X-764928Y321929D01*
X-757077Y311811D02*
Y321674D01*
X-756821Y321929D01*
X-692134Y324134D02*
X-689929Y321929D01*
X-699467Y320472D02*
X-697251D01*
X-699467D02*
X-691386D01*
X-689929Y321929D01*
X-682078Y311811D02*
Y321674D01*
X-681823Y321929D01*
X-617136Y324134D02*
X-614931Y321929D01*
X-624469Y320472D02*
X-622253D01*
X-624469D02*
X-616388D01*
X-614931Y321929D01*
X-607080Y311811D02*
Y321674D01*
X-606825Y321929D01*
X-542137Y324134D02*
X-539933Y321929D01*
X-549470Y320472D02*
X-547255D01*
X-549470D02*
X-541389D01*
X-539933Y321929D01*
X-532082Y311811D02*
Y321674D01*
X-531826Y321929D01*
X-467139Y324134D02*
X-464934Y321929D01*
X-474472Y320472D02*
X-472256D01*
X-474472D02*
X-466391D01*
X-464934Y321929D01*
X-457083Y311811D02*
Y321674D01*
X-456828Y321929D01*
X-392141Y324134D02*
X-389936Y321929D01*
X-399473Y320472D02*
X-397258D01*
X-399473D02*
X-391393D01*
X-389936Y321929D01*
X-382085Y311811D02*
Y321674D01*
X-381830Y321929D01*
X-317142Y324134D02*
X-314938Y321929D01*
X-324475Y320472D02*
X-322260D01*
X-324475D02*
X-316394D01*
X-314938Y321929D01*
X-307087Y311811D02*
Y321674D01*
X-306831Y321929D01*
X-1067126Y324134D02*
X-1064921Y321929D01*
X-1074459Y320472D02*
X-1072243D01*
X-1074459D02*
X-1066378D01*
X-1064921Y321929D01*
X-1057070Y311811D02*
Y321674D01*
X-1056815Y321929D01*
X-242144Y324134D02*
X-239939Y321929D01*
X-249477Y320472D02*
X-247261D01*
X-249477D02*
X-241396D01*
X-239939Y321929D01*
X-232088Y311811D02*
Y321674D01*
X-231833Y321929D01*
X-279725Y399134D02*
X-277520Y396929D01*
X-287057Y395472D02*
X-278977D01*
X-277520Y396929D01*
X-269669Y386811D02*
Y396674D01*
X-269414Y396929D01*
X-354708Y399134D02*
X-352503Y396929D01*
X-362041Y395472D02*
X-359825D01*
X-362041D02*
X-353960D01*
X-352503Y396929D01*
X-344652Y386811D02*
Y396674D01*
X-344397Y396929D01*
X-429692Y399134D02*
X-427487Y396929D01*
X-437024Y395472D02*
X-434809D01*
X-437024D02*
X-428944D01*
X-427487Y396929D01*
X-419636Y386811D02*
Y396674D01*
X-419381Y396929D01*
X-504675Y399134D02*
X-502471Y396929D01*
X-512008Y395472D02*
X-509793D01*
X-512008D02*
X-503927D01*
X-502471Y396929D01*
X-494620Y386811D02*
Y396674D01*
X-494364Y396929D01*
X-579659Y399134D02*
X-577454Y396929D01*
X-586992Y395472D02*
X-584776D01*
X-586992D02*
X-578911D01*
X-577454Y396929D01*
X-569603Y386811D02*
Y396674D01*
X-569348Y396929D01*
X-654642Y399134D02*
X-652438Y396929D01*
X-661975Y395472D02*
X-659760D01*
X-661975D02*
X-653895D01*
X-652438Y396929D01*
X-644587Y386811D02*
Y396674D01*
X-644332Y396929D01*
X-729626Y399134D02*
X-727421Y396929D01*
X-736959Y395472D02*
X-734743D01*
X-736959D02*
X-728878D01*
X-727421Y396929D01*
X-719570Y386811D02*
Y396674D01*
X-719315Y396929D01*
X-804610Y399134D02*
X-802405Y396929D01*
X-811942Y395472D02*
X-809727D01*
X-811942D02*
X-803862D01*
X-802405Y396929D01*
X-794554Y396674D02*
X-794299Y396929D01*
X-879593Y399134D02*
X-877388Y396929D01*
X-886926Y395472D02*
X-884710D01*
X-886926D02*
X-878845D01*
X-877388Y396929D01*
X-869537Y386811D02*
Y396674D01*
X-869282Y396929D01*
X-954577Y399134D02*
X-952372Y396929D01*
X-961909Y395472D02*
X-959694D01*
X-961909D02*
X-953829D01*
X-952372Y396929D01*
X-944521Y386811D02*
Y396674D01*
X-944266Y396929D01*
X-870455Y395757D02*
X-869282Y396929D01*
X-870455Y386811D02*
Y395757D01*
X-1019810Y396368D02*
X-1019249Y396929D01*
X-1019810Y386811D02*
Y396368D01*
X-1094488Y396674D02*
X-1094233Y396929D01*
X-1094488Y386811D02*
Y396674D01*
X-1028812Y395472D02*
X-1027356Y396929D01*
X-1036942Y395472D02*
X-1028812D01*
X-1103796D02*
X-1102339Y396929D01*
X-1111877Y395472D02*
X-1103796D01*
X-1111877D02*
X-1109661D01*
X-1178819Y398425D02*
X-1177323Y396929D01*
X-1186811Y398425D02*
X-1178819D01*
X226079Y396929D02*
Y406708D01*
X230033Y410662D01*
Y422329D01*
X230079Y401929D02*
X235079Y406929D01*
X221914Y361929D02*
Y362543D01*
X226079Y366708D01*
X151079Y396929D02*
Y406708D01*
X146914Y362543D02*
X153059Y368688D01*
Y394949D01*
X151079Y396929D02*
X153059Y394949D01*
X151079Y406708D02*
X155033Y410662D01*
Y422329D01*
X155079Y401929D02*
X160079Y406929D01*
X155079Y361929D02*
Y401929D01*
X146914Y361929D02*
Y362543D01*
X76079Y396929D02*
Y406708D01*
X80033Y410662D01*
Y422329D01*
X85079Y366929D02*
Y406929D01*
X80079Y361929D02*
X85079Y366929D01*
X71914Y364750D02*
X76079Y368915D01*
X71914Y361929D02*
Y364750D01*
X76079Y368915D02*
Y396929D01*
X73871Y366708D02*
X76079Y368915D01*
X71914Y361929D02*
X73871Y363886D01*
X-17622Y396929D02*
Y406708D01*
X-13668Y410662D01*
Y422329D01*
X-21787Y361929D02*
Y362543D01*
X-402487Y394480D02*
X-369936Y361929D01*
X-402487Y394480D02*
Y406929D01*
X-378101Y361929D02*
Y363543D01*
X-411487Y396929D02*
X-378101Y363543D01*
X-477471Y394465D02*
X-444934Y361929D01*
X-477471Y394465D02*
Y406929D01*
X-486471Y395301D02*
X-453099Y361929D01*
X-486471Y395301D02*
Y396929D01*
X-552454Y394451D02*
X-519933Y361929D01*
X-552454Y394451D02*
Y406929D01*
X-561454Y395286D02*
X-528097Y361929D01*
X-561454Y395286D02*
Y396929D01*
X-627438Y394436D02*
X-594931Y361929D01*
X-627438Y394436D02*
Y406929D01*
X-636438Y395271D02*
X-603096Y361929D01*
X-636438Y395271D02*
Y396929D01*
X-678094Y361929D02*
Y363602D01*
X-777405Y394406D02*
Y406929D01*
X-753092Y361929D02*
Y363617D01*
X-852388Y394391D02*
X-819926Y361929D01*
X-852388Y394391D02*
Y406929D01*
X-828091Y361929D02*
Y363632D01*
X-861388Y396929D02*
X-828091Y363632D01*
X-903089Y361929D02*
Y363646D01*
X-936372Y396929D02*
X-903089Y363646D01*
X-927372Y394377D02*
X-894925Y361929D01*
X-927372Y394377D02*
Y406929D01*
X-1002356Y395466D02*
Y406929D01*
X-992819Y171929D02*
X-987535Y166645D01*
X-1039921Y321614D02*
X-1026221Y307913D01*
X-1039921Y321614D02*
Y331929D01*
X-1026221Y286929D02*
Y307913D01*
X-1021260Y256890D02*
X-1021220Y256929D01*
X-1021260Y246063D02*
Y256890D01*
X-988819Y211929D02*
Y213622D01*
X-996984Y211929D02*
Y213692D01*
X-1034385Y286929D02*
Y307393D01*
X-1048921Y321929D02*
X-1034385Y307393D01*
X-1146787Y361929D02*
Y382393D01*
X-1161323Y396929D02*
X-1146787Y382393D01*
X-1169217Y388508D02*
X-1167520Y386811D01*
X-1169217Y388508D02*
Y396929D01*
X214079Y125299D02*
Y136929D01*
X210039Y121260D02*
X214079Y125299D01*
X210039Y110433D02*
Y121260D01*
X218185Y96929D02*
Y102287D01*
X210039Y110433D02*
X218185Y102287D01*
X226079Y96929D02*
Y106591D01*
X230033Y110545D02*
Y122329D01*
X221914Y130448D02*
Y136929D01*
X226079Y106591D02*
X230033Y110545D01*
X221914Y130448D02*
X230033Y122329D01*
X230079Y136929D02*
X232874Y134134D01*
Y109134D02*
X235079Y106929D01*
X232874Y109134D02*
Y134134D01*
X205079Y126929D02*
X207874Y124134D01*
Y99134D02*
X210079Y96929D01*
X207874Y99134D02*
Y124134D01*
X143185Y96732D02*
Y102091D01*
X135039Y110236D02*
X143185Y102091D01*
X151079Y96732D02*
Y106394D01*
X157874Y108937D02*
X160079Y106732D01*
X132874Y98937D02*
X135079Y96732D01*
X45181Y106598D02*
Y118228D01*
X41142Y102559D02*
X45181Y106598D01*
X41142Y91732D02*
Y102559D01*
X49287Y78228D02*
Y83587D01*
X41142Y91732D02*
X49287Y83587D01*
X57181Y78228D02*
Y87890D01*
X61136Y91844D02*
Y103628D01*
X53016Y111747D02*
Y118228D01*
X57181Y87890D02*
X61136Y91844D01*
X53016Y111747D02*
X61136Y103628D01*
X61181Y118228D02*
X63976Y115433D01*
Y90433D02*
X66181Y88228D01*
X63976Y90433D02*
Y115433D01*
X36181Y108228D02*
X38976Y105433D01*
Y80433D02*
X41181Y78228D01*
X38976Y80433D02*
Y105433D01*
X-29622Y106598D02*
Y118228D01*
X-33661Y102559D02*
X-29622Y106598D01*
X-33661Y91732D02*
Y102559D01*
X-25516Y78228D02*
Y83587D01*
X-33661Y91732D02*
X-25516Y83587D01*
X-17622Y78228D02*
Y87890D01*
X-13668Y91844D02*
Y103628D01*
X-21787Y111747D02*
Y118228D01*
X-17622Y87890D02*
X-13668Y91844D01*
X-21787Y111747D02*
X-13668Y103628D01*
X-13622Y118228D02*
X-10827Y115433D01*
Y90433D02*
X-8622Y88228D01*
X-10827Y90433D02*
Y115433D01*
X-38622Y109850D02*
X-35827Y107055D01*
Y80433D02*
X-33622Y78228D01*
X-35827Y80433D02*
Y105433D01*
X-104425Y106598D02*
Y118228D01*
X-108465Y102559D02*
X-104425Y106598D01*
X-92425Y78228D02*
Y87890D01*
X-88471Y91844D02*
Y103628D01*
X-96590Y111747D02*
Y118228D01*
X-92425Y87890D02*
X-88471Y91844D01*
X-96590Y111747D02*
X-88471Y103628D01*
X-88425Y118228D02*
X-85630Y115433D01*
Y90433D02*
X-83425Y88228D01*
X-85630Y90433D02*
Y115433D01*
X-113425Y108228D02*
X-110630Y105433D01*
Y80433D02*
X-108425Y78228D01*
X-203665Y96929D02*
Y102287D01*
X-211811Y110433D02*
X-203665Y102287D01*
X-195772Y96929D02*
Y106591D01*
X-199936Y130448D02*
Y136929D01*
Y130448D02*
X-191817Y122329D01*
X-191772Y136929D02*
X-188976Y134134D01*
Y109134D02*
X-186772Y106929D01*
X-188976Y109134D02*
Y134134D01*
X-216772Y126929D02*
X-213976Y124134D01*
Y99134D02*
X-211772Y96929D01*
X-213976Y99134D02*
Y124134D01*
X-376472Y125299D02*
Y136929D01*
X-380512Y121260D02*
X-376472Y125299D01*
X-380512Y110433D02*
Y121260D01*
X-372366Y96929D02*
Y102287D01*
X-380512Y110433D02*
X-372366Y102287D01*
X-364472Y96929D02*
Y106591D01*
X-360518Y110545D02*
Y122329D01*
X-368637Y130448D02*
Y136929D01*
X-364472Y106591D02*
X-360518Y110545D01*
X-368637Y130448D02*
X-360518Y122329D01*
X-360472Y136929D02*
X-357677Y134134D01*
Y109134D02*
X-355472Y106929D01*
X-357677Y109134D02*
Y134134D01*
X-385472Y126929D02*
X-382677Y124134D01*
Y99134D02*
X-380472Y96929D01*
X-382677Y99134D02*
Y124134D01*
X-685921Y125299D02*
Y136929D01*
X-689961Y121260D02*
X-685921Y125299D01*
X-689961Y110433D02*
Y121260D01*
X-681815Y96929D02*
Y102287D01*
X-689961Y110433D02*
X-681815Y102287D01*
X-673921Y96929D02*
Y106591D01*
X-669967Y110545D02*
Y122329D01*
X-678086Y130448D02*
Y136929D01*
X-673921Y106591D02*
X-669967Y110545D01*
X-678086Y130448D02*
X-669967Y122329D01*
X-694921Y126929D02*
X-692126Y124134D01*
Y99134D02*
X-689921Y96929D01*
X-692126Y99134D02*
Y124134D01*
X-995370Y125299D02*
Y136929D01*
X-999409Y121260D02*
X-995370Y125299D01*
X-999409Y110433D02*
Y121260D01*
X-991264Y96929D02*
Y102287D01*
X-999409Y110433D02*
X-991264Y102287D01*
X-979370Y136929D02*
X-976575Y134134D01*
Y109134D02*
X-974370Y106929D01*
X-976575Y109134D02*
Y134134D01*
X-1004370Y126929D02*
X-1001575Y124134D01*
Y99134D02*
X-999370Y96929D01*
X-1001575Y99134D02*
Y124134D01*
X-1164071Y125299D02*
Y136929D01*
X-1168110Y121260D02*
X-1164071Y125299D01*
X-1152071Y96929D02*
Y106591D01*
X-1148116Y110545D02*
Y122329D01*
X-1156236Y130448D02*
Y136929D01*
X-1152071Y106591D02*
X-1148116Y110545D01*
X-1156236Y130448D02*
X-1148116Y122329D01*
X-1148071Y136929D02*
X-1145276Y134134D01*
Y109134D02*
X-1143071Y106929D01*
X-1145276Y109134D02*
Y134134D01*
X-1173071Y126929D02*
X-1170276Y124134D01*
Y99134D02*
X-1168071Y96929D01*
X-1126472Y200299D02*
Y211929D01*
X-1130512Y196260D02*
X-1126472Y200299D01*
X-1130512Y185433D02*
Y196260D01*
X-1122366Y171929D02*
Y177287D01*
X-1130512Y185433D02*
X-1122366Y177287D01*
X-1114472Y171929D02*
Y181591D01*
X-1110518Y185545D02*
Y197329D01*
X-1118637Y205448D02*
Y211929D01*
X-1114472Y181591D02*
X-1110518Y185545D01*
X-1118637Y205448D02*
X-1110518Y197329D01*
X-1110472Y211929D02*
X-1107677Y209134D01*
Y184134D02*
X-1105472Y181929D01*
X-1107677Y184134D02*
Y209134D01*
X-1135472Y201929D02*
X-1132677Y199134D01*
Y174134D02*
Y199134D01*
X-1004819Y200299D02*
Y211929D01*
X-1008858Y196260D02*
X-1004819Y200299D01*
X-1008858Y185433D02*
Y196260D01*
X-1000713Y171929D02*
Y177287D01*
X-1008858Y185433D02*
X-1000713Y177287D01*
X-996984Y205448D02*
Y211929D01*
Y205448D02*
X-988864Y197329D01*
X-988819Y211929D02*
X-986024Y209134D01*
Y184134D02*
X-983819Y181929D01*
X-986024Y184134D02*
Y209134D01*
X-1013819Y201929D02*
X-1011024Y199134D01*
Y174134D02*
X-1008819Y171929D01*
X-1011024Y174134D02*
Y199134D01*
X-929797Y200299D02*
Y211929D01*
X-933836Y196260D02*
X-929797Y200299D01*
X-933836Y185433D02*
Y196260D01*
X-925691Y171929D02*
Y177287D01*
X-933836Y185433D02*
X-925691Y177287D01*
X-911002Y184134D02*
X-908797Y181929D01*
X-938797Y201929D02*
X-936002Y199134D01*
Y174134D02*
X-933797Y171929D01*
X-936002Y174134D02*
Y199134D01*
X-854775Y200299D02*
Y211929D01*
X-858815Y196260D02*
X-854775Y200299D01*
X-858815Y185433D02*
Y196260D01*
X-850669Y171929D02*
Y177287D01*
X-858815Y185433D02*
X-850669Y177287D01*
X-846940Y205448D02*
Y211929D01*
Y205448D02*
X-838821Y197329D01*
X-838775Y211929D02*
X-835980Y209134D01*
Y184134D02*
X-833775Y181929D01*
X-835980Y184134D02*
Y209134D01*
X-863775Y201929D02*
X-860980Y199134D01*
Y174134D02*
X-858775Y171929D01*
X-860980Y174134D02*
Y199134D01*
X-779753Y200299D02*
Y211929D01*
X-783793Y196260D02*
X-779753Y200299D01*
X-783793Y185433D02*
Y196260D01*
X-775647Y171929D02*
Y177287D01*
X-783793Y185433D02*
X-775647Y177287D01*
X-771918Y205448D02*
Y211929D01*
Y205448D02*
X-763799Y197329D01*
X-763753Y211929D02*
X-760958Y209134D01*
Y184134D02*
X-758753Y181929D01*
X-760958Y184134D02*
Y209134D01*
X-788753Y201929D02*
X-785958Y199134D01*
Y174134D02*
Y199134D01*
X-704732Y200299D02*
Y211929D01*
X-708771Y196260D02*
X-704732Y200299D01*
X-708771Y185433D02*
Y196260D01*
X-700625Y171929D02*
Y177287D01*
X-708771Y185433D02*
X-700625Y177287D01*
X-688731Y211929D02*
X-685936Y209134D01*
Y184134D02*
X-683732Y181929D01*
X-710936Y174134D02*
Y199134D01*
X-633749Y196260D02*
X-629710Y200299D01*
X-633749Y185433D02*
Y196260D01*
X-625603Y171929D02*
Y177287D01*
X-633749Y185433D02*
X-625603Y177287D01*
X-621874Y205448D02*
X-613755Y197329D01*
X-613710Y211929D02*
X-610914Y209134D01*
Y184134D02*
X-608710Y181929D01*
X-638710Y201929D02*
X-635914Y199134D01*
Y174134D02*
Y199134D01*
X-554688Y200299D02*
Y211929D01*
X-558727Y196260D02*
X-554688Y200299D01*
X-558727Y185433D02*
Y196260D01*
X-550582Y171929D02*
Y177287D01*
X-558727Y185433D02*
X-550582Y177287D01*
X-546852Y205448D02*
Y211929D01*
Y205448D02*
X-538733Y197329D01*
X-538688Y211929D02*
X-535892Y209134D01*
Y184134D02*
X-533688Y181929D01*
X-535892Y184134D02*
Y209134D01*
X-563688Y201929D02*
X-560892Y199134D01*
Y174134D02*
Y199134D01*
X-479666Y200299D02*
Y211929D01*
X-483705Y196260D02*
X-479666Y200299D01*
X-483705Y185433D02*
Y196260D01*
X-475560Y171929D02*
Y177287D01*
X-483705Y185433D02*
X-475560Y177287D01*
X-471831Y205448D02*
Y211929D01*
Y205448D02*
X-463711Y197329D01*
X-463666Y211929D02*
X-460871Y209134D01*
Y184134D02*
X-458666Y181929D01*
X-460871Y184134D02*
Y209134D01*
X-488666Y201929D02*
X-485871Y199134D01*
Y174134D02*
X-483666Y171929D01*
X-485871Y174134D02*
Y199134D01*
X-404644Y200299D02*
Y211929D01*
X-408683Y196260D02*
X-404644Y200299D01*
X-408683Y185433D02*
Y196260D01*
X-400538Y171929D02*
Y177287D01*
X-408683Y185433D02*
X-400538Y177287D01*
X-396809Y205448D02*
Y211929D01*
Y205448D02*
X-388689Y197329D01*
X-388644Y211929D02*
X-385849Y209134D01*
Y184134D02*
X-383644Y181929D01*
X-385849Y184134D02*
Y209134D01*
X-413644Y201929D02*
X-410849Y199134D01*
Y174134D02*
X-408644Y171929D01*
X-410849Y174134D02*
Y199134D01*
X-329622Y200299D02*
Y211929D01*
X-333662Y196260D02*
X-329622Y200299D01*
X-333662Y185433D02*
Y196260D01*
X-325516Y171929D02*
Y177287D01*
X-333662Y185433D02*
X-325516Y177287D01*
X-321787Y205448D02*
Y211929D01*
Y205448D02*
X-313668Y197329D01*
X-313622Y211929D02*
X-310827Y209134D01*
Y184134D02*
X-308622Y181929D01*
X-338622Y201929D02*
X-335827Y199134D01*
Y174134D02*
X-333622Y171929D01*
X-335827Y174134D02*
Y199134D01*
X-226541Y199950D02*
Y211579D01*
X-230580Y195910D02*
X-226541Y199950D01*
X-230580Y185083D02*
Y195910D01*
X-218706Y205099D02*
Y211579D01*
Y205099D02*
X-210587Y196979D01*
X-235541Y201579D02*
X-232746Y198784D01*
Y173784D02*
X-230541Y171580D01*
X-232746Y173784D02*
Y198784D01*
X-184826Y171580D02*
Y176938D01*
X-192971Y185083D02*
X-184826Y176938D01*
X-172932Y211579D02*
X-170137Y208784D01*
X-197932Y201579D02*
X-195137Y198784D01*
Y173784D02*
X-192932Y171580D01*
X-195137Y173784D02*
Y198784D01*
X-123323Y199950D02*
Y211579D01*
X-127362Y195910D02*
X-123323Y199950D01*
X-127362Y185083D02*
Y195910D01*
X-119217Y171580D02*
Y176938D01*
X-127362Y185083D02*
X-119217Y176938D01*
X-115488Y205099D02*
Y211579D01*
Y205099D02*
X-107368Y196979D01*
X-107323Y211579D02*
X-104528Y208784D01*
Y183784D02*
Y208784D01*
X-132323Y201579D02*
X-129528Y198784D01*
Y173784D02*
X-127323Y171580D01*
X-129528Y173784D02*
Y198784D01*
X-29622Y181402D02*
Y193032D01*
X-33661Y177362D02*
X-29622Y181402D01*
X-33661Y166535D02*
Y177362D01*
X-25516Y153032D02*
Y158390D01*
X-33661Y166535D02*
X-25516Y158390D01*
X-21787Y186550D02*
Y193032D01*
Y186550D02*
X-13668Y178431D01*
X-13622Y193032D02*
X-10827Y190236D01*
Y165236D02*
X-8622Y163031D01*
X-10827Y165236D02*
Y190236D01*
X-38622Y183031D02*
X-35827Y180236D01*
Y155236D02*
X-33622Y153032D01*
X-35827Y155236D02*
Y180236D01*
X64079Y200299D02*
Y211929D01*
X60039Y196260D02*
X64079Y200299D01*
X60039Y185433D02*
Y196260D01*
X68185Y171929D02*
Y177287D01*
X60039Y185433D02*
X68185Y177287D01*
X71914Y205448D02*
Y211929D01*
Y205448D02*
X80033Y197329D01*
X80079Y211929D02*
X82874Y209134D01*
Y184134D02*
Y209134D01*
X55079Y201929D02*
X57874Y199134D01*
Y174134D02*
X60079Y171929D01*
X57874Y174134D02*
Y199134D01*
X139079Y200299D02*
Y211929D01*
X135039Y196260D02*
X139079Y200299D01*
X135039Y185433D02*
Y196260D01*
X143185Y171929D02*
Y177287D01*
X135039Y185433D02*
X143185Y177287D01*
X146914Y205448D02*
Y211929D01*
Y205448D02*
X155033Y197329D01*
X155079Y211929D02*
X157874Y209134D01*
Y184134D02*
X160079Y181929D01*
X157874Y184134D02*
Y209134D01*
X130079Y201929D02*
X132874Y199134D01*
Y174134D02*
X135079Y171929D01*
X132874Y174134D02*
Y199134D01*
X214079Y200299D02*
Y211929D01*
X210039Y196260D02*
X214079Y200299D01*
X210039Y185433D02*
Y196260D01*
X218185Y171929D02*
Y177287D01*
X210039Y185433D02*
X218185Y177287D01*
X221914Y205448D02*
Y211929D01*
Y205448D02*
X230033Y197329D01*
X230079Y211929D02*
X232874Y209134D01*
Y184134D02*
X235079Y181929D01*
X232874Y184134D02*
Y209134D01*
X205079Y201929D02*
X207874Y199134D01*
Y174134D02*
X210079Y171929D01*
X207874Y174134D02*
Y199134D01*
X305417Y160331D02*
X315079D01*
X275079Y156166D02*
X281560D01*
X301463Y164285D02*
X305417Y160331D01*
X275079Y164331D02*
X277874Y167126D01*
X302874D02*
X305079Y169331D01*
X312874Y142126D02*
X315079Y144331D01*
X275079Y298528D02*
X286709D01*
X290748Y294488D01*
X301575D01*
X309720Y302634D02*
X315079D01*
X301575Y294488D02*
X309720Y302634D01*
X305417Y310528D02*
X315079D01*
X289679Y314482D02*
X301463D01*
X275079Y306363D02*
X281560D01*
X301463Y314482D02*
X305417Y310528D01*
X281560Y306363D02*
X289679Y314482D01*
X275079Y314528D02*
X277874Y317323D01*
X302874D02*
X305079Y319528D01*
X277874Y317323D02*
X302874D01*
X285079Y289528D02*
X287874Y292323D01*
X312874D02*
X315079Y294528D01*
X287874Y292323D02*
X312874D01*
X214079Y275102D02*
Y286732D01*
X218185Y246732D02*
Y252091D01*
X210039Y260236D02*
X218185Y252091D01*
X221914Y280251D02*
Y286732D01*
X230079D02*
X232874Y283937D01*
Y258937D02*
X235079Y256732D01*
X207874Y248937D02*
X210079Y246732D01*
X135039Y271063D02*
X139079Y275102D01*
X135039Y260236D02*
Y271063D01*
X143185Y246732D02*
Y252091D01*
X135039Y260236D02*
X143185Y252091D01*
X151079Y246732D02*
Y256394D01*
X155033Y260348D02*
Y272132D01*
X151079Y256394D02*
X155033Y260348D01*
X146914Y280251D02*
X155033Y272132D01*
X155079Y286732D02*
X157874Y283937D01*
Y258937D02*
X160079Y256732D01*
X157874Y258937D02*
Y283937D01*
X130079Y276732D02*
X132874Y273937D01*
Y248937D02*
X135079Y246732D01*
X132874Y248937D02*
Y273937D01*
X64079Y275102D02*
Y286732D01*
X60039Y271063D02*
X64079Y275102D01*
X60039Y260236D02*
Y271063D01*
X68185Y246732D02*
Y252091D01*
X60039Y260236D02*
X68185Y252091D01*
X76079Y246732D02*
Y256394D01*
X80033Y260348D02*
Y272132D01*
X71914Y280251D02*
Y286732D01*
X76079Y256394D02*
X80033Y260348D01*
X71914Y280251D02*
X80033Y272132D01*
X80079Y286732D02*
X82874Y283937D01*
Y258937D02*
X85079Y256732D01*
X82874Y258937D02*
Y283937D01*
X55079Y276732D02*
X57874Y273937D01*
Y248937D02*
X60079Y246732D01*
X57874Y248937D02*
Y273937D01*
X-170370Y275299D02*
Y286929D01*
X-174409Y271260D02*
X-170370Y275299D01*
X-174409Y260433D02*
Y271260D01*
X-166264Y246929D02*
Y252287D01*
X-174409Y260433D02*
X-166264Y252287D01*
X-158370Y246929D02*
Y256591D01*
X-154416Y260545D02*
Y272329D01*
X-162535Y280448D02*
Y286929D01*
X-158370Y256591D02*
X-154416Y260545D01*
X-162535Y280448D02*
X-154416Y272329D01*
X-154370Y286929D02*
X-151575Y284134D01*
Y259134D02*
X-149370Y256929D01*
X-151575Y259134D02*
Y284134D01*
X-179370Y276929D02*
X-176575Y274134D01*
Y249134D02*
X-174370Y246929D01*
X-176575Y249134D02*
Y274134D01*
X-291827Y275299D02*
Y286929D01*
X-295866Y271260D02*
X-291827Y275299D01*
X-295866Y260433D02*
Y271260D01*
X-287720Y246929D02*
Y252287D01*
X-295866Y260433D02*
X-287720Y252287D01*
X-279827Y246929D02*
Y256591D01*
X-275872Y260545D02*
Y272329D01*
X-283992Y280448D02*
Y286929D01*
X-279827Y256591D02*
X-275872Y260545D01*
X-283992Y280448D02*
X-275872Y272329D01*
X-275827Y286929D02*
X-273031Y284134D01*
Y259134D02*
X-270827Y256929D01*
X-273031Y259134D02*
Y284134D01*
X-300827Y276929D02*
X-298031Y274134D01*
Y249134D02*
X-295827Y246929D01*
X-298031Y249134D02*
Y274134D01*
X-366866Y275299D02*
Y286929D01*
X-370905Y271260D02*
X-366866Y275299D01*
X-370905Y260433D02*
Y271260D01*
X-362760Y246929D02*
Y252287D01*
X-370905Y260433D02*
X-362760Y252287D01*
X-354866Y246929D02*
Y256591D01*
X-350912Y260545D02*
Y272329D01*
X-359031Y280448D02*
Y286929D01*
X-354866Y256591D02*
X-350912Y260545D01*
X-359031Y280448D02*
X-350912Y272329D01*
X-350866Y286929D02*
X-348071Y284134D01*
Y259134D02*
X-345866Y256929D01*
X-348071Y259134D02*
Y284134D01*
X-375866Y276929D02*
X-373071Y274134D01*
Y249134D02*
X-370866Y246929D01*
X-373071Y249134D02*
Y274134D01*
X-441905Y275299D02*
Y286929D01*
X-445945Y271260D02*
X-441905Y275299D01*
X-445945Y260433D02*
Y271260D01*
X-437799Y246929D02*
Y252287D01*
X-445945Y260433D02*
X-437799Y252287D01*
X-429906Y246929D02*
Y256591D01*
X-425951Y260545D02*
Y272329D01*
X-434070Y280448D02*
Y286929D01*
X-429906Y256591D02*
X-425951Y260545D01*
X-434070Y280448D02*
X-425951Y272329D01*
X-425906Y286929D02*
X-423110Y284134D01*
Y259134D02*
X-420905Y256929D01*
X-423110Y259134D02*
Y284134D01*
X-450906Y276929D02*
X-448110Y274134D01*
Y249134D02*
X-445905Y246929D01*
X-448110Y249134D02*
Y274134D01*
X-516945Y275299D02*
Y286929D01*
X-520984Y271260D02*
X-516945Y275299D01*
X-520984Y260433D02*
Y271260D01*
X-512839Y246929D02*
Y252287D01*
X-520984Y260433D02*
X-512839Y252287D01*
X-504945Y246929D02*
Y256591D01*
X-500990Y260545D02*
Y272329D01*
X-509110Y280448D02*
Y286929D01*
X-504945Y256591D02*
X-500990Y260545D01*
X-509110Y280448D02*
X-500990Y272329D01*
X-500945Y286929D02*
X-498150Y284134D01*
Y259134D02*
X-495945Y256929D01*
X-498150Y259134D02*
Y284134D01*
X-525945Y276929D02*
X-523150Y274134D01*
Y249134D02*
X-520945Y246929D01*
X-523150Y249134D02*
Y274134D01*
X-591984Y275299D02*
Y286929D01*
X-596024Y271260D02*
X-591984Y275299D01*
X-596024Y260433D02*
Y271260D01*
X-587878Y246929D02*
Y252287D01*
X-596024Y260433D02*
X-587878Y252287D01*
X-579984Y246929D02*
Y256591D01*
X-576030Y260545D02*
Y272329D01*
X-584149Y280448D02*
Y286929D01*
X-579984Y256591D02*
X-576030Y260545D01*
X-584149Y280448D02*
X-576030Y272329D01*
X-575984Y286929D02*
X-573189Y284134D01*
Y259134D02*
X-570984Y256929D01*
X-573189Y259134D02*
Y284134D01*
X-600984Y276929D02*
X-598189Y274134D01*
Y249134D02*
X-595984Y246929D01*
X-598189Y249134D02*
Y274134D01*
X-667024Y275299D02*
Y286929D01*
X-671063Y271260D02*
X-667024Y275299D01*
X-671063Y260433D02*
Y271260D01*
X-662917Y246929D02*
Y252287D01*
X-671063Y260433D02*
X-662917Y252287D01*
X-655024Y246929D02*
Y256591D01*
X-651069Y260545D02*
Y272329D01*
X-659188Y280448D02*
Y286929D01*
X-655024Y256591D02*
X-651069Y260545D01*
X-659188Y280448D02*
X-651069Y272329D01*
X-651024Y286929D02*
X-648228Y284134D01*
Y259134D02*
X-646024Y256929D01*
X-648228Y259134D02*
Y284134D01*
X-676024Y276929D02*
X-673228Y274134D01*
Y249134D02*
X-671024Y246929D01*
X-673228Y249134D02*
Y274134D01*
X-742063Y275299D02*
Y286929D01*
X-746102Y271260D02*
X-742063Y275299D01*
X-746102Y260433D02*
Y271260D01*
X-737957Y246929D02*
Y252287D01*
X-746102Y260433D02*
X-737957Y252287D01*
X-730063Y246929D02*
Y256591D01*
X-726109Y260545D02*
Y272329D01*
X-734228Y280448D02*
Y286929D01*
X-730063Y256591D02*
X-726109Y260545D01*
X-734228Y280448D02*
X-726109Y272329D01*
X-726063Y286929D02*
X-723268Y284134D01*
Y259134D02*
X-721063Y256929D01*
X-723268Y259134D02*
Y284134D01*
X-751063Y276929D02*
X-748268Y274134D01*
Y249134D02*
X-746063Y246929D01*
X-748268Y249134D02*
Y274134D01*
X-817102Y275299D02*
Y286929D01*
X-821142Y271260D02*
X-817102Y275299D01*
X-821142Y260433D02*
Y271260D01*
X-812996Y246929D02*
Y252287D01*
X-821142Y260433D02*
X-812996Y252287D01*
X-805102Y246929D02*
Y256591D01*
X-801148Y260545D02*
Y272329D01*
X-809267Y280448D02*
Y286929D01*
X-805102Y256591D02*
X-801148Y260545D01*
X-809267Y280448D02*
X-801148Y272329D01*
X-801102Y286929D02*
X-798307Y284134D01*
Y259134D02*
X-796102Y256929D01*
X-798307Y259134D02*
Y284134D01*
X-826102Y276929D02*
X-823307Y274134D01*
Y249134D02*
X-821102Y246929D01*
X-823307Y249134D02*
Y274134D01*
X-892142Y275299D02*
Y286929D01*
X-896181Y271260D02*
X-892142Y275299D01*
X-896181Y260433D02*
Y271260D01*
X-888035Y246929D02*
Y252287D01*
X-896181Y260433D02*
X-888035Y252287D01*
X-880142Y246929D02*
Y256591D01*
X-876187Y260545D02*
Y272329D01*
X-884306Y280448D02*
Y286929D01*
X-880142Y256591D02*
X-876187Y260545D01*
X-884306Y280448D02*
X-876187Y272329D01*
X-876142Y286929D02*
X-873347Y284134D01*
Y259134D02*
X-871142Y256929D01*
X-873347Y259134D02*
Y284134D01*
X-901142Y276929D02*
X-898347Y274134D01*
Y249134D02*
X-896142Y246929D01*
X-898347Y249134D02*
Y274134D01*
X-967181Y275299D02*
Y286929D01*
X-971220Y271260D02*
X-967181Y275299D01*
X-971220Y260433D02*
Y271260D01*
X-963075Y246929D02*
Y252287D01*
X-971220Y260433D02*
X-963075Y252287D01*
X-955181Y246929D02*
Y256591D01*
X-951227Y260545D02*
Y272329D01*
X-959346Y280448D02*
Y286929D01*
X-955181Y256591D02*
X-951227Y260545D01*
X-959346Y280448D02*
X-951227Y272329D01*
X-951181Y286929D02*
X-948386Y284134D01*
Y259134D02*
X-946181Y256929D01*
X-948386Y259134D02*
Y284134D01*
X-976181Y276929D02*
X-973386Y274134D01*
Y249134D02*
X-971181Y246929D01*
X-973386Y249134D02*
Y274134D01*
X-1042220Y275299D02*
Y286929D01*
X-1046260Y271260D02*
X-1042220Y275299D01*
X-1046260Y260433D02*
Y271260D01*
X-1038114Y246929D02*
Y252287D01*
X-1046260Y260433D02*
X-1038114Y252287D01*
X-1030221Y246929D02*
Y256591D01*
X-1026266Y260545D02*
Y272329D01*
X-1034385Y280448D02*
Y286929D01*
X-1030221Y256591D02*
X-1026266Y260545D01*
X-1034385Y280448D02*
X-1026266Y272329D01*
X-1026221Y286929D02*
X-1023425Y284134D01*
Y259134D02*
X-1021220Y256929D01*
X-1023425Y259134D02*
Y284134D01*
X-1051221Y276929D02*
X-1048425Y274134D01*
Y249134D02*
X-1046220Y246929D01*
X-1048425Y249134D02*
Y274134D01*
X-1154622Y350299D02*
Y361929D01*
X-1158661Y346260D02*
X-1154622Y350299D01*
X-1158661Y335433D02*
Y346260D01*
X-1150516Y321929D02*
Y327287D01*
X-1158661Y335433D02*
X-1150516Y327287D01*
X-1142622Y321929D02*
Y331591D01*
X-1138667Y335545D02*
Y347329D01*
X-1146787Y355448D02*
Y361929D01*
X-1142622Y331591D02*
X-1138667Y335545D01*
X-1146787Y355448D02*
X-1138667Y347329D01*
X-1138622Y361929D02*
X-1135827Y359134D01*
Y334134D02*
X-1133622Y331929D01*
X-1135827Y334134D02*
Y359134D01*
X-1163622Y351929D02*
X-1160827Y349134D01*
Y324134D02*
Y349134D01*
X-1060921Y350299D02*
Y361929D01*
X-1064961Y346260D02*
X-1060921Y350299D01*
X-1064961Y335433D02*
Y346260D01*
X-1056815Y321929D02*
Y327287D01*
X-1064961Y335433D02*
X-1056815Y327287D01*
X-1048921Y321929D02*
Y331591D01*
X-1044967Y335545D02*
Y347329D01*
X-1053086Y355448D02*
Y361929D01*
X-1048921Y331591D02*
X-1044967Y335545D01*
X-1053086Y355448D02*
X-1044967Y347329D01*
X-1044921Y361929D02*
X-1042126Y359134D01*
Y334134D02*
X-1039921Y331929D01*
X-1042126Y334134D02*
Y359134D01*
X-1069921Y351929D02*
X-1067126Y349134D01*
Y324134D02*
X-1064921Y321929D01*
X-1067126Y324134D02*
Y349134D01*
X-985923Y350299D02*
Y361929D01*
X-989962Y346260D02*
X-985923Y350299D01*
X-989962Y335433D02*
Y346260D01*
X-981817Y321929D02*
Y327287D01*
X-989962Y335433D02*
X-981817Y327287D01*
X-973923Y321929D02*
Y331591D01*
X-969968Y335545D02*
Y347329D01*
X-978088Y355448D02*
Y361929D01*
X-973923Y331591D02*
X-969968Y335545D01*
X-978088Y355448D02*
X-969968Y347329D01*
X-969923Y361929D02*
X-967128Y359134D01*
Y334134D02*
X-964923Y331929D01*
X-967128Y334134D02*
Y359134D01*
X-994923Y351929D02*
X-992128Y349134D01*
Y324134D02*
X-989923Y321929D01*
X-992128Y324134D02*
Y349134D01*
X-910925Y350299D02*
Y361929D01*
X-914964Y346260D02*
X-910925Y350299D01*
X-914964Y335433D02*
Y346260D01*
X-906818Y321929D02*
Y327287D01*
X-914964Y335433D02*
X-906818Y327287D01*
X-903089Y355448D02*
Y361929D01*
Y355448D02*
X-894970Y347329D01*
X-894925Y361929D02*
X-892129Y359134D01*
Y334134D02*
X-889925Y331929D01*
X-892129Y334134D02*
Y359134D01*
X-919925Y351929D02*
X-917129Y349134D01*
Y324134D02*
X-914925Y321929D01*
X-917129Y324134D02*
Y349134D01*
X-835926Y350299D02*
Y361929D01*
X-839966Y346260D02*
X-835926Y350299D01*
X-839966Y335433D02*
Y346260D01*
X-828091Y355448D02*
Y361929D01*
Y355448D02*
X-819972Y347329D01*
X-819926Y361929D02*
X-817131Y359134D01*
Y334134D02*
X-814926Y331929D01*
X-817131Y334134D02*
Y359134D01*
X-844926Y351929D02*
X-842131Y349134D01*
Y324134D02*
X-839926Y321929D01*
X-756821D02*
Y327287D01*
X-753092Y355448D02*
Y361929D01*
Y355448D02*
X-744973Y347329D01*
X-744928Y361929D02*
X-742133Y359134D01*
Y334134D02*
X-739928Y331929D01*
X-742133Y334134D02*
Y359134D01*
X-767133Y324134D02*
X-764928Y321929D01*
X-685929Y350299D02*
Y361929D01*
X-689969Y346260D02*
X-685929Y350299D01*
X-689969Y335433D02*
Y346260D01*
X-681823Y321929D02*
Y327287D01*
X-689969Y335433D02*
X-681823Y327287D01*
X-678094Y355448D02*
Y361929D01*
Y355448D02*
X-669975Y347329D01*
X-669930Y361929D02*
X-667134Y359134D01*
Y334134D02*
X-664929Y331929D01*
X-667134Y334134D02*
Y359134D01*
X-694930Y351929D02*
X-692134Y349134D01*
Y324134D02*
X-689929Y321929D01*
X-692134Y324134D02*
Y349134D01*
X-610931Y350299D02*
Y361929D01*
X-614970Y346260D02*
X-610931Y350299D01*
X-614970Y335433D02*
Y346260D01*
X-606825Y321929D02*
Y327287D01*
X-614970Y335433D02*
X-606825Y327287D01*
X-598931Y321929D02*
Y331591D01*
X-603096Y355448D02*
Y361929D01*
Y355448D02*
X-594977Y347329D01*
X-594931Y361929D02*
X-592136Y359134D01*
Y334134D02*
X-589931Y331929D01*
X-592136Y334134D02*
Y359134D01*
X-619931Y351929D02*
X-617136Y349134D01*
Y324134D02*
X-614931Y321929D01*
X-617136Y324134D02*
Y349134D01*
X-535933Y350299D02*
Y361929D01*
X-539972Y346260D02*
X-535933Y350299D01*
X-539972Y335433D02*
Y346260D01*
X-531826Y321929D02*
Y327287D01*
X-539972Y335433D02*
X-531826Y327287D01*
X-528097Y355448D02*
Y361929D01*
Y355448D02*
X-519978Y347329D01*
X-519933Y361929D02*
X-517137Y359134D01*
Y334134D02*
X-514933Y331929D01*
X-517137Y334134D02*
Y359134D01*
X-544933Y351929D02*
X-542137Y349134D01*
Y324134D02*
X-539933Y321929D01*
X-542137Y324134D02*
Y349134D01*
X-460934Y350299D02*
Y361929D01*
X-464974Y346260D02*
X-460934Y350299D01*
X-464974Y335433D02*
Y346260D01*
X-456828Y321929D02*
Y327287D01*
X-464974Y335433D02*
X-456828Y327287D01*
X-453099Y355448D02*
Y361929D01*
Y355448D02*
X-444980Y347329D01*
X-444934Y361929D02*
X-442139Y359134D01*
Y334134D02*
X-439934Y331929D01*
X-442139Y334134D02*
Y359134D01*
X-469934Y351929D02*
X-467139Y349134D01*
Y324134D02*
X-464934Y321929D01*
X-467139Y324134D02*
Y349134D01*
X-385936Y350299D02*
Y361929D01*
X-389975Y346260D02*
X-385936Y350299D01*
X-389975Y335433D02*
Y346260D01*
X-381830Y321929D02*
Y327287D01*
X-389975Y335433D02*
X-381830Y327287D01*
X-373936Y321929D02*
Y331591D01*
X-378101Y355448D02*
Y361929D01*
Y355448D02*
X-369982Y347329D01*
X-369936Y361929D02*
X-367141Y359134D01*
Y334134D02*
X-364936Y331929D01*
X-367141Y334134D02*
Y359134D01*
X-394936Y351929D02*
X-392141Y349134D01*
Y324134D02*
X-389936Y321929D01*
X-392141Y324134D02*
Y349134D01*
X-310938Y350299D02*
Y361929D01*
X-314977Y346260D02*
X-310938Y350299D01*
X-314977Y335433D02*
Y346260D01*
X-306831Y321929D02*
Y327287D01*
X-314977Y335433D02*
X-306831Y327287D01*
X-303102Y355448D02*
Y361929D01*
Y355448D02*
X-294983Y347329D01*
X-294938Y361929D02*
X-292142Y359134D01*
Y334134D02*
X-289938Y331929D01*
X-292142Y334134D02*
Y359134D01*
X-319938Y351929D02*
X-317142Y349134D01*
Y324134D02*
X-314938Y321929D01*
X-317142Y324134D02*
Y349134D01*
X-235939Y350299D02*
Y361929D01*
X-239979Y346260D02*
X-235939Y350299D01*
X-239979Y335433D02*
Y346260D01*
X-231833Y321929D02*
Y327287D01*
X-239979Y335433D02*
X-231833Y327287D01*
X-223939Y321929D02*
Y331591D01*
X-228104Y355448D02*
Y361929D01*
Y355448D02*
X-219985Y347329D01*
X-219939Y361929D02*
X-217144Y359134D01*
Y334134D02*
X-214939Y331929D01*
X-217144Y334134D02*
Y359134D01*
X-244939Y351929D02*
X-242144Y349134D01*
Y324134D02*
X-239939Y321929D01*
X-242144Y324134D02*
Y349134D01*
X-142417Y350299D02*
Y361929D01*
X-146457Y346260D02*
X-142417Y350299D01*
X-146457Y335433D02*
Y346260D01*
X-138311Y321929D02*
Y327287D01*
X-146457Y335433D02*
X-138311Y327287D01*
X-134582Y355448D02*
Y361929D01*
Y355448D02*
X-126463Y347329D01*
X-126417Y361929D02*
X-123622Y359134D01*
X-151417Y351929D02*
X-148622Y349134D01*
Y324134D02*
X-146417Y321929D01*
X-148622Y324134D02*
Y349134D01*
X-29622Y350299D02*
Y361929D01*
X-33661Y346260D02*
X-29622Y350299D01*
X-33661Y335433D02*
Y346260D01*
Y335433D02*
X-25516Y327287D01*
X-17622Y321929D02*
Y331591D01*
X-13668Y335545D02*
Y347329D01*
X-21787Y355448D02*
Y361929D01*
X-17622Y331591D02*
X-13668Y335545D01*
X-21787Y355448D02*
X-13668Y347329D01*
X-13622Y361929D02*
X-10827Y359134D01*
Y334134D02*
X-8622Y331929D01*
X-10827Y334134D02*
Y359134D01*
X-38622Y351929D02*
X-35827Y349134D01*
Y324134D02*
X-33622Y321929D01*
X-35827Y324134D02*
Y349134D01*
X64079Y350299D02*
Y361929D01*
X60039Y346260D02*
X64079Y350299D01*
X60039Y335433D02*
Y346260D01*
X68185Y321929D02*
Y327287D01*
X60039Y335433D02*
X68185Y327287D01*
X76079Y321929D02*
Y331591D01*
X80033Y335545D02*
Y347329D01*
X71914Y355448D02*
Y361929D01*
X76079Y331591D02*
X80033Y335545D01*
X71914Y355448D02*
X80033Y347329D01*
X80079Y361929D02*
X82874Y359134D01*
Y334134D02*
X85079Y331929D01*
X82874Y334134D02*
Y359134D01*
X55079Y351929D02*
X57874Y349134D01*
Y324134D02*
X60079Y321929D01*
X57874Y324134D02*
Y349134D01*
X139079Y350299D02*
Y361929D01*
X135039Y346260D02*
X139079Y350299D01*
X135039Y335433D02*
Y346260D01*
X143185Y321929D02*
Y327287D01*
X135039Y335433D02*
X143185Y327287D01*
X151079Y321929D02*
Y331591D01*
X155033Y335545D02*
Y347329D01*
X146914Y355448D02*
Y361929D01*
X151079Y331591D02*
X155033Y335545D01*
X146914Y355448D02*
X155033Y347329D01*
X155079Y361929D02*
X157874Y359134D01*
Y334134D02*
X160079Y331929D01*
X157874Y334134D02*
Y359134D01*
X130079Y351929D02*
X132874Y349134D01*
Y324134D02*
X135079Y321929D01*
X132874Y324134D02*
Y349134D01*
X214079Y350299D02*
Y361929D01*
X210039Y346260D02*
X214079Y350299D01*
X210039Y335433D02*
Y346260D01*
X218185Y321929D02*
Y327287D01*
X210039Y335433D02*
X218185Y327287D01*
X221914Y355448D02*
Y361929D01*
Y355448D02*
X230033Y347329D01*
X230079Y361929D02*
X232874Y359134D01*
Y334134D02*
X235079Y331929D01*
X232874Y334134D02*
Y359134D01*
X205079Y351929D02*
X207874Y349134D01*
Y324134D02*
X210079Y321929D01*
X207874Y324134D02*
Y349134D01*
X289079Y425299D02*
Y436929D01*
X285039Y421260D02*
X289079Y425299D01*
X285039Y410433D02*
Y421260D01*
X293185Y396929D02*
Y402287D01*
X285039Y410433D02*
X293185Y402287D01*
X301079Y396929D02*
Y406591D01*
X305033Y410545D02*
Y422329D01*
X296914Y430448D02*
Y436929D01*
X301079Y406591D02*
X305033Y410545D01*
X296914Y430448D02*
X305033Y422329D01*
X305079Y436929D02*
X307874Y434134D01*
Y409134D02*
X310079Y406929D01*
X307874Y409134D02*
Y434134D01*
X280079Y426929D02*
X282874Y424134D01*
Y399134D02*
X285079Y396929D01*
X282874Y399134D02*
Y424134D01*
X214079Y425299D02*
Y436929D01*
X210039Y421260D02*
X214079Y425299D01*
X210039Y410433D02*
Y421260D01*
X218185Y396929D02*
Y402287D01*
X210039Y410433D02*
X218185Y402287D01*
X221914Y430448D02*
Y436929D01*
Y430448D02*
X230033Y422329D01*
X230079Y436929D02*
X232874Y434134D01*
Y409134D02*
X235079Y406929D01*
X232874Y409134D02*
Y434134D01*
X205079Y426929D02*
X207874Y424134D01*
Y399134D02*
X210079Y396929D01*
X207874Y399134D02*
Y424134D01*
X139079Y425299D02*
Y436929D01*
X135039Y421260D02*
X139079Y425299D01*
X135039Y410433D02*
Y421260D01*
X143185Y396929D02*
Y402287D01*
X135039Y410433D02*
X143185Y402287D01*
X146914Y430448D02*
Y436929D01*
Y430448D02*
X155033Y422329D01*
X155079Y436929D02*
X157874Y434134D01*
Y409134D02*
X160079Y406929D01*
X157874Y409134D02*
Y434134D01*
X130079Y426929D02*
X132874Y424134D01*
Y399134D02*
X135079Y396929D01*
X132874Y399134D02*
Y424134D01*
X64079Y425299D02*
Y436929D01*
X60039Y421260D02*
X64079Y425299D01*
X60039Y410433D02*
Y421260D01*
X68185Y396929D02*
Y402287D01*
X60039Y410433D02*
X68185Y402287D01*
X71914Y430448D02*
Y436929D01*
Y430448D02*
X80033Y422329D01*
X80079Y436929D02*
X82874Y434134D01*
Y409134D02*
X85079Y406929D01*
X82874Y409134D02*
Y434134D01*
X55079Y426929D02*
X57874Y424134D01*
Y399134D02*
X60079Y396929D01*
X57874Y399134D02*
Y424134D01*
X-29622Y425299D02*
Y436929D01*
X-33661Y421260D02*
X-29622Y425299D01*
X-33661Y410433D02*
Y421260D01*
X-25516Y396929D02*
Y402287D01*
X-33661Y410433D02*
X-25516Y402287D01*
X-21787Y430448D02*
Y436929D01*
Y430448D02*
X-13668Y422329D01*
X-13622Y436929D02*
X-10827Y434134D01*
Y409134D02*
X-8622Y406929D01*
X-10827Y409134D02*
Y434134D01*
X-38622Y426929D02*
X-35827Y424134D01*
Y399134D02*
X-33622Y396929D01*
X-35827Y399134D02*
Y424134D01*
X-160921Y425299D02*
Y436929D01*
X-164961Y421260D02*
X-160921Y425299D01*
X-164961Y410433D02*
Y421260D01*
X-156815Y396929D02*
Y402287D01*
X-164961Y410433D02*
X-156815Y402287D01*
X-153086Y430448D02*
Y436929D01*
X-169921Y426929D02*
X-167126Y424134D01*
Y399134D02*
Y424134D01*
X-273520Y425299D02*
Y436929D01*
X-269414Y396929D02*
Y402287D01*
X-261520Y396929D02*
Y406591D01*
X-257565Y410545D02*
Y422329D01*
X-265685Y430448D02*
Y436929D01*
X-261520Y406591D02*
X-257565Y410545D01*
X-265685Y430448D02*
X-257565Y422329D01*
X-257520Y436929D02*
X-254725Y434134D01*
Y409134D02*
X-252520Y406929D01*
X-254725Y409134D02*
Y434134D01*
X-282520Y426929D02*
X-279725Y424134D01*
X-348503Y425299D02*
Y436929D01*
X-352543Y421260D02*
X-348503Y425299D01*
X-352543Y410433D02*
Y421260D01*
X-344397Y396929D02*
Y402287D01*
X-352543Y410433D02*
X-344397Y402287D01*
X-336504Y396929D02*
Y406591D01*
X-332549Y410545D02*
Y422329D01*
X-340668Y430448D02*
Y436929D01*
X-336504Y406591D02*
X-332549Y410545D01*
X-340668Y430448D02*
X-332549Y422329D01*
X-332504Y436929D02*
X-329708Y434134D01*
Y409134D02*
X-327503Y406929D01*
X-329708Y409134D02*
Y434134D01*
X-357504Y426929D02*
X-354708Y424134D01*
Y399134D02*
X-352503Y396929D01*
X-354708Y399134D02*
Y424134D01*
X-423487Y425299D02*
Y436929D01*
X-427526Y421260D02*
X-423487Y425299D01*
X-427526Y410433D02*
Y421260D01*
X-419381Y396929D02*
Y402287D01*
X-427526Y410433D02*
X-419381Y402287D01*
X-411487Y396929D02*
Y406591D01*
X-407533Y410545D02*
Y422329D01*
X-415652Y430448D02*
Y436929D01*
X-411487Y406591D02*
X-407533Y410545D01*
X-415652Y430448D02*
X-407533Y422329D01*
X-407487Y436929D02*
X-404692Y434134D01*
Y409134D02*
X-402487Y406929D01*
X-404692Y409134D02*
Y434134D01*
X-432487Y426929D02*
X-429692Y424134D01*
Y399134D02*
X-427487Y396929D01*
X-429692Y399134D02*
Y424134D01*
X-498471Y425299D02*
Y436929D01*
X-502510Y421260D02*
X-498471Y425299D01*
X-502510Y410433D02*
Y421260D01*
X-494364Y396929D02*
Y402287D01*
X-502510Y410433D02*
X-494364Y402287D01*
X-486471Y396929D02*
Y406591D01*
X-482516Y410545D02*
Y422329D01*
X-490635Y430448D02*
Y436929D01*
X-486471Y406591D02*
X-482516Y410545D01*
X-490635Y430448D02*
X-482516Y422329D01*
X-482471Y436929D02*
X-479675Y434134D01*
Y409134D02*
X-477471Y406929D01*
X-479675Y409134D02*
Y434134D01*
X-507471Y426929D02*
X-504675Y424134D01*
Y399134D02*
X-502471Y396929D01*
X-504675Y399134D02*
Y424134D01*
X-573454Y425299D02*
Y436929D01*
X-577494Y421260D02*
X-573454Y425299D01*
X-577494Y410433D02*
Y421260D01*
X-569348Y396929D02*
Y402287D01*
X-577494Y410433D02*
X-569348Y402287D01*
X-561454Y396929D02*
Y406591D01*
X-557500Y410545D02*
Y422329D01*
X-565619Y430448D02*
Y436929D01*
X-561454Y406591D02*
X-557500Y410545D01*
X-565619Y430448D02*
X-557500Y422329D01*
X-557454Y436929D02*
X-554659Y434134D01*
Y409134D02*
X-552454Y406929D01*
X-554659Y409134D02*
Y434134D01*
X-582454Y426929D02*
X-579659Y424134D01*
Y399134D02*
X-577454Y396929D01*
X-579659Y399134D02*
Y424134D01*
X-648438Y425299D02*
Y436929D01*
X-652477Y421260D02*
X-648438Y425299D01*
X-652477Y410433D02*
Y421260D01*
X-644332Y396929D02*
Y402287D01*
X-652477Y410433D02*
X-644332Y402287D01*
X-636438Y396929D02*
Y406591D01*
X-632483Y410545D02*
Y422329D01*
X-640602Y430448D02*
Y436929D01*
X-636438Y406591D02*
X-632483Y410545D01*
X-640602Y430448D02*
X-632483Y422329D01*
X-632438Y436929D02*
X-629642Y434134D01*
Y409134D02*
X-627438Y406929D01*
X-629642Y409134D02*
Y434134D01*
X-657438Y426929D02*
X-654642Y424134D01*
Y399134D02*
X-652438Y396929D01*
X-654642Y399134D02*
Y424134D01*
X-715586Y430448D02*
Y436929D01*
Y430448D02*
X-707467Y422329D01*
X-707421Y436929D02*
X-704626Y434134D01*
Y409134D02*
X-702421Y406929D01*
X-704626Y409134D02*
Y434134D01*
X-732421Y426929D02*
X-729626Y424134D01*
Y399134D02*
X-727421Y396929D01*
X-798405Y425299D02*
Y436929D01*
X-794299Y396929D02*
Y402287D01*
X-786405Y396929D02*
Y406591D01*
X-790570Y430448D02*
Y436929D01*
X-782405D02*
X-779610Y434134D01*
Y409134D02*
X-777405Y406929D01*
X-804610Y399134D02*
X-802405Y396929D01*
X-873388Y425299D02*
Y436929D01*
X-877428Y421260D02*
X-873388Y425299D01*
X-877428Y410433D02*
Y421260D01*
X-869282Y396929D02*
Y402287D01*
X-877428Y410433D02*
X-869282Y402287D01*
X-861388Y396929D02*
Y406591D01*
X-857434Y410545D02*
Y422329D01*
X-865553Y430448D02*
Y436929D01*
X-861388Y406591D02*
X-857434Y410545D01*
X-865553Y430448D02*
X-857434Y422329D01*
X-857388Y436929D02*
X-854593Y434134D01*
Y409134D02*
X-852388Y406929D01*
X-854593Y409134D02*
Y434134D01*
X-882388Y426929D02*
X-879593Y424134D01*
Y399134D02*
X-877388Y396929D01*
X-879593Y399134D02*
Y424134D01*
X-948372Y425299D02*
Y436929D01*
X-952411Y421260D02*
X-948372Y425299D01*
X-952411Y410433D02*
Y421260D01*
X-944266Y396929D02*
Y402287D01*
X-952411Y410433D02*
X-944266Y402287D01*
X-936372Y396929D02*
Y406591D01*
X-932418Y410545D02*
Y422329D01*
X-940537Y430448D02*
Y436929D01*
X-936372Y406591D02*
X-932418Y410545D01*
X-940537Y430448D02*
X-932418Y422329D01*
X-932372Y436929D02*
X-929577Y434134D01*
Y409134D02*
X-927372Y406929D01*
X-929577Y409134D02*
Y434134D01*
X-957372Y426929D02*
X-954577Y424134D01*
Y399134D02*
Y424134D01*
X-1023356Y425299D02*
Y436929D01*
X-1027395Y421260D02*
X-1023356Y425299D01*
X-1027395Y410433D02*
Y421260D01*
X-1019249Y396929D02*
Y402287D01*
X-1027395Y410433D02*
X-1019249Y402287D01*
X-1011356Y396929D02*
Y406591D01*
X-1007401Y410545D02*
Y422329D01*
X-1015520Y430448D02*
Y436929D01*
X-1011356Y406591D02*
X-1007401Y410545D01*
X-1015520Y430448D02*
X-1007401Y422329D01*
X-1007356Y436929D02*
X-1004560Y434134D01*
Y409134D02*
X-1002356Y406929D01*
X-1004560Y409134D02*
Y434134D01*
X-1032356Y426929D02*
X-1029560Y424134D01*
Y399134D02*
X-1027356Y396929D01*
X-1029560Y399134D02*
Y424134D01*
X-1098339Y425299D02*
Y436929D01*
X-1102379Y421260D02*
X-1098339Y425299D01*
X-1102379Y410433D02*
Y421260D01*
X-1094233Y396929D02*
Y402287D01*
X-1102379Y410433D02*
X-1094233Y402287D01*
X-1086339Y396929D02*
Y406591D01*
X-1082385Y410545D02*
Y422329D01*
X-1090504Y430448D02*
Y436929D01*
X-1086339Y406591D02*
X-1082385Y410545D01*
X-1090504Y430448D02*
X-1082385Y422329D01*
X-1082339Y436929D02*
X-1079544Y434134D01*
Y409134D02*
X-1077339Y406929D01*
X-1079544Y409134D02*
Y434134D01*
X-1107339Y426929D02*
X-1104544Y424134D01*
Y399134D02*
X-1102339Y396929D01*
X-1104544Y399134D02*
Y424134D01*
X-1179528Y399134D02*
Y424134D01*
Y399134D02*
X-1177323Y396929D01*
X-1182323Y426929D02*
X-1179528Y424134D01*
X-1154528Y409134D02*
Y434134D01*
Y409134D02*
X-1152323Y406929D01*
X-1157323Y436929D02*
X-1154528Y434134D01*
X-1165487Y430448D02*
X-1157368Y422329D01*
X-1165487Y430448D02*
Y436929D01*
X-1177362Y410433D02*
X-1169217Y402287D01*
Y396929D02*
Y402287D01*
X-1177362Y410433D02*
Y421260D01*
X-1173323Y425299D01*
Y436929D01*
X-417817Y206102D02*
X-413644Y201929D01*
X-426203Y206102D02*
X-417817D01*
X-342717Y213386D02*
X-331079D01*
X-329622Y211929D01*
X-346457Y206102D02*
X-342795D01*
X-338622Y201929D01*
X-247210Y211579D02*
X-226541D01*
X-249016Y213386D02*
X-247210Y211579D01*
X-249803Y206102D02*
X-240064D01*
X-235541Y201579D01*
X-184252Y245276D02*
X-182598Y246929D01*
X-174370D01*
X49803Y245276D02*
X51260Y246732D01*
X60079D01*
X45276Y201575D02*
X54724D01*
X55079Y201929D01*
X-176932Y181358D02*
X-172977Y185313D01*
X-176932Y171580D02*
Y181358D01*
X85079Y181929D02*
X87598Y179409D01*
Y142323D02*
Y179409D01*
X-101165Y143685D02*
X-95866Y138386D01*
X-122244Y143685D02*
X-101165D01*
X-313668Y185662D02*
Y197329D01*
X-317622Y181708D02*
X-313668Y185662D01*
X-317622Y171929D02*
Y181708D01*
X-214541Y171580D02*
Y181358D01*
X-230580Y185083D02*
X-222435Y176938D01*
Y171580D02*
Y176938D01*
X-205541Y160010D02*
Y181579D01*
X-223939Y321929D02*
X-191220D01*
X-306689Y157287D02*
X-303346Y160630D01*
Y176653D01*
X-308622Y181929D02*
X-303346Y176653D01*
X-165404Y145472D02*
X-123819D01*
X-166145Y143685D02*
X-122244D01*
X-213026Y157665D02*
X-207886D01*
X-205541Y160010D01*
X-216652Y151512D02*
X-212285Y155878D01*
X-217392Y153299D02*
X-213026Y157665D01*
X-212285Y155878D02*
X-168226D01*
X-211545Y154090D02*
X-168967D01*
X-210805Y152303D02*
X-169707D01*
X-168226Y155878D02*
X-163364Y151016D01*
X-124409D01*
X-168967Y154090D02*
X-164104Y149228D01*
X-123819D01*
X-169707Y152303D02*
X-164845Y147441D01*
X-122638D01*
X-170448Y150516D02*
X-165404Y145472D01*
X-171188Y148728D02*
X-166145Y143685D01*
X-221260Y136614D02*
X-211023D01*
X-208087D01*
X-223228D02*
X-211023D01*
X-225590Y134252D02*
X-223228Y136614D01*
X-225984Y128347D02*
X-218189D01*
X-216772Y126929D01*
X-192971Y185083D02*
Y195910D01*
X-188932Y199950D01*
Y211579D01*
X-181097Y205099D02*
Y211579D01*
X-170137Y183784D02*
X-167932Y181579D01*
X-172977Y185313D02*
Y196979D01*
X-181097Y205099D02*
X-172977Y196979D01*
X-170137Y183784D02*
Y208784D01*
X125394Y153543D02*
X208858D01*
X126134Y151756D02*
X226165D01*
X127381Y149213D02*
X160827D01*
X111830Y133661D02*
X127381Y149213D01*
X155079Y136732D02*
X157874Y133937D01*
X151079Y106394D02*
X155033Y110348D01*
X157874Y108937D02*
Y133937D01*
X155033Y110348D02*
Y122132D01*
X130079Y126732D02*
X132874Y123937D01*
Y98937D02*
Y123937D01*
X135039Y110236D02*
Y121063D01*
X139079Y125102D01*
X146914Y130251D02*
Y136732D01*
Y130251D02*
X155033Y122132D01*
X139079Y125102D02*
Y136732D01*
X-284327Y136929D02*
X-266653D01*
X-220382Y90658D01*
X-199894D01*
X-195772Y94779D01*
Y96929D01*
X-100319Y78228D02*
Y83587D01*
X-108465Y91732D02*
Y102559D01*
Y91732D02*
X-100319Y83587D01*
X-110630Y80433D02*
Y105433D01*
X-729708Y106512D02*
Y108891D01*
X-595000Y98976D02*
X-594488Y99488D01*
X-590000Y145630D02*
X-585189Y150441D01*
X-813780Y128543D02*
Y147047D01*
Y128543D02*
X-804921D01*
X-825984D02*
X-813780D01*
X-838780Y130157D02*
X-837165Y128543D01*
X-825984D01*
X-826720Y126130D02*
X-825984Y125394D01*
X-841929Y138779D02*
X-838780D01*
X-842527Y127459D02*
X-841199Y126130D01*
X-838976Y150591D02*
X-838780Y150394D01*
Y146260D02*
Y150394D01*
X-645866Y213386D02*
X-631166D01*
X-629710Y211929D01*
X-648622Y206102D02*
X-642883D01*
X-638710Y201929D01*
X-669921Y136929D02*
X-643032D01*
X-637598Y131496D01*
X-610000Y135138D02*
Y138976D01*
X-637598Y131496D02*
X-613642D01*
X-610000Y135138D01*
X-632283Y159055D02*
X-625000Y151772D01*
X-629071Y160843D02*
X-620000Y151772D01*
X-613827Y164417D02*
X-605000Y155590D01*
X-625858Y162630D02*
X-615000Y151772D01*
X-798032Y150640D02*
X-790206Y158465D01*
X-615000Y138976D02*
Y151772D01*
X-620000Y138976D02*
Y151772D01*
X-625000Y138976D02*
Y151772D01*
X-816929Y147047D02*
Y152953D01*
X-819685Y158268D02*
X-813780Y152362D01*
X-810630Y142520D02*
Y147047D01*
Y142520D02*
X-809252Y141142D01*
X-782677D01*
X-798597Y157505D02*
X-794316D01*
X-767753Y181708D02*
X-763799Y185662D01*
X-767753Y171929D02*
Y181708D01*
X-919882Y99016D02*
X-892520Y126378D01*
X-931890Y99016D02*
X-919882D01*
X-979416Y110662D02*
Y122329D01*
X-983370Y106708D02*
X-979416Y110662D01*
X-983370Y96929D02*
Y106708D01*
X-768898Y94882D02*
Y103150D01*
X-983819Y155866D02*
X-979528Y151575D01*
X-988864Y185662D02*
Y197329D01*
X-992819Y181708D02*
X-988864Y185662D01*
X-992819Y171929D02*
Y181708D01*
X-983819Y155866D02*
Y181929D01*
X-828271Y162523D02*
X-824016Y158268D01*
X-819685D01*
Y155709D02*
X-816929Y152953D01*
X-828543Y155709D02*
X-819685D01*
X-824606Y147047D02*
X-820079D01*
X-838821Y185662D02*
Y197329D01*
X-828740Y170003D02*
Y175658D01*
X-842775Y181708D02*
X-838821Y185662D01*
X-842775Y171929D02*
Y181708D01*
X-820276Y186650D02*
Y223819D01*
X-809252Y195146D02*
Y228740D01*
X-828740Y175658D02*
X-809252Y195146D01*
X-830713Y245669D02*
X-829453Y246929D01*
X-821102D01*
X-834646Y172280D02*
X-820276Y186650D01*
X-834646Y157087D02*
X-824606Y147047D01*
X-832488Y159653D02*
X-828543Y155709D01*
X-834646Y157087D02*
Y172280D01*
X-832488Y159653D02*
Y166255D01*
X-828740Y170003D01*
X-801181Y147047D02*
Y154921D01*
X-798597Y157505D01*
X-804331Y147047D02*
Y161971D01*
X-803543Y162759D01*
X-794316Y157505D02*
X-791388Y160433D01*
X-892520Y126378D02*
Y134449D01*
X-841199Y126130D02*
X-826720D01*
X-838346Y122244D02*
X-825984D01*
X-767520Y146653D02*
X-748032D01*
X-747835Y146457D01*
X-774994Y164689D02*
X-767753Y171929D01*
X-820079Y103740D02*
Y111221D01*
X-821653Y112795D02*
X-820079Y111221D01*
X-825984Y112795D02*
X-821653D01*
X-782677Y137992D02*
X-768701D01*
X-796063Y170003D02*
X-790749Y164689D01*
X-774994D01*
X-785039Y147047D02*
X-777559Y154528D01*
X-782677Y141142D02*
X-773031D01*
X-767520Y146653D01*
X-782677Y134843D02*
X-736220D01*
X-782677Y131693D02*
X-734842D01*
X-782677Y128543D02*
X-730709D01*
X-782677Y109646D02*
X-775394D01*
X-768898Y103150D01*
X-782677Y119095D02*
X-777578D01*
X-768658Y110175D01*
X-744995D01*
X-791388Y160433D02*
X-763583D01*
X-790206Y158465D02*
X-763023D01*
X-769928Y351929D02*
X-767133Y349134D01*
X-777405Y394406D02*
X-744928Y361929D01*
X-786405Y396929D02*
X-753092Y363617D01*
X-760928Y350299D02*
Y361929D01*
X-764967Y346260D02*
X-760928Y350299D01*
X-764967Y335433D02*
Y346260D01*
Y335433D02*
X-756821Y327287D01*
X-767133Y324134D02*
Y349134D01*
X-786405Y406591D02*
X-782450Y410545D01*
X-779610Y409134D02*
Y434134D01*
X-782450Y410545D02*
Y422329D01*
X-790570Y430448D02*
X-782450Y422329D01*
X-802444Y421260D02*
X-798405Y425299D01*
X-802444Y410433D02*
Y421260D01*
Y410433D02*
X-794299Y402287D01*
X-807405Y426929D02*
X-804610Y424134D01*
Y399134D02*
Y424134D01*
X-794554Y386811D02*
Y396674D01*
X-542126Y154331D02*
X-533688Y162769D01*
X-579847Y148653D02*
X-575394D01*
X-573422Y145079D02*
X-519487D01*
X-576634Y146866D02*
X-519095D01*
X-575394Y148653D02*
X-520274D01*
X-585189Y150441D02*
X-520078D01*
X-589764Y154331D02*
X-542126D01*
X-542688Y162627D02*
Y171929D01*
X-547835Y157480D02*
X-542688Y162627D01*
X-569095Y157480D02*
X-547835D01*
X-326315Y157287D02*
X-306689D01*
X-426602D02*
X-326315D01*
X-598931Y331591D02*
X-594977Y335545D01*
Y347329D01*
X-373936Y331591D02*
X-369982Y335545D01*
Y347329D01*
X-223939Y331591D02*
X-219985Y335545D01*
Y347329D01*
X-653756Y154528D02*
X-650591Y151362D01*
Y147638D02*
Y151362D01*
X-777559Y154528D02*
X-653756D01*
X-656693Y147835D02*
X-656102Y148425D01*
X-720276Y150787D02*
X-658858D01*
X-714764Y144488D02*
X-654724D01*
X-688975Y142126D02*
X-675118D01*
X-703585Y136929D02*
X-685921D01*
X-725591Y128150D02*
X-711614Y142126D01*
X-688975D01*
X18799Y404327D02*
Y407087D01*
X29626Y404327D02*
Y407087D01*
X12205Y305511D02*
X12795Y306102D01*
X-913797Y211929D02*
Y224545D01*
X-904492Y246929D02*
X-896142D01*
X-908797Y181929D02*
X-892520Y165652D01*
Y134449D02*
Y165652D01*
X-870231Y105104D02*
X-869177Y104051D01*
X-826075Y115854D02*
X-825984Y115945D01*
X-849197Y101787D02*
X-845685Y105299D01*
X-866095Y101787D02*
X-849197D01*
X-870231Y105104D02*
X-866898Y101772D01*
X-866110D01*
X-866095Y101787D01*
X-867638Y99984D02*
X-847260D01*
X-885236Y120110D02*
X-870231Y105104D01*
X-887402Y119748D02*
X-867638Y99984D01*
X-887402Y119748D02*
Y207087D01*
X-885236Y120110D02*
Y207449D01*
X-847260Y99984D02*
X-843898Y103347D01*
X-919685Y241898D02*
X-885236Y207449D01*
X-922153Y302597D02*
X-920708Y304043D01*
X-922153Y300552D02*
Y302597D01*
Y300552D02*
X-921472Y299871D01*
X-913842Y185662D02*
Y197329D01*
X-921962Y205448D02*
Y211929D01*
Y205448D02*
X-913842Y197329D01*
X-911002Y184134D02*
Y209134D01*
X-913797Y211929D02*
X-911002Y209134D01*
X-955181Y246929D02*
X-921962Y213710D01*
Y211929D02*
Y213710D01*
X-946181Y256929D02*
X-913797Y224545D01*
X-919685Y241898D02*
Y301575D01*
X-921472Y241158D02*
X-887402Y207087D01*
X-921472Y241158D02*
Y299871D01*
X-916839Y304043D02*
X-916535Y303740D01*
X-920708Y304043D02*
X-916839D01*
X-838780Y100640D02*
Y104921D01*
X-842527Y127459D02*
Y138181D01*
X-841929Y138779D01*
X-610914Y184134D02*
Y209134D01*
X-646024Y256929D02*
X-613710Y224615D01*
Y211929D02*
Y224615D01*
X-425197Y213386D02*
X-406101D01*
X-404644Y211929D01*
X9783Y449968D02*
X10147D01*
X-138779Y313189D02*
X-138311Y313657D01*
Y321929D01*
X-155897Y321222D02*
X-147124D01*
X-146417Y321929D01*
X-210541Y201614D02*
Y211579D01*
Y201614D02*
X-208156Y199229D01*
Y184195D02*
Y199229D01*
Y184195D02*
X-205541Y181579D01*
X-655024Y246929D02*
X-621874Y213780D01*
Y211929D02*
Y213780D01*
X-327503Y394495D02*
Y406929D01*
X-336504Y396929D02*
X-333740D01*
X-327503Y394495D02*
X-294938Y361929D01*
X-333740Y396929D02*
X-303102Y366291D01*
Y361929D02*
Y366291D01*
X-261520Y396929D02*
X-259331D01*
X-252520Y394510D02*
Y406929D01*
Y394510D02*
X-219939Y361929D01*
X-259331Y396929D02*
X-228104Y365702D01*
Y361929D02*
Y365702D01*
X-696896Y211929D02*
Y213762D01*
X-730063Y246929D02*
X-696896Y213762D01*
X-729626Y399134D02*
Y424134D01*
X-727461Y410433D02*
Y421260D01*
X-723421Y425299D01*
Y436929D01*
X-711421Y406591D02*
X-707467Y410545D01*
Y422329D01*
X-711421Y396929D02*
Y406591D01*
X-702421Y394421D02*
X-669930Y361929D01*
X-702421Y394421D02*
Y406929D01*
X-719315Y396929D02*
Y402287D01*
X-727461Y410433D02*
X-719315Y402287D01*
X-711421Y396929D02*
X-678094Y363602D01*
X-721063Y244261D02*
X-688731Y211929D01*
X-721063Y244261D02*
Y256929D01*
X-731693Y104528D02*
X-729708Y106512D01*
X-744995Y107003D02*
Y110175D01*
Y107003D02*
X-742520Y104528D01*
X-731693D01*
X-13898Y193032D02*
X-13622D01*
X-289938Y317890D02*
X-275827Y303780D01*
X-298938Y321929D02*
X-283992Y306983D01*
X-699409Y274961D02*
X-693807Y269358D01*
X-694488Y234252D02*
X-693807Y234933D01*
Y269358D01*
X-696896Y205448D02*
Y211929D01*
Y205448D02*
X-688777Y197329D01*
Y185662D02*
Y197329D01*
X-685936Y184134D02*
Y209134D01*
X-643882Y156677D02*
X-639392Y152188D01*
X-718701Y147835D02*
X-656693D01*
X-786630Y156677D02*
X-643882D01*
X-752362Y161811D02*
X-749606Y159055D01*
X-750197Y164370D02*
X-746669Y160843D01*
X-748228Y167520D02*
X-743339Y162630D01*
X-683732Y181929D02*
X-666220Y164417D01*
X-749606Y159055D02*
X-632283D01*
X-746669Y160843D02*
X-629071D01*
X-743339Y162630D02*
X-625858D01*
X-666220Y164417D02*
X-613827D01*
X-796102Y256929D02*
X-763753Y224580D01*
Y211929D02*
Y224580D01*
X-750197Y223622D02*
X-746563Y219988D01*
X-763583Y160433D02*
X-745760Y178256D01*
X-763023Y158465D02*
X-743701Y177787D01*
X-746563Y201801D02*
Y219988D01*
Y201801D02*
X-743701Y198939D01*
Y177787D02*
Y198939D01*
X-748350Y201061D02*
X-745760Y198470D01*
Y178256D02*
Y198470D01*
X-820079Y162601D02*
X-812756D01*
X-812598Y162759D01*
X-803543Y169845D02*
X-796220D01*
X-796063Y170003D01*
X-748350Y201061D02*
Y215870D01*
X-753346Y220866D02*
X-748350Y215870D01*
X-753346Y220866D02*
Y223622D01*
X-52694Y239506D02*
Y256824D01*
X28346Y441928D02*
X28543Y442125D01*
X24168Y444533D02*
X25878Y442823D01*
X40294Y455170D02*
Y455564D01*
Y455958D01*
Y456351D01*
Y467690D01*
Y468084D01*
Y468477D01*
Y468871D01*
Y469265D01*
Y469659D01*
Y470052D01*
Y470446D01*
Y470840D01*
X6239Y454383D02*
Y454777D01*
Y455170D01*
Y455564D01*
Y455958D01*
Y456351D01*
Y467690D01*
Y468084D01*
Y468477D01*
Y468871D01*
Y469265D01*
Y469659D01*
Y470052D01*
Y470446D01*
Y470840D01*
Y471233D01*
X6632D02*
X39113D01*
X6239Y470840D02*
X6632Y471233D01*
X39113D02*
X40294Y472414D01*
X20313Y452998D02*
X21174Y453859D01*
X23369Y453798D02*
X23564D01*
X20313Y450013D02*
Y452998D01*
X21174Y453859D02*
X23225D01*
X23307D01*
X23286Y453798D02*
X23369D01*
X24168Y450013D02*
Y453194D01*
X23307Y453859D02*
X23369Y453798D01*
X23225Y453859D02*
X23286Y453798D01*
X-722859Y117655D02*
X-703585Y136929D01*
X-808752Y164657D02*
Y165457D01*
X-812598Y169304D02*
X-808752Y165457D01*
Y164657D02*
X-807480Y163386D01*
Y147047D02*
Y163386D01*
X-813780Y113706D02*
Y128543D01*
X-814690Y112795D02*
X-813780Y113706D01*
X-821653Y112795D02*
X-814690D01*
X-788583Y103740D02*
Y108943D01*
X-793346Y113706D02*
X-788583Y108943D01*
X-813780Y113706D02*
X-793346D01*
X-799105Y115945D02*
X-782677D01*
X-843898Y103347D02*
Y114952D01*
X-842996Y115854D01*
X-826075D01*
X-845685Y105299D02*
Y115693D01*
X-842283Y119095D01*
X-825984D01*
X-868420Y135090D02*
X-864730Y138779D01*
X-868420Y115230D02*
Y135090D01*
X-844685Y146260D02*
X-838780D01*
X-845640Y145305D02*
X-844685Y146260D01*
X-845640Y122677D02*
Y145305D01*
Y122677D02*
X-838780D01*
X-864020Y115010D02*
X-854290D01*
X-846623Y122677D01*
X-845640D01*
X-800640Y117480D02*
X-799105Y115945D01*
X-793701Y91611D02*
X-792820Y90730D01*
X-793701Y91611D02*
Y95079D01*
X-793504Y94882D02*
X-791732Y96654D01*
X-792820Y90730D02*
X-776980D01*
X-776378Y91332D01*
Y94882D01*
X24861Y221457D02*
Y242430D01*
X9921Y221730D02*
Y242430D01*
X24900Y242469D02*
Y250690D01*
X9960Y242469D02*
Y250690D01*
X-64830Y269780D02*
X-45830D01*
X-43317Y267267D01*
Y260624D02*
Y267267D01*
X-66110Y282087D02*
X-52413D01*
X-66110Y271060D02*
X-64830Y269780D01*
X-66110Y271060D02*
Y274606D01*
X21100Y260068D02*
Y272480D01*
X5028Y282087D02*
X11323D01*
X13620Y279790D01*
Y272480D02*
Y279790D01*
X-139921Y390301D02*
Y406929D01*
Y390301D02*
X-126417Y376797D01*
Y361929D02*
Y376797D01*
X-148921Y396774D02*
Y396929D01*
Y396774D02*
X-134582Y382434D01*
X-167126Y399134D02*
X-164921Y396929D01*
X-148921D02*
Y407879D01*
X-144500Y412300D01*
Y421862D01*
X-153086Y430448D02*
X-144500Y421862D01*
X-142900Y409908D02*
X-139921Y406929D01*
X-142900Y409908D02*
Y434908D01*
X-144921Y436929D02*
X-142900Y434908D01*
X-224000Y399528D02*
X-215098D01*
X-212500Y396929D01*
X-202536D01*
X-206800Y401193D02*
X-202536Y396929D01*
X-206800Y401193D02*
Y426193D01*
X-207536Y426929D02*
X-206800Y426193D01*
X-198536Y429406D02*
Y436929D01*
X-204100Y411100D02*
X-194430Y401430D01*
Y396929D02*
Y401430D01*
X-204100Y411100D02*
Y415974D01*
X-102553Y406929D02*
X-95400Y399776D01*
Y372300D02*
Y399776D01*
X-105771Y361929D02*
X-95400Y372300D01*
X-126417Y361929D02*
X-105771D01*
X-194430Y394970D02*
Y396929D01*
Y394970D02*
X-186536Y387076D01*
D13*
X-126000Y422900D02*
G03*
X-123553Y428808I-5908J5908D01*
G01*
X-1186811Y377600D02*
Y392717D01*
Y318110D02*
Y377600D01*
X-1156600D01*
X-51700Y384100D02*
X-47700Y380100D01*
X-38300D01*
X-36614Y381786D01*
Y386417D01*
X-165787Y396063D02*
X-164921Y396929D01*
X-156815Y373600D02*
Y378460D01*
X-156023Y386732D02*
X-155118Y385827D01*
X-156815Y385940D02*
Y396929D01*
Y385940D02*
X-156815Y385940D01*
X-174606Y377500D02*
Y388583D01*
X-1149213Y172441D02*
Y181283D01*
X-1186811Y192520D02*
X-1177601Y183310D01*
X-1151240D01*
X-1149213Y181283D01*
X-60159Y216339D02*
X-50591D01*
X-131299Y287479D02*
X-60159Y216339D01*
X-131299Y287479D02*
Y313189D01*
X-220882Y312220D02*
X-220490D01*
X-221850Y313189D02*
X-220882Y312220D01*
X-1164071Y276087D02*
Y286929D01*
X-1170079Y270079D02*
X-1164071Y276087D01*
X-1170079Y262205D02*
Y270079D01*
Y262205D02*
X-1159252Y251378D01*
X-142717Y209646D02*
X-125257D01*
X-146457Y213386D02*
X-142717Y209646D01*
X-150197Y213386D02*
X-146457D01*
X197441Y239567D02*
X201378D01*
X192520Y244488D02*
X197441Y239567D01*
X192520Y244488D02*
Y306458D01*
X59449Y385433D02*
X62598D01*
X43504Y369488D02*
X59449Y385433D01*
X43504Y313976D02*
Y369488D01*
X-826772Y205512D02*
Y239094D01*
X-831299Y216535D02*
Y229921D01*
X-827441Y239764D02*
X-826772Y239094D01*
X-845158Y243779D02*
X-831299Y229921D01*
X-845158Y243779D02*
Y315354D01*
X-316339Y143424D02*
X-238959D01*
X-167004Y141610D02*
X-127165D01*
X-172047Y146653D02*
X-167004Y141610D01*
X-208465Y146653D02*
X-172047D01*
X30709Y125787D02*
X72244D01*
X34104Y425591D02*
X36959D01*
X-643307Y130512D02*
X-625000Y112205D01*
Y98976D02*
Y112205D01*
X43504Y313976D02*
X51968Y305512D01*
X76772Y308661D02*
Y313189D01*
X73622Y305512D02*
X76772Y308661D01*
X51968Y305512D02*
X73622D01*
X-19685Y306890D02*
X-18110Y308465D01*
Y313189D01*
X-41840Y321929D02*
X-33622D01*
X-42547Y321222D02*
X-41840Y321929D01*
X-25591Y325319D02*
X-25516Y325394D01*
X-25591Y313189D02*
Y325319D01*
X-11614Y306299D02*
Y315921D01*
X-18169Y299744D02*
X-11614Y306299D01*
X-17622Y321929D02*
X-11614Y315921D01*
X-44291Y246063D02*
X-43317Y247038D01*
X242126Y308071D02*
X258071Y292126D01*
X180905Y236614D02*
Y311220D01*
X224410Y232874D02*
Y237598D01*
X237205Y145669D02*
X258071D01*
X186614D02*
X237205D01*
X217323Y225787D02*
X224410Y232874D01*
X195079Y225787D02*
X217323D01*
X180709Y211417D02*
X195079Y225787D01*
X180709Y191142D02*
Y211417D01*
Y191142D02*
X214370Y157480D01*
X220669D01*
X226181Y162992D01*
X230709D01*
X266535Y284646D02*
X270472D01*
X258071Y292126D02*
X268504D01*
X192520Y306458D02*
X201575Y315513D01*
X156496Y313189D02*
X158071Y311614D01*
X151181Y313189D02*
X156496D01*
X229134D02*
X230709Y311614D01*
X225197Y313189D02*
X229134D01*
X114961Y202756D02*
Y204844D01*
X186024Y203346D02*
X190354D01*
X111417Y214764D02*
Y236614D01*
Y214764D02*
X112205Y213976D01*
X54527Y229921D02*
X72835D01*
X76968Y234055D01*
X37992Y213386D02*
X54527Y229921D01*
X-91929Y153937D02*
X-63779D01*
X122165Y136732D02*
X139079D01*
X117913Y132480D02*
X122165Y136732D01*
X117913Y127953D02*
Y132480D01*
X-63779Y153937D02*
X-50000Y140157D01*
X203543Y125394D02*
X205079Y126929D01*
X192520Y125394D02*
X203543D01*
X186614Y145669D02*
X187402Y144882D01*
X110433Y127953D02*
Y129331D01*
X196378Y136929D02*
X214079D01*
X194882Y135433D02*
X196378Y136929D01*
X257087Y137402D02*
X257874D01*
X252559Y132874D02*
X257087Y137402D01*
X100394Y127953D02*
X110433D01*
X94685Y122244D02*
X100394Y127953D01*
X75787Y122244D02*
X94685D01*
X-7283Y125787D02*
X-1575Y120079D01*
X-44094Y125787D02*
X-7283D01*
X104674Y121260D02*
X110827D01*
X72244Y125787D02*
X75787Y122244D01*
X25000Y120079D02*
X30709Y125787D01*
X-1575Y120079D02*
X25000D01*
X-49803D02*
X-44094Y125787D01*
X-127165Y141610D02*
X-126969Y141413D01*
X-127165Y141610D02*
X-120350D01*
X-126969Y118898D02*
Y141413D01*
X-103543Y124803D02*
X-54528D01*
X-120350Y141610D02*
X-103543Y124803D01*
X-54528D02*
X-49803Y120079D01*
X-129528Y107677D02*
Y110827D01*
X-54921Y107874D02*
Y111537D01*
X20472Y107874D02*
Y111143D01*
X-407087Y128347D02*
X-402559D01*
X-1122216Y151350D02*
X-1121850Y150984D01*
X-1137965Y151350D02*
X-1122216D01*
X-1148032Y161417D02*
X-1137965Y151350D01*
X-1148032Y161417D02*
Y172441D01*
X-1175197Y145866D02*
X-1116732D01*
X-1183268Y137795D02*
X-1175197Y145866D01*
X-1016339Y144488D02*
Y145866D01*
X-1016142Y137795D02*
Y144291D01*
X-992717Y156890D02*
Y162598D01*
X-993307Y163189D02*
X-992717Y162598D01*
X-1116732Y145866D02*
Y161614D01*
Y143110D02*
Y145866D01*
Y143110D02*
X-1111417Y137795D01*
X-1099705D01*
X-1159252Y242323D02*
Y251378D01*
X-1156299Y239370D02*
X-1146260D01*
X-1159252Y242323D02*
X-1156299Y239370D01*
X-1146260D02*
X-1141067Y244563D01*
Y246929D01*
X-1164071Y286929D02*
Y292032D01*
X-1152165Y303937D01*
X-1144685Y309054D02*
Y313189D01*
Y303937D02*
Y309054D01*
X-1152127Y320318D02*
X-1150516Y321929D01*
X-1152127Y313227D02*
Y320318D01*
X-1152165Y313189D02*
X-1152127Y313227D01*
X-1186811Y318110D02*
X-1186220Y318701D01*
X-1186811Y192520D02*
Y318110D01*
X-1186220Y318701D02*
X-1169882D01*
X-1161102Y324410D02*
X-1158622Y321929D01*
X-1169882Y324410D02*
X-1161102D01*
X-1185630Y240354D02*
X-1185433Y240551D01*
X-1176772D01*
X-1160433Y386417D02*
X-1160039Y386811D01*
X-1160433Y381693D02*
Y386417D01*
X-831102Y135433D02*
X-830512Y134843D01*
X-831732Y139567D02*
X-830158Y137992D01*
X-832677Y139567D02*
X-831732D01*
X-830158Y137992D02*
X-825984D01*
X-831496Y135433D02*
X-831102D01*
X-830512Y134843D02*
X-825984D01*
X-868291Y164961D02*
X-866140D01*
X200787Y389370D02*
X200984Y389173D01*
X196457Y389370D02*
X200787D01*
X233858D02*
X263976D01*
X268898Y394291D01*
X282441D02*
X285079Y396929D01*
X274606Y394291D02*
X282441D01*
X282874Y386221D02*
X283661Y387008D01*
X278740Y386221D02*
X282874D01*
X217520Y246067D02*
X218185Y246732D01*
X217520Y238189D02*
Y246067D01*
X202835Y246732D02*
X210079D01*
X201378Y245276D02*
X202835Y246732D01*
X133622Y245276D02*
X135079Y246732D01*
X126181Y245276D02*
X133622D01*
X68185Y239689D02*
Y246732D01*
Y239689D02*
X69685Y238189D01*
X201378Y239567D02*
X201575Y239370D01*
X204528D01*
X77165Y235512D02*
Y238189D01*
X-988386Y236614D02*
Y292323D01*
X-1011990Y315927D02*
X-988386Y292323D01*
X-1011990Y315927D02*
Y387795D01*
X68185Y321929D02*
X69291Y320823D01*
Y313189D02*
Y320823D01*
X52676Y321929D02*
X60079D01*
X51968Y321222D02*
X52676Y321929D01*
X126495D02*
X135079D01*
X125787Y321222D02*
X126495Y321929D01*
X206693Y386417D02*
X209842D01*
X210433Y387008D01*
X217913Y396657D02*
X218185Y396929D01*
X217913Y387008D02*
Y396657D01*
X149606Y387008D02*
Y390354D01*
X142126Y395870D02*
X143185Y396929D01*
X142126Y387008D02*
Y395870D01*
X126260Y396929D02*
X135079D01*
X124803Y395472D02*
X126260Y396929D01*
X53228D02*
X60079D01*
X51772Y395472D02*
X53228Y396929D01*
X68185D02*
X70079Y395035D01*
Y385433D02*
Y395035D01*
X-36614Y386417D02*
X-32677D01*
X-31693Y387402D01*
X-40866Y396929D02*
X-33622D01*
X-42323Y395472D02*
X-40866Y396929D01*
X-25516D02*
X-24213Y395626D01*
Y387402D02*
Y395626D01*
X-943311Y164961D02*
X-940726D01*
X-1018429D02*
X-1015748D01*
X-916710Y161417D02*
X-913167D01*
X-280315Y237992D02*
X-278740Y236417D01*
X-275197D01*
X-305437Y239961D02*
X-302756D01*
X-355354Y237992D02*
X-353780Y236417D01*
X-350236D01*
X-380476Y239961D02*
X-377795D01*
X-430394Y237992D02*
X-428819Y236417D01*
X-425276D01*
X-455516Y239961D02*
X-452835D01*
X-505433Y237992D02*
X-503858Y236417D01*
X-500315D01*
X-530555Y239961D02*
X-527874D01*
X-580472Y237992D02*
X-578898Y236417D01*
X-575354D01*
X-605595Y239961D02*
X-602913D01*
X-653937Y236417D02*
X-650394D01*
X-680634Y239961D02*
X-677953D01*
X-755673D02*
X-752992D01*
X-805591Y237992D02*
X-804016Y236417D01*
X-800472D01*
X-830713Y239961D02*
X-828032D01*
X-880630Y237992D02*
X-879055Y236417D01*
X-875512D01*
X-905752Y239961D02*
X-903071D01*
X-955669Y237992D02*
X-954095Y236417D01*
X-950551D01*
X-980791Y239961D02*
X-978110D01*
X-1055831D02*
X-1053150D01*
X-1029134Y236417D02*
X-1025591D01*
X-1030709Y237992D02*
X-1029134Y236417D01*
X-1048425Y312205D02*
X-1044612D01*
X-1049606Y313386D02*
X-1048425Y312205D01*
X-999386Y315513D02*
X-998894Y315021D01*
X-995706D01*
X-972126Y313583D02*
X-970748Y312598D01*
X-972323Y313779D02*
X-972126Y313583D01*
X-974882Y313779D02*
X-972323D01*
X-924437Y315513D02*
X-923945Y315021D01*
X-920757D01*
X-897178Y313583D02*
X-895800Y312598D01*
X-897375Y313779D02*
X-897178Y313583D01*
X-899934Y313779D02*
X-897375D01*
X-849488Y315513D02*
X-848996Y315021D01*
X-845809D01*
X-822229Y313583D02*
X-820851Y312598D01*
X-822426Y313779D02*
X-822229Y313583D01*
X-824985Y313779D02*
X-822426D01*
X-774342Y315513D02*
X-773850Y315021D01*
X-770663D01*
X-747083Y313583D02*
X-745705Y312598D01*
X-747280Y313779D02*
X-747083Y313583D01*
X-749839Y313779D02*
X-747280D01*
X-698803Y315513D02*
X-698311Y315021D01*
X-695123D01*
X-671544Y313583D02*
X-670166Y312598D01*
X-674300Y313779D02*
X-671740D01*
X-623854Y315513D02*
X-623362Y315021D01*
X-620175D01*
X-596595Y313583D02*
X-595217Y312598D01*
X-599351Y313779D02*
X-596792D01*
X-548905Y315513D02*
X-548413Y315021D01*
X-545226D01*
X-521646Y313583D02*
X-520268Y312598D01*
X-524402Y313779D02*
X-521843D01*
X-473956Y315513D02*
X-473464Y315021D01*
X-470277D01*
X-446697Y313583D02*
X-445319Y312598D01*
X-449453Y313779D02*
X-446894D01*
X-399008Y315513D02*
X-398516Y315021D01*
X-395328D01*
X-371748Y313583D02*
X-370370Y312598D01*
X-374504Y313779D02*
X-371945D01*
X-299555D02*
X-296996D01*
X-296799Y313583D02*
X-295421Y312598D01*
X-323567Y315021D02*
X-320379D01*
X-324059Y315513D02*
X-323567Y315021D01*
X-249110Y315120D02*
X-248618Y314628D01*
X-245430D01*
X-42547Y315513D02*
X-42055Y315021D01*
X-38868D01*
X51968Y315513D02*
X52461Y315021D01*
X55648D01*
X126279D02*
X129467D01*
X125787Y315513D02*
X126279Y315021D01*
X-1070276Y314764D02*
X-1069882Y314370D01*
X-1074459Y314764D02*
X-1070276D01*
X-42323Y389764D02*
X-39764D01*
X51772D02*
X54331D01*
X124803D02*
X127559D01*
X-1111483Y389370D02*
X-1106299D01*
X-1111877Y389764D02*
X-1111483Y389370D01*
X-224606Y313386D02*
X-222047D01*
X-261811Y387795D02*
X-257713D01*
X-336829D02*
X-332731D01*
X-411847D02*
X-407749D01*
X-486865D02*
X-482767D01*
X-561883D02*
X-557785D01*
X-636901D02*
X-632802D01*
X-786936D02*
X-782838D01*
X-861954D02*
X-857856D01*
X-936972D02*
X-932874D01*
X-1011596Y387402D02*
X-1007677D01*
X-1087008Y387795D02*
X-1083268D01*
X-125257Y209646D02*
X-123323Y211579D01*
X-148819Y206102D02*
X-144296Y201579D01*
X-132323D01*
X-43110Y195472D02*
X-32063D01*
X-29622Y193032D01*
X-48819Y184449D02*
X-40039D01*
X-38622Y183031D01*
X-565551Y212598D02*
X-555357D01*
X-497485Y213386D02*
X-481123D01*
X-479666Y211929D01*
X-581890Y208268D02*
Y220079D01*
X-514173Y214764D02*
X-505512Y206102D01*
X-514173Y214764D02*
Y224016D01*
X-499803Y206102D02*
X-492839D01*
X-488666Y201929D01*
X-432247Y206102D02*
X-431912D01*
X-438583Y212438D02*
X-432247Y206102D01*
X-438583Y212438D02*
Y224016D01*
X-357283Y209449D02*
X-353937Y206102D01*
X-357283Y209449D02*
Y224016D01*
X-355354Y237992D02*
X-352165Y234803D01*
Y213386D02*
Y234803D01*
X-430394Y215669D02*
Y237992D01*
X-432677Y213386D02*
X-430394Y215669D01*
X-505433Y213854D02*
Y237992D01*
Y213854D02*
X-504965Y213386D01*
X-570669Y206102D02*
X-567861D01*
X-563688Y201929D01*
X-569744Y212598D02*
X-555357D01*
X-554688Y211929D01*
X-577224Y212598D02*
X-575157Y214665D01*
Y236614D01*
X-579724Y206102D02*
X-576378D01*
X-581890Y208268D02*
X-579724Y206102D01*
X-256066D02*
X-255512D01*
X-263779Y213816D02*
X-256066Y206102D01*
X-263779Y213816D02*
Y224016D01*
X-256496Y213386D02*
Y228543D01*
X-264567Y236614D02*
X-256496Y228543D01*
X-275000Y236614D02*
X-264567D01*
X-155020Y205610D02*
X-154528Y206102D01*
X-155020Y203937D02*
Y205610D01*
X-189173Y241535D02*
X-186220D01*
X-184252Y239567D01*
X-166264Y243776D02*
Y246929D01*
X-165157Y237402D02*
X-157677Y229921D01*
X-172638Y237402D02*
X-166264Y243776D01*
X39567Y201575D02*
Y203937D01*
X38976Y204528D02*
X39567Y203937D01*
X187402Y135433D02*
Y144882D01*
X186811Y125394D02*
X187598Y126181D01*
Y128740D01*
X-102323Y164921D02*
Y181579D01*
Y164921D02*
X-92716Y155315D01*
X-93012Y155020D02*
X-91929Y153937D01*
X-58268Y188189D02*
X-54528Y184449D01*
X-58268Y188189D02*
Y204528D01*
X-238959Y143424D02*
X-237822Y142287D01*
X-316339Y136614D02*
Y143424D01*
X-233071Y134252D02*
Y142287D01*
X-237822D02*
X-233071D01*
X-212831D01*
X-208465Y146653D01*
X-235236Y128150D02*
X-233169D01*
X-232320D01*
X126772Y145669D02*
X186614D01*
X110433Y129331D02*
X126772Y145669D01*
X125591Y122244D02*
X130079Y126732D01*
X116535Y121260D02*
X117520Y122244D01*
X125591D01*
X-401772Y134252D02*
X-392600Y143424D01*
X-427953Y107480D02*
X-407480Y127953D01*
X-549213Y107480D02*
X-427953D01*
X-558858Y97835D02*
X-549213Y107480D01*
X-712795Y116730D02*
X-702596Y126929D01*
X-694921D01*
X-712795Y103621D02*
Y111021D01*
X-656693Y130512D02*
X-643307D01*
X-844291Y160118D02*
X-843228Y161181D01*
Y162957D01*
Y163189D01*
X-843263Y162992D02*
X-843228Y162957D01*
X-659646Y208661D02*
Y219291D01*
Y208661D02*
X-657087Y206102D01*
X-654331D01*
X-735433D02*
X-730905D01*
X-739370Y210039D02*
X-735433Y206102D01*
X-739370Y210039D02*
Y219488D01*
X-653346Y213386D02*
Y235827D01*
X-655512Y237992D02*
X-653346Y235827D01*
X-805591Y237992D02*
X-801772Y234173D01*
Y213386D02*
Y234173D01*
X-763976Y119291D02*
Y120472D01*
X-765158Y118110D02*
X-763976Y119291D01*
X-955669Y160197D02*
Y237992D01*
X-920866Y155315D02*
X-918268Y157913D01*
X-950787Y155315D02*
X-920866D01*
X-955669Y160197D02*
X-950787Y155315D01*
X-918268Y157913D02*
Y163189D01*
X-767520Y139173D02*
X-767323Y138976D01*
X-782677Y125394D02*
X-774016D01*
X-769685Y121063D01*
X-782677Y122244D02*
X-775787D01*
X-771654Y118110D01*
X-765158D01*
X-782677Y112795D02*
X-774213D01*
X-768110Y106693D01*
X-750984D01*
X-750591Y107087D01*
X-767520Y139173D02*
X-740551D01*
X-808596Y390748D02*
X-798819Y380971D01*
X-392600Y143424D02*
X-316339D01*
X-322047Y121653D02*
X-315354Y128347D01*
X-322244Y121653D02*
X-322047D01*
X-721024Y201929D02*
X-713731D01*
X-725197Y206102D02*
X-721024Y201929D01*
X-157677Y213386D02*
Y225394D01*
Y229921D01*
X-50591Y195472D02*
Y216339D01*
X-798819Y321850D02*
Y380971D01*
Y321850D02*
X-768504Y291535D01*
X-751378Y176969D02*
X-747835Y180512D01*
X-750425Y200201D02*
X-747835Y197611D01*
Y180512D02*
Y197611D01*
X-750425Y200201D02*
Y214598D01*
X-1188189Y127165D02*
Y130512D01*
Y127165D02*
X-1188189Y127165D01*
X-768504Y232677D02*
Y291535D01*
Y232677D02*
X-750425Y214598D01*
X-44291Y246063D02*
Y250815D01*
X-48327Y254850D02*
X-44291Y250815D01*
X-155897Y309678D02*
Y314332D01*
X-868291Y153321D02*
Y163779D01*
Y153321D02*
X-858570Y143600D01*
Y120010D02*
Y143600D01*
X-48327Y254850D02*
Y262547D01*
X-50085Y264305D02*
X-48327Y262547D01*
X-52694Y264305D02*
X-50085D01*
X17380Y236060D02*
Y242430D01*
X2441Y236060D02*
Y242430D01*
X17420Y242469D02*
Y250690D01*
X2480Y242469D02*
Y250690D01*
X-7150Y260068D02*
X6160D01*
X-174606Y396063D02*
X-165787D01*
X-224000Y371000D02*
Y392047D01*
X-123553Y428808D02*
Y436929D01*
X-119446Y396929D02*
Y402146D01*
X-128300Y411000D02*
X-119446Y402146D01*
X-128300Y411000D02*
Y420600D01*
X-126000Y422900D01*
X-87948Y428808D02*
X-86840Y427700D01*
X-111292D02*
X-86840D01*
X-112400Y428808D02*
X-111292Y427700D01*
X-123553Y428808D02*
X-112400D01*
X-79360Y427700D02*
X-56700D01*
X-51700Y422700D01*
Y384100D02*
Y422700D01*
X-186536Y373481D02*
Y379596D01*
Y373481D02*
X-185755Y372700D01*
X-177879D01*
D14*
X36258Y445888D02*
Y450013D01*
X42520Y380432D02*
Y438976D01*
X36258Y445238D02*
X42362Y439134D01*
X-711918Y284556D02*
Y387795D01*
Y284556D02*
X-706693Y279331D01*
X-730551Y237992D02*
X-729173Y236614D01*
X-725236D01*
X-730551Y216102D02*
Y237992D01*
X-732677Y213976D02*
X-730551Y216102D01*
X-735630Y213976D02*
X-732677D01*
X-706693Y237008D02*
Y279331D01*
Y237008D02*
X-706496Y236811D01*
D17*
X-160921Y436929D02*
D03*
X-156815Y396929D02*
D03*
X45181Y118228D02*
D03*
X49287Y78228D02*
D03*
X-292220Y136929D02*
D03*
X-207772Y136929D02*
D03*
X-203665Y96929D02*
D03*
X-376472Y136929D02*
D03*
X-372366Y96929D02*
D03*
X-995370Y136929D02*
D03*
X-991264Y96929D02*
D03*
X-1079622Y136929D02*
D03*
X-1164071Y136929D02*
D03*
X-1159965Y96929D02*
D03*
X214079Y286732D02*
D03*
X218185Y246732D02*
D03*
X-1173323Y436929D02*
D03*
X-1169217Y396929D02*
D03*
X139079Y136732D02*
D03*
X143185Y96732D02*
D03*
X218185Y171929D02*
D03*
X214079Y211929D02*
D03*
X64079Y436929D02*
D03*
X68185Y396929D02*
D03*
X143185D02*
D03*
X139079Y436929D02*
D03*
X218185Y396929D02*
D03*
X214079Y436929D02*
D03*
X218185Y321929D02*
D03*
X214079Y361929D02*
D03*
X143185Y321929D02*
D03*
X139079Y361929D02*
D03*
X64079D02*
D03*
X68185Y321929D02*
D03*
X64079Y286732D02*
D03*
X68185Y246732D02*
D03*
X143185D02*
D03*
X139079Y286732D02*
D03*
X68185Y171929D02*
D03*
X64079Y211929D02*
D03*
X139079D02*
D03*
X143185Y171929D02*
D03*
X289079Y436929D02*
D03*
X293185Y396929D02*
D03*
X-25516Y321929D02*
D03*
X-29622Y361929D02*
D03*
X-25516Y396929D02*
D03*
X-29622Y436929D02*
D03*
X-188932Y211579D02*
D03*
X-184826Y171580D02*
D03*
X218185Y96929D02*
D03*
X214079Y136929D02*
D03*
X-100319Y78228D02*
D03*
X-104425Y118228D02*
D03*
X-29622D02*
D03*
X-25516Y78228D02*
D03*
X-681815Y96929D02*
D03*
X-685921Y136929D02*
D03*
X-742063Y286929D02*
D03*
X-737957Y246929D02*
D03*
X-1141067D02*
D03*
X-1122366Y171929D02*
D03*
X-1126472Y211929D02*
D03*
X-1164071Y286929D02*
D03*
X-1150516Y321929D02*
D03*
X-1154622Y361929D02*
D03*
X-29622Y193032D02*
D03*
X-25516Y153032D02*
D03*
X-119217Y171580D02*
D03*
X-123323Y211579D02*
D03*
X-226541D02*
D03*
X-325516Y171929D02*
D03*
X-329622Y211929D02*
D03*
X-404644D02*
D03*
X-400538Y171929D02*
D03*
X-475560D02*
D03*
X-479666Y211929D02*
D03*
X-554688D02*
D03*
X-550582Y171929D02*
D03*
X-625603D02*
D03*
X-629710Y211929D02*
D03*
X-704732D02*
D03*
X-700625Y171929D02*
D03*
X-775647D02*
D03*
X-779753Y211929D02*
D03*
X-854775D02*
D03*
X-850669Y171929D02*
D03*
X-925691D02*
D03*
X-929797Y211929D02*
D03*
X-1004819D02*
D03*
X-1000713Y171929D02*
D03*
X-166264Y246929D02*
D03*
X-170370Y286929D02*
D03*
X-291827D02*
D03*
X-287720Y246929D02*
D03*
X-362760D02*
D03*
X-366866Y286929D02*
D03*
X-441905D02*
D03*
X-437799Y246929D02*
D03*
X-512839D02*
D03*
X-516945Y286929D02*
D03*
X-591984D02*
D03*
X-587878Y246929D02*
D03*
X-662917D02*
D03*
X-667024Y286929D02*
D03*
X-812996Y246929D02*
D03*
X-817102Y286929D02*
D03*
X-892142D02*
D03*
X-888035Y246929D02*
D03*
X-963075D02*
D03*
X-967181Y286929D02*
D03*
X-1042220D02*
D03*
X-1038114Y246929D02*
D03*
X-142417Y361929D02*
D03*
X-138311Y321929D02*
D03*
X-231833D02*
D03*
X-235939Y361929D02*
D03*
X-310938D02*
D03*
X-306831Y321929D02*
D03*
X-381830D02*
D03*
X-385936Y361929D02*
D03*
X-460934D02*
D03*
X-456828Y321929D02*
D03*
X-531826D02*
D03*
X-535933Y361929D02*
D03*
X-610931D02*
D03*
X-606825Y321929D02*
D03*
X-681823D02*
D03*
X-685929Y361929D02*
D03*
X-760928D02*
D03*
X-756821Y321929D02*
D03*
X-831820D02*
D03*
X-835926Y361929D02*
D03*
X-910925D02*
D03*
X-906818Y321929D02*
D03*
X-981817D02*
D03*
X-985923Y361929D02*
D03*
X-1060921D02*
D03*
X-1056815Y321929D02*
D03*
X-269414Y396929D02*
D03*
X-273520Y436929D02*
D03*
X-348503D02*
D03*
X-344397Y396929D02*
D03*
X-419381D02*
D03*
X-423487Y436929D02*
D03*
X-498471D02*
D03*
X-494364Y396929D02*
D03*
X-569348D02*
D03*
X-573454Y436929D02*
D03*
X-648438D02*
D03*
X-644332Y396929D02*
D03*
X-719315D02*
D03*
X-723421Y436929D02*
D03*
X-798405D02*
D03*
X-794299Y396929D02*
D03*
X-869282D02*
D03*
X-873388Y436929D02*
D03*
X-948372D02*
D03*
X-944266Y396929D02*
D03*
X-1019249D02*
D03*
X-1023356Y436929D02*
D03*
X-1098339D02*
D03*
X-1094233Y396929D02*
D03*
X-123553Y436929D02*
D03*
X-119446Y396929D02*
D03*
X-198536Y436929D02*
D03*
X-194430Y396929D02*
D03*
D18*
X-153086Y436929D02*
D03*
X-148921Y396929D02*
D03*
X53016Y118228D02*
D03*
X57181Y78228D02*
D03*
X-284327Y136929D02*
D03*
X-199936Y136929D02*
D03*
X-195772Y96929D02*
D03*
X-368637Y136929D02*
D03*
X-364472Y96929D02*
D03*
X-987535Y136929D02*
D03*
X-983370Y96929D02*
D03*
X-1071728Y136929D02*
D03*
X-1156236Y136929D02*
D03*
X-1152071Y96929D02*
D03*
X221914Y286732D02*
D03*
X226079Y246732D02*
D03*
X-1165487Y436929D02*
D03*
X-1161323Y396929D02*
D03*
X146914Y136732D02*
D03*
X151079Y96732D02*
D03*
X226079Y171929D02*
D03*
X221914Y211929D02*
D03*
X71914Y436929D02*
D03*
X76079Y396929D02*
D03*
X151079D02*
D03*
X146914Y436929D02*
D03*
X226079Y396929D02*
D03*
X221914Y436929D02*
D03*
X226079Y321929D02*
D03*
X221914Y361929D02*
D03*
X151079Y321929D02*
D03*
X146914Y361929D02*
D03*
X71914D02*
D03*
X76079Y321929D02*
D03*
X71914Y286732D02*
D03*
X76079Y246732D02*
D03*
X151079D02*
D03*
X146914Y286732D02*
D03*
X76079Y171929D02*
D03*
X71914Y211929D02*
D03*
X146914D02*
D03*
X151079Y171929D02*
D03*
X296914Y436929D02*
D03*
X301079Y396929D02*
D03*
X-17622Y321929D02*
D03*
X-21787Y361929D02*
D03*
X-17622Y396929D02*
D03*
X-21787Y436929D02*
D03*
X-181097Y211579D02*
D03*
X-176932Y171580D02*
D03*
X226079Y96929D02*
D03*
X221914Y136929D02*
D03*
X-92425Y78228D02*
D03*
X-96590Y118228D02*
D03*
X-21787D02*
D03*
X-17622Y78228D02*
D03*
X-673921Y96929D02*
D03*
X-678086Y136929D02*
D03*
X-734228Y286929D02*
D03*
X-730063Y246929D02*
D03*
X-1133173D02*
D03*
X-1114472Y171929D02*
D03*
X-1118637Y211929D02*
D03*
X-1156236Y286929D02*
D03*
X-1142622Y321929D02*
D03*
X-1146787Y361929D02*
D03*
X-21787Y193032D02*
D03*
X-17622Y153032D02*
D03*
X-111323Y171580D02*
D03*
X-115488Y211579D02*
D03*
X-218706D02*
D03*
X-214541Y171580D02*
D03*
X-317622Y171929D02*
D03*
X-321787Y211929D02*
D03*
X-396809D02*
D03*
X-392644Y171929D02*
D03*
X-467666D02*
D03*
X-471831Y211929D02*
D03*
X-546852D02*
D03*
X-542688Y171929D02*
D03*
X-617710D02*
D03*
X-621874Y211929D02*
D03*
X-696896D02*
D03*
X-692732Y171929D02*
D03*
X-767753D02*
D03*
X-771918Y211929D02*
D03*
X-846940D02*
D03*
X-842775Y171929D02*
D03*
X-917797D02*
D03*
X-921962Y211929D02*
D03*
X-996984D02*
D03*
X-992819Y171929D02*
D03*
X-158370Y246929D02*
D03*
X-162535Y286929D02*
D03*
X-283992D02*
D03*
X-279827Y246929D02*
D03*
X-354866D02*
D03*
X-359031Y286929D02*
D03*
X-434070D02*
D03*
X-429906Y246929D02*
D03*
X-504945D02*
D03*
X-509110Y286929D02*
D03*
X-584149D02*
D03*
X-579984Y246929D02*
D03*
X-655024D02*
D03*
X-659188Y286929D02*
D03*
X-805102Y246929D02*
D03*
X-809267Y286929D02*
D03*
X-884306D02*
D03*
X-880142Y246929D02*
D03*
X-955181D02*
D03*
X-959346Y286929D02*
D03*
X-1034385D02*
D03*
X-1030221Y246929D02*
D03*
X-134582Y361929D02*
D03*
X-130417Y321929D02*
D03*
X-223939D02*
D03*
X-228104Y361929D02*
D03*
X-303102D02*
D03*
X-298938Y321929D02*
D03*
X-373936D02*
D03*
X-378101Y361929D02*
D03*
X-453099D02*
D03*
X-448934Y321929D02*
D03*
X-523933D02*
D03*
X-528097Y361929D02*
D03*
X-603096D02*
D03*
X-598931Y321929D02*
D03*
X-673930D02*
D03*
X-678094Y361929D02*
D03*
X-753092D02*
D03*
X-748928Y321929D02*
D03*
X-823926D02*
D03*
X-828091Y361929D02*
D03*
X-903089D02*
D03*
X-898925Y321929D02*
D03*
X-973923D02*
D03*
X-978088Y361929D02*
D03*
X-1053086D02*
D03*
X-1048921Y321929D02*
D03*
X-261520Y396929D02*
D03*
X-265685Y436929D02*
D03*
X-340668D02*
D03*
X-336504Y396929D02*
D03*
X-411487D02*
D03*
X-415652Y436929D02*
D03*
X-490635D02*
D03*
X-486471Y396929D02*
D03*
X-561454D02*
D03*
X-565619Y436929D02*
D03*
X-640602D02*
D03*
X-636438Y396929D02*
D03*
X-711421D02*
D03*
X-715586Y436929D02*
D03*
X-790570D02*
D03*
X-786405Y396929D02*
D03*
X-861388D02*
D03*
X-865553Y436929D02*
D03*
X-940537D02*
D03*
X-936372Y396929D02*
D03*
X-1011356D02*
D03*
X-1015520Y436929D02*
D03*
X-1090504D02*
D03*
X-1086339Y396929D02*
D03*
X-115717Y436929D02*
D03*
X-111553Y396929D02*
D03*
X-190701Y436929D02*
D03*
X-186536Y396929D02*
D03*
D19*
X-174921Y416929D02*
D03*
X-134921D02*
D03*
X-1053622Y116929D02*
D03*
X-97553Y416929D02*
D03*
X-212536D02*
D03*
X-172536D02*
D03*
D20*
X-139921Y406929D02*
D03*
D21*
X-164921Y396929D02*
D03*
X-144921Y436929D02*
D03*
X-202536Y396929D02*
D03*
X-182536Y436929D02*
D03*
D22*
X-154921Y416929D02*
D03*
X51181Y98228D02*
D03*
X-286221Y116929D02*
D03*
X-201772Y116929D02*
D03*
X-370472D02*
D03*
X-989370D02*
D03*
X-1073622Y116929D02*
D03*
X-1158071Y116929D02*
D03*
X220079Y266732D02*
D03*
X-1167323Y416929D02*
D03*
X145079Y116732D02*
D03*
X220079Y191929D02*
D03*
X70079Y416929D02*
D03*
X145079D02*
D03*
X220079D02*
D03*
Y341929D02*
D03*
X145079D02*
D03*
X70079D02*
D03*
Y266732D02*
D03*
X145079D02*
D03*
X70079Y191929D02*
D03*
X145079D02*
D03*
X295079Y304528D02*
D03*
X295079Y416929D02*
D03*
X-23622Y341929D02*
D03*
Y416929D02*
D03*
X295079Y154331D02*
D03*
X-182932Y191579D02*
D03*
X220079Y116929D02*
D03*
X-98425Y98228D02*
D03*
X-23622D02*
D03*
X-679921Y116929D02*
D03*
X-736063Y266929D02*
D03*
X-1139173D02*
D03*
X-1120473Y191929D02*
D03*
X-1158071Y266929D02*
D03*
X-1148622Y341929D02*
D03*
X-23622Y173031D02*
D03*
X-117323Y191579D02*
D03*
X-220541D02*
D03*
X-323622Y191929D02*
D03*
X-398644D02*
D03*
X-473666D02*
D03*
X-548688D02*
D03*
X-623710D02*
D03*
X-698732D02*
D03*
X-773753D02*
D03*
X-848775D02*
D03*
X-923797D02*
D03*
X-998819D02*
D03*
X-164370Y266929D02*
D03*
X-285827D02*
D03*
X-360866D02*
D03*
X-435906D02*
D03*
X-510945D02*
D03*
X-585984D02*
D03*
X-661024D02*
D03*
X-811102D02*
D03*
X-886142D02*
D03*
X-961181D02*
D03*
X-1036220D02*
D03*
X-136417Y341929D02*
D03*
X-229939D02*
D03*
X-304938D02*
D03*
X-379936D02*
D03*
X-454934D02*
D03*
X-529933D02*
D03*
X-604931D02*
D03*
X-679929D02*
D03*
X-754928D02*
D03*
X-829926D02*
D03*
X-904925D02*
D03*
X-979923D02*
D03*
X-1054921D02*
D03*
X-267520Y416929D02*
D03*
X-342503D02*
D03*
X-417487D02*
D03*
X-492471D02*
D03*
X-567454D02*
D03*
X-642438D02*
D03*
X-717421D02*
D03*
X-792405D02*
D03*
X-867389D02*
D03*
X-942372D02*
D03*
X-1017356D02*
D03*
X-1092339D02*
D03*
D23*
X-169921Y426929D02*
D03*
X66181Y88228D02*
D03*
X41181Y78228D02*
D03*
X61181Y118228D02*
D03*
X36181Y108228D02*
D03*
X-186772Y106929D02*
D03*
X-211772Y96929D02*
D03*
X-191772Y136929D02*
D03*
X-216772Y126929D02*
D03*
X-355472Y106929D02*
D03*
X-380472Y96929D02*
D03*
X-360472Y136929D02*
D03*
X-385472Y126929D02*
D03*
X-974370Y106929D02*
D03*
X-999370Y96929D02*
D03*
X-979370Y136929D02*
D03*
X-1004370Y126929D02*
D03*
X-1143071Y106929D02*
D03*
X-1168071Y96929D02*
D03*
X-1148071Y136929D02*
D03*
X-1173071Y126929D02*
D03*
X235079Y256732D02*
D03*
X210079Y246732D02*
D03*
X230079Y286732D02*
D03*
X205079Y276732D02*
D03*
X-1152323Y406929D02*
D03*
X-1177323Y396929D02*
D03*
X-1157323Y436929D02*
D03*
X-1182323Y426929D02*
D03*
X160079Y106732D02*
D03*
X135079Y96732D02*
D03*
X155079Y136732D02*
D03*
X130079Y126732D02*
D03*
X205079Y201929D02*
D03*
X230079Y211929D02*
D03*
X210079Y171929D02*
D03*
X235079Y181929D02*
D03*
X85079Y406929D02*
D03*
X60079Y396929D02*
D03*
X80079Y436929D02*
D03*
X55079Y426929D02*
D03*
X130079D02*
D03*
X155079Y436929D02*
D03*
X135079Y396929D02*
D03*
X160079Y406929D02*
D03*
X205079Y426929D02*
D03*
X230079Y436929D02*
D03*
X210079Y396929D02*
D03*
X235079Y406929D02*
D03*
X205079Y351929D02*
D03*
X230079Y361929D02*
D03*
X210079Y321929D02*
D03*
X235079Y331929D02*
D03*
X130079Y351929D02*
D03*
X155079Y361929D02*
D03*
X135079Y321929D02*
D03*
X160079Y331929D02*
D03*
X85079D02*
D03*
X60079Y321929D02*
D03*
X80079Y361929D02*
D03*
X55079Y351929D02*
D03*
X85079Y256732D02*
D03*
X60079Y246732D02*
D03*
X80079Y286732D02*
D03*
X55079Y276732D02*
D03*
X130079D02*
D03*
X155079Y286732D02*
D03*
X135079Y246732D02*
D03*
X160079Y256732D02*
D03*
X55079Y201929D02*
D03*
X80079Y211929D02*
D03*
X60079Y171929D02*
D03*
X85079Y181929D02*
D03*
X160079D02*
D03*
X135079Y171929D02*
D03*
X155079Y211929D02*
D03*
X130079Y201929D02*
D03*
X285079Y289528D02*
D03*
X275079Y314528D02*
D03*
X315079Y294528D02*
D03*
X305079Y319528D02*
D03*
X310079Y406929D02*
D03*
X285079Y396929D02*
D03*
X305079Y436929D02*
D03*
X280079Y426929D02*
D03*
X-38622Y351929D02*
D03*
X-13622Y361929D02*
D03*
X-33622Y321929D02*
D03*
X-8622Y331929D02*
D03*
X-38622Y426929D02*
D03*
X-13622Y436929D02*
D03*
X-33622Y396929D02*
D03*
X-8622Y406929D02*
D03*
X305079Y169331D02*
D03*
X315079Y144331D02*
D03*
X275079Y164331D02*
D03*
X285079Y139331D02*
D03*
X-167932Y181579D02*
D03*
X-192932Y171580D02*
D03*
X-172932Y211579D02*
D03*
X-197932Y201579D02*
D03*
X205079Y126929D02*
D03*
X230079Y136929D02*
D03*
X210079Y96929D02*
D03*
X235079Y106929D02*
D03*
X-113425Y108228D02*
D03*
X-88425Y118228D02*
D03*
X-108425Y78228D02*
D03*
X-83425Y88228D02*
D03*
X-8622D02*
D03*
X-33622Y78228D02*
D03*
X-13622Y118228D02*
D03*
X-38622Y108228D02*
D03*
X-694921Y126929D02*
D03*
X-669921Y136929D02*
D03*
X-689921Y96929D02*
D03*
X-664921Y106929D02*
D03*
X-721063Y256929D02*
D03*
X-746063Y246929D02*
D03*
X-726063Y286929D02*
D03*
X-751063Y276929D02*
D03*
X-1154173D02*
D03*
X-1129173Y286929D02*
D03*
X-1149173Y246929D02*
D03*
X-1124173Y256929D02*
D03*
X-1135472Y201929D02*
D03*
X-1110472Y211929D02*
D03*
X-1130472Y171929D02*
D03*
X-1105472Y181929D02*
D03*
X-1143071Y256929D02*
D03*
X-1168071Y246929D02*
D03*
X-1148071Y286929D02*
D03*
X-1173071Y276929D02*
D03*
X-1163622Y351929D02*
D03*
X-1138622Y361929D02*
D03*
X-1158622Y321929D02*
D03*
X-1133622Y331929D02*
D03*
X-8622Y163031D02*
D03*
X-33622Y153032D02*
D03*
X-13622Y193032D02*
D03*
X-38622Y183031D02*
D03*
X-132323Y201579D02*
D03*
X-107323Y211579D02*
D03*
X-102323Y181579D02*
D03*
X-205541D02*
D03*
X-210541Y211579D02*
D03*
X-235541Y201579D02*
D03*
X-338622Y201929D02*
D03*
X-313622Y211929D02*
D03*
X-333622Y171929D02*
D03*
X-308622Y181929D02*
D03*
X-383644D02*
D03*
X-408644Y171929D02*
D03*
X-388644Y211929D02*
D03*
X-413644Y201929D02*
D03*
X-488666D02*
D03*
X-463666Y211929D02*
D03*
X-483666Y171929D02*
D03*
X-458666Y181929D02*
D03*
X-533688D02*
D03*
X-558688Y171929D02*
D03*
X-538688Y211929D02*
D03*
X-563688Y201929D02*
D03*
X-638710D02*
D03*
X-613710Y211929D02*
D03*
X-633710Y171929D02*
D03*
X-608710Y181929D02*
D03*
X-683732D02*
D03*
X-708732Y171929D02*
D03*
X-688731Y211929D02*
D03*
X-713731Y201929D02*
D03*
X-788753D02*
D03*
X-763753Y211929D02*
D03*
X-783753Y171929D02*
D03*
X-758753Y181929D02*
D03*
X-833775D02*
D03*
X-858775Y171929D02*
D03*
X-838775Y211929D02*
D03*
X-863775Y201929D02*
D03*
X-938797D02*
D03*
X-913797Y211929D02*
D03*
X-933797Y171929D02*
D03*
X-908797Y181929D02*
D03*
X-983819D02*
D03*
X-1008819Y171929D02*
D03*
X-988819Y211929D02*
D03*
X-1013819Y201929D02*
D03*
X-179370Y276929D02*
D03*
X-154370Y286929D02*
D03*
X-174370Y246929D02*
D03*
X-149370Y256929D02*
D03*
X-270827D02*
D03*
X-295827Y246929D02*
D03*
X-275827Y286929D02*
D03*
X-300827Y276929D02*
D03*
X-375866D02*
D03*
X-350866Y286929D02*
D03*
X-370866Y246929D02*
D03*
X-345866Y256929D02*
D03*
X-420905D02*
D03*
X-445905Y246929D02*
D03*
X-425906Y286929D02*
D03*
X-450906Y276929D02*
D03*
X-525945D02*
D03*
X-500945Y286929D02*
D03*
X-520945Y246929D02*
D03*
X-495945Y256929D02*
D03*
X-570984D02*
D03*
X-595984Y246929D02*
D03*
X-575984Y286929D02*
D03*
X-600984Y276929D02*
D03*
X-676024D02*
D03*
X-651024Y286929D02*
D03*
X-671024Y246929D02*
D03*
X-646024Y256929D02*
D03*
X-826102Y276929D02*
D03*
X-801102Y286929D02*
D03*
X-821102Y246929D02*
D03*
X-796102Y256929D02*
D03*
X-871142D02*
D03*
X-896142Y246929D02*
D03*
X-876142Y286929D02*
D03*
X-901142Y276929D02*
D03*
X-976181D02*
D03*
X-951181Y286929D02*
D03*
X-971181Y246929D02*
D03*
X-946181Y256929D02*
D03*
X-1021220D02*
D03*
X-1046220Y246929D02*
D03*
X-1026221Y286929D02*
D03*
X-1051221Y276929D02*
D03*
X-121417Y331929D02*
D03*
X-146417Y321929D02*
D03*
X-126417Y361929D02*
D03*
X-151417Y351929D02*
D03*
X-244939D02*
D03*
X-239939Y321929D02*
D03*
X-214939Y331929D02*
D03*
X-289938D02*
D03*
X-314938Y321929D02*
D03*
X-294938Y361929D02*
D03*
X-319938Y351929D02*
D03*
X-394936D02*
D03*
X-369936Y361929D02*
D03*
X-389936Y321929D02*
D03*
X-364936Y331929D02*
D03*
X-439934D02*
D03*
X-464934Y321929D02*
D03*
X-444934Y361929D02*
D03*
X-469934Y351929D02*
D03*
X-544933D02*
D03*
X-519933Y361929D02*
D03*
X-539933Y321929D02*
D03*
X-514933Y331929D02*
D03*
X-589931D02*
D03*
X-614931Y321929D02*
D03*
X-594931Y361929D02*
D03*
X-619931Y351929D02*
D03*
X-694930D02*
D03*
X-669930Y361929D02*
D03*
X-689929Y321929D02*
D03*
X-664929Y331929D02*
D03*
X-739928D02*
D03*
X-764928Y321929D02*
D03*
X-744928Y361929D02*
D03*
X-769928Y351929D02*
D03*
X-844926D02*
D03*
X-819926Y361929D02*
D03*
X-839926Y321929D02*
D03*
X-814926Y331929D02*
D03*
X-889925D02*
D03*
X-914925Y321929D02*
D03*
X-894925Y361929D02*
D03*
X-919925Y351929D02*
D03*
X-994923D02*
D03*
X-989923Y321929D02*
D03*
X-964923Y331929D02*
D03*
X-1039921D02*
D03*
X-1064921Y321929D02*
D03*
X-1044921Y361929D02*
D03*
X-1069921Y351929D02*
D03*
X-282520Y426929D02*
D03*
X-257520Y436929D02*
D03*
X-277520Y396929D02*
D03*
X-252520Y406929D02*
D03*
X-327503D02*
D03*
X-352503Y396929D02*
D03*
X-332504Y436929D02*
D03*
X-357504Y426929D02*
D03*
X-432487D02*
D03*
X-407487Y436929D02*
D03*
X-427487Y396929D02*
D03*
X-402487Y406929D02*
D03*
X-477471D02*
D03*
X-502471Y396929D02*
D03*
X-482471Y436929D02*
D03*
X-507471Y426929D02*
D03*
X-582454D02*
D03*
X-557454Y436929D02*
D03*
X-577454Y396929D02*
D03*
X-552454Y406929D02*
D03*
X-627438D02*
D03*
X-652438Y396929D02*
D03*
X-632438Y436929D02*
D03*
X-657438Y426929D02*
D03*
X-732421D02*
D03*
X-707421Y436929D02*
D03*
X-727421Y396929D02*
D03*
X-702421Y406929D02*
D03*
X-777405D02*
D03*
X-802405Y396929D02*
D03*
X-782405Y436929D02*
D03*
X-807405Y426929D02*
D03*
X-882388D02*
D03*
X-857388Y436929D02*
D03*
X-877388Y396929D02*
D03*
X-852388Y406929D02*
D03*
X-927372D02*
D03*
X-952372Y396929D02*
D03*
X-932372Y436929D02*
D03*
X-957372Y426929D02*
D03*
X-1032356D02*
D03*
X-1007356Y436929D02*
D03*
X-1027356Y396929D02*
D03*
X-1002356Y406929D02*
D03*
X-1077339D02*
D03*
X-1102339Y396929D02*
D03*
X-1082339Y436929D02*
D03*
X-1107339Y426929D02*
D03*
X-102553Y406929D02*
D03*
X-132553Y426929D02*
D03*
X-207536D02*
D03*
D24*
X-1167472Y219429D02*
D03*
X-1073472D02*
D03*
X322579Y107331D02*
D03*
Y201331D02*
D03*
Y257528D02*
D03*
Y351528D02*
D03*
X-107921Y444429D02*
D03*
X-201921D02*
D03*
X-229932Y164080D02*
D03*
X-135932D02*
D03*
X-211370Y239429D02*
D03*
X-117370D02*
D03*
X-454921Y90428D02*
D03*
X-904921D02*
D03*
D25*
X-1167472Y159429D02*
D03*
X-1073472D02*
D03*
X262579Y107331D02*
D03*
Y201331D02*
D03*
Y257528D02*
D03*
Y351528D02*
D03*
X-107921Y384429D02*
D03*
X-201921D02*
D03*
X-229932Y224080D02*
D03*
X-135932D02*
D03*
X-211370Y299429D02*
D03*
X-117370D02*
D03*
X-454921Y150428D02*
D03*
X-904921D02*
D03*
D26*
X6239Y470052D02*
D03*
X40294D02*
D03*
X6239Y453595D02*
D03*
X40294D02*
D03*
D27*
Y470052D02*
D03*
D03*
Y469659D02*
D03*
Y469265D02*
D03*
Y468871D02*
D03*
Y468477D02*
D03*
Y468084D02*
D03*
Y467690D02*
D03*
Y472414D02*
D03*
Y472021D02*
D03*
Y471627D02*
D03*
Y471233D02*
D03*
Y470840D02*
D03*
Y470446D02*
D03*
Y470052D02*
D03*
D03*
X6239D02*
D03*
D03*
Y469659D02*
D03*
Y469265D02*
D03*
Y468871D02*
D03*
Y468477D02*
D03*
Y468084D02*
D03*
Y467690D02*
D03*
Y472414D02*
D03*
Y472021D02*
D03*
Y471627D02*
D03*
Y471233D02*
D03*
Y470840D02*
D03*
Y470446D02*
D03*
Y470052D02*
D03*
D03*
X40294Y453595D02*
D03*
D03*
Y453202D02*
D03*
Y452808D02*
D03*
Y452414D02*
D03*
Y452021D02*
D03*
Y451627D02*
D03*
Y451233D02*
D03*
Y450840D02*
D03*
Y456351D02*
D03*
Y455958D02*
D03*
Y455564D02*
D03*
Y455170D02*
D03*
Y454777D02*
D03*
Y454383D02*
D03*
Y453989D02*
D03*
Y453595D02*
D03*
D03*
X6239D02*
D03*
D03*
Y453989D02*
D03*
Y454383D02*
D03*
Y454777D02*
D03*
Y455170D02*
D03*
Y455564D02*
D03*
Y455958D02*
D03*
Y456351D02*
D03*
Y450840D02*
D03*
Y451233D02*
D03*
Y451627D02*
D03*
Y452021D02*
D03*
Y452414D02*
D03*
Y452808D02*
D03*
Y453202D02*
D03*
Y453595D02*
D03*
D03*
X-220490Y312220D02*
D03*
X-19685Y306890D02*
D03*
X180905Y236614D02*
D03*
X180511Y311614D02*
D03*
X230709Y162992D02*
D03*
X242126Y308071D02*
D03*
X230709Y311614D02*
D03*
X158071D02*
D03*
X237205Y145669D02*
D03*
X-1016339Y145866D02*
D03*
X-992717Y156890D02*
D03*
X-1116732Y145866D02*
D03*
X-1144685Y309054D02*
D03*
X-1160433Y381693D02*
D03*
X278740Y386221D02*
D03*
X153740Y236614D02*
D03*
X223425Y236024D02*
D03*
X76968Y234055D02*
D03*
X-988386Y236614D02*
D03*
X-1008268Y311811D02*
D03*
X206693Y386417D02*
D03*
X148425Y391535D02*
D03*
X58465Y384646D02*
D03*
X-36614Y386417D02*
D03*
X-912970Y161614D02*
D03*
X-275000Y236614D02*
D03*
X-350039D02*
D03*
X-425079D02*
D03*
X-500118D02*
D03*
X-575157D02*
D03*
X-650197D02*
D03*
X-725236D02*
D03*
X-800276D02*
D03*
X-875315D02*
D03*
X-950354D02*
D03*
X-1025394D02*
D03*
X-1044612Y311811D02*
D03*
X-670166Y312008D02*
D03*
X-595217D02*
D03*
X-520268D02*
D03*
X-257319Y387402D02*
D03*
X-332337D02*
D03*
X-407355D02*
D03*
X-482373D02*
D03*
X-557391D02*
D03*
X-632409D02*
D03*
X-782444D02*
D03*
X-857462D02*
D03*
X-932480D02*
D03*
X-1007677D02*
D03*
X-1082874D02*
D03*
X-50591Y216339D02*
D03*
X-157677Y225394D02*
D03*
X-844291Y160118D02*
D03*
X-970748Y312008D02*
D03*
X-895800D02*
D03*
X-745705D02*
D03*
X-820851D02*
D03*
X111417Y236614D02*
D03*
X-706496Y236811D02*
D03*
X-370370Y312008D02*
D03*
X-295079Y312008D02*
D03*
X-445319Y312205D02*
D03*
D28*
X11898Y455512D02*
D03*
X34646Y455512D02*
D03*
X-244779Y314961D02*
D03*
X-831299Y216535D02*
D03*
X5551Y376673D02*
D03*
X36222Y445888D02*
D03*
X15945Y306102D02*
D03*
X-609154Y121260D02*
D03*
X-613681Y117126D02*
D03*
X-617224Y125856D02*
D03*
X-619783Y120276D02*
D03*
X-622368Y128864D02*
D03*
X-605000Y148819D02*
D03*
X-566831Y138878D02*
D03*
X252165Y290748D02*
D03*
X225394Y296457D02*
D03*
X266535Y284646D02*
D03*
X256890Y320472D02*
D03*
X115551Y205434D02*
D03*
X185827Y203543D02*
D03*
X211417Y156102D02*
D03*
X252559Y132874D02*
D03*
X104207Y121727D02*
D03*
X-128937Y111417D02*
D03*
X-55118Y111733D02*
D03*
X21063D02*
D03*
X187598Y128740D02*
D03*
X-407480Y127953D02*
D03*
X-1121850Y150984D02*
D03*
X-1032677Y107874D02*
D03*
X-1021063Y130512D02*
D03*
X-1104134D02*
D03*
X-772679Y233505D02*
D03*
X-831496Y135433D02*
D03*
X-832677Y139567D02*
D03*
X-38386Y225197D02*
D03*
X24861Y221457D02*
D03*
X-639392Y152188D02*
D03*
X196457Y389370D02*
D03*
X233858D02*
D03*
X46850Y239173D02*
D03*
X128937Y239370D02*
D03*
X204528D02*
D03*
X234449Y227953D02*
D03*
X160630Y227362D02*
D03*
X279528Y232283D02*
D03*
X90945Y233268D02*
D03*
X-394Y127165D02*
D03*
X87598Y129134D02*
D03*
X160827Y149213D02*
D03*
X22199Y440354D02*
D03*
X10236Y445866D02*
D03*
X91535Y302362D02*
D03*
X-5709Y300000D02*
D03*
X-88888Y294685D02*
D03*
X-865114Y164764D02*
D03*
X-940136D02*
D03*
X-1015158D02*
D03*
X-302165Y239764D02*
D03*
X-377205D02*
D03*
X-452244D02*
D03*
X-527283D02*
D03*
X-602323D02*
D03*
X-677362D02*
D03*
X-752402D02*
D03*
X-977520D02*
D03*
X-1052559D02*
D03*
X-995055Y315354D02*
D03*
X-920106D02*
D03*
X-845158D02*
D03*
X-694472D02*
D03*
X-619523D02*
D03*
X-544575D02*
D03*
X-469626D02*
D03*
X-394677D02*
D03*
X-319728D02*
D03*
X-38217Y314370D02*
D03*
X56299D02*
D03*
X130118D02*
D03*
X-1069882D02*
D03*
X-38780Y390748D02*
D03*
X55315D02*
D03*
X128150Y390354D02*
D03*
X-1033399Y390748D02*
D03*
X-958465D02*
D03*
X-883530D02*
D03*
X-808596D02*
D03*
X-733661D02*
D03*
X-658727D02*
D03*
X-583793D02*
D03*
X-508858D02*
D03*
X-433924D02*
D03*
X-358990D02*
D03*
X-284055D02*
D03*
X-1106299Y389370D02*
D03*
X-581890Y220079D02*
D03*
X-514173Y224016D02*
D03*
X-438583D02*
D03*
X-357283D02*
D03*
X-263779D02*
D03*
X-155020Y203937D02*
D03*
X-189173Y241535D02*
D03*
X38976Y204528D02*
D03*
X-58268D02*
D03*
X87598Y142323D02*
D03*
X-95866Y138386D02*
D03*
X-92716Y155315D02*
D03*
X-235236Y128150D02*
D03*
X-600000Y160236D02*
D03*
X-558858Y97835D02*
D03*
X-712992Y103424D02*
D03*
X-838976Y150591D02*
D03*
X-659646Y219291D02*
D03*
X-739370Y219488D02*
D03*
X-802756Y203937D02*
D03*
X-931890Y99016D02*
D03*
X-763976Y120472D02*
D03*
X-892520Y134449D02*
D03*
X-979528Y151575D02*
D03*
X-826772Y205512D02*
D03*
X-820276Y223819D02*
D03*
X-827441Y239764D02*
D03*
X-809252Y228740D02*
D03*
X-747835Y146457D02*
D03*
X-769685Y121063D02*
D03*
X-750591Y107087D02*
D03*
X-748228Y167520D02*
D03*
X-750197Y164370D02*
D03*
X-752362Y161811D02*
D03*
X-751378Y176969D02*
D03*
X-770012Y315354D02*
D03*
X-569095Y157480D02*
D03*
X-322244Y121653D02*
D03*
X-650591Y147638D02*
D03*
X-656102Y148425D02*
D03*
X-658858Y150787D02*
D03*
X-654724Y144488D02*
D03*
X-725591Y128150D02*
D03*
X12205Y305511D02*
D03*
X-902480Y239764D02*
D03*
X-916535Y303740D02*
D03*
X-919685Y301575D02*
D03*
X-838780Y100640D02*
D03*
X-694488Y234252D02*
D03*
X-753346Y223622D02*
D03*
X-750197D02*
D03*
X-1188189Y130512D02*
D03*
X28346Y441928D02*
D03*
X-155897Y309678D02*
D03*
X-868420Y115230D02*
D03*
X-864020Y115010D02*
D03*
X-864730Y138779D02*
D03*
X-858570Y120010D02*
D03*
X-800640Y117480D02*
D03*
X9921Y221730D02*
D03*
D29*
X5028Y282087D02*
D03*
X-18692D02*
D03*
X-52413D02*
D03*
D30*
X-4972D02*
D03*
X-28692D02*
D03*
X-42413D02*
D03*
D31*
X-699409Y274961D02*
D03*
D32*
Y264961D02*
D03*
D33*
X31181Y98228D02*
D03*
X71181D02*
D03*
X-306221Y116929D02*
D03*
X-221772Y116929D02*
D03*
X-181772D02*
D03*
X-390472D02*
D03*
X-350472D02*
D03*
X-1009370D02*
D03*
X-969370D02*
D03*
X-1093622Y116929D02*
D03*
X-1178071Y116929D02*
D03*
X-1138071D02*
D03*
X200079Y266732D02*
D03*
X240079D02*
D03*
X-1187323Y416929D02*
D03*
X-1147323D02*
D03*
X125079Y116732D02*
D03*
X165079D02*
D03*
X240079Y191929D02*
D03*
X200079D02*
D03*
X50079Y416929D02*
D03*
X90079D02*
D03*
X165079D02*
D03*
X125079D02*
D03*
X240079D02*
D03*
X200079D02*
D03*
X240079Y341929D02*
D03*
X200079D02*
D03*
X165079D02*
D03*
X125079D02*
D03*
X50079D02*
D03*
X90079D02*
D03*
X50079Y266732D02*
D03*
X90079D02*
D03*
X165079D02*
D03*
X125079D02*
D03*
X90079Y191929D02*
D03*
X50079D02*
D03*
X125079D02*
D03*
X165079D02*
D03*
X295079Y324528D02*
D03*
Y284528D02*
D03*
X275079Y416929D02*
D03*
X315079D02*
D03*
X-3622Y341929D02*
D03*
X-43622D02*
D03*
X-3622Y416929D02*
D03*
X-43622D02*
D03*
X295079Y134331D02*
D03*
Y174331D02*
D03*
X-202932Y191579D02*
D03*
X-162932D02*
D03*
X240079Y116929D02*
D03*
X200079D02*
D03*
X-78425Y98228D02*
D03*
X-118425D02*
D03*
X-43622D02*
D03*
X-3622D02*
D03*
X-659921Y116929D02*
D03*
X-699921D02*
D03*
X-756063Y266929D02*
D03*
X-716063D02*
D03*
X-1119173D02*
D03*
X-1159173D02*
D03*
X-1100473Y191929D02*
D03*
X-1140473D02*
D03*
X-1178071Y266929D02*
D03*
X-1138071D02*
D03*
X-1128622Y341929D02*
D03*
X-1168622D02*
D03*
X-43622Y173031D02*
D03*
X-3622D02*
D03*
X-97323Y191579D02*
D03*
X-137323D02*
D03*
X-240541D02*
D03*
X-200541D02*
D03*
X-303622Y191929D02*
D03*
X-343622D02*
D03*
X-418644D02*
D03*
X-378644D02*
D03*
X-453666D02*
D03*
X-493666D02*
D03*
X-568688D02*
D03*
X-528688D02*
D03*
X-603710D02*
D03*
X-643710D02*
D03*
X-718731D02*
D03*
X-678731D02*
D03*
X-753753D02*
D03*
X-793753D02*
D03*
X-868775D02*
D03*
X-828775D02*
D03*
X-903797D02*
D03*
X-943797D02*
D03*
X-1018819D02*
D03*
X-978819D02*
D03*
X-144370Y266929D02*
D03*
X-184370D02*
D03*
X-305827D02*
D03*
X-265827D02*
D03*
X-340866D02*
D03*
X-380866D02*
D03*
X-455905D02*
D03*
X-415906D02*
D03*
X-490945D02*
D03*
X-530945D02*
D03*
X-605984D02*
D03*
X-565984D02*
D03*
X-641024D02*
D03*
X-681024D02*
D03*
X-791102D02*
D03*
X-831102D02*
D03*
X-906142D02*
D03*
X-866142D02*
D03*
X-941181D02*
D03*
X-981181D02*
D03*
X-1056221D02*
D03*
X-1016220D02*
D03*
X-156417Y341929D02*
D03*
X-116417D02*
D03*
X-209939D02*
D03*
X-249939D02*
D03*
X-324938D02*
D03*
X-284938D02*
D03*
X-359936D02*
D03*
X-399936D02*
D03*
X-474934D02*
D03*
X-434934D02*
D03*
X-509933D02*
D03*
X-549933D02*
D03*
X-624931D02*
D03*
X-584931D02*
D03*
X-659930D02*
D03*
X-699930D02*
D03*
X-774928D02*
D03*
X-734928D02*
D03*
X-809926D02*
D03*
X-849926D02*
D03*
X-924925D02*
D03*
X-884925D02*
D03*
X-959923D02*
D03*
X-999923D02*
D03*
X-1074921D02*
D03*
X-1034921D02*
D03*
X-247520Y416929D02*
D03*
X-287520D02*
D03*
X-362504D02*
D03*
X-322503D02*
D03*
X-397487D02*
D03*
X-437487D02*
D03*
X-512471D02*
D03*
X-472471D02*
D03*
X-547454D02*
D03*
X-587454D02*
D03*
X-662438D02*
D03*
X-622438D02*
D03*
X-697421D02*
D03*
X-737421D02*
D03*
X-812405D02*
D03*
X-772405D02*
D03*
X-847388D02*
D03*
X-887389D02*
D03*
X-962372D02*
D03*
X-922372D02*
D03*
X-997356D02*
D03*
X-1037356D02*
D03*
X-1112339D02*
D03*
X-1072339D02*
D03*
D34*
X-266220Y116929D02*
D03*
D35*
X-296220Y96929D02*
D03*
X-1083622D02*
D03*
D36*
X-271220Y106929D02*
D03*
X-1058622D02*
D03*
D37*
X315079Y310528D02*
D03*
X275079Y306363D02*
D03*
Y156166D02*
D03*
X315079Y160331D02*
D03*
D38*
Y302634D02*
D03*
X275079Y298528D02*
D03*
Y148331D02*
D03*
X315079Y152437D02*
D03*
D39*
X-127323Y171580D02*
D03*
X-230541D02*
D03*
D40*
X-222435D02*
D03*
D41*
X-219939Y361929D02*
D03*
D42*
X-969923D02*
D03*
D43*
X-137553Y416929D02*
D03*
D44*
X-127553Y396929D02*
D03*
D45*
X-117553Y416929D02*
D03*
D46*
X-107553Y436929D02*
D03*
D47*
X-177536Y406929D02*
D03*
D48*
X-192536Y416929D02*
D03*
D49*
X-156815Y373600D02*
D03*
X-1156600Y377600D02*
D03*
X-174606Y377500D02*
D03*
X-134582Y380500D02*
D03*
X-61965Y264305D02*
D03*
X17380Y236060D02*
D03*
X2441D02*
D03*
X22432Y287830D02*
D03*
X-224000Y371000D02*
D03*
X-177879Y372700D02*
D03*
D50*
X-717259Y130518D02*
D03*
X-735630Y213976D02*
D03*
D51*
X33071Y246075D02*
D03*
X29035Y154823D02*
D03*
X-1028937Y372244D02*
D03*
Y360531D02*
D03*
X5551Y396968D02*
D03*
X-656693Y130512D02*
D03*
X-739173Y123622D02*
D03*
X-740551Y139173D02*
D03*
X-686811Y303346D02*
D03*
X-665158Y174213D02*
D03*
X-766732Y301772D02*
D03*
X-733465Y168898D02*
D03*
D52*
X-86840Y427700D02*
D03*
X-79360Y427700D02*
D03*
X-804134Y206102D02*
D03*
X-796654Y206102D02*
D03*
X-724606D02*
D03*
X-732087Y206102D02*
D03*
X-655512D02*
D03*
X-648032Y206102D02*
D03*
X-570079D02*
D03*
X-577559Y206102D02*
D03*
X-506693D02*
D03*
X-499213Y206102D02*
D03*
X-425612D02*
D03*
X-433093Y206102D02*
D03*
X-353346D02*
D03*
X-345866Y206102D02*
D03*
X-249213D02*
D03*
X-256693Y206102D02*
D03*
X-155709D02*
D03*
X-148228Y206102D02*
D03*
X-48228Y184449D02*
D03*
X-55709Y184449D02*
D03*
X38386Y201575D02*
D03*
X45866Y201575D02*
D03*
X121260Y202756D02*
D03*
X113779Y202756D02*
D03*
X189173Y203346D02*
D03*
X196653Y203346D02*
D03*
X-1181890Y127165D02*
D03*
X-1189370Y127165D02*
D03*
X-1105709D02*
D03*
X-1098228Y127165D02*
D03*
X-1014567D02*
D03*
X-1022047Y127165D02*
D03*
X-394291Y127165D02*
D03*
X-401772Y127165D02*
D03*
X-316535D02*
D03*
X-309055Y127165D02*
D03*
X-225394D02*
D03*
X-232874Y127165D02*
D03*
X-130709Y107677D02*
D03*
X-123228Y107677D02*
D03*
X-48622Y107874D02*
D03*
X-56102Y107874D02*
D03*
X19291D02*
D03*
X26772Y107874D02*
D03*
X117126Y121260D02*
D03*
X109646Y121260D02*
D03*
X185630Y125394D02*
D03*
X193110Y125394D02*
D03*
X264173Y137402D02*
D03*
X256693Y137402D02*
D03*
X268504Y284646D02*
D03*
X275984Y284646D02*
D03*
X275197Y394291D02*
D03*
X267717Y394291D02*
D03*
X-1149213Y172441D02*
D03*
X-1141732Y172441D02*
D03*
X-793504Y94882D02*
D03*
X-786024Y94882D02*
D03*
X-1038189Y237992D02*
D03*
X-1030709Y237992D02*
D03*
X70079Y385433D02*
D03*
X62598Y385433D02*
D03*
X142126Y387008D02*
D03*
X149606Y387008D02*
D03*
X69291Y313189D02*
D03*
X76772Y313189D02*
D03*
X143701Y313189D02*
D03*
X151181Y313189D02*
D03*
X69685Y238189D02*
D03*
X77165Y238189D02*
D03*
X143110Y238189D02*
D03*
X150591Y238189D02*
D03*
X217520Y238189D02*
D03*
X225000Y238189D02*
D03*
X217717Y313189D02*
D03*
X225197Y313189D02*
D03*
X45472Y213386D02*
D03*
X37992Y213386D02*
D03*
X119685Y213976D02*
D03*
X112205Y213976D02*
D03*
X218701Y162992D02*
D03*
X226181Y162992D02*
D03*
X265551Y145669D02*
D03*
X258071Y145669D02*
D03*
X275984Y292126D02*
D03*
X268504Y292126D02*
D03*
X291142Y387008D02*
D03*
X283661Y387008D02*
D03*
X217913Y387008D02*
D03*
X210433Y387008D02*
D03*
X-819291Y95079D02*
D03*
X-826772Y95079D02*
D03*
X2441Y242430D02*
D03*
X9921Y242430D02*
D03*
X17380Y242430D02*
D03*
X24861Y242430D02*
D03*
X-44291Y246063D02*
D03*
X-51772Y246063D02*
D03*
X13620Y272480D02*
D03*
X21100Y272480D02*
D03*
X-1094488Y387795D02*
D03*
X-1087008Y387795D02*
D03*
X-944452Y387795D02*
D03*
X-936972Y387795D02*
D03*
X-869435Y387795D02*
D03*
X-861954Y387795D02*
D03*
X-794417Y387795D02*
D03*
X-786936Y387795D02*
D03*
X-719399Y387795D02*
D03*
X-711918Y387795D02*
D03*
X-644381Y387795D02*
D03*
X-636901Y387795D02*
D03*
X-569363Y387795D02*
D03*
X-561883Y387795D02*
D03*
X-494345Y387795D02*
D03*
X-486865Y387795D02*
D03*
X-419327Y387795D02*
D03*
X-411847Y387795D02*
D03*
X-344309Y387795D02*
D03*
X-336829Y387795D02*
D03*
X-269291Y387795D02*
D03*
X-261811Y387795D02*
D03*
X-24213Y387402D02*
D03*
X-31693Y387402D02*
D03*
X-1019470Y387795D02*
D03*
X-1011990Y387795D02*
D03*
X-1057087Y313386D02*
D03*
X-1049606Y313386D02*
D03*
X-982087Y313386D02*
D03*
X-974606Y313386D02*
D03*
X-907087Y313386D02*
D03*
X-899606Y313386D02*
D03*
X-832087Y313386D02*
D03*
X-824606Y313386D02*
D03*
X-757087Y313386D02*
D03*
X-749606Y313386D02*
D03*
X-682087Y313386D02*
D03*
X-674606Y313386D02*
D03*
X-607087Y313386D02*
D03*
X-599606Y313386D02*
D03*
X-532087Y313386D02*
D03*
X-524606Y313386D02*
D03*
X-457087Y313386D02*
D03*
X-449606Y313386D02*
D03*
X-382087Y313386D02*
D03*
X-374606Y313386D02*
D03*
X-307087Y313386D02*
D03*
X-299606Y313386D02*
D03*
X-232087Y313386D02*
D03*
X-224606Y313386D02*
D03*
X-138779Y313189D02*
D03*
X-131299Y313189D02*
D03*
X-25591Y313189D02*
D03*
X-18110Y313189D02*
D03*
X-963150Y237992D02*
D03*
X-955669Y237992D02*
D03*
X-888110Y237992D02*
D03*
X-880630Y237992D02*
D03*
X-813071Y237992D02*
D03*
X-805591Y237992D02*
D03*
X-738031Y237992D02*
D03*
X-730551Y237992D02*
D03*
X-662992Y237992D02*
D03*
X-655512Y237992D02*
D03*
X-587953Y237992D02*
D03*
X-580472Y237992D02*
D03*
X-512913Y237992D02*
D03*
X-505433Y237992D02*
D03*
X-437874Y237992D02*
D03*
X-430394Y237992D02*
D03*
X-362835Y237992D02*
D03*
X-355354Y237992D02*
D03*
X-287795Y237992D02*
D03*
X-280315Y237992D02*
D03*
X-172638Y237402D02*
D03*
X-165157Y237402D02*
D03*
X-1000787Y163189D02*
D03*
X-993307Y163189D02*
D03*
X-925748Y163189D02*
D03*
X-918268Y163189D02*
D03*
X-850709Y163189D02*
D03*
X-843228Y163189D02*
D03*
X-794291Y213386D02*
D03*
X-801772Y213386D02*
D03*
X-724606Y213386D02*
D03*
X-732087Y213386D02*
D03*
X-645866Y213386D02*
D03*
X-653346Y213386D02*
D03*
X-569744Y212598D02*
D03*
X-577224Y212598D02*
D03*
X-497485Y213386D02*
D03*
X-504965Y213386D02*
D03*
X-425197Y213386D02*
D03*
X-432677Y213386D02*
D03*
X-344685Y213386D02*
D03*
X-352165Y213386D02*
D03*
X-249016Y213386D02*
D03*
X-256496Y213386D02*
D03*
X-150197Y213386D02*
D03*
X-157677Y213386D02*
D03*
X-43110Y195472D02*
D03*
X-50591Y195472D02*
D03*
X-1175787Y137795D02*
D03*
X-1183268Y137795D02*
D03*
X-1092224Y137795D02*
D03*
X-1099705Y137795D02*
D03*
X-1008661Y137795D02*
D03*
X-1016142Y137795D02*
D03*
X-394291Y134252D02*
D03*
X-401772Y134252D02*
D03*
X-308858Y134252D02*
D03*
X-316339Y134252D02*
D03*
X-225590Y134252D02*
D03*
X-233071Y134252D02*
D03*
X-119488Y118898D02*
D03*
X-126969Y118898D02*
D03*
X-42323Y120079D02*
D03*
X-49803Y120079D02*
D03*
X32480Y120079D02*
D03*
X25000Y120079D02*
D03*
X117913Y127953D02*
D03*
X110433Y127953D02*
D03*
X194882Y135433D02*
D03*
X187402Y135433D02*
D03*
X-1167520Y386811D02*
D03*
X-1160039Y386811D02*
D03*
X-1152165Y313189D02*
D03*
X-1144685Y313189D02*
D03*
X-1152165Y303937D02*
D03*
X-1144685Y303937D02*
D03*
X-1124213Y161614D02*
D03*
X-1116732Y161614D02*
D03*
X-768898Y94882D02*
D03*
X-776378Y94882D02*
D03*
D53*
X11258Y450013D02*
D03*
X14408D02*
D03*
X16376D02*
D03*
X20313D02*
D03*
X26219D02*
D03*
X30156D02*
D03*
X32124D02*
D03*
X35274D02*
D03*
X36258D02*
D03*
X33109D02*
D03*
X28187D02*
D03*
X24250D02*
D03*
X22282D02*
D03*
X18345D02*
D03*
X13424D02*
D03*
X10274D02*
D03*
D54*
X-1111877Y388583D02*
D03*
X-1111877Y396063D02*
D03*
X-1036942D02*
D03*
X-1036942Y388583D02*
D03*
X-962008D02*
D03*
X-962008Y396063D02*
D03*
X-887074D02*
D03*
X-887074Y388583D02*
D03*
X-812139D02*
D03*
X-812139Y396063D02*
D03*
X-737205D02*
D03*
X-737205Y388583D02*
D03*
X-662270D02*
D03*
X-662270Y396063D02*
D03*
X-587336D02*
D03*
X-587336Y388583D02*
D03*
X-512402D02*
D03*
X-512402Y396063D02*
D03*
X-437467D02*
D03*
X-437467Y388583D02*
D03*
X-362533D02*
D03*
X-362533Y396063D02*
D03*
X-287598D02*
D03*
X-287598Y388583D02*
D03*
X-174606D02*
D03*
X-174606Y396063D02*
D03*
X-42323D02*
D03*
X-42323Y388583D02*
D03*
X51772D02*
D03*
X51772Y396063D02*
D03*
X124803D02*
D03*
X124803Y388583D02*
D03*
X-1074459Y313583D02*
D03*
X-1074459Y321063D02*
D03*
X-999386Y321813D02*
D03*
X-999386Y314332D02*
D03*
X-924437D02*
D03*
X-924437Y321813D02*
D03*
X-849488D02*
D03*
X-849488Y314332D02*
D03*
X-774342D02*
D03*
X-774342Y321813D02*
D03*
X-698803D02*
D03*
X-698803Y314332D02*
D03*
X-623854D02*
D03*
X-623854Y321813D02*
D03*
X-548905D02*
D03*
X-548905Y314332D02*
D03*
X-473956D02*
D03*
X-473956Y321813D02*
D03*
X-399008D02*
D03*
X-399008Y314332D02*
D03*
X-324059D02*
D03*
X-324059Y321813D02*
D03*
X-249110Y321419D02*
D03*
X-249110Y313939D02*
D03*
X-155897Y314332D02*
D03*
X-155897Y321813D02*
D03*
X-42547D02*
D03*
X-42547Y314332D02*
D03*
X51968D02*
D03*
X51968Y321813D02*
D03*
X125787D02*
D03*
X125787Y314332D02*
D03*
X-980791Y238779D02*
D03*
X-980791Y246260D02*
D03*
X-905752D02*
D03*
X-905752Y238779D02*
D03*
X-830713D02*
D03*
X-830713Y246260D02*
D03*
X-755673D02*
D03*
X-755673Y238779D02*
D03*
X-680634D02*
D03*
X-680634Y246260D02*
D03*
X-605595D02*
D03*
X-605595Y238779D02*
D03*
X-530555D02*
D03*
X-530555Y246260D02*
D03*
X-455516D02*
D03*
X-455516Y238779D02*
D03*
X-380476D02*
D03*
X-380476Y246260D02*
D03*
X-305437D02*
D03*
X-305437Y238779D02*
D03*
X-184252Y238386D02*
D03*
X-184252Y245866D02*
D03*
X49803D02*
D03*
X49803Y238386D02*
D03*
X126181D02*
D03*
X126181Y245866D02*
D03*
X201378D02*
D03*
X201378Y238386D02*
D03*
X201575Y314332D02*
D03*
X201575Y321813D02*
D03*
X-1018331Y171260D02*
D03*
X-1018331Y163779D02*
D03*
X-943311D02*
D03*
X-943311Y171260D02*
D03*
X-868291D02*
D03*
X-868291Y163779D02*
D03*
X-712795Y109840D02*
D03*
X-712795Y117321D02*
D03*
X200984Y387992D02*
D03*
X200984Y395472D02*
D03*
X-1186811Y399016D02*
D03*
X-1186811Y391535D02*
D03*
X-1169882Y317520D02*
D03*
X-1169882Y325000D02*
D03*
X-1176772Y246850D02*
D03*
X-1176772Y239370D02*
D03*
X-1055831Y246260D02*
D03*
X-1055831Y238779D02*
D03*
X-838780Y146260D02*
D03*
X-838780Y138779D02*
D03*
X-838780Y122677D02*
D03*
X-838780Y130157D02*
D03*
X-838780Y104921D02*
D03*
X-838780Y112402D02*
D03*
X-767520Y146653D02*
D03*
X-767520Y139173D02*
D03*
X-820079Y162601D02*
D03*
X-820079Y170082D02*
D03*
X-796063Y170003D02*
D03*
X-796063Y162523D02*
D03*
X-744995Y117655D02*
D03*
X-744995Y110175D02*
D03*
X-66110Y282087D02*
D03*
X-66110Y274606D02*
D03*
X-156815Y385940D02*
D03*
X-156815Y378460D02*
D03*
X-828740Y162523D02*
D03*
X-828740Y170003D02*
D03*
X-722859Y117655D02*
D03*
X-722859Y110175D02*
D03*
X29626Y407087D02*
D03*
X29626Y414567D02*
D03*
X18799Y407087D02*
D03*
X18799Y414567D02*
D03*
X4134Y421693D02*
D03*
X4134Y429173D02*
D03*
X11319Y421693D02*
D03*
X11319Y429173D02*
D03*
X-7150Y267548D02*
D03*
X-7150Y260068D02*
D03*
X-224000Y399528D02*
D03*
X-224000Y392047D02*
D03*
X-186536Y387076D02*
D03*
X-186536Y379596D02*
D03*
D55*
X18602Y421850D02*
D03*
D56*
Y425591D02*
D03*
Y429331D02*
D03*
X31250Y421850D02*
D03*
Y425591D02*
D03*
Y429331D02*
D03*
D57*
X-825984Y109646D02*
D03*
D58*
Y112795D02*
D03*
Y115945D02*
D03*
Y119095D02*
D03*
Y122244D02*
D03*
Y125394D02*
D03*
Y128543D02*
D03*
Y131693D02*
D03*
Y134843D02*
D03*
Y137992D02*
D03*
Y141142D02*
D03*
X-782677D02*
D03*
Y137992D02*
D03*
Y134843D02*
D03*
Y131693D02*
D03*
Y128543D02*
D03*
Y125394D02*
D03*
Y122244D02*
D03*
Y119095D02*
D03*
Y115945D02*
D03*
Y112795D02*
D03*
Y109646D02*
D03*
D59*
X-820079Y147047D02*
D03*
X-816929D02*
D03*
X-813780D02*
D03*
X-810630D02*
D03*
X-807480D02*
D03*
X-804331D02*
D03*
X-801181D02*
D03*
X-798032D02*
D03*
X-794882D02*
D03*
X-791732D02*
D03*
X-788583D02*
D03*
Y103740D02*
D03*
X-791732D02*
D03*
X-794882D02*
D03*
X-798032D02*
D03*
X-801181D02*
D03*
X-804331D02*
D03*
X-807480D02*
D03*
X-810630D02*
D03*
X-813780D02*
D03*
X-816929D02*
D03*
X-820079D02*
D03*
D60*
X-43317Y260624D02*
D03*
D61*
X-52694Y264305D02*
D03*
Y256824D02*
D03*
D62*
X-625000Y138976D02*
D03*
D63*
X-620000D02*
D03*
X-615000D02*
D03*
X-610000D02*
D03*
X-605000D02*
D03*
X-600000D02*
D03*
X-595000D02*
D03*
X-590000D02*
D03*
X-585000D02*
D03*
X-580000D02*
D03*
X-575000D02*
D03*
X-570000D02*
D03*
Y98976D02*
D03*
X-575000D02*
D03*
X-580000D02*
D03*
X-585000D02*
D03*
X-590000D02*
D03*
X-595000D02*
D03*
X-600000D02*
D03*
X-605000D02*
D03*
X-610000D02*
D03*
X-615000D02*
D03*
X-620000D02*
D03*
X-625000D02*
D03*
D64*
X-812598Y162759D02*
D03*
X-803543Y169845D02*
D03*
Y162759D02*
D03*
D65*
X-812598Y169845D02*
D03*
D66*
X-257087Y106890D02*
D03*
X-310433Y96850D02*
D03*
X-1044488Y106890D02*
D03*
X-1097835Y96850D02*
D03*
D67*
X-733508Y118269D02*
D03*
X6160Y260068D02*
D03*
X21100D02*
D03*
D68*
X-737189Y108891D02*
D03*
X-729708D02*
D03*
X2480Y250690D02*
D03*
X9960D02*
D03*
X17420D02*
D03*
X24900D02*
D03*
D69*
X23228Y468898D02*
D03*
D70*
X32284Y441141D02*
X32677Y441535D01*
Y449581D01*
D71*
X-717259Y128213D02*
Y130518D01*
X-728156Y123622D02*
X-721850D01*
X-733508Y118269D02*
X-728156Y123622D01*
X-721850D02*
X-717259Y128213D01*
X-724189Y110175D02*
X-722859D01*
X-733508Y118269D02*
X-732423Y117184D01*
X-731198D01*
X-724189Y110175D01*
D72*
X-814173Y167717D02*
X-813780Y167323D01*
X-814173Y167717D02*
X-813780Y171653D01*
X-813980Y167523D02*
Y169649D01*
X-814170Y167713D02*
X-810240D01*
X-814134Y168107D02*
X-809846D01*
X-814095Y168500D02*
X-809842D01*
X-814056Y168894D02*
X-809842D01*
X-813859Y170862D02*
X-809842D01*
X-813819Y171256D02*
X-809842D01*
X-813780Y171650D02*
X-809842D01*
X-813780Y171653D02*
X-810236D01*
X-814016Y169288D02*
X-809842D01*
X-813977Y169681D02*
X-809842D01*
X-813937Y170075D02*
X-809842D01*
X-813898Y170469D02*
X-809842D01*
X-813780Y167323D02*
X-812598D01*
X-812799D02*
Y171653D01*
X-813586Y167323D02*
Y171653D01*
X-813193Y167323D02*
Y171653D01*
X-812598Y167323D02*
X-810630D01*
X-811618D02*
Y171653D01*
X-812405Y167323D02*
Y171653D01*
X-812012Y167323D02*
Y171653D01*
X-810630Y167323D02*
X-810236Y167717D01*
X-810437Y167516D02*
Y171653D01*
X-811224Y167323D02*
Y171653D01*
X-810830Y167323D02*
Y171653D01*
X-810236Y167717D02*
X-809842Y168110D01*
Y171653D01*
X-810236D02*
X-809842D01*
X-810043Y167910D02*
Y171653D01*
M02*
