M48
;Layer_Color=9474304
;FILE_FORMAT=2:4
INCH,LZ
;TYPE=PLATED
T1F00S00C0.0118
T2F00S00C0.0197
T3F00S00C0.0236
T4F00S00C0.0276
T5F00S00C0.0315
T6F00S00C0.0320
T7F00S00C0.0354
T8F00S00C0.0591
T9F00S00C0.0669
T10F00S00C0.1181
T11F00S00C0.1200
T12F00S00C0.1567
T13F00S00C0.1570
;TYPE=NON_PLATED
T14F00S00C0.0669
T15F00S00C0.1200
T16F00S00C0.1567
T17F00S00C0.1570
%
T01
X01876Y012874
X021142Y01561
X025256Y013287
X018583Y020354
X011555Y020543
X003898Y020453
X00876Y014232
Y012913
X010421Y012173
X016083Y014921
X002106Y011173
X-000039Y012717
X-005512Y011173
X-009587Y013839
X-009272Y015532
X-012894Y011142
X-005827Y020453
X000992Y022173
X002486Y022146
X-015502Y020394
X-023524Y012815
X-032224Y012165
X-040748Y012795
X-056683Y013888
X-056909Y015748
X-055886Y009783
X-058189Y022008
X-06Y016024
X-0605Y014882
X-060915Y012126
X-061368Y011713
X-061978Y012028
X-061722Y012586
X-062237Y012886
X-063939Y015219
X-065059Y014764
X-06561Y014843
X-065886Y015079
X-065472Y014449
X-065965Y021929
X-073937Y021949
X-075138Y017697
X-074823Y016752
X-07502Y016437
X-075236Y016181
X-074783Y014646
X-072559Y012815
X-071299Y010342
X-075059Y010709
X-076398Y012047
X-076968Y012106
X-080064Y011748
X-08315Y013543
X-083268Y013957
X-083898Y015059
X-086473Y013878
X-086402Y011501
X-086842Y011523
X-085857Y012001
X-083878Y010064
X-089252Y013445
X-086511Y016476
X-082677Y020551
X-08313Y021654
X-080276Y020394
X-094014Y016476
X-097953Y015157
X-101516Y016476
X-102106Y013051
X-103268Y010787
X-093189Y009902
X-110413Y013051
X-112185Y015098
X-118819Y013051
X-11566Y03776
X-106988Y031437
X-099506Y031535
X-092011
X-091968Y030157
X-091654Y030374
X-097752Y023976
X-105256
X-090248
X-082744
X-082028Y022382
X-080925Y022874
X-077268Y023351
X-077001Y031535
X-084516
X-069447
X-061952
X-060232Y023976
X-067736
X-069449Y023425
X-07524Y023976
X-075335Y022362
X-07502
X-051417Y022402
X-052728Y023976
X-045224
X-046963Y031535
X-054457
X-039468
X-031973
X-030217Y023976
X-035728Y022402
X-03772Y023976
X-043858Y022402
X-026378
X-018917Y024154
X-01559Y030968
X-015682Y03736
X-017461Y03775
X-017788Y03727
X-0224Y0371
X-024478Y031496
X-008889Y029469
X-006196Y02643
X-003839Y02252
X000244Y023606
X001738
X002243Y028783
X001594Y03061
X00122Y030551
X-000571Y03
X-003822Y031437
X000555Y037667
X00563Y031437
X009154Y030236
X013012Y031437
X012894Y023937
X016063Y022736
X009094Y023327
X004685Y023917
X020453Y023937
X023445Y022795
X027953Y023228
X026654Y028465
X025217Y029075
X022539Y029646
X025689Y032047
X023386Y038937
X019646
X012815Y039035
X005531Y039075
X003622Y044589
X002835Y044193
X00222Y044035
X001024Y044587
X-003878Y039075
X-013458Y03805
X-028406Y039075
X-035899
X-043392
X-050886
X-058379
X-065873
X-073366
X-08086
X-088353
X-095846
X-10334
X-11063Y038937
T02
X02372Y014567
X023071Y016299
X-005059Y021634
X-073563Y021398
X-071726Y013052
X-084429Y016012
X-091297Y016161
X-099272Y015689
X-101634Y014587
X-111673
X-114468Y030905
X-104461Y031181
X-100827
X-097075Y031201
X-098839Y023661
X-102539
X-095035
X-087531
X-080028
X-082085Y031201
X-08958
X-07457
X-067017
X-06502Y023661
X-07065Y023681
X-072524Y023661
X-057516
X-050012
X-052027Y031201
X-059522
X-044532Y03122
X-037037Y031201
X-029508Y031201
X-035004Y023661
X-042508
X-0275
X-015768Y022539
X-022049Y031222
X-001969Y030689
X007697Y023406
X011142Y023661
X015374
X018091
X018051Y031161
X015807
X023071
X024213Y030807
X022343Y023602
X020669Y038642
X027874Y038622
X014843Y039154
X005846Y038465
X-003661Y038642
X-025732Y03874
X-033234
X-040736
X-048237
X-055739
X-063241
X-078244
X-085746
X-093248
X-100768
X-108287
X-116043Y038169
T03
X002904Y015482
X-065669Y013051
X-066516Y017421
X-073346Y01689
X-074055Y013917
X-073917Y012362
X-102894Y036053
Y037224
X-076673Y030177
X-068681Y030335
X003307Y024608
X003465Y045551
X00119Y045551
X000555Y039697
T04
X004029Y045084
Y045123
Y045163
Y045202
Y045241
Y045281
Y04532
Y04536
Y045399
Y045438
Y045478
Y045517
Y045556
Y045596
Y045635
Y046769
Y046808
Y046848
Y046887
Y046926
Y046966
Y047005
Y047045
Y047084
Y047123
Y047163
Y047202
Y047241
X000624
Y047202
Y047163
Y047123
Y047084
Y047045
Y047005
Y046966
Y046926
Y046887
Y046848
Y046808
Y046769
Y045635
Y045596
Y045556
Y045517
Y045478
Y045438
Y045399
Y04536
Y04532
Y045281
Y045241
Y045202
Y045163
Y045123
Y045084
T05
X-005241Y028209
X-004241
X-002869
X-001869
X-000497
X000503
T06
X021818Y009693
X022608
X022191Y013693
X021408
X021818Y017193
X022608
X022191Y021193
X021408
X027508Y015617
Y014833
X031508Y015244
Y016033
X015108Y017193
X014318
X014691Y013673
X013908
X014318Y009673
X015108
X005718Y007823
X004929
X005302Y011823
X004518
X006819Y017193
X007608
X007191Y021193
X006408
X013908
X014691
X-002179Y019303
X-002962
X-002552Y015303
X-001762
X-002179Y011823
X-002962
X-002552Y007823
X-001762
X-009243
X-010032
X-009659Y011823
X-010443
X-011132Y017158
X-011922
X-011549Y021158
X-012332
X-01811
X-018893
X-021871
X-022654
X-022243Y017158
X-021454
X-018483
X-017693
X-019994Y013693
X-020777
X-020367Y009693
X-019577
X-028433Y013693
X-029222
X-031762Y017193
X-032552
X-032179Y021193
X-032962
X-039681
X-040464
X-040054Y017193
X-039264
X-037647Y013693
X-036864
X-037237Y009693
X-036447
X-046767Y017193
X-047556
X-047183Y021193
X-047967
X-054685
X-055469
X-055058Y017193
X-054269
X-061771
X-06256
X-062187Y021193
X-062971
X-06969
X-070473
X-070063Y017193
X-069273
X-068592Y013693
X-067809
X-068182Y009693
X-067392
X-076775Y017193
X-077565
X-077192Y021193
X-077975
X-084694
X-085478
X-085067Y017193
X-084278
X-09178
X-092569
X-092196Y021193
X-09298
X-099698
X-100482
X-100071Y017193
X-099282
X-099537Y013693
X-098753
X-099126Y009693
X-098337
X-107173Y013693
X-107962
X-111447Y017193
X-112237
X-111864Y021193
X-112647
X-115624Y013693
X-116407
X-115996Y009693
X-115207
X-114107Y024693
X-113317
X-115624Y028693
X-116407
X-115052Y032193
X-114262
X-114679Y036193
X-115462
X-106092
X-105309
X-105681Y032193
X-104892
X-104222Y028693
X-103439
X-103811Y024693
X-103022
X-096307
X-095518
X-095935Y028693
X-096718
X-097392Y032193
X-098182
X-097809Y036193
X-098592
X-091092
X-090309
X-090682Y032193
X-089892
X-089214Y028693
X-088431
X-088804Y024693
X-088014
X-0813
X-08051
X-080927Y028693
X-08171
X-082393Y032193
X-083182
X-082809Y036193
X-083593
X-076093
X-075682Y032193
X-074893
X-074206Y028693
X-073423
X-073796Y024693
X-073006
X-066292
X-065502
X-065919Y028693
X-066702
X-067393Y032193
X-068182
X-067809Y036193
X-068593
X-075309
X-061093
X-06031
X-060682Y032193
X-059893
X-059198Y028693
X-058415
X-058788Y024693
X-057998
X-051284
X-050494
X-050911Y028693
X-051694
X-052393Y032193
X-053183
X-05281Y036193
X-053593
X-046093
X-04531
X-045683Y032193
X-044893
X-044191Y028693
X-043407
X-04378Y024693
X-042991
X-036276
X-035487
X-035903Y028693
X-036687
X-037394Y032193
X-038183
X-03781Y036193
X-038594
X-031094
X-03031
X-030683Y032193
X-029894
X-029183Y028693
X-028772Y024693
X-027983
X-028399Y028693
X-023183Y032193
X-022394
X-02281Y036193
X-023594
X-014242
X-013458
X-013831Y032193
X-013042
X-016253Y028693
X-017037
X-016626Y024693
X-015837
X-002552Y032193
X-001762
X-002179Y036193
X-002962
X006408
X007191
X006819Y032193
X007608
X007191Y028673
X006408
X006819Y024673
X007608
X014318
X015108
X014691Y028673
X013908
X014318Y032193
X015108
X014691Y036193
X013908
X021408
X022191
X021818Y032193
X022608
X022191Y028673
X021408
X021818Y024673
X022608
X027508Y029853
Y030636
X031508Y030263
Y031053
X030108Y039693
X029318
X029691Y043693
X028908
X022191
X021408
X021818Y039693
X022608
X015108
X014318
X014691Y043693
X013908
X007191
X006408
X006819Y039693
X007608
X-001762
X-002552
X-002179Y043693
X-002962
X-011572
X-012355
X-011945Y039693
X-011155
X-014892
X-015682
X-018654
X-019443
X-01907Y043693
X-019854
X-016092
X-015309
X-026568
X-027352
X-026941Y039693
X-026152
X-03365
X-03444
X-034067Y043693
X-03485
X-041565
X-042349
X-041938Y039693
X-041149
X-048647
X-049436
X-049064Y043693
X-049847
X-056562
X-057345
X-056935Y039693
X-056145
X-063644
X-064433
X-06406Y043693
X-064844
X-071559
X-072342
X-071932Y039693
X-071142
X-07864
X-07943
X-079057Y043693
X-07984
X-086555
X-087339
X-086928Y039693
X-086139
X-093637
X-094427
X-094054Y043693
X-094837
X-101552
X-102336
X-101925Y039693
X-101136
X-108634
X-109423
X-10905Y043693
X-109834
X-116549
X-117332
X-116922Y039693
X-116132
T07
X-069941Y026496
Y027496
T08
X021008Y009693
X020508Y012693
X023008Y013693
X023508Y010693
X023508Y018193
X023008Y021193
X020508Y020193
X021008Y017193
X027508Y016433
X030508Y016933
X031508Y014433
X028508Y013933
X015508Y013673
X016008Y010673
X013508Y009673
X013008Y012673
X013508Y017193
X016008Y018193
X015508Y021193
X013008Y020193
X008008Y021193
X005508Y020193
X006008Y017193
X008508Y018193
X006118Y011823
X006618Y008823
X004118Y007823
X003618Y010823
X-001362Y011823
X-000862Y008823
X-003362Y007823
X-003862Y010823
X-003362Y015303
X-000862Y016303
X-001362Y019303
X-003862Y018303
X-010232Y018158
X-010732Y021158
X-012732Y017158
X-011343Y010823
X-008843Y011823
X-008343Y008823
X-010843Y007823
X-018677Y010693
X-021177Y009693
X-021677Y012693
X-019177Y013693
X-019293Y017158
X-020554Y018158
X-019793Y020158
X-021054Y021158
X-023554Y020158
X-023054Y017158
X-016793Y018158
X-017293Y021158
X-013232Y020158
X-031362Y021193
X-033862Y020193
X-033362Y017193
X-030862Y018193
X-038364
X-040864Y017193
X-041364Y020193
X-038864Y021193
X-038547Y012693
X-038047Y009693
X-035547Y010693
X-036047Y013693
X-045867Y018193
X-046367Y021193
X-048867Y020193
X-048367Y017193
X-053369Y018193
X-055869Y017193
X-056369Y020193
X-053869Y021193
X-061371
X-063871Y020193
X-063371Y017193
X-060871Y018193
X-068373
X-070873Y017193
X-071373Y020193
X-068873Y021193
X-069492Y012693
X-066992Y013693
X-066492Y010693
X-068992Y009693
X-075875Y018193
X-076375Y021193
X-078875Y020193
X-078375Y017193
X-083378Y018193
X-085878Y017193
X-086378Y020193
X-083878Y021193
X-09088Y018193
X-09138Y021193
X-09388Y020193
X-09338Y017193
X-098382Y018193
X-100882Y017193
X-101382Y020193
X-098882Y021193
X-097937Y013693
X-097437Y010693
X-099937Y009693
X-100437Y012693
X-114807Y013693
X-114307Y010693
X-116807Y009693
X-117307Y012693
X-113047Y017193
X-113547Y020193
X-111047Y021193
X-110547Y018193
X-112417Y025693
X-114307
X-114917Y024693
X-116807
X-117307Y027693
X-115417
X-114807Y028693
X-112917
X-113362Y033193
X-113862Y036193
X-116362Y035193
X-115862Y032193
X-106992Y035193
X-106492Y032193
X-103992Y033193
X-104492Y036193
X-099492Y035193
X-096992Y036193
X-096492Y033193
X-098992Y032193
X-097618Y027693
X-095118Y028693
X-094618Y025693
X-097118Y024693
X-102122Y025693
X-104622Y024693
X-105122Y027693
X-102622Y028693
X-091492Y032193
X-091992Y035193
X-089492Y036193
X-088992Y033193
X-087614Y028693
X-087114Y025693
X-089614Y024693
X-090114Y027693
X-08261
X-08011Y028693
X-07961Y025693
X-08211Y024693
X-081493Y033193
X-081993Y036193
X-084493Y035193
X-083993Y032193
X-076493
X-076993Y035193
X-074493Y036193
X-073993Y033193
X-072606Y028693
X-072106Y025693
X-074606Y024693
X-075106Y027693
X-067602
X-065102Y028693
X-064602Y025693
X-067102Y024693
X-066493Y033193
X-066993Y036193
X-069493Y035193
X-068993Y032193
X-061493
X-061993Y035193
X-060098Y027693
X-059598Y024693
X-057098Y025693
X-057598Y028693
X-058993Y033193
X-059493Y036193
X-054493Y035193
X-051993Y036193
X-051493Y033193
X-053993Y032193
X-052594Y027693
X-050094Y028693
X-049594Y025693
X-052094Y024693
X-044591
X-045091Y027693
X-046493Y032193
X-046993Y035193
X-044493Y036193
X-043993Y033193
X-042591Y028693
X-042091Y025693
X-037087Y024693
X-037587Y027693
X-035087Y028693
X-034587Y025693
X-029583Y024693
X-030083Y027693
X-031494Y032193
X-028994Y033193
X-029494Y036193
X-031994Y035193
X-036994Y036193
X-039494Y035193
X-038994Y032193
X-036494Y033193
X-027583Y028693
X-027083Y025693
X-023994Y032193
X-024494Y035193
X-021994Y036193
X-021494Y033193
X-014642Y032193
X-015142Y035193
X-015437Y028693
X-017937Y027693
X-017437Y024693
X-014937Y025693
X-012142Y033193
X-012642Y036193
X-003862Y035193
X-001362Y036193
X-000862Y033193
X-003362Y032193
X006008
X008508Y033193
X008008Y036193
X005508Y035193
X013008
X015508Y036193
X016008Y033193
X013508Y032193
X013008Y027673
X015508Y028673
X016008Y025673
X013508Y024673
X008508Y025673
X006008Y024673
X005508Y027673
X008008Y028673
X020508Y027673
X021008Y024673
X023508Y025673
X023008Y028673
X023508Y033193
X023008Y036193
X020508Y035193
X021008Y032193
X027508Y031453
X028508Y028953
X031508Y029453
X030508Y031953
X031008Y040693
X028508Y039693
X028008Y042693
X030508Y043693
X023008
X020508Y042693
X021008Y039693
X023508Y040693
X016008
X015508Y043693
X013008Y042693
X013508Y039693
X008508Y040693
X006008Y039693
X005508Y042693
X008008Y043693
X-001362
X-003862Y042693
X-003362Y039693
X-000862Y040693
X-010255
X-012755Y039693
X-010755Y043693
X-013255Y042693
X-014492Y043693
X-013992Y040693
X-016492Y039693
X-017754Y040693
X-016992Y042693
X-018254Y043693
X-020754Y042693
X-020254Y039693
X-025252Y040693
X-025752Y043693
X-028252Y042693
X-027752Y039693
X-03275Y040693
X-03525Y039693
X-03575Y042693
X-03325Y043693
X-040749
X-043249Y042693
X-042749Y039693
X-040249Y040693
X-047747
X-050247Y039693
X-050747Y042693
X-048247Y043693
X-055745
X-058245Y042693
X-057745Y039693
X-055245Y040693
X-062744
X-065244Y039693
X-065744Y042693
X-063244Y043693
X-070742
X-073242Y042693
X-072742Y039693
X-070242Y040693
X-077741
X-08024Y039693
X-08074Y042693
X-07824Y043693
X-085739
X-088239Y042693
X-087739Y039693
X-085239Y040693
X-092737
X-095237Y039693
X-095737Y042693
X-093237Y043693
X-100736
X-103236Y042693
X-102736Y039693
X-100236Y040693
X-107734
X-110234Y039693
X-110734Y042693
X-108234Y043693
X-115732
X-115232Y040693
X-117732Y039693
X-118232Y042693
T09
X020008Y011693
X024008
X029508Y013433
Y017433
X024008Y019193
X020008
X016508
X012508
X009008
X005008
X003118Y009823
X007118
X012508Y011673
X016508
X-000362Y009823
X-004362
X-007843
X-011843
X-009732Y019158
X-004362Y017303
X-000362
X-013732Y019158
X-016293
X-020054
X-020293
X-024054
X-022177Y011693
X-018177
X-026622Y011693
X-030622
X-035047Y011693
X-039047
X-037864Y019193
X-034362
X-030362
X-041864
X-045367
X-049367
X-052869
X-056869
X-060371
X-064371
X-067873
X-071873
X-075375
X-069992Y011693
X-065992
X-079375Y019193
X-082878
X-086878
X-09038
X-09438
X-097882
X-101882
X-100937Y011693
X-096937
X-109362Y011693
X-113807Y011693
X-117807
X-114047Y019193
X-110047
X-111917Y026693
X-113807
X-115917
X-117807
X-116862Y034193
X-112862
X-107492
X-103492
X-099992
X-095992
X-092492
X-094118Y026693
X-098118
X-101622
X-105622
X-090614
X-086614
X-08311
X-07911
X-075606
X-077493Y034193
X-080993
X-084993
X-088492
X-073493
X-069993
X-065993
X-062493
X-064102Y026693
X-060598
X-068102
X-071606
X-056598
X-053094
X-049094
X-045591
X-047493Y034193
X-050993
X-054993
X-058493
X-043493
X-039994
X-035994
X-032494
X-034087Y026693
X-030583
X-038087
X-041591
X-026583
X-018437
X-014437
X-015642Y034193
X-020994
X-024994
X-028494
X-011642
X-004362
X-000362
X005008
X009008
X012508
X016508
X016508Y026673
X012508
X009008
X005008
X020008
X024008
X029508Y028453
Y032453
X024008Y034193
X020008
Y041693
X024008
X027508
X031508
X016508
X012508
X009008
X005008
X-000362
X-004362
X-009755
X-013492
X-013755
X-017254
X-017492
X-021254
X-024752
X-028752
X-03225
X-03625
X-039749
X-043749
X-047247
X-051247
X-054745
X-058745
X-062244
X-066244
X-069742
X-073742
X-077241
X-081241
X-084739
X-088739
X-092237
X-096237
X-099736
X-103736
X-107234
X-111234
X-114732
X-118732
T10
X-027122Y010693
X-029622Y009693
X-105862Y010693
X-108362Y009693
T11
X032258Y010733
Y020133
X-013593Y016408
X-022993
X-045492Y009043
X-090492
X-107347Y021943
X-116747
X-021137Y023943
X-011737
X032258Y025753
Y035153
T12
X022008Y011693
X022008Y019193
X029508Y015433
X014508Y011673
X014508Y019193
X007008
X005118Y009823
X-002362
X-009843
X-011732Y019158
X-002362Y017303
X-018293Y019158
X-022054
X-020177Y011693
X-037047
X-039864Y019193
X-032362
X-047367
X-054869
X-062371
X-069873
X-067992Y011693
X-077375Y019193
X-084878
X-09238
X-099882
X-098937Y011693
X-107362Y011693
X-115807Y011693
X-112047Y019193
X-113917Y026693
X-115807
X-114862Y034193
X-105492
X-097992
X-096118Y026693
X-103622
X-088614
X-08111
X-082993Y034193
X-075493
X-090492
X-067993
X-060493
X-066102Y026693
X-073606
X-058598
X-051094
X-052993Y034193
X-045493
X-037994
X-030494
X-036087Y026693
X-043591
X-028583
X-016437
X-013642Y034193
X-022994
X-002362
X007008
X014508
X014508Y026673
X007008
X022008
X022008Y034193
X029508Y030453
X029508Y041693
X022008
X014508
X007008
X-002362
X-011755
X-015492
X-019254
X-026752
X-03425
X-041749
X-049247
X-056745
X-064244
X-071742
X-07924
X-086739
X-094237
X-101736
X-109234
X-116732
T13
X026258Y010733
Y020133
X-045492Y015043
X-090492
X-107347Y015943
X-116747
X-022993Y022408
X-021137Y029943
X-013593Y022408
X-011737Y029943
X026258Y025753
Y035153
X-010792Y038443
T14
X-105362Y011693
T15
X-010792Y044443
X-020192
T16
X-028622Y011693
T17
X-020192Y038443
M30
