%FSLAX25Y25*%
%MOIN*%
G70*
G01*
G75*
G04 Layer_Color=32896*
%ADD10C,0.01500*%
%ADD11C,0.03937*%
%ADD12C,0.01000*%
%ADD13C,0.01575*%
%ADD14C,0.03150*%
%ADD15C,0.01400*%
%ADD16C,0.01969*%
%ADD17R,0.04724X0.06300*%
%ADD18O,0.04724X0.06300*%
%ADD19C,0.06689*%
%ADD20O,0.09840X0.08800*%
%ADD21O,0.08661X0.09840*%
%ADD22C,0.16929*%
%ADD23C,0.09840*%
%ADD24C,0.12000*%
%ADD25C,0.15700*%
%ADD26O,0.03937X0.09449*%
%ADD27C,0.02756*%
%ADD28C,0.02362*%
%ADD29O,0.05118X0.07087*%
%ADD30R,0.05118X0.07087*%
%ADD31O,0.07087X0.05906*%
%ADD32R,0.07087X0.05906*%
%ADD33C,0.07874*%
%ADD34C,0.07087*%
%ADD35C,0.13780*%
%ADD36O,0.14000X0.13000*%
%ADD37O,0.06300X0.04724*%
%ADD38R,0.06300X0.04724*%
%ADD39C,0.08661*%
G04:AMPARAMS|DCode=40|XSize=47.24mil|YSize=63mil|CornerRadius=0mil|HoleSize=0mil|Usage=FLASHONLY|Rotation=0.000|XOffset=0mil|YOffset=0mil|HoleType=Round|Shape=Octagon|*
%AMOCTAGOND40*
4,1,8,-0.01181,0.03150,0.01181,0.03150,0.02362,0.01969,0.02362,-0.01969,0.01181,-0.03150,-0.01181,-0.03150,-0.02362,-0.01969,-0.02362,0.01969,-0.01181,0.03150,0.0*
%
%ADD40OCTAGOND40*%

%ADD41O,0.08000X0.09840*%
%ADD42O,0.08661X0.09843*%
%ADD43C,0.06693*%
%ADD44O,0.08661X0.09839*%
%ADD45C,0.15669*%
%ADD46O,0.08661X0.09840*%
%ADD47O,0.09840X0.08661*%
%ADD48C,0.15669*%
%ADD49C,0.02441*%
%ADD50C,0.03150*%
%ADD51C,0.03937*%
%ADD52R,0.04331X0.04921*%
%ADD53R,0.00984X0.05118*%
%ADD54R,0.04921X0.04331*%
%ADD55R,0.05906X0.01969*%
%ADD56O,0.05906X0.01969*%
%ADD57O,0.07874X0.01969*%
%ADD58R,0.07874X0.01969*%
%ADD59R,0.01969X0.07874*%
%ADD60R,0.04724X0.03937*%
%ADD61R,0.03543X0.03937*%
%ADD62R,0.02559X0.07874*%
%ADD63O,0.02559X0.07874*%
%ADD64R,0.05118X0.04331*%
%ADD65R,0.03937X0.03937*%
%ADD66R,0.11811X0.09843*%
%ADD67R,0.03937X0.04724*%
%ADD68R,0.03937X0.03543*%
%ADD69R,0.19685X0.15748*%
%ADD70C,0.02362*%
%ADD71C,0.02756*%
%ADD72C,0.00394*%
%ADD73R,0.05524X0.07100*%
%ADD74O,0.05524X0.07100*%
%ADD75C,0.07489*%
%ADD76O,0.10640X0.09600*%
%ADD77O,0.09461X0.10640*%
%ADD78C,0.17729*%
%ADD79C,0.10640*%
%ADD80C,0.12800*%
%ADD81C,0.16500*%
%ADD82O,0.04737X0.10249*%
%ADD83C,0.03556*%
%ADD84C,0.03162*%
%ADD85O,0.05918X0.07887*%
%ADD86R,0.05918X0.07887*%
%ADD87O,0.07887X0.06706*%
%ADD88R,0.07887X0.06706*%
%ADD89C,0.08674*%
%ADD90C,0.07887*%
%ADD91C,0.14579*%
%ADD92O,0.14800X0.13800*%
%ADD93O,0.07100X0.05524*%
%ADD94R,0.07100X0.05524*%
%ADD95C,0.09461*%
G04:AMPARAMS|DCode=96|XSize=55.24mil|YSize=71mil|CornerRadius=0mil|HoleSize=0mil|Usage=FLASHONLY|Rotation=0.000|XOffset=0mil|YOffset=0mil|HoleType=Round|Shape=Octagon|*
%AMOCTAGOND96*
4,1,8,-0.01381,0.03550,0.01381,0.03550,0.02762,0.02169,0.02762,-0.02169,0.01381,-0.03550,-0.01381,-0.03550,-0.02762,-0.02169,-0.02762,0.02169,-0.01381,0.03550,0.0*
%
%ADD96OCTAGOND96*%

%ADD97O,0.08800X0.10640*%
%ADD98O,0.09461X0.10642*%
%ADD99C,0.07493*%
%ADD100O,0.09461X0.10639*%
%ADD101C,0.16469*%
%ADD102O,0.09461X0.10640*%
%ADD103O,0.10640X0.09461*%
%ADD104C,0.16469*%
%ADD105C,0.03950*%
%ADD106C,0.04737*%
%ADD107R,0.05131X0.05721*%
%ADD108R,0.01784X0.05918*%
%ADD109R,0.05721X0.05131*%
%ADD110R,0.06706X0.02769*%
%ADD111O,0.06706X0.02769*%
%ADD112O,0.08674X0.02769*%
%ADD113R,0.08674X0.02769*%
%ADD114R,0.02769X0.08674*%
%ADD115R,0.05524X0.04737*%
%ADD116R,0.04343X0.04737*%
%ADD117R,0.03359X0.08674*%
%ADD118O,0.03359X0.08674*%
%ADD119R,0.05918X0.05131*%
%ADD120R,0.04737X0.04737*%
%ADD121R,0.12611X0.10642*%
%ADD122R,0.04737X0.05524*%
%ADD123R,0.04737X0.04343*%
%ADD124R,0.20485X0.16548*%
%ADD125C,0.00787*%
%ADD126C,0.00197*%
%ADD127C,0.01200*%
%ADD128C,0.00591*%
%ADD129C,0.00472*%
D12*
X-801598Y165845D02*
Y166845D01*
X-809298Y161845D02*
X-806598D01*
X-809298Y170845D02*
X-806598D01*
X-814598Y165845D02*
Y166845D01*
X-255112Y141339D02*
X-249114D01*
X-251114Y139339D01*
X-249114Y137340D01*
X-255112D01*
Y135340D02*
Y133341D01*
Y134341D01*
X-249114D01*
Y135340D01*
Y133341D01*
Y130342D02*
X-255112D01*
X-249114Y126343D01*
X-255112D01*
X-252113Y124344D02*
Y120345D01*
X-249114Y118346D02*
X-255112D01*
Y115347D01*
X-254113Y114347D01*
X-252113D01*
X-251114Y115347D01*
Y118346D01*
Y116347D02*
X-249114Y114347D01*
X-1041726Y142126D02*
X-1035728D01*
X-1037728Y140127D01*
X-1035728Y138127D01*
X-1041726D01*
Y136128D02*
Y134129D01*
Y135128D01*
X-1035728D01*
Y136128D01*
Y134129D01*
Y131130D02*
X-1041726D01*
X-1035728Y127131D01*
X-1041726D01*
X-1038727Y125131D02*
Y121133D01*
X-1041726Y119133D02*
X-1035728D01*
Y115135D01*
X110138Y94980D02*
Y100978D01*
X107139D01*
X106139Y99979D01*
Y97979D01*
X107139Y96980D01*
X110138D01*
X108138D02*
X106139Y94980D01*
X104140Y100978D02*
X102140D01*
X103140D01*
Y94980D01*
X104140D01*
X102140D01*
X95143Y99979D02*
X96142Y100978D01*
X98142D01*
X99141Y99979D01*
Y95980D01*
X98142Y94980D01*
X96142D01*
X95143Y95980D01*
Y97979D01*
X97142D01*
X93143Y100978D02*
Y94980D01*
Y97979D01*
X89145D01*
Y100978D01*
Y94980D01*
X87145Y100978D02*
X83147D01*
X85146D01*
Y94980D01*
X-1096423Y268924D02*
X-1095423Y269923D01*
X-1093424D01*
X-1092424Y268924D01*
Y264925D01*
X-1093424Y263925D01*
X-1095423D01*
X-1096423Y264925D01*
X-1098423Y263925D02*
Y267924D01*
X-1100422Y269923D01*
X-1102421Y267924D01*
Y263925D01*
Y266924D01*
X-1098423D01*
X-1104420Y263925D02*
Y269923D01*
X-1107420D01*
X-1108419Y268924D01*
Y266924D01*
X-1107420Y265925D01*
X-1104420D01*
X-183034Y160018D02*
X-182035Y161018D01*
X-180035D01*
X-179035Y160018D01*
Y159018D01*
X-180035Y158019D01*
X-182035D01*
X-183034Y157019D01*
Y156019D01*
X-182035Y155020D01*
X-180035D01*
X-179035Y156019D01*
X-185034Y161018D02*
Y155020D01*
Y158019D01*
X-189032D01*
Y161018D01*
Y155020D01*
X-191032Y161018D02*
X-193031D01*
X-192031D01*
Y155020D01*
X-191032D01*
X-193031D01*
X-200029Y161018D02*
X-196030D01*
Y158019D01*
X-198029D01*
X-196030D01*
Y155020D01*
X-202028Y161018D02*
X-206027D01*
X-204027D01*
Y155020D01*
X-208026Y158019D02*
X-212025D01*
X-214024Y155020D02*
Y161018D01*
X-217023D01*
X-218023Y160018D01*
Y158019D01*
X-217023Y157019D01*
X-214024D01*
X-216023D02*
X-218023Y155020D01*
X-1054723Y193924D02*
X-1053723Y194923D01*
X-1051724D01*
X-1050724Y193924D01*
Y192924D01*
X-1051724Y191924D01*
X-1053723D01*
X-1054723Y190925D01*
Y189925D01*
X-1053723Y188925D01*
X-1051724D01*
X-1050724Y189925D01*
X-1056723Y194923D02*
Y188925D01*
Y191924D01*
X-1060721D01*
Y194923D01*
Y188925D01*
X-1062720Y194923D02*
X-1064720D01*
X-1063720D01*
Y188925D01*
X-1062720D01*
X-1064720D01*
X-1071718Y194923D02*
X-1067719D01*
Y191924D01*
X-1069718D01*
X-1067719D01*
Y188925D01*
X-1073717Y194923D02*
X-1077716D01*
X-1075716D01*
Y188925D01*
X-1079715Y191924D02*
X-1083714D01*
X-1085713Y194923D02*
Y188925D01*
X-1089712D01*
X-1101824Y344923D02*
X-1105823D01*
X-1103824D01*
Y338925D01*
X-1107823D02*
Y342924D01*
X-1109822Y344923D01*
X-1111821Y342924D01*
Y338925D01*
Y341924D01*
X-1107823D01*
X-1113820Y344923D02*
Y338925D01*
X-1116820D01*
X-1117819Y339925D01*
Y340925D01*
X-1116820Y341924D01*
X-1113820D01*
X-1116820D01*
X-1117819Y342924D01*
Y343924D01*
X-1116820Y344923D01*
X-1113820D01*
X-1126144Y419778D02*
X-1122146D01*
Y413779D01*
X-1126144D01*
X-1122146Y416779D02*
X-1124145D01*
X-1132142Y418778D02*
X-1131143Y419778D01*
X-1129143D01*
X-1128144Y418778D01*
Y417778D01*
X-1129143Y416779D01*
X-1131143D01*
X-1132142Y415779D01*
Y414779D01*
X-1131143Y413779D01*
X-1129143D01*
X-1128144Y414779D01*
X-1138140Y418778D02*
X-1137141Y419778D01*
X-1135141D01*
X-1134142Y418778D01*
Y414779D01*
X-1135141Y413779D01*
X-1137141D01*
X-1138140Y414779D01*
X225394Y386199D02*
X221395Y382201D01*
X225394D02*
X221395Y386199D01*
X225394Y384200D02*
X221395D01*
X223394Y382201D02*
Y386199D01*
X297076Y386124D02*
X293077D01*
X297076Y271724D02*
X293077D01*
X295076Y273724D02*
Y269725D01*
X301907Y191037D02*
X305906D01*
Y185039D01*
X301907D01*
X305906Y188038D02*
X303906D01*
X299907Y185039D02*
Y191037D01*
X295909Y185039D01*
Y191037D01*
X293909D02*
X289911D01*
X291910D01*
Y185039D01*
X283913Y191037D02*
X287911D01*
Y185039D01*
X283913D01*
X287911Y188038D02*
X285912D01*
X281913Y185039D02*
Y191037D01*
X278914D01*
X277915Y190038D01*
Y188038D01*
X278914Y187039D01*
X281913D01*
X279914D02*
X277915Y185039D01*
X273916D02*
X275915Y187039D01*
Y189038D01*
X273916Y191037D01*
X266918Y190038D02*
X267918Y191037D01*
X269917D01*
X270917Y190038D01*
Y189038D01*
X269917Y188038D01*
X267918D01*
X266918Y187039D01*
Y186039D01*
X267918Y185039D01*
X269917D01*
X270917Y186039D01*
X264919Y185039D02*
X262919Y187039D01*
Y189038D01*
X264919Y191037D01*
X276772Y98419D02*
Y92421D01*
X273773D01*
X272773Y93421D01*
Y97420D01*
X273773Y98419D01*
X276772D01*
X266775D02*
X270774D01*
Y92421D01*
X266775D01*
X270774Y95420D02*
X268774D01*
X264775Y98419D02*
Y92421D01*
X260777D01*
X189764Y98994D02*
X188764Y99994D01*
X186765D01*
X185765Y98994D01*
Y94996D01*
X186765Y93996D01*
X188764D01*
X189764Y94996D01*
Y98994D01*
X181766Y93996D02*
X183766Y95995D01*
Y97995D01*
X181766Y99994D01*
X174769Y98994D02*
X175768Y99994D01*
X177768D01*
X178767Y98994D01*
Y97995D01*
X177768Y96995D01*
X175768D01*
X174769Y95995D01*
Y94996D01*
X175768Y93996D01*
X177768D01*
X178767Y94996D01*
X172769Y93996D02*
X170770Y95995D01*
Y97995D01*
X172769Y99994D01*
X7388Y117028D02*
X13386D01*
Y114029D01*
X12386Y113029D01*
X8387D01*
X7388Y114029D01*
Y117028D01*
Y108030D02*
Y110030D01*
X8387Y111030D01*
X12386D01*
X13386Y110030D01*
Y108030D01*
X12386Y107031D01*
X8387D01*
X7388Y108030D01*
Y105031D02*
X13386D01*
X11387Y103032D01*
X13386Y101033D01*
X7388D01*
X13386Y99033D02*
X7388D01*
X13386Y95035D01*
X7388D01*
X-68104Y117520D02*
X-62106D01*
Y113521D01*
X-68104Y107523D02*
Y111522D01*
X-62106D01*
Y107523D01*
X-65105Y111522D02*
Y109522D01*
X-68104Y101525D02*
Y105524D01*
X-65105D01*
Y103524D01*
Y105524D01*
X-62106D01*
X-68104Y99525D02*
Y95527D01*
Y97526D01*
X-62106D01*
X-171435Y138226D02*
X-172435Y139225D01*
Y141225D01*
X-171435Y142224D01*
X-167437D01*
X-166437Y141225D01*
Y139225D01*
X-167437Y138226D01*
X-172435Y136226D02*
Y132228D01*
Y134227D01*
X-166437D01*
Y130228D02*
X-172435D01*
Y127229D01*
X-171435Y126230D01*
X-169436D01*
X-168436Y127229D01*
Y130228D01*
Y128229D02*
X-166437Y126230D01*
X-172435Y124230D02*
X-166437D01*
Y120231D01*
X-169436Y118232D02*
Y114234D01*
X-166437Y112234D02*
X-172435D01*
Y109235D01*
X-171435Y108235D01*
X-169436D01*
X-168436Y109235D01*
Y112234D01*
Y110235D02*
X-166437Y108235D01*
X-334449Y140650D02*
X-338447D01*
X-340447Y138650D01*
X-338447Y136651D01*
X-334449D01*
X-337448D01*
Y140650D01*
X-340447Y134652D02*
X-334449D01*
Y130653D01*
X-340447Y128654D02*
Y124655D01*
Y126654D01*
X-334449D01*
X-337448Y122655D02*
Y118657D01*
X-334449Y116657D02*
X-340447D01*
Y113658D01*
X-339447Y112659D01*
X-337448D01*
X-336448Y113658D01*
Y116657D01*
Y114658D02*
X-334449Y112659D01*
X-680180Y153325D02*
X-679180Y154325D01*
X-677181D01*
X-676181Y153325D01*
Y152325D01*
X-677181Y151326D01*
X-679180D01*
X-680180Y150326D01*
Y149326D01*
X-679180Y148327D01*
X-677181D01*
X-676181Y149326D01*
X-682179Y148327D02*
Y154325D01*
X-685178D01*
X-686178Y153325D01*
Y151326D01*
X-685178Y150326D01*
X-682179D01*
X-688177Y148327D02*
Y152325D01*
X-690177Y154325D01*
X-692176Y152325D01*
Y148327D01*
Y151326D01*
X-688177D01*
X-698174Y153325D02*
X-697174Y154325D01*
X-695175D01*
X-694175Y153325D01*
Y149326D01*
X-695175Y148327D01*
X-697174D01*
X-698174Y149326D01*
X-704172Y154325D02*
X-700173D01*
Y148327D01*
X-704172D01*
X-700173Y151326D02*
X-702173D01*
X-952559Y142126D02*
X-956558D01*
X-958557Y140127D01*
X-956558Y138127D01*
X-952559D01*
X-955558D01*
Y142126D01*
X-958557Y136128D02*
X-952559D01*
Y132129D01*
X-958557Y130130D02*
Y126131D01*
Y128130D01*
X-952559D01*
X-955558Y124132D02*
Y120133D01*
X-958557Y118134D02*
X-952559D01*
Y114135D01*
X-1127735Y137832D02*
X-1128734Y138832D01*
Y140831D01*
X-1127735Y141831D01*
X-1123736D01*
X-1122736Y140831D01*
Y138832D01*
X-1123736Y137832D01*
X-1128734Y135833D02*
Y131834D01*
Y133833D01*
X-1122736D01*
Y129835D02*
X-1128734D01*
Y126836D01*
X-1127735Y125836D01*
X-1125735D01*
X-1124736Y126836D01*
Y129835D01*
Y127835D02*
X-1122736Y125836D01*
X-1128734Y123837D02*
X-1122736D01*
Y119838D01*
X-1125735Y117839D02*
Y113840D01*
X-1128734Y111840D02*
X-1122736D01*
Y107842D01*
X206102Y160609D02*
X205103Y161608D01*
X203103D01*
X202104Y160609D01*
Y159609D01*
X203103Y158609D01*
X204103D01*
X203103D01*
X202104Y157610D01*
Y156610D01*
X203103Y155610D01*
X205103D01*
X206102Y156610D01*
X198105Y155610D02*
X200104Y157610D01*
Y159609D01*
X198105Y161608D01*
X191107Y160609D02*
X192107Y161608D01*
X194106D01*
X195106Y160609D01*
Y159609D01*
X194106Y158609D01*
X192107D01*
X191107Y157610D01*
Y156610D01*
X192107Y155610D01*
X194106D01*
X195106Y156610D01*
X189108Y155610D02*
X187109Y157610D01*
Y159609D01*
X189108Y161608D01*
X150577Y155225D02*
X154576D01*
X150577Y159224D01*
Y160224D01*
X151577Y161223D01*
X153576D01*
X154576Y160224D01*
X146578Y155225D02*
X148577Y157225D01*
Y159224D01*
X146578Y161223D01*
X139580Y160224D02*
X140580Y161223D01*
X142579D01*
X143579Y160224D01*
Y159224D01*
X142579Y158224D01*
X140580D01*
X139580Y157225D01*
Y156225D01*
X140580Y155225D01*
X142579D01*
X143579Y156225D01*
X137581Y155225D02*
X135582Y157225D01*
Y159224D01*
X137581Y161223D01*
X79076Y155225D02*
X77076D01*
X78076D01*
Y161223D01*
X79076Y160224D01*
X72078Y155225D02*
X74077Y157225D01*
Y159224D01*
X72078Y161223D01*
X65080Y160224D02*
X66080Y161223D01*
X68079D01*
X69079Y160224D01*
Y159224D01*
X68079Y158224D01*
X66080D01*
X65080Y157225D01*
Y156225D01*
X66080Y155225D01*
X68079D01*
X69079Y156225D01*
X63081Y155225D02*
X61081Y157225D01*
Y159224D01*
X63081Y161223D01*
X17176Y176023D02*
Y171025D01*
X16176Y170025D01*
X14177D01*
X13177Y171025D01*
Y176023D01*
X11178Y170025D02*
Y176023D01*
X8179D01*
X7179Y175024D01*
Y173024D01*
X8179Y172025D01*
X11178D01*
X-80523Y194623D02*
X-76524D01*
Y191624D01*
X-78524D01*
X-76524D01*
Y188625D01*
X-82522D02*
Y194623D01*
X-86521Y188625D01*
Y194623D01*
X-288824Y189925D02*
X-292823Y193924D01*
X-366924Y191425D02*
Y192425D01*
X-367924D01*
Y191425D01*
X-366924D01*
X-441924Y191426D02*
X-442924Y192425D01*
Y193425D01*
X-441924D01*
Y192425D01*
X-442924D01*
X-441924Y191426D01*
X-440924Y190426D01*
X-513924Y188925D02*
Y194923D01*
X-515924Y192924D01*
X-517923Y194923D01*
Y188925D01*
X-588924D02*
Y194923D01*
X-592923Y188925D01*
Y194923D01*
X-664024D02*
Y188925D01*
X-667023D01*
X-668023Y189925D01*
Y190925D01*
X-667023Y191924D01*
X-664024D01*
X-667023D01*
X-668023Y192924D01*
Y193924D01*
X-667023Y194923D01*
X-664024D01*
X-739024D02*
Y190925D01*
X-741024Y188925D01*
X-743023Y190925D01*
Y194923D01*
X-818023Y193924D02*
X-817023Y194923D01*
X-815024D01*
X-814024Y193924D01*
Y189925D01*
X-815024Y188925D01*
X-817023D01*
X-818023Y189925D01*
X-889024Y194923D02*
X-893023Y188925D01*
Y194923D02*
X-889024Y188925D01*
X-964024Y194923D02*
X-968023D01*
Y193924D01*
X-964024Y189925D01*
Y188925D01*
X-968023D01*
X222047Y303263D02*
X221048Y302264D01*
X219048D01*
X218049Y303263D01*
Y307262D01*
X219048Y308262D01*
X221048D01*
X222047Y307262D01*
Y306262D01*
X221048Y305263D01*
X218049D01*
X214050Y302264D02*
X216049Y304263D01*
Y306262D01*
X214050Y308262D01*
X207052Y307262D02*
X208052Y308262D01*
X210051D01*
X211051Y307262D01*
Y306262D01*
X210051Y305263D01*
X208052D01*
X207052Y304263D01*
Y303263D01*
X208052Y302264D01*
X210051D01*
X211051Y303263D01*
X205053Y302264D02*
X203053Y304263D01*
Y306262D01*
X205053Y308262D01*
X217950Y231884D02*
X219950Y230884D01*
X221949Y228885D01*
Y226886D01*
X220949Y225886D01*
X218950D01*
X217950Y226886D01*
Y227885D01*
X218950Y228885D01*
X221949D01*
X213951Y225886D02*
X215951Y227885D01*
Y229885D01*
X213951Y231884D01*
X206954Y230884D02*
X207953Y231884D01*
X209953D01*
X210952Y230884D01*
Y229885D01*
X209953Y228885D01*
X207953D01*
X206954Y227885D01*
Y226886D01*
X207953Y225886D01*
X209953D01*
X210952Y226886D01*
X204954Y225886D02*
X202955Y227885D01*
Y229885D01*
X204954Y231884D01*
X142458Y232573D02*
X146457D01*
Y229574D01*
X144457Y230574D01*
X143458D01*
X142458Y229574D01*
Y227574D01*
X143458Y226575D01*
X145457D01*
X146457Y227574D01*
X138459Y226575D02*
X140459Y228574D01*
Y230574D01*
X138459Y232573D01*
X131462Y231573D02*
X132461Y232573D01*
X134461D01*
X135460Y231573D01*
Y230574D01*
X134461Y229574D01*
X132461D01*
X131462Y228574D01*
Y227574D01*
X132461Y226575D01*
X134461D01*
X135460Y227574D01*
X129462Y226575D02*
X127463Y228574D01*
Y230574D01*
X129462Y232573D01*
X68851Y227658D02*
Y233656D01*
X71850Y230657D01*
X67852D01*
X63853Y227658D02*
X65852Y229657D01*
Y231656D01*
X63853Y233656D01*
X56855Y232656D02*
X57855Y233656D01*
X59854D01*
X60854Y232656D01*
Y231656D01*
X59854Y230657D01*
X57855D01*
X56855Y229657D01*
Y228657D01*
X57855Y227658D01*
X59854D01*
X60854Y228657D01*
X54856Y227658D02*
X52856Y229657D01*
Y231656D01*
X54856Y233656D01*
X-109623Y269923D02*
X-105624D01*
Y263925D01*
X-109623D01*
X-105624Y266924D02*
X-107624D01*
X-111623Y263925D02*
Y269923D01*
X-115621Y263925D01*
Y269923D01*
X-117621D02*
X-121619D01*
X-119620D01*
Y263925D01*
X-127617Y269923D02*
X-123619D01*
Y263925D01*
X-127617D01*
X-123619Y266924D02*
X-125618D01*
X-129617Y263925D02*
Y269923D01*
X-132616D01*
X-133615Y268924D01*
Y266924D01*
X-132616Y265925D01*
X-129617D01*
X-131616D02*
X-133615Y263925D01*
X-255024Y268423D02*
Y266424D01*
X-254024Y265424D01*
X-329124Y268424D02*
Y269424D01*
X-330124D01*
Y268424D01*
X-329124D01*
Y266425D02*
X-330124D01*
Y265425D01*
X-329124Y264425D01*
X-330124Y265425D02*
X-329124D01*
Y266425D01*
X-401124Y269923D02*
Y263925D01*
X-405123D01*
X-476224Y269923D02*
Y263925D01*
Y265925D01*
X-480223Y269923D01*
X-477224Y266924D01*
X-480223Y263925D01*
X-555223Y269923D02*
X-553224D01*
X-554223D01*
Y264925D01*
X-553224Y263925D01*
X-552224D01*
X-551224Y264925D01*
X-626224Y269923D02*
Y263925D01*
Y266924D01*
X-630223D01*
Y269923D01*
Y263925D01*
X-708821Y256967D02*
X-707822Y257967D01*
X-705823D01*
X-704823Y256967D01*
Y252968D01*
X-705823Y251969D01*
X-707822D01*
X-708821Y252968D01*
Y254967D01*
X-706822D01*
X-780323Y269923D02*
X-776324D01*
Y266924D01*
X-778324D01*
X-776324D01*
Y263925D01*
X-851424Y269923D02*
Y263925D01*
X-854423D01*
X-855423Y264925D01*
Y268924D01*
X-854423Y269923D01*
X-851424D01*
X-930423Y268924D02*
X-929423Y269923D01*
X-927424D01*
X-926424Y268924D01*
Y267924D01*
X-927424Y266924D01*
X-929423D01*
X-930423Y265925D01*
Y264925D01*
X-929423Y263925D01*
X-927424D01*
X-926424Y264925D01*
X-1001424Y263925D02*
Y267924D01*
X-1003424Y269923D01*
X-1005423Y267924D01*
Y263925D01*
Y266924D01*
X-1001424D01*
X146949Y308050D02*
X145949Y309049D01*
X143950D01*
X142950Y308050D01*
Y307050D01*
X143950Y306050D01*
X142950Y305050D01*
Y304051D01*
X143950Y303051D01*
X145949D01*
X146949Y304051D01*
Y305050D01*
X145949Y306050D01*
X146949Y307050D01*
Y308050D01*
X145949Y306050D02*
X143950D01*
X138951Y303051D02*
X140951Y305050D01*
Y307050D01*
X138951Y309049D01*
X131954Y308050D02*
X132953Y309049D01*
X134953D01*
X135952Y308050D01*
Y307050D01*
X134953Y306050D01*
X132953D01*
X131954Y305050D01*
Y304051D01*
X132953Y303051D01*
X134953D01*
X135952Y304051D01*
X129954Y303051D02*
X127955Y305050D01*
Y307050D01*
X129954Y309049D01*
X71850Y308754D02*
X67852D01*
Y307754D01*
X71850Y303756D01*
Y302756D01*
X63853D02*
X65852Y304755D01*
Y306755D01*
X63853Y308754D01*
X56855Y307754D02*
X57855Y308754D01*
X59854D01*
X60854Y307754D01*
Y306755D01*
X59854Y305755D01*
X57855D01*
X56855Y304755D01*
Y303756D01*
X57855Y302756D01*
X59854D01*
X60854Y303756D01*
X54856Y302756D02*
X52856Y304755D01*
Y306755D01*
X54856Y308754D01*
X-61805Y355020D02*
X-55807D01*
Y352021D01*
X-56807Y351021D01*
X-60805D01*
X-61805Y352021D01*
Y355020D01*
Y345023D02*
Y349022D01*
X-55807D01*
Y345023D01*
X-58806Y349022D02*
Y347022D01*
X-61805Y343024D02*
X-55807D01*
Y339025D01*
X-61805Y333027D02*
Y337025D01*
X-55807D01*
Y333027D01*
X-58806Y337025D02*
Y335026D01*
X-61805Y331027D02*
Y327029D01*
Y329028D01*
X-55807D01*
X-61805Y321031D02*
Y325029D01*
X-55807D01*
Y321031D01*
X-58806Y325029D02*
Y323030D01*
X-105623Y339925D02*
X-101624Y343924D01*
X-197224Y338925D02*
X-199224D01*
Y344923D01*
X-197224D01*
X-274224Y338925D02*
X-272224D01*
Y344923D01*
X-274224D01*
X-345224Y338925D02*
Y344923D01*
X-348223D01*
X-349223Y343924D01*
Y341924D01*
X-348223Y340925D01*
X-345224D01*
X-423223Y344923D02*
X-421224D01*
X-420224Y343924D01*
Y339925D01*
X-421224Y338925D01*
X-423223D01*
X-424223Y339925D01*
Y343924D01*
X-423223Y344923D01*
X-497224D02*
X-499224D01*
X-498224D01*
Y338925D01*
X-497224D01*
X-499224D01*
X-570224Y344923D02*
Y339925D01*
X-571224Y338925D01*
X-573223D01*
X-574223Y339925D01*
Y344923D01*
X-645224D02*
Y343924D01*
X-647224Y341924D01*
X-649223Y343924D01*
Y344923D01*
X-647224Y341924D02*
Y338925D01*
X-720124Y344923D02*
X-724123D01*
X-722124D01*
Y338925D01*
X-795124D02*
Y344923D01*
X-798123D01*
X-799123Y343924D01*
Y341924D01*
X-798123Y340925D01*
X-795124D01*
X-797124D02*
X-799123Y338925D01*
X-874123Y344923D02*
X-870124D01*
Y338925D01*
X-874123D01*
X-870124Y341924D02*
X-872124D01*
X-945124Y344923D02*
Y338925D01*
X-947124Y340925D01*
X-949123Y338925D01*
Y344923D01*
X-1024123Y339925D02*
Y343924D01*
X-1023123Y344923D01*
X-1021124D01*
X-1020124Y343924D01*
Y339925D01*
X-1021124Y338925D01*
X-1023123D01*
X-1022124Y340925D02*
X-1024123Y338925D01*
X-1023123D02*
X-1024123Y339925D01*
X158465Y382087D02*
X154466Y386085D01*
X92126Y382283D02*
Y388281D01*
X88127Y382283D01*
Y388281D01*
X86128D02*
Y383283D01*
X85128Y382283D01*
X83129D01*
X82129Y383283D01*
Y388281D01*
X80130Y382283D02*
Y388281D01*
X78131Y386282D01*
X76131Y388281D01*
Y382283D01*
X-63675Y429724D02*
Y427725D01*
Y428725D01*
X-57677D01*
Y429724D01*
Y427725D01*
Y424726D02*
X-63675D01*
X-57677Y420727D01*
X-63675D01*
X-62675Y414729D02*
X-63675Y415729D01*
Y417728D01*
X-62675Y418728D01*
X-61676D01*
X-60676Y417728D01*
Y415729D01*
X-59676Y414729D01*
X-58677D01*
X-57677Y415729D01*
Y417728D01*
X-58677Y418728D01*
X-63675Y408731D02*
Y412730D01*
X-57677D01*
Y408731D01*
X-60676Y412730D02*
Y410731D01*
X-57677Y406732D02*
X-63675D01*
Y403733D01*
X-62675Y402733D01*
X-60676D01*
X-59676Y403733D01*
Y406732D01*
Y404733D02*
X-57677Y402733D01*
X-63675Y400734D02*
Y396735D01*
Y398734D01*
X-57677D01*
X-125100Y385898D02*
Y379900D01*
X-128099D01*
X-129099Y380900D01*
Y381899D01*
X-128099Y382899D01*
X-125100D01*
X-128099D01*
X-129099Y383899D01*
Y384898D01*
X-128099Y385898D01*
X-125100D01*
X-131098Y379900D02*
Y383899D01*
X-133097Y385898D01*
X-135097Y383899D01*
Y379900D01*
Y382899D01*
X-131098D01*
X-141095Y384898D02*
X-140095Y385898D01*
X-138096D01*
X-137096Y384898D01*
Y380900D01*
X-138096Y379900D01*
X-140095D01*
X-141095Y380900D01*
X-143094Y385898D02*
Y379900D01*
Y381899D01*
X-147093Y385898D01*
X-144094Y382899D01*
X-147093Y379900D01*
X-232724Y415925D02*
X-236723D01*
X-232724Y417924D02*
X-236723D01*
X-307724Y416924D02*
X-311723D01*
X-382724Y418924D02*
X-383724Y419923D01*
X-385723D01*
X-386723Y418924D01*
Y414925D01*
X-385723Y413925D01*
X-383724D01*
X-382724Y414925D01*
Y418924D01*
X-457724Y414925D02*
X-458724Y413925D01*
X-460723D01*
X-461723Y414925D01*
Y418924D01*
X-460723Y419923D01*
X-458724D01*
X-457724Y418924D01*
Y417924D01*
X-458724Y416924D01*
X-461723D01*
X-532724Y418924D02*
X-533724Y419923D01*
X-535723D01*
X-536723Y418924D01*
Y417924D01*
X-535723Y416924D01*
X-536723Y415925D01*
Y414925D01*
X-535723Y413925D01*
X-533724D01*
X-532724Y414925D01*
Y415925D01*
X-533724Y416924D01*
X-532724Y417924D01*
Y418924D01*
X-533724Y416924D02*
X-535723D01*
X-607724Y419923D02*
X-611723D01*
Y418924D01*
X-607724Y414925D01*
Y413925D01*
X-686623Y419923D02*
X-684624Y418924D01*
X-682624Y416924D01*
Y414925D01*
X-683624Y413925D01*
X-685623D01*
X-686623Y414925D01*
Y415925D01*
X-685623Y416924D01*
X-682624D01*
X-761623Y419923D02*
X-757624D01*
Y416924D01*
X-759624Y417924D01*
X-760623D01*
X-761623Y416924D01*
Y414925D01*
X-760623Y413925D01*
X-758624D01*
X-757624Y414925D01*
X-835623Y413925D02*
Y419923D01*
X-832624Y416924D01*
X-836623D01*
X-907624Y418924D02*
X-908624Y419923D01*
X-910623D01*
X-911623Y418924D01*
Y417924D01*
X-910623Y416924D01*
X-909624D01*
X-910623D01*
X-911623Y415925D01*
Y414925D01*
X-910623Y413925D01*
X-908624D01*
X-907624Y414925D01*
X-986623Y413925D02*
X-982624D01*
X-986623Y417924D01*
Y418924D01*
X-985623Y419923D01*
X-983624D01*
X-982624Y418924D01*
X-173015Y374300D02*
Y378299D01*
X-175014Y380298D01*
X-177014Y378299D01*
Y374300D01*
Y377299D01*
X-173015D01*
X-179013Y374300D02*
X-181012D01*
X-180013D01*
Y380298D01*
X-179013Y379298D01*
X-95231Y375100D02*
Y379099D01*
X-97231Y381098D01*
X-99230Y379099D01*
Y375100D01*
Y378099D01*
X-95231D01*
X-105228Y375100D02*
X-101230D01*
X-105228Y379099D01*
Y380098D01*
X-104228Y381098D01*
X-102229D01*
X-101230Y380098D01*
D72*
X26083Y419095D02*
G03*
X24213Y419095I-935J0D01*
G01*
X-815322Y113189D02*
G03*
X-815322Y113189I-2395J0D01*
G01*
X-4745Y276847D02*
G03*
X6195Y278355I4852J5240D01*
G01*
X6282Y285672D02*
G03*
X-4828Y287248I-6175J-3586D01*
G01*
X-265740Y91543D02*
G03*
X-262205Y100079I-8535J8535D01*
G01*
X-274685Y87598D02*
G03*
X-266149Y91134I0J12071D01*
G01*
X-303937Y104331D02*
G03*
X-305315Y101004I3327J-3327D01*
G01*
X-298709Y106496D02*
G03*
X-303937Y104331I0J-7393D01*
G01*
X-286921Y106496D02*
G03*
X-281693Y108661I0J7393D01*
G01*
X-270276Y116142D02*
G03*
X-276996Y113358I0J-9505D01*
G01*
X-262992Y114961D02*
G03*
X-265844Y116142I-2851J-2851D01*
G01*
X-262205Y113060D02*
G03*
X-262992Y114961I-2688J0D01*
G01*
X-1053142Y91543D02*
G03*
X-1049606Y100079I-8535J8535D01*
G01*
X-1062087Y87598D02*
G03*
X-1053551Y91134I0J12071D01*
G01*
X-1091339Y104331D02*
G03*
X-1092717Y101004I3327J-3327D01*
G01*
X-1086111Y106496D02*
G03*
X-1091339Y104331I0J-7393D01*
G01*
X-1074322Y106496D02*
G03*
X-1069094Y108661I0J7393D01*
G01*
X-1057677Y116142D02*
G03*
X-1064398Y113358I0J-9505D01*
G01*
X-1050394Y114961D02*
G03*
X-1053245Y116142I-2851J-2851D01*
G01*
X-1049606Y113060D02*
G03*
X-1050394Y114961I-2688J0D01*
G01*
X-28465Y276847D02*
G03*
X-17525Y278355I4852J5240D01*
G01*
X-17438Y285672D02*
G03*
X-28548Y287248I-6175J-3586D01*
G01*
X-42640Y287326D02*
G03*
X-53580Y285818I-4852J-5240D01*
G01*
X-53667Y278501D02*
G03*
X-42557Y276925I6175J3586D01*
G01*
X-182480Y444488D02*
X-127362D01*
Y389370D02*
Y444488D01*
X-182480Y389370D02*
X-127362D01*
X-182480D02*
Y444488D01*
X-89517Y430771D02*
X-76604D01*
X-89517Y424629D02*
Y430771D01*
X-76604Y424629D02*
Y430771D01*
X-89517Y424629D02*
X-76604D01*
X37046Y454147D02*
Y480387D01*
X9290D02*
X37046D01*
X9290Y454147D02*
Y480387D01*
X-812992Y172835D02*
X-811614Y174213D01*
X-814567Y174409D02*
X-812992Y172835D01*
X-814567Y174409D02*
X-811614D01*
X-1114948Y385906D02*
Y398819D01*
Y385906D02*
X-1108806D01*
X-1114948Y398819D02*
X-1108806D01*
Y385906D02*
Y398819D01*
X-1033871Y385906D02*
Y398819D01*
X-1040013D02*
X-1033871D01*
X-1040013Y385906D02*
X-1033871D01*
X-1040013D02*
Y398819D01*
X-965079Y385906D02*
Y398819D01*
Y385906D02*
X-958937D01*
X-965079Y398819D02*
X-958937D01*
Y385906D02*
Y398819D01*
X-884003Y385906D02*
Y398819D01*
X-890144D02*
X-884003D01*
X-890144Y385906D02*
X-884003D01*
X-890144D02*
Y398819D01*
X-815210Y385906D02*
Y398819D01*
Y385906D02*
X-809068D01*
X-815210Y398819D02*
X-809068D01*
Y385906D02*
Y398819D01*
X-734134Y385906D02*
Y398819D01*
X-740276D02*
X-734134D01*
X-740276Y385906D02*
X-734134D01*
X-740276D02*
Y398819D01*
X-665341Y385906D02*
Y398819D01*
Y385906D02*
X-659199D01*
X-665341Y398819D02*
X-659199D01*
Y385906D02*
Y398819D01*
X-584265Y385906D02*
Y398819D01*
X-590407D02*
X-584265D01*
X-590407Y385906D02*
X-584265D01*
X-590407D02*
Y398819D01*
X-515473Y385906D02*
Y398819D01*
Y385906D02*
X-509331D01*
X-515473Y398819D02*
X-509331D01*
Y385906D02*
Y398819D01*
X-434396Y385906D02*
Y398819D01*
X-440538D02*
X-434396D01*
X-440538Y385906D02*
X-434396D01*
X-440538D02*
Y398819D01*
X-365604Y385906D02*
Y398819D01*
Y385906D02*
X-359462D01*
X-365604Y398819D02*
X-359462D01*
Y385906D02*
Y398819D01*
X-284528Y385906D02*
Y398819D01*
X-290669D02*
X-284528D01*
X-290669Y385906D02*
X-284528D01*
X-290669D02*
Y398819D01*
X-177677Y385906D02*
Y398819D01*
Y385906D02*
X-171535D01*
X-177677Y398819D02*
X-171535D01*
Y385906D02*
Y398819D01*
X-39252Y385906D02*
Y398819D01*
X-45394D02*
X-39252D01*
X-45394Y385906D02*
X-39252D01*
X-45394D02*
Y398819D01*
X48701Y385906D02*
Y398819D01*
Y385906D02*
X54843D01*
X48701Y398819D02*
X54843D01*
Y385906D02*
Y398819D01*
X127874Y385906D02*
Y398819D01*
X121732D02*
X127874D01*
X121732Y385906D02*
X127874D01*
X121732D02*
Y398819D01*
X-1077530Y310906D02*
Y323819D01*
Y310906D02*
X-1071388D01*
X-1077530Y323819D02*
X-1071388D01*
Y310906D02*
Y323819D01*
X-996315Y311655D02*
Y324569D01*
X-1002457D02*
X-996315D01*
X-1002457Y311655D02*
X-996315D01*
X-1002457D02*
Y324569D01*
X-927508Y311655D02*
Y324569D01*
Y311655D02*
X-921366D01*
X-927508Y324569D02*
X-921366D01*
Y311655D02*
Y324569D01*
X-846417Y311655D02*
Y324569D01*
X-852559D02*
X-846417D01*
X-852559Y311655D02*
X-846417D01*
X-852559D02*
Y324569D01*
X-777413Y311655D02*
Y324569D01*
Y311655D02*
X-771272D01*
X-777413Y324569D02*
X-771272D01*
Y311655D02*
Y324569D01*
X-695732Y311655D02*
Y324569D01*
X-701874D02*
X-695732D01*
X-701874Y311655D02*
X-695732D01*
X-701874D02*
Y324569D01*
X-626925Y311655D02*
Y324569D01*
Y311655D02*
X-620783D01*
X-626925Y324569D02*
X-620783D01*
Y311655D02*
Y324569D01*
X-545834Y311655D02*
Y324569D01*
X-551976D02*
X-545834D01*
X-551976Y311655D02*
X-545834D01*
X-551976D02*
Y324569D01*
X-477027Y311655D02*
Y324569D01*
Y311655D02*
X-470886D01*
X-477027Y324569D02*
X-470886D01*
Y311655D02*
Y324569D01*
X-395937Y311655D02*
Y324569D01*
X-402078D02*
X-395937D01*
X-402078Y311655D02*
X-395937D01*
X-402078D02*
Y324569D01*
X-327130Y311655D02*
Y324569D01*
Y311655D02*
X-320988D01*
X-327130Y324569D02*
X-320988D01*
Y311655D02*
Y324569D01*
X-246039Y311261D02*
Y324175D01*
X-252181D02*
X-246039D01*
X-252181Y311261D02*
X-246039D01*
X-252181D02*
Y324175D01*
X-158968Y311655D02*
Y324569D01*
Y311655D02*
X-152827D01*
X-158968Y324569D02*
X-152827D01*
Y311655D02*
Y324569D01*
X-39477Y311655D02*
Y324569D01*
X-45618D02*
X-39477D01*
X-45618Y311655D02*
X-39477D01*
X-45618D02*
Y324569D01*
X48898Y311655D02*
Y324569D01*
Y311655D02*
X55039D01*
X48898Y324569D02*
X55039D01*
Y311655D02*
Y324569D01*
X128858Y311655D02*
Y324569D01*
X122716D02*
X128858D01*
X122716Y311655D02*
X128858D01*
X122716D02*
Y324569D01*
X-983862Y236102D02*
Y249016D01*
Y236102D02*
X-977721D01*
X-983862Y249016D02*
X-977721D01*
Y236102D02*
Y249016D01*
X-902681Y236102D02*
Y249016D01*
X-908823D02*
X-902681D01*
X-908823Y236102D02*
X-902681D01*
X-908823D02*
Y249016D01*
X-833784Y236102D02*
Y249016D01*
Y236102D02*
X-827642D01*
X-833784Y249016D02*
X-827642D01*
Y236102D02*
Y249016D01*
X-752602Y236102D02*
Y249016D01*
X-758744D02*
X-752602D01*
X-758744Y236102D02*
X-752602D01*
X-758744D02*
Y249016D01*
X-683705Y236102D02*
Y249016D01*
Y236102D02*
X-677563D01*
X-683705Y249016D02*
X-677563D01*
Y236102D02*
Y249016D01*
X-602524Y236102D02*
Y249016D01*
X-608666D02*
X-602524D01*
X-608666Y236102D02*
X-602524D01*
X-608666D02*
Y249016D01*
X-533626Y236102D02*
Y249016D01*
Y236102D02*
X-527484D01*
X-533626Y249016D02*
X-527484D01*
Y236102D02*
Y249016D01*
X-452445Y236102D02*
Y249016D01*
X-458587D02*
X-452445D01*
X-458587Y236102D02*
X-452445D01*
X-458587D02*
Y249016D01*
X-383547Y236102D02*
Y249016D01*
Y236102D02*
X-377406D01*
X-383547Y249016D02*
X-377406D01*
Y236102D02*
Y249016D01*
X-302366Y236102D02*
Y249016D01*
X-308508D02*
X-302366D01*
X-308508Y236102D02*
X-302366D01*
X-308508D02*
Y249016D01*
X-187323Y235709D02*
Y248622D01*
Y235709D02*
X-181181D01*
X-187323Y248622D02*
X-181181D01*
Y235709D02*
Y248622D01*
X52874Y235709D02*
Y248622D01*
X46732D02*
X52874D01*
X46732Y235709D02*
X52874D01*
X46732D02*
Y248622D01*
X123110Y235709D02*
Y248622D01*
Y235709D02*
X129252D01*
X123110Y248622D02*
X129252D01*
Y235709D02*
Y248622D01*
X204449Y235709D02*
Y248622D01*
X198307D02*
X204449D01*
X198307Y235709D02*
X204449D01*
X198307D02*
Y248622D01*
X198504Y311655D02*
Y324569D01*
Y311655D02*
X204646D01*
X198504Y324569D02*
X204646D01*
Y311655D02*
Y324569D01*
X-1015260Y161102D02*
Y174016D01*
X-1021402D02*
X-1015260D01*
X-1021402Y161102D02*
X-1015260D01*
X-1021402D02*
Y174016D01*
X-946382Y161102D02*
Y174016D01*
Y161102D02*
X-940240D01*
X-946382Y174016D02*
X-940240D01*
Y161102D02*
Y174016D01*
X-865220Y161102D02*
Y174016D01*
X-871361D02*
X-865220D01*
X-871361Y161102D02*
X-865220D01*
X-871361D02*
Y174016D01*
X-806811Y209173D02*
X-793898D01*
X-806811Y203031D02*
Y209173D01*
X-793898Y203031D02*
Y209173D01*
X-806811Y203031D02*
X-793898D01*
X-734764D02*
X-721850D01*
Y209173D01*
X-734764Y203031D02*
Y209173D01*
X-721850D01*
X-658189D02*
X-645276D01*
X-658189Y203031D02*
Y209173D01*
X-645276Y203031D02*
Y209173D01*
X-658189Y203031D02*
X-645276D01*
X-580236D02*
X-567323D01*
Y209173D01*
X-580236Y203031D02*
Y209173D01*
X-567323D01*
X-509370D02*
X-496457D01*
X-509370Y203031D02*
Y209173D01*
X-496457Y203031D02*
Y209173D01*
X-509370Y203031D02*
X-496457D01*
X-435770D02*
X-422857D01*
Y209173D01*
X-435770Y203031D02*
Y209173D01*
X-422857D01*
X-356024D02*
X-343110D01*
X-356024Y203031D02*
Y209173D01*
X-343110Y203031D02*
Y209173D01*
X-356024Y203031D02*
X-343110D01*
X-259370D02*
X-246457D01*
Y209173D01*
X-259370Y203031D02*
Y209173D01*
X-246457D01*
X-158386D02*
X-145472D01*
X-158386Y203031D02*
Y209173D01*
X-145472Y203031D02*
Y209173D01*
X-158386Y203031D02*
X-145472D01*
X-58386Y181378D02*
X-45472D01*
Y187520D01*
X-58386Y181378D02*
Y187520D01*
X-45472D01*
X35709Y204646D02*
X48622D01*
X35709Y198504D02*
Y204646D01*
X48622Y198504D02*
Y204646D01*
X35709Y198504D02*
X48622D01*
X111102Y199685D02*
X124016D01*
Y205827D01*
X111102Y199685D02*
Y205827D01*
X124016D01*
X186496Y206417D02*
X199409D01*
X186496Y200276D02*
Y206417D01*
X199409Y200276D02*
Y206417D01*
X186496Y200276D02*
X199409D01*
X-1192047Y124094D02*
X-1179134D01*
Y130236D01*
X-1192047Y124094D02*
Y130236D01*
X-1179134D01*
X-1108386D02*
X-1095472D01*
X-1108386Y124094D02*
Y130236D01*
X-1095472Y124094D02*
Y130236D01*
X-1108386Y124094D02*
X-1095472D01*
X-1024724D02*
X-1011811D01*
Y130236D01*
X-1024724Y124094D02*
Y130236D01*
X-1011811D01*
X-715866Y107163D02*
Y120076D01*
Y107163D02*
X-709724D01*
X-715866Y120076D02*
X-709724D01*
Y107163D02*
Y120076D01*
X-404449Y124094D02*
X-391535D01*
Y130236D01*
X-404449Y124094D02*
Y130236D01*
X-391535D01*
X-319213D02*
X-306299D01*
X-319213Y124094D02*
Y130236D01*
X-306299Y124094D02*
Y130236D01*
X-319213Y124094D02*
X-306299D01*
X-235551D02*
X-222638D01*
Y130236D01*
X-235551Y124094D02*
Y130236D01*
X-222638D01*
X-133386Y110748D02*
X-120472D01*
X-133386Y104606D02*
Y110748D01*
X-120472Y104606D02*
Y110748D01*
X-133386Y104606D02*
X-120472D01*
X-58780Y104803D02*
X-45866D01*
Y110945D01*
X-58780Y104803D02*
Y110945D01*
X-45866D01*
X16614D02*
X29528D01*
X16614Y104803D02*
Y110945D01*
X29528Y104803D02*
Y110945D01*
X16614Y104803D02*
X29528D01*
X106968Y118189D02*
X119882D01*
Y124331D01*
X106968Y118189D02*
Y124331D01*
X119882D01*
X182953Y128465D02*
X195866D01*
X182953Y122323D02*
Y128465D01*
X195866Y122323D02*
Y128465D01*
X182953Y122323D02*
X195866D01*
X254016Y134331D02*
X266929D01*
Y140472D01*
X254016Y134331D02*
Y140472D01*
X266929D01*
X265827Y287717D02*
X278740D01*
X265827Y281575D02*
Y287717D01*
X278740Y281575D02*
Y287717D01*
X265827Y281575D02*
X278740D01*
X265039Y391220D02*
X277953D01*
Y397362D01*
X265039Y391220D02*
Y397362D01*
X277953D01*
X197913Y385315D02*
Y398228D01*
Y385315D02*
X204055D01*
X197913Y398228D02*
X204055D01*
Y385315D02*
Y398228D01*
X-1183740Y388858D02*
Y401772D01*
X-1189882D02*
X-1183740D01*
X-1189882Y388858D02*
X-1183740D01*
X-1189882D02*
Y401772D01*
X-1172953Y314843D02*
Y327756D01*
Y314843D02*
X-1166811D01*
X-1172953Y327756D02*
X-1166811D01*
Y314843D02*
Y327756D01*
X-1173701Y236693D02*
Y249606D01*
X-1179842D02*
X-1173701D01*
X-1179842Y236693D02*
X-1173701D01*
X-1179842D02*
Y249606D01*
X-1151890Y175512D02*
X-1138976D01*
X-1151890Y169370D02*
Y175512D01*
X-1138976Y169370D02*
Y175512D01*
X-1151890Y169370D02*
X-1138976D01*
X-1052760Y236102D02*
Y249016D01*
X-1058902D02*
X-1052760D01*
X-1058902Y236102D02*
X-1052760D01*
X-1058902D02*
Y249016D01*
X-790551Y94095D02*
X-788976D01*
X-790551Y95866D02*
X-788976D01*
X-796260Y97953D02*
X-783347D01*
X-796260Y91811D02*
Y97953D01*
X-783347Y91811D02*
Y97953D01*
X-796260Y91811D02*
X-783347D01*
X-839567Y141732D02*
Y143307D01*
X-837795Y141732D02*
Y143307D01*
X-835709Y136102D02*
Y149016D01*
X-841850D02*
X-835709D01*
X-841850Y136102D02*
X-835709D01*
X-841850D02*
Y149016D01*
X22933Y419095D02*
Y431693D01*
X26870D01*
Y419095D02*
Y431693D01*
X26083Y419095D02*
X26870D01*
X22933D02*
X24114D01*
X-48301Y266324D02*
X-43801D01*
X-48301Y254824D02*
X-43801D01*
Y264324D02*
Y266324D01*
Y254824D02*
Y256824D01*
X-4814Y276969D02*
Y278150D01*
Y286024D02*
Y287234D01*
X6997Y275197D02*
Y276378D01*
X6012Y275197D02*
X6997D01*
X5619Y276575D02*
X6997Y275197D01*
X4241Y276181D02*
X5225Y275197D01*
X4241D02*
X5225D01*
Y276378D01*
X-1040866Y241063D02*
X-1027953D01*
X-1040866Y234921D02*
Y241063D01*
X-1027953Y234921D02*
Y241063D01*
X-1040866Y234921D02*
X-1027953D01*
X23622Y125787D02*
X78740D01*
Y70669D02*
Y125787D01*
X23622Y70669D02*
X78740D01*
X23622D02*
Y125787D01*
X-313780Y89370D02*
X-258661D01*
X-313780D02*
Y144488D01*
X-258661D01*
Y89370D02*
Y144488D01*
X-262205Y100079D02*
Y111417D01*
X-266149Y91134D02*
X-265740Y91543D01*
X-305315Y87598D02*
X-274685D01*
X-305315D02*
Y100315D01*
Y101004D01*
X-298709Y106496D02*
X-286921D01*
X-281693Y108661D02*
X-276996Y113358D01*
X-270276Y116142D02*
X-265844D01*
X-262205Y111417D02*
Y113060D01*
X-229331Y144488D02*
X-174213D01*
Y89370D02*
Y144488D01*
X-229331Y89370D02*
X-174213D01*
X-229331D02*
Y144488D01*
X-398031D02*
X-342913D01*
Y89370D02*
Y144488D01*
X-398031Y89370D02*
X-342913D01*
X-398031D02*
Y144488D01*
X-1016929D02*
X-961811D01*
Y89370D02*
Y144488D01*
X-1016929Y89370D02*
X-961811D01*
X-1016929D02*
Y144488D01*
X-1101181Y89370D02*
X-1046063D01*
X-1101181D02*
Y144488D01*
X-1046063D01*
Y89370D02*
Y144488D01*
X-1049606Y100079D02*
Y111417D01*
X-1053551Y91134D02*
X-1053142Y91543D01*
X-1092717Y87598D02*
X-1062087D01*
X-1092717D02*
Y100315D01*
Y101004D01*
X-1086111Y106496D02*
X-1074322D01*
X-1069094Y108661D02*
X-1064398Y113358D01*
X-1057677Y116142D02*
X-1053245D01*
X-1049606Y111417D02*
Y113060D01*
X-1185630Y144488D02*
X-1130512D01*
Y89370D02*
Y144488D01*
X-1185630Y89370D02*
X-1130512D01*
X-1185630D02*
Y144488D01*
X192520Y294291D02*
X247638D01*
Y239173D02*
Y294291D01*
X192520Y239173D02*
X247638D01*
X192520D02*
Y294291D01*
X-1194882Y444488D02*
X-1139764D01*
Y389370D02*
Y444488D01*
X-1194882Y389370D02*
X-1139764D01*
X-1194882D02*
Y444488D01*
X117520Y144291D02*
X172638D01*
Y89173D02*
Y144291D01*
X117520Y89173D02*
X172638D01*
X117520D02*
Y144291D01*
X192520Y164370D02*
Y219488D01*
Y164370D02*
X247638D01*
Y219488D01*
X192520D02*
X247638D01*
X42520Y444488D02*
X97638D01*
Y389370D02*
Y444488D01*
X42520Y389370D02*
X97638D01*
X42520D02*
Y444488D01*
X117520Y389370D02*
Y444488D01*
Y389370D02*
X172638D01*
Y444488D01*
X117520D02*
X172638D01*
X192520Y389370D02*
Y444488D01*
Y389370D02*
X247638D01*
Y444488D01*
X192520D02*
X247638D01*
X192520Y314370D02*
Y369488D01*
Y314370D02*
X247638D01*
Y369488D01*
X192520D02*
X247638D01*
X117520Y314370D02*
Y369488D01*
Y314370D02*
X172638D01*
Y369488D01*
X117520D02*
X172638D01*
X42520D02*
X97638D01*
Y314370D02*
Y369488D01*
X42520Y314370D02*
X97638D01*
X42520D02*
Y369488D01*
Y294291D02*
X97638D01*
Y239173D02*
Y294291D01*
X42520Y239173D02*
X97638D01*
X42520D02*
Y294291D01*
X117520Y239173D02*
Y294291D01*
Y239173D02*
X172638D01*
Y294291D01*
X117520D02*
X172638D01*
X42520Y164370D02*
Y219488D01*
Y164370D02*
X97638D01*
Y219488D01*
X42520D02*
X97638D01*
X117520D02*
X172638D01*
Y164370D02*
Y219488D01*
X117520Y164370D02*
X172638D01*
X117520D02*
Y219488D01*
X267520Y276969D02*
X322638D01*
Y332087D01*
X267520D02*
X322638D01*
X267520Y276969D02*
Y332087D01*
X267520Y444488D02*
X322638D01*
Y389370D02*
Y444488D01*
X267520Y389370D02*
X322638D01*
X267520D02*
Y444488D01*
X59842Y382362D02*
X72756D01*
Y388504D01*
X59842Y382362D02*
Y388504D01*
X72756D01*
X139449Y390079D02*
X152362D01*
X139449Y383937D02*
Y390079D01*
X152362Y383937D02*
Y390079D01*
X139449Y383937D02*
X152362D01*
X66614Y316260D02*
X79528D01*
X66614Y310118D02*
Y316260D01*
X79528Y310118D02*
Y316260D01*
X66614Y310118D02*
X79528D01*
X141024Y316260D02*
X153937D01*
X141024Y310118D02*
Y316260D01*
X153937Y310118D02*
Y316260D01*
X141024Y310118D02*
X153937D01*
X67008Y241260D02*
X79921D01*
X67008Y235118D02*
Y241260D01*
X79921Y235118D02*
Y241260D01*
X67008Y235118D02*
X79921D01*
X140433Y241260D02*
X153347D01*
X140433Y235118D02*
Y241260D01*
X153347Y235118D02*
Y241260D01*
X140433Y235118D02*
X153347D01*
X214843Y241260D02*
X227756D01*
X214843Y235118D02*
Y241260D01*
X227756Y235118D02*
Y241260D01*
X214843Y235118D02*
X227756D01*
X215039Y316260D02*
X227953D01*
X215039Y310118D02*
Y316260D01*
X227953Y310118D02*
Y316260D01*
X215039Y310118D02*
X227953D01*
X35236Y210315D02*
X48150D01*
Y216457D01*
X35236Y210315D02*
Y216457D01*
X48150D01*
X109449Y210906D02*
X122362D01*
Y217047D01*
X109449Y210906D02*
Y217047D01*
X122362D01*
X216024Y166063D02*
X228937D01*
X216024Y159921D02*
Y166063D01*
X228937Y159921D02*
Y166063D01*
X216024Y159921D02*
X228937D01*
X255315Y142598D02*
X268228D01*
Y148740D01*
X255315Y142598D02*
Y148740D01*
X268228D01*
X265748Y289055D02*
X278661D01*
Y295197D01*
X265748Y289055D02*
Y295197D01*
X278661D01*
X280906Y383937D02*
X293819D01*
Y390079D01*
X280906Y383937D02*
Y390079D01*
X293819D01*
X207677Y383937D02*
X220590D01*
Y390079D01*
X207677Y383937D02*
Y390079D01*
X220590D01*
X-51181Y314370D02*
Y369488D01*
Y314370D02*
X3937D01*
Y369488D01*
X-51181D02*
X3937D01*
X-51181Y389370D02*
Y444488D01*
Y389370D02*
X3937D01*
Y444488D01*
X-51181D02*
X3937D01*
X267520Y126772D02*
Y181890D01*
X322638D01*
Y126772D02*
Y181890D01*
X267520Y126772D02*
X322638D01*
X-210491Y219139D02*
X-155373D01*
Y164021D02*
Y219139D01*
X-210491Y164021D02*
X-155373D01*
X-210491D02*
Y219139D01*
X192520Y89370D02*
Y144488D01*
Y89370D02*
X247638D01*
Y144488D01*
X192520D02*
X247638D01*
X-125984Y70669D02*
Y125787D01*
Y70669D02*
X-70866D01*
Y125787D01*
X-125984D02*
X-70866D01*
X-51181D02*
X3937D01*
Y70669D02*
Y125787D01*
X-51181Y70669D02*
X3937D01*
X-51181D02*
Y125787D01*
X-707480Y89370D02*
Y144488D01*
Y89370D02*
X-652362D01*
Y144488D01*
X-707480D02*
X-652362D01*
X-763622Y294488D02*
X-708504D01*
Y239370D02*
Y294488D01*
X-763622Y239370D02*
X-708504D01*
X-763622D02*
Y294488D01*
X-1166732Y239370D02*
Y294488D01*
Y239370D02*
X-1111614D01*
Y294488D01*
X-1166732D02*
X-1111614D01*
X-1148032Y164370D02*
Y219488D01*
Y164370D02*
X-1092913D01*
Y219488D01*
X-1148032D02*
X-1092913D01*
X-1185630Y294488D02*
X-1130512D01*
Y239370D02*
Y294488D01*
X-1185630Y239370D02*
X-1130512D01*
X-1185630D02*
Y294488D01*
X-1176181Y314370D02*
Y369488D01*
Y314370D02*
X-1121063D01*
Y369488D01*
X-1176181D02*
X-1121063D01*
X-51181Y200591D02*
X3937D01*
Y145472D02*
Y200591D01*
X-51181Y145472D02*
X3937D01*
X-51181D02*
Y200591D01*
X-144882Y164021D02*
Y219139D01*
Y164021D02*
X-89764D01*
Y219139D01*
X-144882D02*
X-89764D01*
X-248100D02*
X-192982D01*
Y164021D02*
Y219139D01*
X-248100Y164021D02*
X-192982D01*
X-248100D02*
Y219139D01*
X-351181Y164370D02*
Y219488D01*
Y164370D02*
X-296063D01*
Y219488D01*
X-351181D02*
X-296063D01*
X-426203D02*
X-371085D01*
Y164370D02*
Y219488D01*
X-426203Y164370D02*
X-371085D01*
X-426203D02*
Y219488D01*
X-501225Y164370D02*
Y219488D01*
Y164370D02*
X-446107D01*
Y219488D01*
X-501225D02*
X-446107D01*
X-576247D02*
X-521129D01*
Y164370D02*
Y219488D01*
X-576247Y164370D02*
X-521129D01*
X-576247D02*
Y219488D01*
X-651269Y164370D02*
Y219488D01*
Y164370D02*
X-596150D01*
Y219488D01*
X-651269D02*
X-596150D01*
X-726291D02*
X-671172D01*
Y164370D02*
Y219488D01*
X-726291Y164370D02*
X-671172D01*
X-726291D02*
Y219488D01*
X-801312Y164370D02*
Y219488D01*
Y164370D02*
X-746194D01*
Y219488D01*
X-801312D02*
X-746194D01*
X-876334D02*
X-821216D01*
Y164370D02*
Y219488D01*
X-876334Y164370D02*
X-821216D01*
X-876334D02*
Y219488D01*
X-951356Y164370D02*
Y219488D01*
Y164370D02*
X-896238D01*
Y219488D01*
X-951356D02*
X-896238D01*
X-1026378D02*
X-971260D01*
Y164370D02*
Y219488D01*
X-1026378Y164370D02*
X-971260D01*
X-1026378D02*
Y219488D01*
X-191929Y239370D02*
Y294488D01*
Y239370D02*
X-136811D01*
Y294488D01*
X-191929D02*
X-136811D01*
X-313386D02*
X-258268D01*
Y239370D02*
Y294488D01*
X-313386Y239370D02*
X-258268D01*
X-313386D02*
Y294488D01*
X-388425Y239370D02*
Y294488D01*
Y239370D02*
X-333307D01*
Y294488D01*
X-388425D02*
X-333307D01*
X-463465D02*
X-408347D01*
Y239370D02*
Y294488D01*
X-463465Y239370D02*
X-408347D01*
X-463465D02*
Y294488D01*
X-538504Y239370D02*
Y294488D01*
Y239370D02*
X-483386D01*
Y294488D01*
X-538504D02*
X-483386D01*
X-613543D02*
X-558425D01*
Y239370D02*
Y294488D01*
X-613543Y239370D02*
X-558425D01*
X-613543D02*
Y294488D01*
X-688583Y239370D02*
Y294488D01*
Y239370D02*
X-633465D01*
Y294488D01*
X-688583D02*
X-633465D01*
X-838661Y239370D02*
Y294488D01*
Y239370D02*
X-783543D01*
Y294488D01*
X-838661D02*
X-783543D01*
X-913701D02*
X-858583D01*
Y239370D02*
Y294488D01*
X-913701Y239370D02*
X-858583D01*
X-913701D02*
Y294488D01*
X-988740Y239370D02*
Y294488D01*
Y239370D02*
X-933622D01*
Y294488D01*
X-988740D02*
X-933622D01*
X-1063780D02*
X-1008661D01*
Y239370D02*
Y294488D01*
X-1063780Y239370D02*
X-1008661D01*
X-1063780D02*
Y294488D01*
X-163976Y369488D02*
X-108858D01*
Y314370D02*
Y369488D01*
X-163976Y314370D02*
X-108858D01*
X-163976D02*
Y369488D01*
X-257498Y314370D02*
Y369488D01*
Y314370D02*
X-202380D01*
Y369488D01*
X-257498D02*
X-202380D01*
X-332497D02*
X-277379D01*
Y314370D02*
Y369488D01*
X-332497Y314370D02*
X-277379D01*
X-332497D02*
Y369488D01*
X-407495Y314370D02*
Y369488D01*
Y314370D02*
X-352377D01*
Y369488D01*
X-407495D02*
X-352377D01*
X-482493D02*
X-427375D01*
Y314370D02*
Y369488D01*
X-482493Y314370D02*
X-427375D01*
X-482493D02*
Y369488D01*
X-557492Y314370D02*
Y369488D01*
Y314370D02*
X-502374D01*
Y369488D01*
X-557492D02*
X-502374D01*
X-632490D02*
X-577372D01*
Y314370D02*
Y369488D01*
X-632490Y314370D02*
X-577372D01*
X-632490D02*
Y369488D01*
X-707488Y314370D02*
Y369488D01*
Y314370D02*
X-652370D01*
Y369488D01*
X-707488D02*
X-652370D01*
X-782487D02*
X-727369D01*
Y314370D02*
Y369488D01*
X-782487Y314370D02*
X-727369D01*
X-782487D02*
Y369488D01*
X-857485Y314370D02*
Y369488D01*
Y314370D02*
X-802367D01*
Y369488D01*
X-857485D02*
X-802367D01*
X-932484D02*
X-877365D01*
Y314370D02*
Y369488D01*
X-932484Y314370D02*
X-877365D01*
X-932484D02*
Y369488D01*
X-1007482Y314370D02*
Y369488D01*
Y314370D02*
X-952364D01*
Y369488D01*
X-1007482D02*
X-952364D01*
X-1082480D02*
X-1027362D01*
Y314370D02*
Y369488D01*
X-1082480Y314370D02*
X-1027362D01*
X-1082480D02*
Y369488D01*
X-295079Y389370D02*
Y444488D01*
Y389370D02*
X-239961D01*
Y444488D01*
X-295079D02*
X-239961D01*
X-370062D02*
X-314944D01*
Y389370D02*
Y444488D01*
X-370062Y389370D02*
X-314944D01*
X-370062D02*
Y444488D01*
X-445046Y389370D02*
Y444488D01*
Y389370D02*
X-389928D01*
Y444488D01*
X-445046D02*
X-389928D01*
X-520030D02*
X-464912D01*
Y389370D02*
Y444488D01*
X-520030Y389370D02*
X-464912D01*
X-520030D02*
Y444488D01*
X-595013Y389370D02*
Y444488D01*
Y389370D02*
X-539895D01*
Y444488D01*
X-595013D02*
X-539895D01*
X-669997D02*
X-614879D01*
Y389370D02*
Y444488D01*
X-669997Y389370D02*
X-614879D01*
X-669997D02*
Y444488D01*
X-744980Y389370D02*
Y444488D01*
Y389370D02*
X-689862D01*
Y444488D01*
X-744980D02*
X-689862D01*
X-819964D02*
X-764846D01*
Y389370D02*
Y444488D01*
X-819964Y389370D02*
X-764846D01*
X-819964D02*
Y444488D01*
X-894948Y389370D02*
Y444488D01*
Y389370D02*
X-839830D01*
Y444488D01*
X-894948D02*
X-839830D01*
X-969931D02*
X-914813D01*
Y389370D02*
Y444488D01*
X-969931Y389370D02*
X-914813D01*
X-969931D02*
Y444488D01*
X-1044915Y389370D02*
Y444488D01*
Y389370D02*
X-989797D01*
Y444488D01*
X-1044915D02*
X-989797D01*
X-1119898D02*
X-1064780D01*
Y389370D02*
Y444488D01*
X-1119898Y389370D02*
X-1064780D01*
X-1119898D02*
Y444488D01*
X-837992Y125630D02*
Y127205D01*
X-839764Y125630D02*
Y127205D01*
X-841850Y119921D02*
Y132835D01*
Y119921D02*
X-835709D01*
X-841850Y132835D02*
X-835709D01*
Y119921D02*
Y132835D01*
X-837992Y107874D02*
Y109449D01*
X-839764Y107874D02*
Y109449D01*
X-841850Y102165D02*
Y115079D01*
Y102165D02*
X-835709D01*
X-841850Y115079D02*
X-835709D01*
Y102165D02*
Y115079D01*
X-768307Y142126D02*
Y143701D01*
X-766535Y142126D02*
Y143701D01*
X-764449Y136496D02*
Y149409D01*
X-770590D02*
X-764449D01*
X-770590Y136496D02*
X-764449D01*
X-770590D02*
Y149409D01*
X-823819Y95866D02*
X-822244D01*
X-823819Y94095D02*
X-822244D01*
X-829449Y92008D02*
X-816535D01*
Y98150D01*
X-829449Y92008D02*
Y98150D01*
X-816535D01*
X-819291Y165554D02*
Y167129D01*
X-821063Y165554D02*
Y167129D01*
X-823150Y159845D02*
Y172759D01*
Y159845D02*
X-817008D01*
X-823150Y172759D02*
X-817008D01*
Y159845D02*
Y172759D01*
X-796850Y165475D02*
Y167050D01*
X-795079Y165475D02*
Y167050D01*
X-792992Y159845D02*
Y172759D01*
X-799134D02*
X-792992D01*
X-799134Y159845D02*
X-792992D01*
X-799134D02*
Y172759D01*
X-28535Y276969D02*
Y278150D01*
Y286024D02*
Y287234D01*
X-16724Y275197D02*
Y276378D01*
X-17708Y275197D02*
X-16724D01*
X-18102Y276575D02*
X-16724Y275197D01*
X-19480Y276181D02*
X-18495Y275197D01*
X-19480D02*
X-18495D01*
Y276378D01*
X-42570Y286024D02*
Y287205D01*
Y276939D02*
Y278150D01*
X-54381Y287795D02*
Y288976D01*
X-53397D01*
X-54381D02*
X-53003Y287598D01*
X-52610Y288976D02*
X-51625Y287992D01*
X-52610Y288976D02*
X-51625D01*
X-52610Y287795D02*
Y288976D01*
X-739208Y113285D02*
Y117785D01*
X-727708Y113285D02*
Y117785D01*
X-739208D02*
X-737208D01*
X-729708D02*
X-727708D01*
X460Y255084D02*
Y259584D01*
X11960Y255084D02*
Y259584D01*
X460D02*
X2460D01*
X9960D02*
X11960D01*
X15400Y255084D02*
Y259584D01*
X26900Y255084D02*
Y259584D01*
X15400D02*
X17400D01*
X24900D02*
X26900D01*
X-741924Y107419D02*
Y120332D01*
X-748066D02*
X-741924D01*
X-748066Y107419D02*
X-741924D01*
X-748066D02*
Y120332D01*
X-237Y245501D02*
X12677D01*
X-237Y239359D02*
Y245501D01*
X12677Y239359D02*
Y245501D01*
X-237Y239359D02*
X12677D01*
X14703Y245501D02*
X27617D01*
X14703Y239359D02*
Y245501D01*
X27617Y239359D02*
Y245501D01*
X14703Y239359D02*
X27617D01*
X-54528Y242992D02*
X-41614D01*
Y249134D01*
X-54528Y242992D02*
Y249134D01*
X-41614D01*
X10943Y275551D02*
X23856D01*
X10943Y269409D02*
Y275551D01*
X23856Y269409D02*
Y275551D01*
X10943Y269409D02*
X23856D01*
X-63039Y271850D02*
Y284764D01*
X-69181D02*
X-63039D01*
X-69181Y271850D02*
X-63039D01*
X-69181D02*
Y284764D01*
X-1097165Y390866D02*
X-1084252D01*
X-1097165Y384724D02*
Y390866D01*
X-1084252Y384724D02*
Y390866D01*
X-1097165Y384724D02*
X-1084252D01*
X-947130Y390866D02*
X-934216D01*
X-947130Y384724D02*
Y390866D01*
X-934216Y384724D02*
Y390866D01*
X-947130Y384724D02*
X-934216D01*
X-872112Y390866D02*
X-859198D01*
X-872112Y384724D02*
Y390866D01*
X-859198Y384724D02*
Y390866D01*
X-872112Y384724D02*
X-859198D01*
X-797094Y390866D02*
X-784180D01*
X-797094Y384724D02*
Y390866D01*
X-784180Y384724D02*
Y390866D01*
X-797094Y384724D02*
X-784180D01*
X-722076Y390866D02*
X-709163D01*
X-722076Y384724D02*
Y390866D01*
X-709163Y384724D02*
Y390866D01*
X-722076Y384724D02*
X-709163D01*
X-647058Y390866D02*
X-634145D01*
X-647058Y384724D02*
Y390866D01*
X-634145Y384724D02*
Y390866D01*
X-647058Y384724D02*
X-634145D01*
X-572040Y390866D02*
X-559127D01*
X-572040Y384724D02*
Y390866D01*
X-559127Y384724D02*
Y390866D01*
X-572040Y384724D02*
X-559127D01*
X-497022Y390866D02*
X-484109D01*
X-497022Y384724D02*
Y390866D01*
X-484109Y384724D02*
Y390866D01*
X-497022Y384724D02*
X-484109D01*
X-422004Y390866D02*
X-409091D01*
X-422004Y384724D02*
Y390866D01*
X-409091Y384724D02*
Y390866D01*
X-422004Y384724D02*
X-409091D01*
X-346986Y390866D02*
X-334073D01*
X-346986Y384724D02*
Y390866D01*
X-334073Y384724D02*
Y390866D01*
X-346986Y384724D02*
X-334073D01*
X-271969Y390866D02*
X-259055D01*
X-271969Y384724D02*
Y390866D01*
X-259055Y384724D02*
Y390866D01*
X-271969Y384724D02*
X-259055D01*
X-153744Y375704D02*
Y388617D01*
X-159886D02*
X-153744D01*
X-159886Y375704D02*
X-153744D01*
X-159886D02*
Y388617D01*
X-34449Y384331D02*
X-21535D01*
Y390472D01*
X-34449Y384331D02*
Y390472D01*
X-21535D01*
X-1022147Y390866D02*
X-1009234D01*
X-1022147Y384724D02*
Y390866D01*
X-1009234Y384724D02*
Y390866D01*
X-1022147Y384724D02*
X-1009234D01*
X-1059764Y316457D02*
X-1046850D01*
X-1059764Y310315D02*
Y316457D01*
X-1046850Y310315D02*
Y316457D01*
X-1059764Y310315D02*
X-1046850D01*
X-984764Y316457D02*
X-971850D01*
X-984764Y310315D02*
Y316457D01*
X-971850Y310315D02*
Y316457D01*
X-984764Y310315D02*
X-971850D01*
X-909764Y316457D02*
X-896850D01*
X-909764Y310315D02*
Y316457D01*
X-896850Y310315D02*
Y316457D01*
X-909764Y310315D02*
X-896850D01*
X-834764Y316457D02*
X-821850D01*
X-834764Y310315D02*
Y316457D01*
X-821850Y310315D02*
Y316457D01*
X-834764Y310315D02*
X-821850D01*
X-759764Y316457D02*
X-746850D01*
X-759764Y310315D02*
Y316457D01*
X-746850Y310315D02*
Y316457D01*
X-759764Y310315D02*
X-746850D01*
X-684764Y316457D02*
X-671850D01*
X-684764Y310315D02*
Y316457D01*
X-671850Y310315D02*
Y316457D01*
X-684764Y310315D02*
X-671850D01*
X-609764Y316457D02*
X-596850D01*
X-609764Y310315D02*
Y316457D01*
X-596850Y310315D02*
Y316457D01*
X-609764Y310315D02*
X-596850D01*
X-534764Y316457D02*
X-521850D01*
X-534764Y310315D02*
Y316457D01*
X-521850Y310315D02*
Y316457D01*
X-534764Y310315D02*
X-521850D01*
X-459764Y316457D02*
X-446850D01*
X-459764Y310315D02*
Y316457D01*
X-446850Y310315D02*
Y316457D01*
X-459764Y310315D02*
X-446850D01*
X-384764Y316457D02*
X-371850D01*
X-384764Y310315D02*
Y316457D01*
X-371850Y310315D02*
Y316457D01*
X-384764Y310315D02*
X-371850D01*
X-309764Y316457D02*
X-296850D01*
X-309764Y310315D02*
Y316457D01*
X-296850Y310315D02*
Y316457D01*
X-309764Y310315D02*
X-296850D01*
X-234764Y316457D02*
X-221850D01*
X-234764Y310315D02*
Y316457D01*
X-221850Y310315D02*
Y316457D01*
X-234764Y310315D02*
X-221850D01*
X-141457Y316260D02*
X-128543D01*
X-141457Y310118D02*
Y316260D01*
X-128543Y310118D02*
Y316260D01*
X-141457Y310118D02*
X-128543D01*
X-28268Y316260D02*
X-15354D01*
X-28268Y310118D02*
Y316260D01*
X-15354Y310118D02*
Y316260D01*
X-28268Y310118D02*
X-15354D01*
X-831811Y159845D02*
Y172759D01*
Y159845D02*
X-825669D01*
X-831811Y172759D02*
X-825669D01*
Y159845D02*
Y172759D01*
X-965827Y241063D02*
X-952913D01*
X-965827Y234921D02*
Y241063D01*
X-952913Y234921D02*
Y241063D01*
X-965827Y234921D02*
X-952913D01*
X-890787Y241063D02*
X-877874D01*
X-890787Y234921D02*
Y241063D01*
X-877874Y234921D02*
Y241063D01*
X-890787Y234921D02*
X-877874D01*
X-815748Y241063D02*
X-802835D01*
X-815748Y234921D02*
Y241063D01*
X-802835Y234921D02*
Y241063D01*
X-815748Y234921D02*
X-802835D01*
X-740709Y241063D02*
X-727795D01*
X-740709Y234921D02*
Y241063D01*
X-727795Y234921D02*
Y241063D01*
X-740709Y234921D02*
X-727795D01*
X-665669Y241063D02*
X-652756D01*
X-665669Y234921D02*
Y241063D01*
X-652756Y234921D02*
Y241063D01*
X-665669Y234921D02*
X-652756D01*
X-590630Y241063D02*
X-577716D01*
X-590630Y234921D02*
Y241063D01*
X-577716Y234921D02*
Y241063D01*
X-590630Y234921D02*
X-577716D01*
X-515590Y241063D02*
X-502677D01*
X-515590Y234921D02*
Y241063D01*
X-502677Y234921D02*
Y241063D01*
X-515590Y234921D02*
X-502677D01*
X-440551Y241063D02*
X-427638D01*
X-440551Y234921D02*
Y241063D01*
X-427638Y234921D02*
Y241063D01*
X-440551Y234921D02*
X-427638D01*
X-365512Y241063D02*
X-352598D01*
X-365512Y234921D02*
Y241063D01*
X-352598Y234921D02*
Y241063D01*
X-365512Y234921D02*
X-352598D01*
X-290472Y241063D02*
X-277559D01*
X-290472Y234921D02*
Y241063D01*
X-277559Y234921D02*
Y241063D01*
X-290472Y234921D02*
X-277559D01*
X-175315Y240472D02*
X-162402D01*
X-175315Y234331D02*
Y240472D01*
X-162402Y234331D02*
Y240472D01*
X-175315Y234331D02*
X-162402D01*
X-1003465Y166260D02*
X-990551D01*
X-1003465Y160118D02*
Y166260D01*
X-990551Y160118D02*
Y166260D01*
X-1003465Y160118D02*
X-990551D01*
X-928425Y166260D02*
X-915512D01*
X-928425Y160118D02*
Y166260D01*
X-915512Y160118D02*
Y166260D01*
X-928425Y160118D02*
X-915512D01*
X-853386Y166260D02*
X-840472D01*
X-853386Y160118D02*
Y166260D01*
X-840472Y160118D02*
Y166260D01*
X-853386Y160118D02*
X-840472D01*
X-804528Y210315D02*
X-791614D01*
Y216457D01*
X-804528Y210315D02*
Y216457D01*
X-791614D01*
X-734842Y210315D02*
X-721929D01*
Y216457D01*
X-734842Y210315D02*
Y216457D01*
X-721929D01*
X-656102Y210315D02*
X-643189D01*
Y216457D01*
X-656102Y210315D02*
Y216457D01*
X-643189D01*
X-579980Y209528D02*
X-567067D01*
Y215669D01*
X-579980Y209528D02*
Y215669D01*
X-567067D01*
X-507721Y210315D02*
X-494808D01*
Y216457D01*
X-507721Y210315D02*
Y216457D01*
X-494808D01*
X-435433Y210315D02*
X-422520D01*
Y216457D01*
X-435433Y210315D02*
Y216457D01*
X-422520D01*
X-354921Y210315D02*
X-342008D01*
Y216457D01*
X-354921Y210315D02*
Y216457D01*
X-342008D01*
X-259252Y210315D02*
X-246339D01*
Y216457D01*
X-259252Y210315D02*
Y216457D01*
X-246339D01*
X-160433Y210315D02*
X-147520D01*
Y216457D01*
X-160433Y210315D02*
Y216457D01*
X-147520D01*
X-53347Y192402D02*
X-40433D01*
Y198543D01*
X-53347Y192402D02*
Y198543D01*
X-40433D01*
X-1186024Y134724D02*
X-1173110D01*
Y140866D01*
X-1186024Y134724D02*
Y140866D01*
X-1173110D01*
X-1102461Y134724D02*
X-1089547D01*
Y140866D01*
X-1102461Y134724D02*
Y140866D01*
X-1089547D01*
X-1018898Y134724D02*
X-1005984D01*
Y140866D01*
X-1018898Y134724D02*
Y140866D01*
X-1005984D01*
X-719788Y107419D02*
Y120332D01*
X-725930D02*
X-719788D01*
X-725930Y107419D02*
X-719788D01*
X-725930D02*
Y120332D01*
X-404528Y131181D02*
X-391614D01*
Y137323D01*
X-404528Y131181D02*
Y137323D01*
X-391614D01*
X-319094Y131181D02*
X-306181D01*
Y137323D01*
X-319094Y131181D02*
Y137323D01*
X-306181D01*
X-235827Y131181D02*
X-222913D01*
Y137323D01*
X-235827Y131181D02*
Y137323D01*
X-222913D01*
X-129724Y115827D02*
X-116811D01*
Y121968D01*
X-129724Y115827D02*
Y121968D01*
X-116811D01*
X-52559Y117008D02*
X-39646D01*
Y123150D01*
X-52559Y117008D02*
Y123150D01*
X-39646D01*
X22244Y117008D02*
X35157D01*
Y123150D01*
X22244Y117008D02*
Y123150D01*
X35157D01*
X107677Y124882D02*
X120590D01*
Y131024D01*
X107677Y124882D02*
Y131024D01*
X120590D01*
X184646Y132362D02*
X197559D01*
Y138504D01*
X184646Y132362D02*
Y138504D01*
X197559D01*
X-1170197Y389882D02*
X-1157283D01*
X-1170197Y383740D02*
Y389882D01*
X-1157283Y383740D02*
Y389882D01*
X-1170197Y383740D02*
X-1157283D01*
X-1154842Y316260D02*
X-1141929D01*
X-1154842Y310118D02*
Y316260D01*
X-1141929Y310118D02*
Y316260D01*
X-1154842Y310118D02*
X-1141929D01*
X-1154842Y307008D02*
X-1141929D01*
X-1154842Y300866D02*
Y307008D01*
X-1141929Y300866D02*
Y307008D01*
X-1154842Y300866D02*
X-1141929D01*
X-1126890Y164685D02*
X-1113976D01*
X-1126890Y158543D02*
Y164685D01*
X-1113976Y158543D02*
Y164685D01*
X-1126890Y158543D02*
X-1113976D01*
X26555Y404410D02*
Y417323D01*
Y404410D02*
X32697D01*
X26555Y417323D02*
X32697D01*
Y404410D02*
Y417323D01*
X15728Y404410D02*
Y417323D01*
Y404410D02*
X21870D01*
X15728Y417323D02*
X21870D01*
Y404410D02*
Y417323D01*
X-779134Y91811D02*
X-766221D01*
Y97953D01*
X-779134Y91811D02*
Y97953D01*
X-766221D01*
X1063Y418937D02*
Y431850D01*
Y418937D02*
X7205D01*
X1063Y431850D02*
X7205D01*
Y418937D02*
Y431850D01*
X8248Y418937D02*
Y431850D01*
Y418937D02*
X14390D01*
X8248Y431850D02*
X14390D01*
Y418937D02*
Y431850D01*
X-4079Y257312D02*
Y270226D01*
X-10221D02*
X-4079D01*
X-10221Y257312D02*
X-4079D01*
X-10221D02*
Y270226D01*
X-145112Y444488D02*
X-89994D01*
Y389370D02*
Y444488D01*
X-145112Y389370D02*
X-89994D01*
X-145112D02*
Y444488D01*
X-220095D02*
X-164977D01*
Y389370D02*
Y444488D01*
X-220095Y389370D02*
X-164977D01*
X-220095D02*
Y444488D01*
X-220929Y389370D02*
Y402283D01*
X-227071D02*
X-220929D01*
X-227071Y389370D02*
X-220929D01*
X-227071D02*
Y402283D01*
X-183465Y376840D02*
Y389754D01*
X-189607D02*
X-183465D01*
X-189607Y376840D02*
X-183465D01*
X-189607D02*
Y389754D01*
X25591Y445275D02*
Y442651D01*
X25066Y442126D01*
X24016D01*
X23492Y442651D01*
Y445275D01*
X20343Y444750D02*
X20868Y445275D01*
X21917D01*
X22442Y444750D01*
Y444225D01*
X21917Y443700D01*
X20868D01*
X20343Y443176D01*
Y442651D01*
X20868Y442126D01*
X21917D01*
X22442Y442651D01*
X19293Y445275D02*
Y442126D01*
X17719D01*
X17194Y442651D01*
Y443176D01*
X17719Y443700D01*
X19293D01*
X17719D01*
X17194Y444225D01*
Y444750D01*
X17719Y445275D01*
X19293D01*
X16145Y442126D02*
X15095D01*
X15620D01*
Y445275D01*
X16145Y444750D01*
X-699424Y285349D02*
X-698899Y285874D01*
X-697849D01*
X-697324Y285349D01*
Y284824D01*
X-697849Y284299D01*
X-698899D01*
X-699424Y283775D01*
Y283250D01*
X-698899Y282725D01*
X-697849D01*
X-697324Y283250D01*
X-700473Y282725D02*
X-701522D01*
X-700998D01*
Y285874D01*
X-700473Y285349D01*
X16831Y433465D02*
Y436613D01*
X15256D01*
X14731Y436088D01*
Y435039D01*
X15256Y434514D01*
X16831D01*
X15781D02*
X14731Y433465D01*
X13682D02*
Y435564D01*
X12632Y436613D01*
X11583Y435564D01*
Y433465D01*
Y435039D01*
X13682D01*
X8434Y433465D02*
X10533D01*
X8434Y435564D01*
Y436088D01*
X8959Y436613D01*
X10009D01*
X10533Y436088D01*
X7874Y433465D02*
Y436613D01*
X6300D01*
X5775Y436088D01*
Y435039D01*
X6300Y434514D01*
X7874D01*
X6825D02*
X5775Y433465D01*
X4725D02*
Y435564D01*
X3676Y436613D01*
X2626Y435564D01*
Y433465D01*
Y435039D01*
X4725D01*
X1577Y433465D02*
X527D01*
X1052D01*
Y436613D01*
X1577Y436088D01*
X-804724Y177952D02*
X-806824Y174803D01*
Y177952D02*
X-804724Y174803D01*
X-807873D02*
X-808922D01*
X-808398D01*
Y177952D01*
X-807873Y177427D01*
X-594324Y148874D02*
Y146250D01*
X-594849Y145725D01*
X-595899D01*
X-596423Y146250D01*
Y148874D01*
X-597473Y145725D02*
X-598523D01*
X-597998D01*
Y148874D01*
X-597473Y148349D01*
X18480Y295537D02*
X19005Y296062D01*
X20055D01*
X20579Y295537D01*
Y295012D01*
X20055Y294488D01*
X19005D01*
X18480Y293963D01*
Y293438D01*
X19005Y292913D01*
X20055D01*
X20579Y293438D01*
X15332Y295012D02*
X16906D01*
X17431Y294488D01*
Y293438D01*
X16906Y292913D01*
X15332D01*
X13757D02*
X12708D01*
X12183Y293438D01*
Y294488D01*
X12708Y295012D01*
X13757D01*
X14282Y294488D01*
Y293438D01*
X13757Y292913D01*
X11134Y295012D02*
Y292913D01*
Y293963D01*
X10609Y294488D01*
X10084Y295012D01*
X9559D01*
X7985Y292913D02*
X6936D01*
X7460D01*
Y296062D01*
X7985D01*
X5361Y292913D02*
X4312D01*
X4836D01*
Y296062D01*
X5361D01*
X2737D02*
Y292913D01*
X638D01*
X-2510Y296062D02*
X-411D01*
Y292913D01*
X-2510D01*
X-411Y294488D02*
X-1461D01*
X-3560Y296062D02*
Y292913D01*
X-5134D01*
X-5659Y293438D01*
Y295537D01*
X-5134Y296062D01*
X-3560D01*
X-6708Y292913D02*
X-7758D01*
X-7233D01*
Y296062D01*
X-6708Y295537D01*
X-754528Y93504D02*
Y96653D01*
X-756102D01*
X-756627Y96128D01*
Y95078D01*
X-756102Y94554D01*
X-754528D01*
X-755577D02*
X-756627Y93504D01*
X-757676Y94029D02*
X-758201Y93504D01*
X-759250D01*
X-759775Y94029D01*
Y96128D01*
X-759250Y96653D01*
X-758201D01*
X-757676Y96128D01*
Y95603D01*
X-758201Y95078D01*
X-759775D01*
X-762924Y96653D02*
X-760825D01*
Y95078D01*
X-761874Y95603D01*
X-762399D01*
X-762924Y95078D01*
Y94029D01*
X-762399Y93504D01*
X-761349D01*
X-760825Y94029D01*
X21752Y398425D02*
Y401574D01*
X20177D01*
X19653Y401049D01*
Y399999D01*
X20177Y399475D01*
X21752D01*
X20702D02*
X19653Y398425D01*
X18603Y398950D02*
X18079Y398425D01*
X17029D01*
X16504Y398950D01*
Y401049D01*
X17029Y401574D01*
X18079D01*
X18603Y401049D01*
Y400524D01*
X18079Y399999D01*
X16504D01*
X13880Y398425D02*
Y401574D01*
X15455Y399999D01*
X13356D01*
X35531Y398622D02*
Y401771D01*
X33957D01*
X33432Y401246D01*
Y400196D01*
X33957Y399672D01*
X35531D01*
X34482D02*
X33432Y398622D01*
X32383Y399147D02*
X31858Y398622D01*
X30808D01*
X30284Y399147D01*
Y401246D01*
X30808Y401771D01*
X31858D01*
X32383Y401246D01*
Y400721D01*
X31858Y400196D01*
X30284D01*
X29234Y401246D02*
X28709Y401771D01*
X27660D01*
X27135Y401246D01*
Y400721D01*
X27660Y400196D01*
X28185D01*
X27660D01*
X27135Y399672D01*
Y399147D01*
X27660Y398622D01*
X28709D01*
X29234Y399147D01*
X-718624Y122925D02*
Y126074D01*
X-720199D01*
X-720723Y125549D01*
Y124499D01*
X-720199Y123975D01*
X-718624D01*
X-719674D02*
X-720723Y122925D01*
X-721773Y126074D02*
X-723872D01*
Y125549D01*
X-721773Y123450D01*
Y122925D01*
X-727021Y126074D02*
X-725971Y125549D01*
X-724922Y124499D01*
Y123450D01*
X-725446Y122925D01*
X-726496D01*
X-727021Y123450D01*
Y123975D01*
X-726496Y124499D01*
X-724922D01*
X-825197Y173622D02*
Y176771D01*
X-826771D01*
X-827296Y176246D01*
Y175196D01*
X-826771Y174672D01*
X-825197D01*
X-826246D02*
X-827296Y173622D01*
X-829920D02*
Y176771D01*
X-828345Y175196D01*
X-830445D01*
X-831494Y176246D02*
X-832019Y176771D01*
X-833068D01*
X-833593Y176246D01*
Y174147D01*
X-833068Y173622D01*
X-832019D01*
X-831494Y174147D01*
Y176246D01*
X-67760Y287213D02*
X-64611D01*
Y288787D01*
X-65136Y289312D01*
X-66186D01*
X-66711Y288787D01*
Y287213D01*
Y288263D02*
X-67760Y289312D01*
X-64611Y290362D02*
Y292461D01*
X-65136D01*
X-67235Y290362D01*
X-67760D01*
X18390Y277880D02*
Y281029D01*
X16815D01*
X16291Y280504D01*
Y279454D01*
X16815Y278929D01*
X18390D01*
X17340D02*
X16291Y277880D01*
X13142Y281029D02*
X14192Y280504D01*
X15241Y279454D01*
Y278405D01*
X14717Y277880D01*
X13667D01*
X13142Y278405D01*
Y278929D01*
X13667Y279454D01*
X15241D01*
X-4450Y271398D02*
Y274547D01*
X-6024D01*
X-6549Y274022D01*
Y272972D01*
X-6024Y272448D01*
X-4450D01*
X-5500D02*
X-6549Y271398D01*
X-9698Y274547D02*
X-7599D01*
Y272972D01*
X-8648Y273497D01*
X-9173D01*
X-9698Y272972D01*
Y271923D01*
X-9173Y271398D01*
X-8123D01*
X-7599Y271923D01*
X-45669Y250197D02*
Y253345D01*
X-47244D01*
X-47768Y252821D01*
Y251771D01*
X-47244Y251246D01*
X-45669D01*
X-46719D02*
X-47768Y250197D01*
X-50392D02*
Y253345D01*
X-48818Y251771D01*
X-50917D01*
X23020Y234560D02*
Y237709D01*
X21446D01*
X20921Y237184D01*
Y236134D01*
X21446Y235610D01*
X23020D01*
X21971D02*
X20921Y234560D01*
X19872Y237184D02*
X19347Y237709D01*
X18298D01*
X17773Y237184D01*
Y236659D01*
X18298Y236134D01*
X18822D01*
X18298D01*
X17773Y235610D01*
Y235085D01*
X18298Y234560D01*
X19347D01*
X19872Y235085D01*
X9161Y233180D02*
Y236329D01*
X7587D01*
X7062Y235804D01*
Y234754D01*
X7587Y234229D01*
X9161D01*
X8111D02*
X7062Y233180D01*
X3913D02*
X6012D01*
X3913Y235279D01*
Y235804D01*
X4438Y236329D01*
X5487D01*
X6012Y235804D01*
X-742924Y122925D02*
Y126074D01*
X-744499D01*
X-745023Y125549D01*
Y124499D01*
X-744499Y123975D01*
X-742924D01*
X-743974D02*
X-745023Y122925D01*
X-746073D02*
X-747122D01*
X-746598D01*
Y126074D01*
X-746073Y125549D01*
X-43438Y269619D02*
Y271718D01*
X-42913Y272243D01*
X-41863D01*
X-41339Y271718D01*
Y269619D01*
X-41863Y269094D01*
X-42913D01*
X-42388Y270144D02*
X-43438Y269094D01*
X-42913D02*
X-43438Y269619D01*
X-46062Y269094D02*
Y272243D01*
X-44487Y270669D01*
X-46586D01*
X21721Y265065D02*
Y267164D01*
X22246Y267689D01*
X23295D01*
X23820Y267164D01*
Y265065D01*
X23295Y264540D01*
X22246D01*
X22771Y265589D02*
X21721Y264540D01*
X22246D02*
X21721Y265065D01*
X20671Y267164D02*
X20147Y267689D01*
X19097D01*
X18572Y267164D01*
Y266639D01*
X19097Y266114D01*
X19622D01*
X19097D01*
X18572Y265589D01*
Y265065D01*
X19097Y264540D01*
X20147D01*
X20671Y265065D01*
X6991Y264835D02*
Y266934D01*
X7516Y267459D01*
X8565D01*
X9090Y266934D01*
Y264835D01*
X8565Y264310D01*
X7516D01*
X8040Y265359D02*
X6991Y264310D01*
X7516D02*
X6991Y264835D01*
X3842Y264310D02*
X5941D01*
X3842Y266409D01*
Y266934D01*
X4367Y267459D01*
X5417D01*
X5941Y266934D01*
X-733424Y123950D02*
Y126049D01*
X-732899Y126574D01*
X-731849D01*
X-731324Y126049D01*
Y123950D01*
X-731849Y123425D01*
X-732899D01*
X-732374Y124475D02*
X-733424Y123425D01*
X-732899D02*
X-733424Y123950D01*
X-734473Y123425D02*
X-735523D01*
X-734998D01*
Y126574D01*
X-734473Y126049D01*
X-39040Y292825D02*
Y295974D01*
X-41139Y292825D01*
Y295974D01*
X-42189Y294924D02*
Y293350D01*
X-42713Y292825D01*
X-44288D01*
Y294924D01*
X-45337Y292825D02*
Y294924D01*
X-45862D01*
X-46387Y294399D01*
Y292825D01*
Y294399D01*
X-46911Y294924D01*
X-47436Y294399D01*
Y292825D01*
X-48486Y295974D02*
Y292825D01*
X-50585D01*
X-53733Y295974D02*
X-51634D01*
Y292825D01*
X-53733D01*
X-51634Y294399D02*
X-52684D01*
X-54783Y295974D02*
Y292825D01*
X-56357D01*
X-56882Y293350D01*
Y295449D01*
X-56357Y295974D01*
X-54783D01*
X-57932Y292825D02*
X-58981D01*
X-58456D01*
Y295974D01*
X-57932Y295449D01*
X-800924Y156974D02*
X-801974D01*
X-801449D01*
Y153825D01*
X-800924D01*
X-801974D01*
X-805647Y156449D02*
X-805122Y156974D01*
X-804073D01*
X-803548Y156449D01*
Y154350D01*
X-804073Y153825D01*
X-805122D01*
X-805647Y154350D01*
X-806697Y153825D02*
X-807746D01*
X-807222D01*
Y156974D01*
X-806697Y156449D01*
X28621Y437474D02*
Y434325D01*
X27047D01*
X26522Y434850D01*
Y436949D01*
X27047Y437474D01*
X28621D01*
X25473Y434325D02*
Y436424D01*
X24423Y437474D01*
X23373Y436424D01*
Y434325D01*
Y435899D01*
X25473D01*
X22324Y434325D02*
X21274D01*
X21799D01*
Y437474D01*
X22324Y436949D01*
X-14246Y295449D02*
X-13722Y295974D01*
X-12672D01*
X-12147Y295449D01*
Y293350D01*
X-12672Y292825D01*
X-13722D01*
X-14246Y293350D01*
X-15821Y294924D02*
X-16870D01*
X-17395Y294399D01*
Y292825D01*
X-15821D01*
X-15296Y293350D01*
X-15821Y293875D01*
X-17395D01*
X-18445Y291776D02*
Y294924D01*
X-20019D01*
X-20544Y294399D01*
Y293350D01*
X-20019Y292825D01*
X-18445D01*
X-21593D02*
X-23167D01*
X-23692Y293350D01*
X-23167Y293875D01*
X-22118D01*
X-21593Y294399D01*
X-22118Y294924D01*
X-23692D01*
X-24742Y295974D02*
Y292825D01*
X-26841D01*
X-29989Y295974D02*
X-27890D01*
Y292825D01*
X-29989D01*
X-27890Y294399D02*
X-28940D01*
X-31039Y295974D02*
Y292825D01*
X-32613D01*
X-33138Y293350D01*
Y295449D01*
X-32613Y295974D01*
X-31039D01*
X-34187Y292825D02*
X-35237D01*
X-34712D01*
Y295974D01*
X-34187Y295449D01*
X-846390Y146915D02*
X-845866Y147440D01*
X-844816D01*
X-844291Y146915D01*
Y144816D01*
X-844816Y144291D01*
X-845866D01*
X-846390Y144816D01*
X-847440Y146915D02*
X-847965Y147440D01*
X-849014D01*
X-849539Y146915D01*
Y146390D01*
X-849014Y145866D01*
X-849539Y145341D01*
Y144816D01*
X-849014Y144291D01*
X-847965D01*
X-847440Y144816D01*
Y145341D01*
X-847965Y145866D01*
X-847440Y146390D01*
Y146915D01*
X-847965Y145866D02*
X-849014D01*
X-795524Y177949D02*
X-794999Y178474D01*
X-793949D01*
X-793424Y177949D01*
Y175850D01*
X-793949Y175325D01*
X-794999D01*
X-795524Y175850D01*
X-796573Y178474D02*
X-798672D01*
Y177949D01*
X-796573Y175850D01*
Y175325D01*
X-819422Y177427D02*
X-818897Y177952D01*
X-817848D01*
X-817323Y177427D01*
Y175328D01*
X-817848Y174803D01*
X-818897D01*
X-819422Y175328D01*
X-822571Y177952D02*
X-821521Y177427D01*
X-820471Y176377D01*
Y175328D01*
X-820996Y174803D01*
X-822046D01*
X-822571Y175328D01*
Y175853D01*
X-822046Y176377D01*
X-820471D01*
X-800327Y95734D02*
X-799803Y96259D01*
X-798753D01*
X-798228Y95734D01*
Y93635D01*
X-798753Y93110D01*
X-799803D01*
X-800327Y93635D01*
X-803476Y96259D02*
X-801377D01*
Y94684D01*
X-802427Y95209D01*
X-802951D01*
X-803476Y94684D01*
Y93635D01*
X-802951Y93110D01*
X-801902D01*
X-801377Y93635D01*
X-834579Y96325D02*
X-834055Y96849D01*
X-833005D01*
X-832480Y96325D01*
Y94226D01*
X-833005Y93701D01*
X-834055D01*
X-834579Y94226D01*
X-837203Y93701D02*
Y96849D01*
X-835629Y95275D01*
X-837728D01*
X-767024Y154649D02*
X-766499Y155174D01*
X-765449D01*
X-764924Y154649D01*
Y152550D01*
X-765449Y152025D01*
X-766499D01*
X-767024Y152550D01*
X-768073Y154649D02*
X-768598Y155174D01*
X-769647D01*
X-770172Y154649D01*
Y154124D01*
X-769647Y153600D01*
X-769123D01*
X-769647D01*
X-770172Y153075D01*
Y152550D01*
X-769647Y152025D01*
X-768598D01*
X-768073Y152550D01*
X-847178Y114829D02*
X-846653Y115353D01*
X-845603D01*
X-845079Y114829D01*
Y112730D01*
X-845603Y112205D01*
X-846653D01*
X-847178Y112730D01*
X-850326Y112205D02*
X-848227D01*
X-850326Y114304D01*
Y114829D01*
X-849802Y115353D01*
X-848752D01*
X-848227Y114829D01*
X-846194Y131561D02*
X-845669Y132086D01*
X-844619D01*
X-844094Y131561D01*
Y129462D01*
X-844619Y128937D01*
X-845669D01*
X-846194Y129462D01*
X-847243Y128937D02*
X-848293D01*
X-847768D01*
Y132086D01*
X-847243Y131561D01*
X2666Y277755D02*
X42D01*
X1354Y279067D02*
Y276443D01*
X-21055Y277755D02*
X-23678D01*
X-22366Y279067D02*
Y276443D01*
X-50050Y286418D02*
X-47427D01*
X-48739Y285106D02*
Y287730D01*
D125*
X-627500Y117726D02*
G03*
X-627500Y120226I0J1250D01*
G01*
X-821260Y111240D02*
Y142323D01*
X-787402D01*
Y108465D02*
Y142323D01*
X-818484Y108465D02*
X-787402D01*
X-821260Y111240D02*
X-818484Y108465D01*
X-627500Y120226D02*
Y132539D01*
Y105413D02*
Y117726D01*
Y105413D02*
X-565354D01*
Y132539D01*
X-627500D02*
X-565354D01*
X-694410Y259961D02*
Y279961D01*
X-704410Y259961D02*
X-694410D01*
X-704410D02*
Y279961D01*
X-694410D01*
D126*
X-1112911Y391417D02*
X-1110695D01*
X-1113255Y393110D02*
X-1110499D01*
X-1111877Y391417D02*
X-1110499Y393110D01*
X-1113255D02*
X-1111877Y391417D01*
X-1038320Y393110D02*
X-1036942Y391417D01*
X-1035564Y393110D01*
X-1038320D02*
X-1035564D01*
X-1037977Y391417D02*
X-1035761D01*
X-963043D02*
X-960827D01*
X-963386Y393110D02*
X-960630D01*
X-962008Y391417D02*
X-960630Y393110D01*
X-963386D02*
X-962008Y391417D01*
X-888451Y393110D02*
X-887074Y391417D01*
X-885696Y393110D01*
X-888451D02*
X-885696D01*
X-888108Y391417D02*
X-885892D01*
X-813174D02*
X-810958D01*
X-813517Y393110D02*
X-810761D01*
X-812139Y391417D02*
X-810761Y393110D01*
X-813517D02*
X-812139Y391417D01*
X-738583Y393110D02*
X-737205Y391417D01*
X-735827Y393110D01*
X-738583D02*
X-735827D01*
X-738239Y391417D02*
X-736024D01*
X-663305D02*
X-661089D01*
X-663648Y393110D02*
X-660892D01*
X-662270Y391417D02*
X-660892Y393110D01*
X-663648D02*
X-662270Y391417D01*
X-588714Y393110D02*
X-587336Y391417D01*
X-585958Y393110D01*
X-588714D02*
X-585958D01*
X-588371Y391417D02*
X-586155D01*
X-513436D02*
X-511221D01*
X-513780Y393110D02*
X-511024D01*
X-512402Y391417D02*
X-511024Y393110D01*
X-513780D02*
X-512402Y391417D01*
X-438845Y393110D02*
X-437467Y391417D01*
X-436089Y393110D01*
X-438845D02*
X-436089D01*
X-438502Y391417D02*
X-436286D01*
X-363567D02*
X-361352D01*
X-363911Y393110D02*
X-361155D01*
X-362533Y391417D02*
X-361155Y393110D01*
X-363911D02*
X-362533Y391417D01*
X-288976Y393110D02*
X-287598Y391417D01*
X-286221Y393110D01*
X-288976D02*
X-286221D01*
X-288633Y391417D02*
X-286417D01*
X-175641D02*
X-173425D01*
X-175984Y393110D02*
X-173228D01*
X-174606Y391417D02*
X-173228Y393110D01*
X-175984D02*
X-174606Y391417D01*
X-43701Y393110D02*
X-42323Y391417D01*
X-40945Y393110D01*
X-43701D02*
X-40945D01*
X-43358Y391417D02*
X-41142D01*
X50737D02*
X52953D01*
X50394Y393110D02*
X53150D01*
X51772Y391417D02*
X53150Y393110D01*
X50394D02*
X51772Y391417D01*
X123425Y393110D02*
X124803Y391417D01*
X126181Y393110D01*
X123425D02*
X126181D01*
X123768Y391417D02*
X125984D01*
X-1075493Y316417D02*
X-1073277D01*
X-1075837Y318110D02*
X-1073081D01*
X-1074459Y316417D02*
X-1073081Y318110D01*
X-1075837D02*
X-1074459Y316417D01*
X-1000764Y318860D02*
X-999386Y317166D01*
X-998008Y318860D01*
X-1000764D02*
X-998008D01*
X-1000421Y317166D02*
X-998205D01*
X-925472D02*
X-923256D01*
X-925815Y318860D02*
X-923059D01*
X-924437Y317166D02*
X-923059Y318860D01*
X-925815D02*
X-924437Y317166D01*
X-850866Y318860D02*
X-849488Y317166D01*
X-848110Y318860D01*
X-850866D02*
X-848110D01*
X-850523Y317166D02*
X-848307D01*
X-775377D02*
X-773161D01*
X-775720Y318860D02*
X-772964D01*
X-774342Y317166D02*
X-772964Y318860D01*
X-775720D02*
X-774342Y317166D01*
X-700181Y318860D02*
X-698803Y317166D01*
X-697425Y318860D01*
X-700181D02*
X-697425D01*
X-699838Y317166D02*
X-697622D01*
X-624889D02*
X-622673D01*
X-625232Y318860D02*
X-622476D01*
X-623854Y317166D02*
X-622476Y318860D01*
X-625232D02*
X-623854Y317166D01*
X-550283Y318860D02*
X-548905Y317166D01*
X-547527Y318860D01*
X-550283D02*
X-547527D01*
X-549940Y317166D02*
X-547724D01*
X-474991D02*
X-472775D01*
X-475335Y318860D02*
X-472578D01*
X-473956Y317166D02*
X-472578Y318860D01*
X-475335D02*
X-473956Y317166D01*
X-400386Y318860D02*
X-399008Y317166D01*
X-397630Y318860D01*
X-400386D02*
X-397630D01*
X-400042Y317166D02*
X-397827D01*
X-325093D02*
X-322878D01*
X-325437Y318860D02*
X-322681D01*
X-324059Y317166D02*
X-322681Y318860D01*
X-325437D02*
X-324059Y317166D01*
X-250488Y318466D02*
X-249110Y316772D01*
X-247732Y318466D01*
X-250488D02*
X-247732D01*
X-250145Y316772D02*
X-247929D01*
X-156932Y317166D02*
X-154716D01*
X-157275Y318860D02*
X-154520D01*
X-155897Y317166D02*
X-154520Y318860D01*
X-157275D02*
X-155897Y317166D01*
X-43925Y318860D02*
X-42547Y317166D01*
X-41170Y318860D01*
X-43925D02*
X-41170D01*
X-43582Y317166D02*
X-41366D01*
X50934D02*
X53150D01*
X50590Y318860D02*
X53347D01*
X51968Y317166D02*
X53347Y318860D01*
X50590D02*
X51968Y317166D01*
X124409Y318860D02*
X125787Y317166D01*
X127165Y318860D01*
X124409D02*
X127165D01*
X124753Y317166D02*
X126969D01*
X-981826Y241613D02*
X-979610D01*
X-982169Y243307D02*
X-979414D01*
X-980791Y241613D02*
X-979414Y243307D01*
X-982169D02*
X-980791Y241613D01*
X-907130Y243307D02*
X-905752Y241613D01*
X-904374Y243307D01*
X-907130D02*
X-904374D01*
X-906787Y241613D02*
X-904571D01*
X-831747D02*
X-829532D01*
X-832091Y243307D02*
X-829335D01*
X-830713Y241613D02*
X-829335Y243307D01*
X-832091D02*
X-830713Y241613D01*
X-757051Y243307D02*
X-755673Y241613D01*
X-754295Y243307D01*
X-757051D02*
X-754295D01*
X-756708Y241613D02*
X-754492D01*
X-681669D02*
X-679453D01*
X-682012Y243307D02*
X-679256D01*
X-680634Y241613D02*
X-679256Y243307D01*
X-682012D02*
X-680634Y241613D01*
X-606973Y243307D02*
X-605595Y241613D01*
X-604217Y243307D01*
X-606973D02*
X-604217D01*
X-606629Y241613D02*
X-604414D01*
X-531590D02*
X-529374D01*
X-531933Y243307D02*
X-529177D01*
X-530555Y241613D02*
X-529177Y243307D01*
X-531933D02*
X-530555Y241613D01*
X-456894Y243307D02*
X-455516Y241613D01*
X-454138Y243307D01*
X-456894D02*
X-454138D01*
X-456551Y241613D02*
X-454335D01*
X-381511D02*
X-379295D01*
X-381855Y243307D02*
X-379099D01*
X-380476Y241613D02*
X-379099Y243307D01*
X-381855D02*
X-380476Y241613D01*
X-306815Y243307D02*
X-305437Y241613D01*
X-304059Y243307D01*
X-306815D02*
X-304059D01*
X-306472Y241613D02*
X-304256D01*
X-185287Y241220D02*
X-183071D01*
X-185630Y242913D02*
X-182874D01*
X-184252Y241220D02*
X-182874Y242913D01*
X-185630D02*
X-184252Y241220D01*
X48425Y242913D02*
X49803Y241220D01*
X51181Y242913D01*
X48425D02*
X51181D01*
X48768Y241220D02*
X50984D01*
X125146D02*
X127362D01*
X124803Y242913D02*
X127559D01*
X126181Y241220D02*
X127559Y242913D01*
X124803D02*
X126181Y241220D01*
X200000Y242913D02*
X201378Y241220D01*
X202756Y242913D01*
X200000D02*
X202756D01*
X200343Y241220D02*
X202559D01*
X200540Y317166D02*
X202756D01*
X200197Y318860D02*
X202953D01*
X201575Y317166D02*
X202953Y318860D01*
X200197D02*
X201575Y317166D01*
X-1019709Y168307D02*
X-1018331Y166613D01*
X-1016953Y168307D01*
X-1019709D02*
X-1016953D01*
X-1019366Y166613D02*
X-1017150D01*
X-944345D02*
X-942130D01*
X-944689Y168307D02*
X-941933D01*
X-943311Y166613D02*
X-941933Y168307D01*
X-944689D02*
X-943311Y166613D01*
X-869668Y168307D02*
X-868291Y166613D01*
X-866913Y168307D01*
X-869668D02*
X-866913D01*
X-869325Y166613D02*
X-867109D01*
X-801300Y204921D02*
Y207137D01*
X-799606Y204724D02*
Y207480D01*
X-801300Y206102D02*
X-799606Y204724D01*
X-801300Y206102D02*
X-799606Y207480D01*
X-729253Y206102D02*
X-727559Y207480D01*
X-729253Y206102D02*
X-727559Y204724D01*
Y207480D01*
X-729253Y204921D02*
Y207137D01*
X-652678Y204921D02*
Y207137D01*
X-650984Y204724D02*
Y207480D01*
X-652678Y206102D02*
X-650984Y204724D01*
X-652678Y206102D02*
X-650984Y207480D01*
X-574725Y206102D02*
X-573032Y207480D01*
X-574725Y206102D02*
X-573032Y204724D01*
Y207480D01*
X-574725Y204921D02*
Y207137D01*
X-503859Y204921D02*
Y207137D01*
X-502165Y204724D02*
Y207480D01*
X-503859Y206102D02*
X-502165Y204724D01*
X-503859Y206102D02*
X-502165Y207480D01*
X-430259Y206102D02*
X-428565Y207480D01*
X-430259Y206102D02*
X-428565Y204724D01*
Y207480D01*
X-430259Y204921D02*
Y207137D01*
X-350513Y204921D02*
Y207137D01*
X-348819Y204724D02*
Y207480D01*
X-350513Y206102D02*
X-348819Y204724D01*
X-350513Y206102D02*
X-348819Y207480D01*
X-253859Y206102D02*
X-252165Y207480D01*
X-253859Y206102D02*
X-252165Y204724D01*
Y207480D01*
X-253859Y204921D02*
Y207137D01*
X-152875Y204921D02*
Y207137D01*
X-151181Y204724D02*
Y207480D01*
X-152875Y206102D02*
X-151181Y204724D01*
X-152875Y206102D02*
X-151181Y207480D01*
X-52875Y184449D02*
X-51181Y185827D01*
X-52875Y184449D02*
X-51181Y183071D01*
Y185827D01*
X-52875Y183268D02*
Y185484D01*
X41220Y200394D02*
Y202609D01*
X42913Y200197D02*
Y202953D01*
X41220Y201575D02*
X42913Y200197D01*
X41220Y201575D02*
X42913Y202953D01*
X116613Y202756D02*
X118307Y204134D01*
X116613Y202756D02*
X118307Y201378D01*
Y204134D01*
X116613Y201575D02*
Y203791D01*
X192007Y202165D02*
Y204381D01*
X193701Y201969D02*
Y204724D01*
X192007Y203346D02*
X193701Y201969D01*
X192007Y203346D02*
X193701Y204724D01*
X-1186536Y127165D02*
X-1184842Y128543D01*
X-1186536Y127165D02*
X-1184842Y125787D01*
Y128543D01*
X-1186536Y125984D02*
Y128200D01*
X-1102875Y125984D02*
Y128200D01*
X-1101181Y125787D02*
Y128543D01*
X-1102875Y127165D02*
X-1101181Y125787D01*
X-1102875Y127165D02*
X-1101181Y128543D01*
X-1019213Y127165D02*
X-1017520Y128543D01*
X-1019213Y127165D02*
X-1017520Y125787D01*
Y128543D01*
X-1019213Y125984D02*
Y128200D01*
X-713830Y112674D02*
X-711614D01*
X-714173Y114368D02*
X-711417D01*
X-712795Y112674D02*
X-711417Y114368D01*
X-714173D02*
X-712795Y112674D01*
X-398938Y127165D02*
X-397244Y128543D01*
X-398938Y127165D02*
X-397244Y125787D01*
Y128543D01*
X-398938Y125984D02*
Y128200D01*
X-313702Y125984D02*
Y128200D01*
X-312008Y125787D02*
Y128543D01*
X-313702Y127165D02*
X-312008Y125787D01*
X-313702Y127165D02*
X-312008Y128543D01*
X-230040Y127165D02*
X-228346Y128543D01*
X-230040Y127165D02*
X-228346Y125787D01*
Y128543D01*
X-230040Y125984D02*
Y128200D01*
X-127875Y106496D02*
Y108712D01*
X-126181Y106299D02*
Y109055D01*
X-127875Y107677D02*
X-126181Y106299D01*
X-127875Y107677D02*
X-126181Y109055D01*
X-53268Y107874D02*
X-51575Y109252D01*
X-53268Y107874D02*
X-51575Y106496D01*
Y109252D01*
X-53268Y106693D02*
Y108909D01*
X22125Y106693D02*
Y108909D01*
X23819Y106496D02*
Y109252D01*
X22125Y107874D02*
X23819Y106496D01*
X22125Y107874D02*
X23819Y109252D01*
X112479Y121260D02*
X114173Y122638D01*
X112479Y121260D02*
X114173Y119882D01*
Y122638D01*
X112479Y120079D02*
Y122294D01*
X188464Y124213D02*
Y126428D01*
X190157Y124016D02*
Y126772D01*
X188464Y125394D02*
X190157Y124016D01*
X188464Y125394D02*
X190157Y126772D01*
X259527Y137402D02*
X261221Y138779D01*
X259527Y137402D02*
X261221Y136024D01*
Y138779D01*
X259527Y136221D02*
Y138436D01*
X271338Y283465D02*
Y285680D01*
X273031Y283268D02*
Y286024D01*
X271338Y284646D02*
X273031Y283268D01*
X271338Y284646D02*
X273031Y286024D01*
X270550Y394291D02*
X272244Y395669D01*
X270550Y394291D02*
X272244Y392913D01*
Y395669D01*
X270550Y393110D02*
Y395326D01*
X199950Y390826D02*
X202165D01*
X199606Y392520D02*
X202362D01*
X200984Y390826D02*
X202362Y392520D01*
X199606D02*
X200984Y390826D01*
X-1188189Y396063D02*
X-1186811Y394369D01*
X-1185433Y396063D01*
X-1188189D02*
X-1185433D01*
X-1187846Y394369D02*
X-1185630D01*
X-1170916Y320354D02*
X-1168701D01*
X-1171260Y322047D02*
X-1168504D01*
X-1169882Y320354D02*
X-1168504Y322047D01*
X-1171260D02*
X-1169882Y320354D01*
X-1178150Y243898D02*
X-1176772Y242204D01*
X-1175394Y243898D01*
X-1178150D02*
X-1175394D01*
X-1177806Y242204D02*
X-1175591D01*
X-1146379Y171260D02*
Y173476D01*
X-1144685Y171063D02*
Y173819D01*
X-1146379Y172441D02*
X-1144685Y171063D01*
X-1146379Y172441D02*
X-1144685Y173819D01*
X-1057209Y243307D02*
X-1055831Y241613D01*
X-1054453Y243307D01*
X-1057209D02*
X-1054453D01*
X-1056866Y241613D02*
X-1054650D01*
X-225378Y396575D02*
X-224000Y394881D01*
X-222622Y396575D01*
X-225378D02*
X-222622D01*
X-225035Y394881D02*
X-222819D01*
D127*
X-52801Y260324D02*
Y260824D01*
X-733708Y108785D02*
X-733208D01*
X5960Y250584D02*
X6460D01*
X20900D02*
X21400D01*
D128*
X-1060724Y414925D02*
X-1062036D01*
X-1061380D01*
Y418861D01*
X-1060724Y418205D01*
D129*
X-159843Y430512D02*
X-162466D01*
X-161154Y429201D02*
Y431824D01*
X-157874Y402952D02*
X-155250D01*
X-156562Y404264D02*
Y401640D01*
X46260Y111812D02*
X43636D01*
X44948Y110500D02*
Y113124D01*
X48228Y84251D02*
X50852D01*
X49540Y85563D02*
Y82939D01*
X-281299Y103346D02*
X-278675D01*
X-279987Y104658D02*
Y102034D01*
X-290551Y131103D02*
X-293175D01*
X-291863Y129791D02*
Y132415D01*
X-206693Y130512D02*
X-209317D01*
X-208005Y129200D02*
Y131824D01*
X-204724Y102952D02*
X-202101D01*
X-203413Y104264D02*
Y101640D01*
X-375394Y130512D02*
X-378017D01*
X-376706Y129200D02*
Y131824D01*
X-373425Y102952D02*
X-370801D01*
X-372113Y104264D02*
Y101640D01*
X-994291Y130512D02*
X-996915D01*
X-995603Y129200D02*
Y131824D01*
X-992323Y102952D02*
X-989699D01*
X-991011Y104264D02*
Y101640D01*
X-1068701Y103346D02*
X-1066077D01*
X-1067389Y104658D02*
Y102034D01*
X-1079331Y130906D02*
X-1081954D01*
X-1080643Y129594D02*
Y132218D01*
X-1162992Y130512D02*
X-1165616D01*
X-1164304Y129200D02*
Y131824D01*
X-1161024Y102952D02*
X-1158400D01*
X-1159712Y104264D02*
Y101640D01*
X215158Y280316D02*
X212534D01*
X213846Y279004D02*
Y281627D01*
X217126Y252755D02*
X219750D01*
X218438Y254067D02*
Y251443D01*
X-1172244Y430512D02*
X-1174868D01*
X-1173556Y429201D02*
Y431824D01*
X-1170276Y402952D02*
X-1167652D01*
X-1168964Y404264D02*
Y401640D01*
X140157Y130316D02*
X137534D01*
X138846Y129004D02*
Y131628D01*
X142126Y102755D02*
X144750D01*
X143438Y104067D02*
Y101443D01*
X217126Y177952D02*
X219750D01*
X218438Y179264D02*
Y176640D01*
X215158Y205512D02*
X212534D01*
X213846Y204201D02*
Y206824D01*
X65158Y430512D02*
X62534D01*
X63846Y429201D02*
Y431824D01*
X67126Y402952D02*
X69750D01*
X68438Y404264D02*
Y401640D01*
X142126Y402952D02*
X144750D01*
X143438Y404264D02*
Y401640D01*
X140157Y430512D02*
X137534D01*
X138846Y429201D02*
Y431824D01*
X217126Y402952D02*
X219750D01*
X218438Y404264D02*
Y401640D01*
X215158Y430512D02*
X212534D01*
X213846Y429201D02*
Y431824D01*
X217126Y327952D02*
X219750D01*
X218438Y329264D02*
Y326640D01*
X215158Y355512D02*
X212534D01*
X213846Y354201D02*
Y356824D01*
X142126Y327952D02*
X144750D01*
X143438Y329264D02*
Y326640D01*
X140157Y355512D02*
X137534D01*
X138846Y354201D02*
Y356824D01*
X65158Y355512D02*
X62534D01*
X63846Y354201D02*
Y356824D01*
X67126Y327952D02*
X69750D01*
X68438Y329264D02*
Y326640D01*
X65158Y280316D02*
X62534D01*
X63846Y279004D02*
Y281627D01*
X67126Y252755D02*
X69750D01*
X68438Y254067D02*
Y251443D01*
X142126Y252755D02*
X144750D01*
X143438Y254067D02*
Y251443D01*
X140157Y280316D02*
X137534D01*
X138846Y279004D02*
Y281627D01*
X67126Y177952D02*
X69750D01*
X68438Y179264D02*
Y176640D01*
X65158Y205512D02*
X62534D01*
X63846Y204201D02*
Y206824D01*
X140157Y205512D02*
X137534D01*
X138846Y204201D02*
Y206824D01*
X142126Y177952D02*
X144750D01*
X143438Y179264D02*
Y176640D01*
X309056Y301575D02*
Y304199D01*
X307744Y302887D02*
X310368D01*
X281495Y299606D02*
Y296983D01*
X282807Y298294D02*
X280184D01*
X290158Y430512D02*
X287534D01*
X288846Y429201D02*
Y431824D01*
X292126Y402952D02*
X294750D01*
X293438Y404264D02*
Y401640D01*
X-26575Y327952D02*
X-23951D01*
X-25263Y329264D02*
Y326640D01*
X-28543Y355512D02*
X-31167D01*
X-29855Y354201D02*
Y356824D01*
X-26575Y402952D02*
X-23951D01*
X-25263Y404264D02*
Y401640D01*
X-28543Y430512D02*
X-31167D01*
X-29855Y429201D02*
Y431824D01*
X281495Y149409D02*
Y146786D01*
X282807Y148098D02*
X280184D01*
X309056Y151378D02*
Y154002D01*
X307744Y152690D02*
X310368D01*
X-187853Y205163D02*
X-190477D01*
X-189165Y203851D02*
Y206475D01*
X-185885Y177603D02*
X-183261D01*
X-184573Y178914D02*
Y176291D01*
X217126Y102952D02*
X219750D01*
X218438Y104264D02*
Y101640D01*
X215158Y130512D02*
X212534D01*
X213846Y129200D02*
Y131824D01*
X-101378Y84251D02*
X-98754D01*
X-100066Y85563D02*
Y82939D01*
X-103347Y111812D02*
X-105970D01*
X-104658Y110500D02*
Y113124D01*
X-28543Y111812D02*
X-31167D01*
X-29855Y110500D02*
Y113124D01*
X-26575Y84251D02*
X-23951D01*
X-25263Y85563D02*
Y82939D01*
X-682874Y102952D02*
X-680250D01*
X-681562Y104264D02*
Y101640D01*
X-684842Y130512D02*
X-687466D01*
X-686154Y129200D02*
Y131824D01*
X-740984Y280512D02*
X-743608D01*
X-742296Y279201D02*
Y281824D01*
X-739016Y252952D02*
X-736392D01*
X-737704Y254264D02*
Y251640D01*
X-1140945Y241214D02*
X-1138321D01*
X-1139633Y242526D02*
Y239902D01*
X-1144094Y280512D02*
X-1146718D01*
X-1145406Y279201D02*
Y281824D01*
X-1123425Y177952D02*
X-1120801D01*
X-1122113Y179264D02*
Y176640D01*
X-1125394Y205512D02*
X-1128018D01*
X-1126706Y204201D02*
Y206824D01*
X-1162992Y280512D02*
X-1165616D01*
X-1164304Y279201D02*
Y281824D01*
X-1151575Y327952D02*
X-1148951D01*
X-1150263Y329264D02*
Y326640D01*
X-1153543Y355512D02*
X-1156167D01*
X-1154855Y354201D02*
Y356824D01*
X-28543Y186615D02*
X-31167D01*
X-29855Y185303D02*
Y187927D01*
X-26575Y159055D02*
X-23951D01*
X-25263Y160366D02*
Y157743D01*
X-120276Y177603D02*
X-117652D01*
X-118964Y178914D02*
Y176291D01*
X-122244Y205163D02*
X-124868D01*
X-123556Y203851D02*
Y206475D01*
X-225462Y205163D02*
X-228086D01*
X-226774Y203851D02*
Y206475D01*
X-223494Y177603D02*
X-220870D01*
X-222182Y178914D02*
Y176291D01*
X-326575Y177952D02*
X-323951D01*
X-325263Y179264D02*
Y176640D01*
X-328543Y205512D02*
X-331167D01*
X-329855Y204201D02*
Y206824D01*
X-403565Y205512D02*
X-406189D01*
X-404877Y204201D02*
Y206824D01*
X-401597Y177952D02*
X-398973D01*
X-400285Y179264D02*
Y176640D01*
X-476619Y177952D02*
X-473995D01*
X-475307Y179264D02*
Y176640D01*
X-478587Y205512D02*
X-481211D01*
X-479899Y204201D02*
Y206824D01*
X-553609Y205512D02*
X-556233D01*
X-554921Y204201D02*
Y206824D01*
X-551641Y177952D02*
X-549017D01*
X-550329Y179264D02*
Y176640D01*
X-626662Y177952D02*
X-624039D01*
X-625351Y179264D02*
Y176640D01*
X-628631Y205512D02*
X-631255D01*
X-629943Y204201D02*
Y206824D01*
X-703653Y205512D02*
X-706277D01*
X-704965Y204201D02*
Y206824D01*
X-701684Y177952D02*
X-699060D01*
X-700372Y179264D02*
Y176640D01*
X-776706Y177952D02*
X-774082D01*
X-775394Y179264D02*
Y176640D01*
X-778675Y205512D02*
X-781298D01*
X-779986Y204201D02*
Y206824D01*
X-853696Y205512D02*
X-856320D01*
X-855008Y204201D02*
Y206824D01*
X-851728Y177952D02*
X-849104D01*
X-850416Y179264D02*
Y176640D01*
X-926750Y177952D02*
X-924126D01*
X-925438Y179264D02*
Y176640D01*
X-928718Y205512D02*
X-931342D01*
X-930030Y204201D02*
Y206824D01*
X-1003740Y205512D02*
X-1006364D01*
X-1005052Y204201D02*
Y206824D01*
X-1001772Y177952D02*
X-999148D01*
X-1000460Y179264D02*
Y176640D01*
X-167323Y252952D02*
X-164699D01*
X-166011Y254264D02*
Y251640D01*
X-169291Y280512D02*
X-171915D01*
X-170603Y279201D02*
Y281824D01*
X-290748Y280512D02*
X-293372D01*
X-292060Y279201D02*
Y281824D01*
X-288779Y252952D02*
X-286156D01*
X-287468Y254264D02*
Y251640D01*
X-363819Y252952D02*
X-361195D01*
X-362507Y254264D02*
Y251640D01*
X-365787Y280512D02*
X-368411D01*
X-367099Y279201D02*
Y281824D01*
X-440827Y280512D02*
X-443451D01*
X-442139Y279201D02*
Y281824D01*
X-438858Y252952D02*
X-436235D01*
X-437546Y254264D02*
Y251640D01*
X-513898Y252952D02*
X-511274D01*
X-512586Y254264D02*
Y251640D01*
X-515866Y280512D02*
X-518490D01*
X-517178Y279201D02*
Y281824D01*
X-590906Y280512D02*
X-593529D01*
X-592217Y279201D02*
Y281824D01*
X-588937Y252952D02*
X-586313D01*
X-587625Y254264D02*
Y251640D01*
X-663976Y252952D02*
X-661353D01*
X-662665Y254264D02*
Y251640D01*
X-665945Y280512D02*
X-668569D01*
X-667257Y279201D02*
Y281824D01*
X-814055Y252952D02*
X-811431D01*
X-812743Y254264D02*
Y251640D01*
X-816024Y280512D02*
X-818647D01*
X-817336Y279201D02*
Y281824D01*
X-891063Y280512D02*
X-893687D01*
X-892375Y279201D02*
Y281824D01*
X-889095Y252952D02*
X-886471D01*
X-887783Y254264D02*
Y251640D01*
X-964134Y252952D02*
X-961510D01*
X-962822Y254264D02*
Y251640D01*
X-966102Y280512D02*
X-968726D01*
X-967414Y279201D02*
Y281824D01*
X-1041142Y280512D02*
X-1043766D01*
X-1042454Y279201D02*
Y281824D01*
X-1039173Y252952D02*
X-1036549D01*
X-1037861Y254264D02*
Y251640D01*
X-141339Y355512D02*
X-143962D01*
X-142650Y354201D02*
Y356824D01*
X-139370Y327952D02*
X-136746D01*
X-138058Y329264D02*
Y326640D01*
X-232892Y327952D02*
X-230268D01*
X-231580Y329264D02*
Y326640D01*
X-234861Y355512D02*
X-237484D01*
X-236173Y354201D02*
Y356824D01*
X-309859Y355512D02*
X-312483D01*
X-311171Y354201D02*
Y356824D01*
X-307890Y327952D02*
X-305267D01*
X-306578Y329264D02*
Y326640D01*
X-382889Y327952D02*
X-380265D01*
X-381577Y329264D02*
Y326640D01*
X-384857Y355512D02*
X-387481D01*
X-386169Y354201D02*
Y356824D01*
X-459856Y355512D02*
X-462479D01*
X-461168Y354201D02*
Y356824D01*
X-457887Y327952D02*
X-455263D01*
X-456575Y329264D02*
Y326640D01*
X-532886Y327952D02*
X-530262D01*
X-531574Y329264D02*
Y326640D01*
X-534854Y355512D02*
X-537478D01*
X-536166Y354201D02*
Y356824D01*
X-609852Y355512D02*
X-612476D01*
X-611164Y354201D02*
Y356824D01*
X-607884Y327952D02*
X-605260D01*
X-606572Y329264D02*
Y326640D01*
X-682882Y327952D02*
X-680258D01*
X-681570Y329264D02*
Y326640D01*
X-684851Y355512D02*
X-687474D01*
X-686163Y354201D02*
Y356824D01*
X-759849Y355512D02*
X-762473D01*
X-761161Y354201D02*
Y356824D01*
X-757881Y327952D02*
X-755257D01*
X-756569Y329264D02*
Y326640D01*
X-832879Y327952D02*
X-830255D01*
X-831567Y329264D02*
Y326640D01*
X-834847Y355512D02*
X-837471D01*
X-836159Y354201D02*
Y356824D01*
X-909846Y355512D02*
X-912470D01*
X-911158Y354201D02*
Y356824D01*
X-907877Y327952D02*
X-905254D01*
X-906565Y329264D02*
Y326640D01*
X-982876Y327952D02*
X-980252D01*
X-981564Y329264D02*
Y326640D01*
X-984844Y355512D02*
X-987468D01*
X-986156Y354201D02*
Y356824D01*
X-1059842Y355512D02*
X-1062466D01*
X-1061154Y354201D02*
Y356824D01*
X-1057874Y327952D02*
X-1055250D01*
X-1056562Y329264D02*
Y326640D01*
X-270473Y402952D02*
X-267849D01*
X-269161Y404264D02*
Y401640D01*
X-272441Y430512D02*
X-275065D01*
X-273753Y429201D02*
Y431824D01*
X-347425Y430512D02*
X-350048D01*
X-348737Y429201D02*
Y431824D01*
X-345456Y402952D02*
X-342832D01*
X-344144Y404264D02*
Y401640D01*
X-420440Y402952D02*
X-417816D01*
X-419128Y404264D02*
Y401640D01*
X-422408Y430512D02*
X-425032D01*
X-423720Y429201D02*
Y431824D01*
X-497392Y430512D02*
X-500016D01*
X-498704Y429201D02*
Y431824D01*
X-495423Y402952D02*
X-492800D01*
X-494111Y404264D02*
Y401640D01*
X-570407Y402952D02*
X-567783D01*
X-569095Y404264D02*
Y401640D01*
X-572375Y430512D02*
X-574999D01*
X-573687Y429201D02*
Y431824D01*
X-647359Y430512D02*
X-649983D01*
X-648671Y429201D02*
Y431824D01*
X-645391Y402952D02*
X-642767D01*
X-644079Y404264D02*
Y401640D01*
X-720374Y402952D02*
X-717750D01*
X-719062Y404264D02*
Y401640D01*
X-722343Y430512D02*
X-724966D01*
X-723655Y429201D02*
Y431824D01*
X-797326Y430512D02*
X-799950D01*
X-798638Y429201D02*
Y431824D01*
X-795358Y402952D02*
X-792734D01*
X-794046Y404264D02*
Y401640D01*
X-870341Y402952D02*
X-867717D01*
X-869029Y404264D02*
Y401640D01*
X-872310Y430512D02*
X-874934D01*
X-873622Y429201D02*
Y431824D01*
X-947293Y430512D02*
X-949917D01*
X-948605Y429201D02*
Y431824D01*
X-945325Y402952D02*
X-942701D01*
X-944013Y404264D02*
Y401640D01*
X-1020308Y402952D02*
X-1017685D01*
X-1018997Y404264D02*
Y401640D01*
X-1022277Y430512D02*
X-1024901D01*
X-1023589Y429201D02*
Y431824D01*
X-1097260Y430512D02*
X-1099884D01*
X-1098572Y429201D02*
Y431824D01*
X-1095292Y402952D02*
X-1092668D01*
X-1093980Y404264D02*
Y401640D01*
X-122474Y430512D02*
X-125098D01*
X-123786Y429201D02*
Y431824D01*
X-120505Y402952D02*
X-117882D01*
X-119194Y404264D02*
Y401640D01*
X-197458Y430512D02*
X-200081D01*
X-198769Y429201D02*
Y431824D01*
X-195489Y402952D02*
X-192865D01*
X-194177Y404264D02*
Y401640D01*
M02*
