%FSLAX25Y25*%
%MOIN*%
G70*
G01*
G75*
%ADD10C,0.01500*%
%ADD11C,0.03937*%
%ADD12C,0.01000*%
%ADD13C,0.01575*%
%ADD14C,0.03150*%
%ADD15C,0.01400*%
%ADD16C,0.01969*%
%ADD17R,0.04724X0.06300*%
%ADD18O,0.04724X0.06300*%
%ADD19C,0.06689*%
%ADD20O,0.09840X0.08800*%
%ADD21O,0.08661X0.09840*%
%ADD22C,0.16929*%
%ADD23C,0.09840*%
%ADD24C,0.12000*%
%ADD25C,0.15700*%
%ADD26O,0.03937X0.09449*%
%ADD27C,0.02756*%
%ADD28C,0.02362*%
%ADD29O,0.05118X0.07087*%
%ADD30R,0.05118X0.07087*%
%ADD31O,0.07087X0.05906*%
%ADD32R,0.07087X0.05906*%
%ADD33C,0.07874*%
%ADD34C,0.07087*%
%ADD35C,0.13780*%
%ADD36O,0.14000X0.13000*%
%ADD37O,0.06300X0.04724*%
%ADD38R,0.06300X0.04724*%
%ADD39C,0.08661*%
G04:AMPARAMS|DCode=40|XSize=47.24mil|YSize=63mil|CornerRadius=0mil|HoleSize=0mil|Usage=FLASHONLY|Rotation=0.000|XOffset=0mil|YOffset=0mil|HoleType=Round|Shape=Octagon|*
%AMOCTAGOND40*
4,1,8,-0.01181,0.03150,0.01181,0.03150,0.02362,0.01969,0.02362,-0.01969,0.01181,-0.03150,-0.01181,-0.03150,-0.02362,-0.01969,-0.02362,0.01969,-0.01181,0.03150,0.0*
%
%ADD40OCTAGOND40*%

%ADD41O,0.08000X0.09840*%
%ADD42O,0.08661X0.09843*%
%ADD43C,0.06693*%
%ADD44O,0.08661X0.09839*%
%ADD45C,0.15669*%
%ADD46O,0.08661X0.09840*%
%ADD47O,0.09840X0.08661*%
%ADD48C,0.15669*%
%ADD49C,0.02441*%
%ADD50C,0.03150*%
%ADD51C,0.03937*%
%ADD52R,0.04331X0.04921*%
%ADD53R,0.00984X0.05118*%
%ADD54R,0.04921X0.04331*%
%ADD55R,0.05906X0.01969*%
%ADD56O,0.05906X0.01969*%
%ADD57O,0.07874X0.01969*%
%ADD58R,0.07874X0.01969*%
%ADD59R,0.01969X0.07874*%
%ADD60R,0.04724X0.03937*%
%ADD61R,0.03543X0.03937*%
%ADD62R,0.02559X0.07874*%
%ADD63O,0.02559X0.07874*%
%ADD64R,0.05118X0.04331*%
%ADD65R,0.03937X0.03937*%
%ADD66R,0.11811X0.09843*%
%ADD67R,0.03937X0.04724*%
%ADD68R,0.03937X0.03543*%
%ADD69R,0.19685X0.15748*%
%ADD70C,0.02362*%
%ADD71C,0.02756*%
%ADD72C,0.00394*%
D17*
X-160921Y436929D02*
D03*
X-156815Y396929D02*
D03*
X45181Y118228D02*
D03*
X49287Y78228D02*
D03*
X-292220Y136929D02*
D03*
X-207772Y136929D02*
D03*
X-203665Y96929D02*
D03*
X-376472Y136929D02*
D03*
X-372366Y96929D02*
D03*
X-995370Y136929D02*
D03*
X-991264Y96929D02*
D03*
X-1079622Y136929D02*
D03*
X-1164071Y136929D02*
D03*
X-1159965Y96929D02*
D03*
X214079Y286732D02*
D03*
X218185Y246732D02*
D03*
X-1173323Y436929D02*
D03*
X-1169217Y396929D02*
D03*
X139079Y136732D02*
D03*
X143185Y96732D02*
D03*
X218185Y171929D02*
D03*
X214079Y211929D02*
D03*
X64079Y436929D02*
D03*
X68185Y396929D02*
D03*
X143185D02*
D03*
X139079Y436929D02*
D03*
X218185Y396929D02*
D03*
X214079Y436929D02*
D03*
X218185Y321929D02*
D03*
X214079Y361929D02*
D03*
X143185Y321929D02*
D03*
X139079Y361929D02*
D03*
X64079D02*
D03*
X68185Y321929D02*
D03*
X64079Y286732D02*
D03*
X68185Y246732D02*
D03*
X143185D02*
D03*
X139079Y286732D02*
D03*
X68185Y171929D02*
D03*
X64079Y211929D02*
D03*
X139079D02*
D03*
X143185Y171929D02*
D03*
X289079Y436929D02*
D03*
X293185Y396929D02*
D03*
X-25516Y321929D02*
D03*
X-29622Y361929D02*
D03*
X-25516Y396929D02*
D03*
X-29622Y436929D02*
D03*
X-188932Y211579D02*
D03*
X-184826Y171580D02*
D03*
X218185Y96929D02*
D03*
X214079Y136929D02*
D03*
X-100319Y78228D02*
D03*
X-104425Y118228D02*
D03*
X-29622D02*
D03*
X-25516Y78228D02*
D03*
X-681815Y96929D02*
D03*
X-685921Y136929D02*
D03*
X-742063Y286929D02*
D03*
X-737957Y246929D02*
D03*
X-1141067D02*
D03*
X-1122366Y171929D02*
D03*
X-1126472Y211929D02*
D03*
X-1164071Y286929D02*
D03*
X-1150516Y321929D02*
D03*
X-1154622Y361929D02*
D03*
X-29622Y193032D02*
D03*
X-25516Y153032D02*
D03*
X-119217Y171580D02*
D03*
X-123323Y211579D02*
D03*
X-226541D02*
D03*
X-325516Y171929D02*
D03*
X-329622Y211929D02*
D03*
X-404644D02*
D03*
X-400538Y171929D02*
D03*
X-475560D02*
D03*
X-479666Y211929D02*
D03*
X-554688D02*
D03*
X-550582Y171929D02*
D03*
X-625603D02*
D03*
X-629710Y211929D02*
D03*
X-704732D02*
D03*
X-700625Y171929D02*
D03*
X-775647D02*
D03*
X-779753Y211929D02*
D03*
X-854775D02*
D03*
X-850669Y171929D02*
D03*
X-925691D02*
D03*
X-929797Y211929D02*
D03*
X-1004819D02*
D03*
X-1000713Y171929D02*
D03*
X-166264Y246929D02*
D03*
X-170370Y286929D02*
D03*
X-291827D02*
D03*
X-287720Y246929D02*
D03*
X-362760D02*
D03*
X-366866Y286929D02*
D03*
X-441905D02*
D03*
X-437799Y246929D02*
D03*
X-512839D02*
D03*
X-516945Y286929D02*
D03*
X-591984D02*
D03*
X-587878Y246929D02*
D03*
X-662917D02*
D03*
X-667024Y286929D02*
D03*
X-812996Y246929D02*
D03*
X-817102Y286929D02*
D03*
X-892142D02*
D03*
X-888035Y246929D02*
D03*
X-963075D02*
D03*
X-967181Y286929D02*
D03*
X-1042220D02*
D03*
X-1038114Y246929D02*
D03*
X-142417Y361929D02*
D03*
X-138311Y321929D02*
D03*
X-231833D02*
D03*
X-235939Y361929D02*
D03*
X-310938D02*
D03*
X-306831Y321929D02*
D03*
X-381830D02*
D03*
X-385936Y361929D02*
D03*
X-460934D02*
D03*
X-456828Y321929D02*
D03*
X-531826D02*
D03*
X-535933Y361929D02*
D03*
X-610931D02*
D03*
X-606825Y321929D02*
D03*
X-681823D02*
D03*
X-685929Y361929D02*
D03*
X-760928D02*
D03*
X-756821Y321929D02*
D03*
X-831820D02*
D03*
X-835926Y361929D02*
D03*
X-910925D02*
D03*
X-906818Y321929D02*
D03*
X-981817D02*
D03*
X-985923Y361929D02*
D03*
X-1060921D02*
D03*
X-1056815Y321929D02*
D03*
X-269414Y396929D02*
D03*
X-273520Y436929D02*
D03*
X-348503D02*
D03*
X-344397Y396929D02*
D03*
X-419381D02*
D03*
X-423487Y436929D02*
D03*
X-498471D02*
D03*
X-494364Y396929D02*
D03*
X-569348D02*
D03*
X-573454Y436929D02*
D03*
X-648438D02*
D03*
X-644332Y396929D02*
D03*
X-719315D02*
D03*
X-723421Y436929D02*
D03*
X-798405D02*
D03*
X-794299Y396929D02*
D03*
X-869282D02*
D03*
X-873388Y436929D02*
D03*
X-948372D02*
D03*
X-944266Y396929D02*
D03*
X-1019249D02*
D03*
X-1023356Y436929D02*
D03*
X-1098339D02*
D03*
X-1094233Y396929D02*
D03*
X-123553Y436929D02*
D03*
X-119446Y396929D02*
D03*
X-198536Y436929D02*
D03*
X-194430Y396929D02*
D03*
D18*
X-153086Y436929D02*
D03*
X-148921Y396929D02*
D03*
X53016Y118228D02*
D03*
X57181Y78228D02*
D03*
X-284327Y136929D02*
D03*
X-199936Y136929D02*
D03*
X-195772Y96929D02*
D03*
X-368637Y136929D02*
D03*
X-364472Y96929D02*
D03*
X-987535Y136929D02*
D03*
X-983370Y96929D02*
D03*
X-1071728Y136929D02*
D03*
X-1156236Y136929D02*
D03*
X-1152071Y96929D02*
D03*
X221914Y286732D02*
D03*
X226079Y246732D02*
D03*
X-1165487Y436929D02*
D03*
X-1161323Y396929D02*
D03*
X146914Y136732D02*
D03*
X151079Y96732D02*
D03*
X226079Y171929D02*
D03*
X221914Y211929D02*
D03*
X71914Y436929D02*
D03*
X76079Y396929D02*
D03*
X151079D02*
D03*
X146914Y436929D02*
D03*
X226079Y396929D02*
D03*
X221914Y436929D02*
D03*
X226079Y321929D02*
D03*
X221914Y361929D02*
D03*
X151079Y321929D02*
D03*
X146914Y361929D02*
D03*
X71914D02*
D03*
X76079Y321929D02*
D03*
X71914Y286732D02*
D03*
X76079Y246732D02*
D03*
X151079D02*
D03*
X146914Y286732D02*
D03*
X76079Y171929D02*
D03*
X71914Y211929D02*
D03*
X146914D02*
D03*
X151079Y171929D02*
D03*
X296914Y436929D02*
D03*
X301079Y396929D02*
D03*
X-17622Y321929D02*
D03*
X-21787Y361929D02*
D03*
X-17622Y396929D02*
D03*
X-21787Y436929D02*
D03*
X-181097Y211579D02*
D03*
X-176932Y171580D02*
D03*
X226079Y96929D02*
D03*
X221914Y136929D02*
D03*
X-92425Y78228D02*
D03*
X-96590Y118228D02*
D03*
X-21787D02*
D03*
X-17622Y78228D02*
D03*
X-673921Y96929D02*
D03*
X-678086Y136929D02*
D03*
X-734228Y286929D02*
D03*
X-730063Y246929D02*
D03*
X-1133173D02*
D03*
X-1114472Y171929D02*
D03*
X-1118637Y211929D02*
D03*
X-1156236Y286929D02*
D03*
X-1142622Y321929D02*
D03*
X-1146787Y361929D02*
D03*
X-21787Y193032D02*
D03*
X-17622Y153032D02*
D03*
X-111323Y171580D02*
D03*
X-115488Y211579D02*
D03*
X-218706D02*
D03*
X-214541Y171580D02*
D03*
X-317622Y171929D02*
D03*
X-321787Y211929D02*
D03*
X-396809D02*
D03*
X-392644Y171929D02*
D03*
X-467666D02*
D03*
X-471831Y211929D02*
D03*
X-546852D02*
D03*
X-542688Y171929D02*
D03*
X-617710D02*
D03*
X-621874Y211929D02*
D03*
X-696896D02*
D03*
X-692732Y171929D02*
D03*
X-767753D02*
D03*
X-771918Y211929D02*
D03*
X-846940D02*
D03*
X-842775Y171929D02*
D03*
X-917797D02*
D03*
X-921962Y211929D02*
D03*
X-996984D02*
D03*
X-992819Y171929D02*
D03*
X-158370Y246929D02*
D03*
X-162535Y286929D02*
D03*
X-283992D02*
D03*
X-279827Y246929D02*
D03*
X-354866D02*
D03*
X-359031Y286929D02*
D03*
X-434070D02*
D03*
X-429906Y246929D02*
D03*
X-504945D02*
D03*
X-509110Y286929D02*
D03*
X-584149D02*
D03*
X-579984Y246929D02*
D03*
X-655024D02*
D03*
X-659188Y286929D02*
D03*
X-805102Y246929D02*
D03*
X-809267Y286929D02*
D03*
X-884306D02*
D03*
X-880142Y246929D02*
D03*
X-955181D02*
D03*
X-959346Y286929D02*
D03*
X-1034385D02*
D03*
X-1030221Y246929D02*
D03*
X-134582Y361929D02*
D03*
X-130417Y321929D02*
D03*
X-223939D02*
D03*
X-228104Y361929D02*
D03*
X-303102D02*
D03*
X-298938Y321929D02*
D03*
X-373936D02*
D03*
X-378101Y361929D02*
D03*
X-453099D02*
D03*
X-448934Y321929D02*
D03*
X-523933D02*
D03*
X-528097Y361929D02*
D03*
X-603096D02*
D03*
X-598931Y321929D02*
D03*
X-673930D02*
D03*
X-678094Y361929D02*
D03*
X-753092D02*
D03*
X-748928Y321929D02*
D03*
X-823926D02*
D03*
X-828091Y361929D02*
D03*
X-903089D02*
D03*
X-898925Y321929D02*
D03*
X-973923D02*
D03*
X-978088Y361929D02*
D03*
X-1053086D02*
D03*
X-1048921Y321929D02*
D03*
X-261520Y396929D02*
D03*
X-265685Y436929D02*
D03*
X-340668D02*
D03*
X-336504Y396929D02*
D03*
X-411487D02*
D03*
X-415652Y436929D02*
D03*
X-490635D02*
D03*
X-486471Y396929D02*
D03*
X-561454D02*
D03*
X-565619Y436929D02*
D03*
X-640602D02*
D03*
X-636438Y396929D02*
D03*
X-711421D02*
D03*
X-715586Y436929D02*
D03*
X-790570D02*
D03*
X-786405Y396929D02*
D03*
X-861388D02*
D03*
X-865553Y436929D02*
D03*
X-940537D02*
D03*
X-936372Y396929D02*
D03*
X-1011356D02*
D03*
X-1015520Y436929D02*
D03*
X-1090504D02*
D03*
X-1086339Y396929D02*
D03*
X-115717Y436929D02*
D03*
X-111553Y396929D02*
D03*
X-190701Y436929D02*
D03*
X-186536Y396929D02*
D03*
D19*
X-174921Y416929D02*
D03*
X-134921D02*
D03*
X-1053622Y116929D02*
D03*
X-97553Y416929D02*
D03*
X-212536D02*
D03*
X-172536D02*
D03*
D20*
X-139921Y406929D02*
D03*
D21*
X-164921Y396929D02*
D03*
X-144921Y436929D02*
D03*
X-202536Y396929D02*
D03*
X-182536Y436929D02*
D03*
D22*
X-154921Y416929D02*
D03*
X51181Y98228D02*
D03*
X-286221Y116929D02*
D03*
X-201772Y116929D02*
D03*
X-370472D02*
D03*
X-989370D02*
D03*
X-1073622Y116929D02*
D03*
X-1158071Y116929D02*
D03*
X220079Y266732D02*
D03*
X-1167323Y416929D02*
D03*
X145079Y116732D02*
D03*
X220079Y191929D02*
D03*
X70079Y416929D02*
D03*
X145079D02*
D03*
X220079D02*
D03*
Y341929D02*
D03*
X145079D02*
D03*
X70079D02*
D03*
Y266732D02*
D03*
X145079D02*
D03*
X70079Y191929D02*
D03*
X145079D02*
D03*
X295079Y304528D02*
D03*
X295079Y416929D02*
D03*
X-23622Y341929D02*
D03*
Y416929D02*
D03*
X295079Y154331D02*
D03*
X-182932Y191579D02*
D03*
X220079Y116929D02*
D03*
X-98425Y98228D02*
D03*
X-23622D02*
D03*
X-679921Y116929D02*
D03*
X-736063Y266929D02*
D03*
X-1139173D02*
D03*
X-1120473Y191929D02*
D03*
X-1158071Y266929D02*
D03*
X-1148622Y341929D02*
D03*
X-23622Y173031D02*
D03*
X-117323Y191579D02*
D03*
X-220541D02*
D03*
X-323622Y191929D02*
D03*
X-398644D02*
D03*
X-473666D02*
D03*
X-548688D02*
D03*
X-623710D02*
D03*
X-698732D02*
D03*
X-773753D02*
D03*
X-848775D02*
D03*
X-923797D02*
D03*
X-998819D02*
D03*
X-164370Y266929D02*
D03*
X-285827D02*
D03*
X-360866D02*
D03*
X-435906D02*
D03*
X-510945D02*
D03*
X-585984D02*
D03*
X-661024D02*
D03*
X-811102D02*
D03*
X-886142D02*
D03*
X-961181D02*
D03*
X-1036220D02*
D03*
X-136417Y341929D02*
D03*
X-229939D02*
D03*
X-304938D02*
D03*
X-379936D02*
D03*
X-454934D02*
D03*
X-529933D02*
D03*
X-604931D02*
D03*
X-679929D02*
D03*
X-754928D02*
D03*
X-829926D02*
D03*
X-904925D02*
D03*
X-979923D02*
D03*
X-1054921D02*
D03*
X-267520Y416929D02*
D03*
X-342503D02*
D03*
X-417487D02*
D03*
X-492471D02*
D03*
X-567454D02*
D03*
X-642438D02*
D03*
X-717421D02*
D03*
X-792405D02*
D03*
X-867389D02*
D03*
X-942372D02*
D03*
X-1017356D02*
D03*
X-1092339D02*
D03*
D23*
X-169921Y426929D02*
D03*
X66181Y88228D02*
D03*
X41181Y78228D02*
D03*
X61181Y118228D02*
D03*
X36181Y108228D02*
D03*
X-186772Y106929D02*
D03*
X-211772Y96929D02*
D03*
X-191772Y136929D02*
D03*
X-216772Y126929D02*
D03*
X-355472Y106929D02*
D03*
X-380472Y96929D02*
D03*
X-360472Y136929D02*
D03*
X-385472Y126929D02*
D03*
X-974370Y106929D02*
D03*
X-999370Y96929D02*
D03*
X-979370Y136929D02*
D03*
X-1004370Y126929D02*
D03*
X-1143071Y106929D02*
D03*
X-1168071Y96929D02*
D03*
X-1148071Y136929D02*
D03*
X-1173071Y126929D02*
D03*
X235079Y256732D02*
D03*
X210079Y246732D02*
D03*
X230079Y286732D02*
D03*
X205079Y276732D02*
D03*
X-1152323Y406929D02*
D03*
X-1177323Y396929D02*
D03*
X-1157323Y436929D02*
D03*
X-1182323Y426929D02*
D03*
X160079Y106732D02*
D03*
X135079Y96732D02*
D03*
X155079Y136732D02*
D03*
X130079Y126732D02*
D03*
X205079Y201929D02*
D03*
X230079Y211929D02*
D03*
X210079Y171929D02*
D03*
X235079Y181929D02*
D03*
X85079Y406929D02*
D03*
X60079Y396929D02*
D03*
X80079Y436929D02*
D03*
X55079Y426929D02*
D03*
X130079D02*
D03*
X155079Y436929D02*
D03*
X135079Y396929D02*
D03*
X160079Y406929D02*
D03*
X205079Y426929D02*
D03*
X230079Y436929D02*
D03*
X210079Y396929D02*
D03*
X235079Y406929D02*
D03*
X205079Y351929D02*
D03*
X230079Y361929D02*
D03*
X210079Y321929D02*
D03*
X235079Y331929D02*
D03*
X130079Y351929D02*
D03*
X155079Y361929D02*
D03*
X135079Y321929D02*
D03*
X160079Y331929D02*
D03*
X85079D02*
D03*
X60079Y321929D02*
D03*
X80079Y361929D02*
D03*
X55079Y351929D02*
D03*
X85079Y256732D02*
D03*
X60079Y246732D02*
D03*
X80079Y286732D02*
D03*
X55079Y276732D02*
D03*
X130079D02*
D03*
X155079Y286732D02*
D03*
X135079Y246732D02*
D03*
X160079Y256732D02*
D03*
X55079Y201929D02*
D03*
X80079Y211929D02*
D03*
X60079Y171929D02*
D03*
X85079Y181929D02*
D03*
X160079D02*
D03*
X135079Y171929D02*
D03*
X155079Y211929D02*
D03*
X130079Y201929D02*
D03*
X285079Y289528D02*
D03*
X275079Y314528D02*
D03*
X315079Y294528D02*
D03*
X305079Y319528D02*
D03*
X310079Y406929D02*
D03*
X285079Y396929D02*
D03*
X305079Y436929D02*
D03*
X280079Y426929D02*
D03*
X-38622Y351929D02*
D03*
X-13622Y361929D02*
D03*
X-33622Y321929D02*
D03*
X-8622Y331929D02*
D03*
X-38622Y426929D02*
D03*
X-13622Y436929D02*
D03*
X-33622Y396929D02*
D03*
X-8622Y406929D02*
D03*
X305079Y169331D02*
D03*
X315079Y144331D02*
D03*
X275079Y164331D02*
D03*
X285079Y139331D02*
D03*
X-167932Y181579D02*
D03*
X-192932Y171580D02*
D03*
X-172932Y211579D02*
D03*
X-197932Y201579D02*
D03*
X205079Y126929D02*
D03*
X230079Y136929D02*
D03*
X210079Y96929D02*
D03*
X235079Y106929D02*
D03*
X-113425Y108228D02*
D03*
X-88425Y118228D02*
D03*
X-108425Y78228D02*
D03*
X-83425Y88228D02*
D03*
X-8622D02*
D03*
X-33622Y78228D02*
D03*
X-13622Y118228D02*
D03*
X-38622Y108228D02*
D03*
X-694921Y126929D02*
D03*
X-669921Y136929D02*
D03*
X-689921Y96929D02*
D03*
X-664921Y106929D02*
D03*
X-721063Y256929D02*
D03*
X-746063Y246929D02*
D03*
X-726063Y286929D02*
D03*
X-751063Y276929D02*
D03*
X-1154173D02*
D03*
X-1129173Y286929D02*
D03*
X-1149173Y246929D02*
D03*
X-1124173Y256929D02*
D03*
X-1135472Y201929D02*
D03*
X-1110472Y211929D02*
D03*
X-1130472Y171929D02*
D03*
X-1105472Y181929D02*
D03*
X-1143071Y256929D02*
D03*
X-1168071Y246929D02*
D03*
X-1148071Y286929D02*
D03*
X-1173071Y276929D02*
D03*
X-1163622Y351929D02*
D03*
X-1138622Y361929D02*
D03*
X-1158622Y321929D02*
D03*
X-1133622Y331929D02*
D03*
X-8622Y163031D02*
D03*
X-33622Y153032D02*
D03*
X-13622Y193032D02*
D03*
X-38622Y183031D02*
D03*
X-132323Y201579D02*
D03*
X-107323Y211579D02*
D03*
X-102323Y181579D02*
D03*
X-205541D02*
D03*
X-210541Y211579D02*
D03*
X-235541Y201579D02*
D03*
X-338622Y201929D02*
D03*
X-313622Y211929D02*
D03*
X-333622Y171929D02*
D03*
X-308622Y181929D02*
D03*
X-383644D02*
D03*
X-408644Y171929D02*
D03*
X-388644Y211929D02*
D03*
X-413644Y201929D02*
D03*
X-488666D02*
D03*
X-463666Y211929D02*
D03*
X-483666Y171929D02*
D03*
X-458666Y181929D02*
D03*
X-533688D02*
D03*
X-558688Y171929D02*
D03*
X-538688Y211929D02*
D03*
X-563688Y201929D02*
D03*
X-638710D02*
D03*
X-613710Y211929D02*
D03*
X-633710Y171929D02*
D03*
X-608710Y181929D02*
D03*
X-683732D02*
D03*
X-708732Y171929D02*
D03*
X-688731Y211929D02*
D03*
X-713731Y201929D02*
D03*
X-788753D02*
D03*
X-763753Y211929D02*
D03*
X-783753Y171929D02*
D03*
X-758753Y181929D02*
D03*
X-833775D02*
D03*
X-858775Y171929D02*
D03*
X-838775Y211929D02*
D03*
X-863775Y201929D02*
D03*
X-938797D02*
D03*
X-913797Y211929D02*
D03*
X-933797Y171929D02*
D03*
X-908797Y181929D02*
D03*
X-983819D02*
D03*
X-1008819Y171929D02*
D03*
X-988819Y211929D02*
D03*
X-1013819Y201929D02*
D03*
X-179370Y276929D02*
D03*
X-154370Y286929D02*
D03*
X-174370Y246929D02*
D03*
X-149370Y256929D02*
D03*
X-270827D02*
D03*
X-295827Y246929D02*
D03*
X-275827Y286929D02*
D03*
X-300827Y276929D02*
D03*
X-375866D02*
D03*
X-350866Y286929D02*
D03*
X-370866Y246929D02*
D03*
X-345866Y256929D02*
D03*
X-420905D02*
D03*
X-445905Y246929D02*
D03*
X-425906Y286929D02*
D03*
X-450906Y276929D02*
D03*
X-525945D02*
D03*
X-500945Y286929D02*
D03*
X-520945Y246929D02*
D03*
X-495945Y256929D02*
D03*
X-570984D02*
D03*
X-595984Y246929D02*
D03*
X-575984Y286929D02*
D03*
X-600984Y276929D02*
D03*
X-676024D02*
D03*
X-651024Y286929D02*
D03*
X-671024Y246929D02*
D03*
X-646024Y256929D02*
D03*
X-826102Y276929D02*
D03*
X-801102Y286929D02*
D03*
X-821102Y246929D02*
D03*
X-796102Y256929D02*
D03*
X-871142D02*
D03*
X-896142Y246929D02*
D03*
X-876142Y286929D02*
D03*
X-901142Y276929D02*
D03*
X-976181D02*
D03*
X-951181Y286929D02*
D03*
X-971181Y246929D02*
D03*
X-946181Y256929D02*
D03*
X-1021220D02*
D03*
X-1046220Y246929D02*
D03*
X-1026221Y286929D02*
D03*
X-1051221Y276929D02*
D03*
X-121417Y331929D02*
D03*
X-146417Y321929D02*
D03*
X-126417Y361929D02*
D03*
X-151417Y351929D02*
D03*
X-244939D02*
D03*
X-239939Y321929D02*
D03*
X-214939Y331929D02*
D03*
X-289938D02*
D03*
X-314938Y321929D02*
D03*
X-294938Y361929D02*
D03*
X-319938Y351929D02*
D03*
X-394936D02*
D03*
X-369936Y361929D02*
D03*
X-389936Y321929D02*
D03*
X-364936Y331929D02*
D03*
X-439934D02*
D03*
X-464934Y321929D02*
D03*
X-444934Y361929D02*
D03*
X-469934Y351929D02*
D03*
X-544933D02*
D03*
X-519933Y361929D02*
D03*
X-539933Y321929D02*
D03*
X-514933Y331929D02*
D03*
X-589931D02*
D03*
X-614931Y321929D02*
D03*
X-594931Y361929D02*
D03*
X-619931Y351929D02*
D03*
X-694930D02*
D03*
X-669930Y361929D02*
D03*
X-689929Y321929D02*
D03*
X-664929Y331929D02*
D03*
X-739928D02*
D03*
X-764928Y321929D02*
D03*
X-744928Y361929D02*
D03*
X-769928Y351929D02*
D03*
X-844926D02*
D03*
X-819926Y361929D02*
D03*
X-839926Y321929D02*
D03*
X-814926Y331929D02*
D03*
X-889925D02*
D03*
X-914925Y321929D02*
D03*
X-894925Y361929D02*
D03*
X-919925Y351929D02*
D03*
X-994923D02*
D03*
X-989923Y321929D02*
D03*
X-964923Y331929D02*
D03*
X-1039921D02*
D03*
X-1064921Y321929D02*
D03*
X-1044921Y361929D02*
D03*
X-1069921Y351929D02*
D03*
X-282520Y426929D02*
D03*
X-257520Y436929D02*
D03*
X-277520Y396929D02*
D03*
X-252520Y406929D02*
D03*
X-327503D02*
D03*
X-352503Y396929D02*
D03*
X-332504Y436929D02*
D03*
X-357504Y426929D02*
D03*
X-432487D02*
D03*
X-407487Y436929D02*
D03*
X-427487Y396929D02*
D03*
X-402487Y406929D02*
D03*
X-477471D02*
D03*
X-502471Y396929D02*
D03*
X-482471Y436929D02*
D03*
X-507471Y426929D02*
D03*
X-582454D02*
D03*
X-557454Y436929D02*
D03*
X-577454Y396929D02*
D03*
X-552454Y406929D02*
D03*
X-627438D02*
D03*
X-652438Y396929D02*
D03*
X-632438Y436929D02*
D03*
X-657438Y426929D02*
D03*
X-732421D02*
D03*
X-707421Y436929D02*
D03*
X-727421Y396929D02*
D03*
X-702421Y406929D02*
D03*
X-777405D02*
D03*
X-802405Y396929D02*
D03*
X-782405Y436929D02*
D03*
X-807405Y426929D02*
D03*
X-882388D02*
D03*
X-857388Y436929D02*
D03*
X-877388Y396929D02*
D03*
X-852388Y406929D02*
D03*
X-927372D02*
D03*
X-952372Y396929D02*
D03*
X-932372Y436929D02*
D03*
X-957372Y426929D02*
D03*
X-1032356D02*
D03*
X-1007356Y436929D02*
D03*
X-1027356Y396929D02*
D03*
X-1002356Y406929D02*
D03*
X-1077339D02*
D03*
X-1102339Y396929D02*
D03*
X-1082339Y436929D02*
D03*
X-1107339Y426929D02*
D03*
X-102553Y406929D02*
D03*
X-132553Y426929D02*
D03*
X-207536D02*
D03*
D24*
X-1167472Y219429D02*
D03*
X-1073472D02*
D03*
X322579Y107331D02*
D03*
Y201331D02*
D03*
Y257528D02*
D03*
Y351528D02*
D03*
X-107921Y444429D02*
D03*
X-201921D02*
D03*
X-229932Y164080D02*
D03*
X-135932D02*
D03*
X-211370Y239429D02*
D03*
X-117370D02*
D03*
X-454921Y90428D02*
D03*
X-904921D02*
D03*
D25*
X-1167472Y159429D02*
D03*
X-1073472D02*
D03*
X262579Y107331D02*
D03*
Y201331D02*
D03*
Y257528D02*
D03*
Y351528D02*
D03*
X-107921Y384429D02*
D03*
X-201921D02*
D03*
X-229932Y224080D02*
D03*
X-135932D02*
D03*
X-211370Y299429D02*
D03*
X-117370D02*
D03*
X-454921Y150428D02*
D03*
X-904921D02*
D03*
D26*
X6239Y470052D02*
D03*
X40294D02*
D03*
X6239Y453595D02*
D03*
X40294D02*
D03*
D27*
Y470052D02*
D03*
D03*
Y469659D02*
D03*
Y469265D02*
D03*
Y468871D02*
D03*
Y468477D02*
D03*
Y468084D02*
D03*
Y467690D02*
D03*
Y472414D02*
D03*
Y472021D02*
D03*
Y471627D02*
D03*
Y471233D02*
D03*
Y470840D02*
D03*
Y470446D02*
D03*
Y470052D02*
D03*
D03*
X6239D02*
D03*
D03*
Y469659D02*
D03*
Y469265D02*
D03*
Y468871D02*
D03*
Y468477D02*
D03*
Y468084D02*
D03*
Y467690D02*
D03*
Y472414D02*
D03*
Y472021D02*
D03*
Y471627D02*
D03*
Y471233D02*
D03*
Y470840D02*
D03*
Y470446D02*
D03*
Y470052D02*
D03*
D03*
X40294Y453595D02*
D03*
D03*
Y453202D02*
D03*
Y452808D02*
D03*
Y452414D02*
D03*
Y452021D02*
D03*
Y451627D02*
D03*
Y451233D02*
D03*
Y450840D02*
D03*
Y456351D02*
D03*
Y455958D02*
D03*
Y455564D02*
D03*
Y455170D02*
D03*
Y454777D02*
D03*
Y454383D02*
D03*
Y453989D02*
D03*
Y453595D02*
D03*
D03*
X6239D02*
D03*
D03*
Y453989D02*
D03*
Y454383D02*
D03*
Y454777D02*
D03*
Y455170D02*
D03*
Y455564D02*
D03*
Y455958D02*
D03*
Y456351D02*
D03*
Y450840D02*
D03*
Y451233D02*
D03*
Y451627D02*
D03*
Y452021D02*
D03*
Y452414D02*
D03*
Y452808D02*
D03*
Y453202D02*
D03*
Y453595D02*
D03*
D03*
D28*
X11898Y455512D02*
D03*
X34646Y455512D02*
D03*
D29*
X5028Y282087D02*
D03*
X-18692D02*
D03*
X-52413D02*
D03*
D30*
X-4972D02*
D03*
X-28692D02*
D03*
X-42413D02*
D03*
D31*
X-699409Y274961D02*
D03*
D32*
Y264961D02*
D03*
D33*
X31181Y98228D02*
D03*
X71181D02*
D03*
X-306221Y116929D02*
D03*
X-221772Y116929D02*
D03*
X-181772D02*
D03*
X-390472D02*
D03*
X-350472D02*
D03*
X-1009370D02*
D03*
X-969370D02*
D03*
X-1093622Y116929D02*
D03*
X-1178071Y116929D02*
D03*
X-1138071D02*
D03*
X200079Y266732D02*
D03*
X240079D02*
D03*
X-1187323Y416929D02*
D03*
X-1147323D02*
D03*
X125079Y116732D02*
D03*
X165079D02*
D03*
X240079Y191929D02*
D03*
X200079D02*
D03*
X50079Y416929D02*
D03*
X90079D02*
D03*
X165079D02*
D03*
X125079D02*
D03*
X240079D02*
D03*
X200079D02*
D03*
X240079Y341929D02*
D03*
X200079D02*
D03*
X165079D02*
D03*
X125079D02*
D03*
X50079D02*
D03*
X90079D02*
D03*
X50079Y266732D02*
D03*
X90079D02*
D03*
X165079D02*
D03*
X125079D02*
D03*
X90079Y191929D02*
D03*
X50079D02*
D03*
X125079D02*
D03*
X165079D02*
D03*
X295079Y324528D02*
D03*
Y284528D02*
D03*
X275079Y416929D02*
D03*
X315079D02*
D03*
X-3622Y341929D02*
D03*
X-43622D02*
D03*
X-3622Y416929D02*
D03*
X-43622D02*
D03*
X295079Y134331D02*
D03*
Y174331D02*
D03*
X-202932Y191579D02*
D03*
X-162932D02*
D03*
X240079Y116929D02*
D03*
X200079D02*
D03*
X-78425Y98228D02*
D03*
X-118425D02*
D03*
X-43622D02*
D03*
X-3622D02*
D03*
X-659921Y116929D02*
D03*
X-699921D02*
D03*
X-756063Y266929D02*
D03*
X-716063D02*
D03*
X-1119173D02*
D03*
X-1159173D02*
D03*
X-1100473Y191929D02*
D03*
X-1140473D02*
D03*
X-1178071Y266929D02*
D03*
X-1138071D02*
D03*
X-1128622Y341929D02*
D03*
X-1168622D02*
D03*
X-43622Y173031D02*
D03*
X-3622D02*
D03*
X-97323Y191579D02*
D03*
X-137323D02*
D03*
X-240541D02*
D03*
X-200541D02*
D03*
X-303622Y191929D02*
D03*
X-343622D02*
D03*
X-418644D02*
D03*
X-378644D02*
D03*
X-453666D02*
D03*
X-493666D02*
D03*
X-568688D02*
D03*
X-528688D02*
D03*
X-603710D02*
D03*
X-643710D02*
D03*
X-718731D02*
D03*
X-678731D02*
D03*
X-753753D02*
D03*
X-793753D02*
D03*
X-868775D02*
D03*
X-828775D02*
D03*
X-903797D02*
D03*
X-943797D02*
D03*
X-1018819D02*
D03*
X-978819D02*
D03*
X-144370Y266929D02*
D03*
X-184370D02*
D03*
X-305827D02*
D03*
X-265827D02*
D03*
X-340866D02*
D03*
X-380866D02*
D03*
X-455905D02*
D03*
X-415906D02*
D03*
X-490945D02*
D03*
X-530945D02*
D03*
X-605984D02*
D03*
X-565984D02*
D03*
X-641024D02*
D03*
X-681024D02*
D03*
X-791102D02*
D03*
X-831102D02*
D03*
X-906142D02*
D03*
X-866142D02*
D03*
X-941181D02*
D03*
X-981181D02*
D03*
X-1056221D02*
D03*
X-1016220D02*
D03*
X-156417Y341929D02*
D03*
X-116417D02*
D03*
X-209939D02*
D03*
X-249939D02*
D03*
X-324938D02*
D03*
X-284938D02*
D03*
X-359936D02*
D03*
X-399936D02*
D03*
X-474934D02*
D03*
X-434934D02*
D03*
X-509933D02*
D03*
X-549933D02*
D03*
X-624931D02*
D03*
X-584931D02*
D03*
X-659930D02*
D03*
X-699930D02*
D03*
X-774928D02*
D03*
X-734928D02*
D03*
X-809926D02*
D03*
X-849926D02*
D03*
X-924925D02*
D03*
X-884925D02*
D03*
X-959923D02*
D03*
X-999923D02*
D03*
X-1074921D02*
D03*
X-1034921D02*
D03*
X-247520Y416929D02*
D03*
X-287520D02*
D03*
X-362504D02*
D03*
X-322503D02*
D03*
X-397487D02*
D03*
X-437487D02*
D03*
X-512471D02*
D03*
X-472471D02*
D03*
X-547454D02*
D03*
X-587454D02*
D03*
X-662438D02*
D03*
X-622438D02*
D03*
X-697421D02*
D03*
X-737421D02*
D03*
X-812405D02*
D03*
X-772405D02*
D03*
X-847388D02*
D03*
X-887389D02*
D03*
X-962372D02*
D03*
X-922372D02*
D03*
X-997356D02*
D03*
X-1037356D02*
D03*
X-1112339D02*
D03*
X-1072339D02*
D03*
D34*
X-266220Y116929D02*
D03*
D35*
X-296220Y96929D02*
D03*
X-1083622D02*
D03*
D36*
X-271220Y106929D02*
D03*
X-1058622D02*
D03*
D37*
X315079Y310528D02*
D03*
X275079Y306363D02*
D03*
Y156166D02*
D03*
X315079Y160331D02*
D03*
D38*
Y302634D02*
D03*
X275079Y298528D02*
D03*
Y148331D02*
D03*
X315079Y152437D02*
D03*
D39*
X-127323Y171580D02*
D03*
X-230541D02*
D03*
D40*
X-222435D02*
D03*
D41*
X-219939Y361929D02*
D03*
D42*
X-969923D02*
D03*
D43*
X-137553Y416929D02*
D03*
D44*
X-127553Y396929D02*
D03*
D45*
X-117553Y416929D02*
D03*
D46*
X-107553Y436929D02*
D03*
D47*
X-177536Y406929D02*
D03*
D48*
X-192536Y416929D02*
D03*
M02*
