%FSLAX25Y25*%
%MOIN*%
G70*
G01*
G75*
G04 Layer_Color=2752767*
%ADD10C,0.01500*%
%ADD11C,0.03937*%
%ADD12C,0.01000*%
%ADD13C,0.01575*%
%ADD14C,0.03150*%
%ADD15C,0.01400*%
%ADD16C,0.01969*%
%ADD17R,0.04724X0.06300*%
%ADD18O,0.04724X0.06300*%
%ADD19C,0.06689*%
%ADD20O,0.09840X0.08800*%
%ADD21O,0.08661X0.09840*%
%ADD22C,0.16929*%
%ADD23C,0.09840*%
%ADD24C,0.12000*%
%ADD25C,0.15700*%
%ADD26O,0.03937X0.09449*%
%ADD27C,0.02756*%
%ADD28C,0.02362*%
%ADD29O,0.05118X0.07087*%
%ADD30R,0.05118X0.07087*%
%ADD31O,0.07087X0.05906*%
%ADD32R,0.07087X0.05906*%
%ADD33C,0.07874*%
%ADD34C,0.07087*%
%ADD35C,0.13780*%
%ADD36O,0.14000X0.13000*%
%ADD37O,0.06300X0.04724*%
%ADD38R,0.06300X0.04724*%
%ADD39C,0.08661*%
G04:AMPARAMS|DCode=40|XSize=47.24mil|YSize=63mil|CornerRadius=0mil|HoleSize=0mil|Usage=FLASHONLY|Rotation=0.000|XOffset=0mil|YOffset=0mil|HoleType=Round|Shape=Octagon|*
%AMOCTAGOND40*
4,1,8,-0.01181,0.03150,0.01181,0.03150,0.02362,0.01969,0.02362,-0.01969,0.01181,-0.03150,-0.01181,-0.03150,-0.02362,-0.01969,-0.02362,0.01969,-0.01181,0.03150,0.0*
%
%ADD40OCTAGOND40*%

%ADD41O,0.08000X0.09840*%
%ADD42O,0.08661X0.09843*%
%ADD43C,0.06693*%
%ADD44O,0.08661X0.09839*%
%ADD45C,0.15669*%
%ADD46O,0.08661X0.09840*%
%ADD47O,0.09840X0.08661*%
%ADD48C,0.15669*%
%ADD49C,0.02441*%
%ADD50C,0.03150*%
%ADD51C,0.03937*%
%ADD52R,0.04331X0.04921*%
%ADD53R,0.00984X0.05118*%
%ADD54R,0.04921X0.04331*%
%ADD55R,0.05906X0.01969*%
%ADD56O,0.05906X0.01969*%
%ADD57O,0.07874X0.01969*%
%ADD58R,0.07874X0.01969*%
%ADD59R,0.01969X0.07874*%
%ADD60R,0.04724X0.03937*%
%ADD61R,0.03543X0.03937*%
%ADD62R,0.02559X0.07874*%
%ADD63O,0.02559X0.07874*%
%ADD64R,0.05118X0.04331*%
%ADD65R,0.03937X0.03937*%
%ADD66R,0.11811X0.09843*%
%ADD67R,0.03937X0.04724*%
%ADD68R,0.03937X0.03543*%
%ADD69R,0.19685X0.15748*%
%ADD70C,0.02362*%
%ADD71C,0.02756*%
%ADD72C,0.00394*%
%ADD73R,0.05524X0.07100*%
%ADD74O,0.05524X0.07100*%
%ADD75C,0.07489*%
%ADD76O,0.10640X0.09600*%
%ADD77O,0.09461X0.10640*%
%ADD78C,0.17729*%
%ADD79C,0.10640*%
%ADD80C,0.12800*%
%ADD81C,0.16500*%
%ADD82O,0.04737X0.10249*%
%ADD83C,0.03556*%
%ADD84C,0.03162*%
%ADD85O,0.05918X0.07887*%
%ADD86R,0.05918X0.07887*%
%ADD87O,0.07887X0.06706*%
%ADD88R,0.07887X0.06706*%
%ADD89C,0.08674*%
%ADD90C,0.07887*%
%ADD91C,0.14579*%
%ADD92O,0.14800X0.13800*%
%ADD93O,0.07100X0.05524*%
%ADD94R,0.07100X0.05524*%
%ADD95C,0.09461*%
G04:AMPARAMS|DCode=96|XSize=55.24mil|YSize=71mil|CornerRadius=0mil|HoleSize=0mil|Usage=FLASHONLY|Rotation=0.000|XOffset=0mil|YOffset=0mil|HoleType=Round|Shape=Octagon|*
%AMOCTAGOND96*
4,1,8,-0.01381,0.03550,0.01381,0.03550,0.02762,0.02169,0.02762,-0.02169,0.01381,-0.03550,-0.01381,-0.03550,-0.02762,-0.02169,-0.02762,0.02169,-0.01381,0.03550,0.0*
%
%ADD96OCTAGOND96*%

%ADD97O,0.08800X0.10640*%
%ADD98O,0.09461X0.10642*%
%ADD99C,0.07493*%
%ADD100O,0.09461X0.10639*%
%ADD101C,0.16469*%
%ADD102O,0.09461X0.10640*%
%ADD103O,0.10640X0.09461*%
%ADD104C,0.16469*%
%ADD105C,0.03950*%
%ADD106C,0.04737*%
%ADD107R,0.05131X0.05721*%
%ADD108R,0.01784X0.05918*%
%ADD109R,0.05721X0.05131*%
%ADD110R,0.06706X0.02769*%
%ADD111O,0.06706X0.02769*%
%ADD112O,0.08674X0.02769*%
%ADD113R,0.08674X0.02769*%
%ADD114R,0.02769X0.08674*%
%ADD115R,0.05524X0.04737*%
%ADD116R,0.04343X0.04737*%
%ADD117R,0.03359X0.08674*%
%ADD118O,0.03359X0.08674*%
%ADD119R,0.05918X0.05131*%
%ADD120R,0.04737X0.04737*%
%ADD121R,0.12611X0.10642*%
%ADD122R,0.04737X0.05524*%
%ADD123R,0.04737X0.04343*%
%ADD124R,0.20485X0.16548*%
%ADD125C,0.00787*%
%ADD126C,0.00197*%
%ADD127C,0.01200*%
%ADD128C,0.00591*%
%ADD129C,0.00472*%
%ADD130C,0.00500*%
D130*
X-160921Y436929D02*
Y440261D01*
X-159255Y441927D01*
X-157589Y440261D01*
Y436929D01*
Y439428D01*
X-160921D01*
X-153086Y436929D02*
Y440261D01*
X-151420Y441927D01*
X-149754Y440261D01*
Y436929D01*
Y439428D01*
X-153086D01*
X-174921Y421927D02*
Y416929D01*
X-172422D01*
X-171589Y417762D01*
Y418595D01*
X-172422Y419428D01*
X-174921D01*
X-172422D01*
X-171589Y420261D01*
Y421094D01*
X-172422Y421927D01*
X-174921D01*
X-136589Y411094D02*
X-137422Y411928D01*
X-139088D01*
X-139921Y411094D01*
Y407762D01*
X-139088Y406929D01*
X-137422D01*
X-136589Y407762D01*
X-161589Y401094D02*
X-162422Y401928D01*
X-164088D01*
X-164921Y401094D01*
Y397762D01*
X-164088Y396929D01*
X-162422D01*
X-161589Y397762D01*
X-154921Y421927D02*
Y416929D01*
X-152422D01*
X-151589Y417762D01*
Y421094D01*
X-152422Y421927D01*
X-154921D01*
X-141589Y441094D02*
X-142422Y441927D01*
X-144088D01*
X-144921Y441094D01*
Y437762D01*
X-144088Y436929D01*
X-142422D01*
X-141589Y437762D01*
X-166589Y431094D02*
X-167422Y431927D01*
X-169088D01*
X-169921Y431094D01*
Y427762D01*
X-169088Y426929D01*
X-167422D01*
X-166589Y427762D01*
X-134921Y421927D02*
Y416929D01*
X-132422D01*
X-131589Y417762D01*
Y418595D01*
X-132422Y419428D01*
X-134921D01*
X-132422D01*
X-131589Y420261D01*
Y421094D01*
X-132422Y421927D01*
X-134921D01*
X-156815Y396929D02*
Y400261D01*
X-155149Y401928D01*
X-153483Y400261D01*
Y396929D01*
Y399428D01*
X-156815D01*
X-148921Y396929D02*
Y400261D01*
X-147255Y401928D01*
X-145589Y400261D01*
Y396929D01*
Y399428D01*
X-148921D01*
X-1164140Y224427D02*
X-1167472D01*
Y219429D01*
X-1164140D01*
X-1167472Y221928D02*
X-1165806D01*
X-1070140Y224427D02*
X-1073472D01*
Y219429D01*
X-1070140D01*
X-1073472Y221928D02*
X-1071806D01*
X-1164140Y164427D02*
X-1167472D01*
Y161928D01*
X-1165806D01*
X-1167472D01*
Y159429D01*
X-1070140Y164427D02*
X-1073472D01*
Y161928D01*
X-1071806D01*
X-1073472D01*
Y159429D01*
X265911Y112329D02*
X262579D01*
Y109830D01*
X264245D01*
X262579D01*
Y107331D01*
X265911Y206329D02*
X262579D01*
Y203830D01*
X264245D01*
X262579D01*
Y201331D01*
X325911Y112329D02*
X322579D01*
Y107331D01*
X325911D01*
X322579Y109830D02*
X324245D01*
X325911Y206329D02*
X322579D01*
Y201331D01*
X325911D01*
X322579Y203830D02*
X324245D01*
X265911Y262526D02*
X262579D01*
Y260027D01*
X264245D01*
X262579D01*
Y257528D01*
X265911Y356526D02*
X262579D01*
Y354027D01*
X264245D01*
X262579D01*
Y351528D01*
X325911Y262526D02*
X322579D01*
Y257528D01*
X325911D01*
X322579Y260027D02*
X324245D01*
X325911Y356526D02*
X322579D01*
Y351528D01*
X325911D01*
X322579Y354027D02*
X324245D01*
X-104589Y389427D02*
X-107921D01*
Y386928D01*
X-106255D01*
X-107921D01*
Y384429D01*
X-198589Y388594D02*
X-199422Y389427D01*
X-201088D01*
X-201921Y388594D01*
Y385262D01*
X-201088Y384429D01*
X-199422D01*
X-198589Y385262D01*
Y386928D01*
X-200255D01*
X-107921Y449427D02*
Y444429D01*
Y446928D01*
X-104589D01*
Y449427D01*
Y444429D01*
X-201921Y449427D02*
Y444429D01*
Y446928D01*
X-198589D01*
Y449427D01*
Y444429D01*
X-226600Y229078D02*
X-229932D01*
Y226579D01*
X-228266D01*
X-229932D01*
Y224080D01*
X-132600Y229078D02*
X-135932D01*
Y226579D01*
X-134266D01*
X-135932D01*
Y224080D01*
X-226600Y169078D02*
X-229932D01*
Y164080D01*
X-226600D01*
X-229932Y166579D02*
X-228266D01*
X-132600Y169078D02*
X-135932D01*
Y164080D01*
X-132600D01*
X-135932Y166579D02*
X-134266D01*
X6239Y475051D02*
X7905D01*
X7072D01*
Y470052D01*
X6239D01*
X7905D01*
X40294Y475051D02*
X41960D01*
X41127D01*
Y470052D01*
X40294D01*
X41960D01*
X40294Y475051D02*
X41960D01*
X41127D01*
Y470052D01*
X40294D01*
X41960D01*
X40294Y475051D02*
X41960D01*
X41127D01*
Y470052D01*
X40294D01*
X41960D01*
X40294Y474657D02*
X41960D01*
X41127D01*
Y469659D01*
X40294D01*
X41960D01*
X40294Y474263D02*
X41960D01*
X41127D01*
Y469265D01*
X40294D01*
X41960D01*
X40294Y473870D02*
X41960D01*
X41127D01*
Y468871D01*
X40294D01*
X41960D01*
X40294Y473476D02*
X41960D01*
X41127D01*
Y468477D01*
X40294D01*
X41960D01*
X40294Y473082D02*
X41960D01*
X41127D01*
Y468084D01*
X40294D01*
X41960D01*
X40294Y472688D02*
X41960D01*
X41127D01*
Y467690D01*
X40294D01*
X41960D01*
X40294Y477413D02*
X41960D01*
X41127D01*
Y472414D01*
X40294D01*
X41960D01*
X40294Y477019D02*
X41960D01*
X41127D01*
Y472021D01*
X40294D01*
X41960D01*
X40294Y476625D02*
X41960D01*
X41127D01*
Y471627D01*
X40294D01*
X41960D01*
X40294Y476232D02*
X41960D01*
X41127D01*
Y471233D01*
X40294D01*
X41960D01*
X40294Y475838D02*
X41960D01*
X41127D01*
Y470840D01*
X40294D01*
X41960D01*
X40294Y475444D02*
X41960D01*
X41127D01*
Y470446D01*
X40294D01*
X41960D01*
X40294Y475051D02*
X41960D01*
X41127D01*
Y470052D01*
X40294D01*
X41960D01*
X40294Y475051D02*
X41960D01*
X41127D01*
Y470052D01*
X40294D01*
X41960D01*
X6239Y475051D02*
X7905D01*
X7072D01*
Y470052D01*
X6239D01*
X7905D01*
X6239Y475051D02*
X7905D01*
X7072D01*
Y470052D01*
X6239D01*
X7905D01*
X6239Y474657D02*
X7905D01*
X7072D01*
Y469659D01*
X6239D01*
X7905D01*
X6239Y474263D02*
X7905D01*
X7072D01*
Y469265D01*
X6239D01*
X7905D01*
X6239Y473870D02*
X7905D01*
X7072D01*
Y468871D01*
X6239D01*
X7905D01*
X6239Y473476D02*
X7905D01*
X7072D01*
Y468477D01*
X6239D01*
X7905D01*
X6239Y473082D02*
X7905D01*
X7072D01*
Y468084D01*
X6239D01*
X7905D01*
X6239Y472688D02*
X7905D01*
X7072D01*
Y467690D01*
X6239D01*
X7905D01*
X6239Y477413D02*
X7905D01*
X7072D01*
Y472414D01*
X6239D01*
X7905D01*
X6239Y477019D02*
X7905D01*
X7072D01*
Y472021D01*
X6239D01*
X7905D01*
X6239Y476625D02*
X7905D01*
X7072D01*
Y471627D01*
X6239D01*
X7905D01*
X6239Y476232D02*
X7905D01*
X7072D01*
Y471233D01*
X6239D01*
X7905D01*
X6239Y475838D02*
X7905D01*
X7072D01*
Y470840D01*
X6239D01*
X7905D01*
X6239Y475444D02*
X7905D01*
X7072D01*
Y470446D01*
X6239D01*
X7905D01*
X6239Y475051D02*
X7905D01*
X7072D01*
Y470052D01*
X6239D01*
X7905D01*
X6239Y475051D02*
X7905D01*
X7072D01*
Y470052D01*
X6239D01*
X7905D01*
X40294Y458594D02*
X41960D01*
X41127D01*
Y453595D01*
X40294D01*
X41960D01*
X40294Y458594D02*
X41960D01*
X41127D01*
Y453595D01*
X40294D01*
X41960D01*
X40294Y458200D02*
X41960D01*
X41127D01*
Y453202D01*
X40294D01*
X41960D01*
X40294Y457806D02*
X41960D01*
X41127D01*
Y452808D01*
X40294D01*
X41960D01*
X40294Y457413D02*
X41960D01*
X41127D01*
Y452414D01*
X40294D01*
X41960D01*
X40294Y457019D02*
X41960D01*
X41127D01*
Y452021D01*
X40294D01*
X41960D01*
X40294Y456625D02*
X41960D01*
X41127D01*
Y451627D01*
X40294D01*
X41960D01*
X40294Y456232D02*
X41960D01*
X41127D01*
Y451233D01*
X40294D01*
X41960D01*
X40294Y455838D02*
X41960D01*
X41127D01*
Y450840D01*
X40294D01*
X41960D01*
X40294Y461350D02*
X41960D01*
X41127D01*
Y456351D01*
X40294D01*
X41960D01*
X40294Y460956D02*
X41960D01*
X41127D01*
Y455958D01*
X40294D01*
X41960D01*
X40294Y460562D02*
X41960D01*
X41127D01*
Y455564D01*
X40294D01*
X41960D01*
X40294Y460169D02*
X41960D01*
X41127D01*
Y455170D01*
X40294D01*
X41960D01*
X40294Y459775D02*
X41960D01*
X41127D01*
Y454777D01*
X40294D01*
X41960D01*
X40294Y459381D02*
X41960D01*
X41127D01*
Y454383D01*
X40294D01*
X41960D01*
X40294Y458988D02*
X41960D01*
X41127D01*
Y453989D01*
X40294D01*
X41960D01*
X40294Y458594D02*
X41960D01*
X41127D01*
Y453595D01*
X40294D01*
X41960D01*
X40294Y458594D02*
X41960D01*
X41127D01*
Y453595D01*
X40294D01*
X41960D01*
X6239Y458594D02*
X7905D01*
X7072D01*
Y453595D01*
X6239D01*
X7905D01*
X6239Y458594D02*
X7905D01*
X7072D01*
Y453595D01*
X6239D01*
X7905D01*
X6239Y458988D02*
X7905D01*
X7072D01*
Y453989D01*
X6239D01*
X7905D01*
X6239Y459381D02*
X7905D01*
X7072D01*
Y454383D01*
X6239D01*
X7905D01*
X6239Y459775D02*
X7905D01*
X7072D01*
Y454777D01*
X6239D01*
X7905D01*
X6239Y460169D02*
X7905D01*
X7072D01*
Y455170D01*
X6239D01*
X7905D01*
X6239Y460562D02*
X7905D01*
X7072D01*
Y455564D01*
X6239D01*
X7905D01*
X6239Y460956D02*
X7905D01*
X7072D01*
Y455958D01*
X6239D01*
X7905D01*
X6239Y461350D02*
X7905D01*
X7072D01*
Y456351D01*
X6239D01*
X7905D01*
X6239Y455838D02*
X7905D01*
X7072D01*
Y450840D01*
X6239D01*
X7905D01*
X6239Y456232D02*
X7905D01*
X7072D01*
Y451233D01*
X6239D01*
X7905D01*
X6239Y456625D02*
X7905D01*
X7072D01*
Y451627D01*
X6239D01*
X7905D01*
X6239Y457019D02*
X7905D01*
X7072D01*
Y452021D01*
X6239D01*
X7905D01*
X6239Y457413D02*
X7905D01*
X7072D01*
Y452414D01*
X6239D01*
X7905D01*
X6239Y457806D02*
X7905D01*
X7072D01*
Y452808D01*
X6239D01*
X7905D01*
X6239Y458200D02*
X7905D01*
X7072D01*
Y453202D01*
X6239D01*
X7905D01*
X6239Y458594D02*
X7905D01*
X7072D01*
Y453595D01*
X6239D01*
X7905D01*
X6239Y458594D02*
X7905D01*
X7072D01*
Y453595D01*
X6239D01*
X7905D01*
X15231Y460510D02*
X13565D01*
X14398D01*
Y456345D01*
X13565Y455512D01*
X12732D01*
X11898Y456345D01*
X37978Y460510D02*
X36312D01*
X37145D01*
Y456345D01*
X36312Y455512D01*
X35479D01*
X34646Y456345D01*
X6239Y458594D02*
X7905D01*
X7072D01*
Y453595D01*
X6239D01*
X7905D01*
X40294Y458594D02*
X41960D01*
X41127D01*
Y453595D01*
X40294D01*
X41960D01*
X5028Y287085D02*
Y282087D01*
Y283753D01*
X8360Y287085D01*
X5861Y284586D01*
X8360Y282087D01*
X-4972Y287085D02*
Y282087D01*
Y283753D01*
X-1640Y287085D01*
X-4139Y284586D01*
X-1640Y282087D01*
X-699409Y279959D02*
Y274961D01*
X-696077D01*
X-699409Y269959D02*
Y264961D01*
X-696077D01*
X45181Y118228D02*
Y121561D01*
X46847Y123227D01*
X48513Y121561D01*
Y118228D01*
Y120728D01*
X45181D01*
X53016Y118228D02*
Y121561D01*
X54682Y123227D01*
X56349Y121561D01*
Y118228D01*
Y120728D01*
X53016D01*
X31181Y103227D02*
Y98228D01*
X33680D01*
X34513Y99061D01*
Y99894D01*
X33680Y100727D01*
X31181D01*
X33680D01*
X34513Y101561D01*
Y102394D01*
X33680Y103227D01*
X31181D01*
X69513Y92394D02*
X68680Y93227D01*
X67014D01*
X66181Y92394D01*
Y89061D01*
X67014Y88228D01*
X68680D01*
X69513Y89061D01*
X44513Y82394D02*
X43680Y83227D01*
X42014D01*
X41181Y82394D01*
Y79061D01*
X42014Y78228D01*
X43680D01*
X44513Y79061D01*
X51181Y103227D02*
Y98228D01*
X53680D01*
X54513Y99061D01*
Y102394D01*
X53680Y103227D01*
X51181D01*
X64513Y122394D02*
X63680Y123227D01*
X62014D01*
X61181Y122394D01*
Y119061D01*
X62014Y118228D01*
X63680D01*
X64513Y119061D01*
X39513Y112394D02*
X38680Y113227D01*
X37014D01*
X36181Y112394D01*
Y109061D01*
X37014Y108228D01*
X38680D01*
X39513Y109061D01*
X71181Y103227D02*
Y98228D01*
X73680D01*
X74513Y99061D01*
Y99894D01*
X73680Y100727D01*
X71181D01*
X73680D01*
X74513Y101561D01*
Y102394D01*
X73680Y103227D01*
X71181D01*
X49287Y78228D02*
Y81561D01*
X50954Y83227D01*
X52620Y81561D01*
Y78228D01*
Y80727D01*
X49287D01*
X57181Y78228D02*
Y81561D01*
X58847Y83227D01*
X60513Y81561D01*
Y78228D01*
Y80727D01*
X57181D01*
X-266220Y121927D02*
Y116929D01*
X-263721D01*
X-262888Y117762D01*
Y118595D01*
X-263721Y119428D01*
X-266220D01*
X-263721D01*
X-262888Y120261D01*
Y121095D01*
X-263721Y121927D01*
X-266220D01*
X-286221Y116929D02*
Y121927D01*
X-284554Y120261D01*
X-282888Y121927D01*
Y116929D01*
X-296220Y96929D02*
Y101927D01*
X-292888Y96929D01*
Y101927D01*
X-271220Y106929D02*
Y111927D01*
X-267888Y106929D01*
Y111927D01*
X-306221Y121927D02*
Y116929D01*
X-303721D01*
X-302888Y117762D01*
Y118595D01*
X-303721Y119428D01*
X-306221D01*
X-303721D01*
X-302888Y120261D01*
Y121095D01*
X-303721Y121927D01*
X-306221D01*
X-284327Y136929D02*
Y140261D01*
X-282661Y141928D01*
X-280995Y140261D01*
Y136929D01*
Y139428D01*
X-284327D01*
X-292220Y136929D02*
Y140261D01*
X-290554Y141928D01*
X-288888Y140261D01*
Y136929D01*
Y139428D01*
X-292220D01*
X-207772Y136929D02*
Y140261D01*
X-206105Y141928D01*
X-204439Y140261D01*
Y136929D01*
Y139428D01*
X-207772D01*
X-199936Y136929D02*
Y140261D01*
X-198270Y141928D01*
X-196604Y140261D01*
Y136929D01*
Y139428D01*
X-199936D01*
X-221772Y121927D02*
Y116929D01*
X-219272D01*
X-218439Y117762D01*
Y118595D01*
X-219272Y119428D01*
X-221772D01*
X-219272D01*
X-218439Y120261D01*
Y121095D01*
X-219272Y121927D01*
X-221772D01*
X-183439Y111094D02*
X-184273Y111927D01*
X-185939D01*
X-186772Y111094D01*
Y107762D01*
X-185939Y106929D01*
X-184273D01*
X-183439Y107762D01*
X-208439Y101094D02*
X-209273Y101927D01*
X-210939D01*
X-211772Y101094D01*
Y97762D01*
X-210939Y96929D01*
X-209273D01*
X-208439Y97762D01*
X-201772Y121927D02*
Y116929D01*
X-199273D01*
X-198439Y117762D01*
Y121095D01*
X-199273Y121927D01*
X-201772D01*
X-188439Y141095D02*
X-189272Y141928D01*
X-190939D01*
X-191772Y141095D01*
Y137762D01*
X-190939Y136929D01*
X-189272D01*
X-188439Y137762D01*
X-213439Y131095D02*
X-214272Y131928D01*
X-215939D01*
X-216772Y131095D01*
Y127762D01*
X-215939Y126929D01*
X-214272D01*
X-213439Y127762D01*
X-181772Y121927D02*
Y116929D01*
X-179272D01*
X-178439Y117762D01*
Y118595D01*
X-179272Y119428D01*
X-181772D01*
X-179272D01*
X-178439Y120261D01*
Y121095D01*
X-179272Y121927D01*
X-181772D01*
X-203665Y96929D02*
Y100261D01*
X-201999Y101927D01*
X-200333Y100261D01*
Y96929D01*
Y99428D01*
X-203665D01*
X-195772Y96929D02*
Y100261D01*
X-194106Y101927D01*
X-192439Y100261D01*
Y96929D01*
Y99428D01*
X-195772D01*
X-376472Y136929D02*
Y140261D01*
X-374806Y141928D01*
X-373140Y140261D01*
Y136929D01*
Y139428D01*
X-376472D01*
X-368637Y136929D02*
Y140261D01*
X-366971Y141928D01*
X-365305Y140261D01*
Y136929D01*
Y139428D01*
X-368637D01*
X-390472Y121927D02*
Y116929D01*
X-387973D01*
X-387140Y117762D01*
Y118595D01*
X-387973Y119428D01*
X-390472D01*
X-387973D01*
X-387140Y120261D01*
Y121095D01*
X-387973Y121927D01*
X-390472D01*
X-352140Y111094D02*
X-352973Y111927D01*
X-354639D01*
X-355472Y111094D01*
Y107762D01*
X-354639Y106929D01*
X-352973D01*
X-352140Y107762D01*
X-377140Y101094D02*
X-377973Y101927D01*
X-379639D01*
X-380472Y101094D01*
Y97762D01*
X-379639Y96929D01*
X-377973D01*
X-377140Y97762D01*
X-370472Y121927D02*
Y116929D01*
X-367973D01*
X-367140Y117762D01*
Y121095D01*
X-367973Y121927D01*
X-370472D01*
X-357140Y141095D02*
X-357973Y141928D01*
X-359639D01*
X-360472Y141095D01*
Y137762D01*
X-359639Y136929D01*
X-357973D01*
X-357140Y137762D01*
X-382140Y131095D02*
X-382973Y131928D01*
X-384639D01*
X-385472Y131095D01*
Y127762D01*
X-384639Y126929D01*
X-382973D01*
X-382140Y127762D01*
X-350472Y121927D02*
Y116929D01*
X-347973D01*
X-347140Y117762D01*
Y118595D01*
X-347973Y119428D01*
X-350472D01*
X-347973D01*
X-347140Y120261D01*
Y121095D01*
X-347973Y121927D01*
X-350472D01*
X-372366Y96929D02*
Y100261D01*
X-370700Y101927D01*
X-369034Y100261D01*
Y96929D01*
Y99428D01*
X-372366D01*
X-364472Y96929D02*
Y100261D01*
X-362806Y101927D01*
X-361140Y100261D01*
Y96929D01*
Y99428D01*
X-364472D01*
X-995370Y136929D02*
Y140261D01*
X-993704Y141928D01*
X-992038Y140261D01*
Y136929D01*
Y139428D01*
X-995370D01*
X-987535Y136929D02*
Y140261D01*
X-985869Y141928D01*
X-984202Y140261D01*
Y136929D01*
Y139428D01*
X-987535D01*
X-1009370Y121927D02*
Y116929D01*
X-1006871D01*
X-1006038Y117762D01*
Y118595D01*
X-1006871Y119428D01*
X-1009370D01*
X-1006871D01*
X-1006038Y120261D01*
Y121095D01*
X-1006871Y121927D01*
X-1009370D01*
X-971038Y111094D02*
X-971871Y111927D01*
X-973537D01*
X-974370Y111094D01*
Y107762D01*
X-973537Y106929D01*
X-971871D01*
X-971038Y107762D01*
X-996038Y101094D02*
X-996871Y101927D01*
X-998537D01*
X-999370Y101094D01*
Y97762D01*
X-998537Y96929D01*
X-996871D01*
X-996038Y97762D01*
X-989370Y121927D02*
Y116929D01*
X-986871D01*
X-986038Y117762D01*
Y121095D01*
X-986871Y121927D01*
X-989370D01*
X-976038Y141095D02*
X-976871Y141928D01*
X-978537D01*
X-979370Y141095D01*
Y137762D01*
X-978537Y136929D01*
X-976871D01*
X-976038Y137762D01*
X-1001038Y131095D02*
X-1001871Y131928D01*
X-1003537D01*
X-1004370Y131095D01*
Y127762D01*
X-1003537Y126929D01*
X-1001871D01*
X-1001038Y127762D01*
X-969370Y121927D02*
Y116929D01*
X-966871D01*
X-966038Y117762D01*
Y118595D01*
X-966871Y119428D01*
X-969370D01*
X-966871D01*
X-966038Y120261D01*
Y121095D01*
X-966871Y121927D01*
X-969370D01*
X-991264Y96929D02*
Y100261D01*
X-989598Y101927D01*
X-987932Y100261D01*
Y96929D01*
Y99428D01*
X-991264D01*
X-983370Y96929D02*
Y100261D01*
X-981704Y101927D01*
X-980038Y100261D01*
Y96929D01*
Y99428D01*
X-983370D01*
X-1051123Y121927D02*
X-1052789D01*
X-1053622Y121095D01*
Y117762D01*
X-1052789Y116929D01*
X-1051123D01*
X-1050290Y117762D01*
Y121095D01*
X-1051123Y121927D01*
X-1073622D02*
Y116929D01*
X-1071123D01*
X-1070290Y117762D01*
Y121095D01*
X-1071123Y121927D01*
X-1073622D01*
X-1083622Y96929D02*
Y101927D01*
X-1080290Y96929D01*
Y101927D01*
X-1058622Y106929D02*
Y111927D01*
X-1055290Y106929D01*
Y111927D01*
X-1093622Y121927D02*
Y116929D01*
X-1091123D01*
X-1090290Y117762D01*
Y118595D01*
X-1091123Y119428D01*
X-1093622D01*
X-1091123D01*
X-1090290Y120261D01*
Y121095D01*
X-1091123Y121927D01*
X-1093622D01*
X-1071728Y136929D02*
Y140261D01*
X-1070062Y141928D01*
X-1068396Y140261D01*
Y136929D01*
Y139428D01*
X-1071728D01*
X-1079622Y136929D02*
Y140261D01*
X-1077956Y141928D01*
X-1076290Y140261D01*
Y136929D01*
Y139428D01*
X-1079622D01*
X-1164071Y136929D02*
Y140261D01*
X-1162405Y141928D01*
X-1160739Y140261D01*
Y136929D01*
Y139428D01*
X-1164071D01*
X-1156236Y136929D02*
Y140261D01*
X-1154569Y141928D01*
X-1152903Y140261D01*
Y136929D01*
Y139428D01*
X-1156236D01*
X-1178071Y121927D02*
Y116929D01*
X-1175572D01*
X-1174739Y117762D01*
Y118595D01*
X-1175572Y119428D01*
X-1178071D01*
X-1175572D01*
X-1174739Y120261D01*
Y121095D01*
X-1175572Y121927D01*
X-1178071D01*
X-1139739Y111094D02*
X-1140572Y111927D01*
X-1142238D01*
X-1143071Y111094D01*
Y107762D01*
X-1142238Y106929D01*
X-1140572D01*
X-1139739Y107762D01*
X-1164739Y101094D02*
X-1165572Y101927D01*
X-1167238D01*
X-1168071Y101094D01*
Y97762D01*
X-1167238Y96929D01*
X-1165572D01*
X-1164739Y97762D01*
X-1158071Y121927D02*
Y116929D01*
X-1155572D01*
X-1154739Y117762D01*
Y121095D01*
X-1155572Y121927D01*
X-1158071D01*
X-1144739Y141095D02*
X-1145572Y141928D01*
X-1147238D01*
X-1148071Y141095D01*
Y137762D01*
X-1147238Y136929D01*
X-1145572D01*
X-1144739Y137762D01*
X-1169739Y131095D02*
X-1170572Y131928D01*
X-1172238D01*
X-1173071Y131095D01*
Y127762D01*
X-1172238Y126929D01*
X-1170572D01*
X-1169739Y127762D01*
X-1138071Y121927D02*
Y116929D01*
X-1135572D01*
X-1134739Y117762D01*
Y118595D01*
X-1135572Y119428D01*
X-1138071D01*
X-1135572D01*
X-1134739Y120261D01*
Y121095D01*
X-1135572Y121927D01*
X-1138071D01*
X-1159965Y96929D02*
Y100261D01*
X-1158298Y101927D01*
X-1156632Y100261D01*
Y96929D01*
Y99428D01*
X-1159965D01*
X-1152071Y96929D02*
Y100261D01*
X-1150405Y101927D01*
X-1148739Y100261D01*
Y96929D01*
Y99428D01*
X-1152071D01*
X214079Y286732D02*
Y290065D01*
X215745Y291731D01*
X217411Y290065D01*
Y286732D01*
Y289231D01*
X214079D01*
X221914Y286732D02*
Y290065D01*
X223580Y291731D01*
X225246Y290065D01*
Y286732D01*
Y289231D01*
X221914D01*
X200079Y271731D02*
Y266732D01*
X202578D01*
X203411Y267565D01*
Y268398D01*
X202578Y269232D01*
X200079D01*
X202578D01*
X203411Y270065D01*
Y270898D01*
X202578Y271731D01*
X200079D01*
X238411Y260898D02*
X237578Y261731D01*
X235912D01*
X235079Y260898D01*
Y257565D01*
X235912Y256732D01*
X237578D01*
X238411Y257565D01*
X213411Y250898D02*
X212578Y251731D01*
X210912D01*
X210079Y250898D01*
Y247565D01*
X210912Y246732D01*
X212578D01*
X213411Y247565D01*
X220079Y271731D02*
Y266732D01*
X222578D01*
X223411Y267565D01*
Y270898D01*
X222578Y271731D01*
X220079D01*
X233411Y290898D02*
X232578Y291731D01*
X230912D01*
X230079Y290898D01*
Y287565D01*
X230912Y286732D01*
X232578D01*
X233411Y287565D01*
X208411Y280898D02*
X207578Y281731D01*
X205912D01*
X205079Y280898D01*
Y277565D01*
X205912Y276732D01*
X207578D01*
X208411Y277565D01*
X240079Y271731D02*
Y266732D01*
X242578D01*
X243411Y267565D01*
Y268398D01*
X242578Y269232D01*
X240079D01*
X242578D01*
X243411Y270065D01*
Y270898D01*
X242578Y271731D01*
X240079D01*
X218185Y246732D02*
Y250065D01*
X219851Y251731D01*
X221517Y250065D01*
Y246732D01*
Y249232D01*
X218185D01*
X226079Y246732D02*
Y250065D01*
X227745Y251731D01*
X229411Y250065D01*
Y246732D01*
Y249232D01*
X226079D01*
X-1173323Y436929D02*
Y440261D01*
X-1171657Y441927D01*
X-1169991Y440261D01*
Y436929D01*
Y439428D01*
X-1173323D01*
X-1165487Y436929D02*
Y440261D01*
X-1163821Y441927D01*
X-1162155Y440261D01*
Y436929D01*
Y439428D01*
X-1165487D01*
X-1187323Y421927D02*
Y416929D01*
X-1184824D01*
X-1183991Y417762D01*
Y418595D01*
X-1184824Y419428D01*
X-1187323D01*
X-1184824D01*
X-1183991Y420261D01*
Y421094D01*
X-1184824Y421927D01*
X-1187323D01*
X-1148991Y411094D02*
X-1149824Y411928D01*
X-1151490D01*
X-1152323Y411094D01*
Y407762D01*
X-1151490Y406929D01*
X-1149824D01*
X-1148991Y407762D01*
X-1173991Y401094D02*
X-1174824Y401928D01*
X-1176490D01*
X-1177323Y401094D01*
Y397762D01*
X-1176490Y396929D01*
X-1174824D01*
X-1173991Y397762D01*
X-1167323Y421927D02*
Y416929D01*
X-1164824D01*
X-1163991Y417762D01*
Y421094D01*
X-1164824Y421927D01*
X-1167323D01*
X-1153991Y441094D02*
X-1154824Y441927D01*
X-1156490D01*
X-1157323Y441094D01*
Y437762D01*
X-1156490Y436929D01*
X-1154824D01*
X-1153991Y437762D01*
X-1178991Y431094D02*
X-1179824Y431927D01*
X-1181490D01*
X-1182323Y431094D01*
Y427762D01*
X-1181490Y426929D01*
X-1179824D01*
X-1178991Y427762D01*
X-1147323Y421927D02*
Y416929D01*
X-1144824D01*
X-1143991Y417762D01*
Y418595D01*
X-1144824Y419428D01*
X-1147323D01*
X-1144824D01*
X-1143991Y420261D01*
Y421094D01*
X-1144824Y421927D01*
X-1147323D01*
X-1169217Y396929D02*
Y400261D01*
X-1167550Y401928D01*
X-1165884Y400261D01*
Y396929D01*
Y399428D01*
X-1169217D01*
X-1161323Y396929D02*
Y400261D01*
X-1159657Y401928D01*
X-1157991Y400261D01*
Y396929D01*
Y399428D01*
X-1161323D01*
X139079Y136732D02*
Y140065D01*
X140745Y141731D01*
X142411Y140065D01*
Y136732D01*
Y139232D01*
X139079D01*
X146914Y136732D02*
Y140065D01*
X148580Y141731D01*
X150246Y140065D01*
Y136732D01*
Y139232D01*
X146914D01*
X125079Y121731D02*
Y116732D01*
X127578D01*
X128411Y117565D01*
Y118398D01*
X127578Y119231D01*
X125079D01*
X127578D01*
X128411Y120065D01*
Y120898D01*
X127578Y121731D01*
X125079D01*
X163411Y110898D02*
X162578Y111731D01*
X160912D01*
X160079Y110898D01*
Y107565D01*
X160912Y106732D01*
X162578D01*
X163411Y107565D01*
X138411Y100898D02*
X137578Y101731D01*
X135912D01*
X135079Y100898D01*
Y97565D01*
X135912Y96732D01*
X137578D01*
X138411Y97565D01*
X145079Y121731D02*
Y116732D01*
X147578D01*
X148411Y117565D01*
Y120898D01*
X147578Y121731D01*
X145079D01*
X158411Y140898D02*
X157578Y141731D01*
X155912D01*
X155079Y140898D01*
Y137565D01*
X155912Y136732D01*
X157578D01*
X158411Y137565D01*
X133411Y130898D02*
X132578Y131731D01*
X130912D01*
X130079Y130898D01*
Y127565D01*
X130912Y126732D01*
X132578D01*
X133411Y127565D01*
X165079Y121731D02*
Y116732D01*
X167578D01*
X168411Y117565D01*
Y118398D01*
X167578Y119231D01*
X165079D01*
X167578D01*
X168411Y120065D01*
Y120898D01*
X167578Y121731D01*
X165079D01*
X143185Y96732D02*
Y100065D01*
X144851Y101731D01*
X146517Y100065D01*
Y96732D01*
Y99231D01*
X143185D01*
X151079Y96732D02*
Y100065D01*
X152745Y101731D01*
X154411Y100065D01*
Y96732D01*
Y99231D01*
X151079D01*
X226079Y171929D02*
Y175261D01*
X227745Y176927D01*
X229411Y175261D01*
Y171929D01*
Y174428D01*
X226079D01*
X218185Y171929D02*
Y175261D01*
X219851Y176927D01*
X221517Y175261D01*
Y171929D01*
Y174428D01*
X218185D01*
X240079Y196927D02*
Y191929D01*
X242578D01*
X243411Y192762D01*
Y193595D01*
X242578Y194428D01*
X240079D01*
X242578D01*
X243411Y195261D01*
Y196095D01*
X242578Y196927D01*
X240079D01*
X208411Y206095D02*
X207578Y206927D01*
X205912D01*
X205079Y206095D01*
Y202762D01*
X205912Y201929D01*
X207578D01*
X208411Y202762D01*
X233411Y216094D02*
X232578Y216928D01*
X230912D01*
X230079Y216094D01*
Y212762D01*
X230912Y211929D01*
X232578D01*
X233411Y212762D01*
X220079Y196927D02*
Y191929D01*
X222578D01*
X223411Y192762D01*
Y196095D01*
X222578Y196927D01*
X220079D01*
X213411Y176094D02*
X212578Y176927D01*
X210912D01*
X210079Y176094D01*
Y172762D01*
X210912Y171929D01*
X212578D01*
X213411Y172762D01*
X238411Y186094D02*
X237578Y186927D01*
X235912D01*
X235079Y186094D01*
Y182762D01*
X235912Y181929D01*
X237578D01*
X238411Y182762D01*
X200079Y196927D02*
Y191929D01*
X202578D01*
X203411Y192762D01*
Y193595D01*
X202578Y194428D01*
X200079D01*
X202578D01*
X203411Y195261D01*
Y196095D01*
X202578Y196927D01*
X200079D01*
X221914Y211929D02*
Y215261D01*
X223580Y216928D01*
X225246Y215261D01*
Y211929D01*
Y214428D01*
X221914D01*
X214079Y211929D02*
Y215261D01*
X215745Y216928D01*
X217411Y215261D01*
Y211929D01*
Y214428D01*
X214079D01*
X64079Y436929D02*
Y440261D01*
X65745Y441927D01*
X67411Y440261D01*
Y436929D01*
Y439428D01*
X64079D01*
X71914Y436929D02*
Y440261D01*
X73580Y441927D01*
X75246Y440261D01*
Y436929D01*
Y439428D01*
X71914D01*
X50079Y421927D02*
Y416929D01*
X52578D01*
X53411Y417762D01*
Y418595D01*
X52578Y419428D01*
X50079D01*
X52578D01*
X53411Y420261D01*
Y421094D01*
X52578Y421927D01*
X50079D01*
X88411Y411094D02*
X87578Y411928D01*
X85912D01*
X85079Y411094D01*
Y407762D01*
X85912Y406929D01*
X87578D01*
X88411Y407762D01*
X63411Y401094D02*
X62578Y401928D01*
X60912D01*
X60079Y401094D01*
Y397762D01*
X60912Y396929D01*
X62578D01*
X63411Y397762D01*
X70079Y421927D02*
Y416929D01*
X72578D01*
X73411Y417762D01*
Y421094D01*
X72578Y421927D01*
X70079D01*
X83411Y441094D02*
X82578Y441927D01*
X80912D01*
X80079Y441094D01*
Y437762D01*
X80912Y436929D01*
X82578D01*
X83411Y437762D01*
X58411Y431094D02*
X57578Y431927D01*
X55912D01*
X55079Y431094D01*
Y427762D01*
X55912Y426929D01*
X57578D01*
X58411Y427762D01*
X90079Y421927D02*
Y416929D01*
X92578D01*
X93411Y417762D01*
Y418595D01*
X92578Y419428D01*
X90079D01*
X92578D01*
X93411Y420261D01*
Y421094D01*
X92578Y421927D01*
X90079D01*
X68185Y396929D02*
Y400261D01*
X69851Y401928D01*
X71517Y400261D01*
Y396929D01*
Y399428D01*
X68185D01*
X76079Y396929D02*
Y400261D01*
X77745Y401928D01*
X79411Y400261D01*
Y396929D01*
Y399428D01*
X76079D01*
X151079Y396929D02*
Y400261D01*
X152745Y401928D01*
X154411Y400261D01*
Y396929D01*
Y399428D01*
X151079D01*
X143185Y396929D02*
Y400261D01*
X144851Y401928D01*
X146517Y400261D01*
Y396929D01*
Y399428D01*
X143185D01*
X165079Y421927D02*
Y416929D01*
X167578D01*
X168411Y417762D01*
Y418595D01*
X167578Y419428D01*
X165079D01*
X167578D01*
X168411Y420261D01*
Y421094D01*
X167578Y421927D01*
X165079D01*
X133411Y431094D02*
X132578Y431927D01*
X130912D01*
X130079Y431094D01*
Y427762D01*
X130912Y426929D01*
X132578D01*
X133411Y427762D01*
X158411Y441094D02*
X157578Y441927D01*
X155912D01*
X155079Y441094D01*
Y437762D01*
X155912Y436929D01*
X157578D01*
X158411Y437762D01*
X145079Y421927D02*
Y416929D01*
X147578D01*
X148411Y417762D01*
Y421094D01*
X147578Y421927D01*
X145079D01*
X138411Y401094D02*
X137578Y401928D01*
X135912D01*
X135079Y401094D01*
Y397762D01*
X135912Y396929D01*
X137578D01*
X138411Y397762D01*
X163411Y411094D02*
X162578Y411928D01*
X160912D01*
X160079Y411094D01*
Y407762D01*
X160912Y406929D01*
X162578D01*
X163411Y407762D01*
X125079Y421927D02*
Y416929D01*
X127578D01*
X128411Y417762D01*
Y418595D01*
X127578Y419428D01*
X125079D01*
X127578D01*
X128411Y420261D01*
Y421094D01*
X127578Y421927D01*
X125079D01*
X146914Y436929D02*
Y440261D01*
X148580Y441927D01*
X150246Y440261D01*
Y436929D01*
Y439428D01*
X146914D01*
X139079Y436929D02*
Y440261D01*
X140745Y441927D01*
X142411Y440261D01*
Y436929D01*
Y439428D01*
X139079D01*
X226079Y396929D02*
Y400261D01*
X227745Y401928D01*
X229411Y400261D01*
Y396929D01*
Y399428D01*
X226079D01*
X218185Y396929D02*
Y400261D01*
X219851Y401928D01*
X221517Y400261D01*
Y396929D01*
Y399428D01*
X218185D01*
X240079Y421927D02*
Y416929D01*
X242578D01*
X243411Y417762D01*
Y418595D01*
X242578Y419428D01*
X240079D01*
X242578D01*
X243411Y420261D01*
Y421094D01*
X242578Y421927D01*
X240079D01*
X208411Y431094D02*
X207578Y431927D01*
X205912D01*
X205079Y431094D01*
Y427762D01*
X205912Y426929D01*
X207578D01*
X208411Y427762D01*
X233411Y441094D02*
X232578Y441927D01*
X230912D01*
X230079Y441094D01*
Y437762D01*
X230912Y436929D01*
X232578D01*
X233411Y437762D01*
X220079Y421927D02*
Y416929D01*
X222578D01*
X223411Y417762D01*
Y421094D01*
X222578Y421927D01*
X220079D01*
X213411Y401094D02*
X212578Y401928D01*
X210912D01*
X210079Y401094D01*
Y397762D01*
X210912Y396929D01*
X212578D01*
X213411Y397762D01*
X238411Y411094D02*
X237578Y411928D01*
X235912D01*
X235079Y411094D01*
Y407762D01*
X235912Y406929D01*
X237578D01*
X238411Y407762D01*
X200079Y421927D02*
Y416929D01*
X202578D01*
X203411Y417762D01*
Y418595D01*
X202578Y419428D01*
X200079D01*
X202578D01*
X203411Y420261D01*
Y421094D01*
X202578Y421927D01*
X200079D01*
X221914Y436929D02*
Y440261D01*
X223580Y441927D01*
X225246Y440261D01*
Y436929D01*
Y439428D01*
X221914D01*
X214079Y436929D02*
Y440261D01*
X215745Y441927D01*
X217411Y440261D01*
Y436929D01*
Y439428D01*
X214079D01*
X226079Y321929D02*
Y325261D01*
X227745Y326927D01*
X229411Y325261D01*
Y321929D01*
Y324428D01*
X226079D01*
X218185Y321929D02*
Y325261D01*
X219851Y326927D01*
X221517Y325261D01*
Y321929D01*
Y324428D01*
X218185D01*
X240079Y346927D02*
Y341929D01*
X242578D01*
X243411Y342762D01*
Y343595D01*
X242578Y344428D01*
X240079D01*
X242578D01*
X243411Y345261D01*
Y346094D01*
X242578Y346927D01*
X240079D01*
X208411Y356095D02*
X207578Y356927D01*
X205912D01*
X205079Y356095D01*
Y352762D01*
X205912Y351929D01*
X207578D01*
X208411Y352762D01*
X233411Y366094D02*
X232578Y366928D01*
X230912D01*
X230079Y366094D01*
Y362762D01*
X230912Y361929D01*
X232578D01*
X233411Y362762D01*
X220079Y346927D02*
Y341929D01*
X222578D01*
X223411Y342762D01*
Y346094D01*
X222578Y346927D01*
X220079D01*
X213411Y326095D02*
X212578Y326927D01*
X210912D01*
X210079Y326095D01*
Y322762D01*
X210912Y321929D01*
X212578D01*
X213411Y322762D01*
X238411Y336094D02*
X237578Y336928D01*
X235912D01*
X235079Y336094D01*
Y332762D01*
X235912Y331929D01*
X237578D01*
X238411Y332762D01*
X200079Y346927D02*
Y341929D01*
X202578D01*
X203411Y342762D01*
Y343595D01*
X202578Y344428D01*
X200079D01*
X202578D01*
X203411Y345261D01*
Y346094D01*
X202578Y346927D01*
X200079D01*
X221914Y361929D02*
Y365261D01*
X223580Y366928D01*
X225246Y365261D01*
Y361929D01*
Y364428D01*
X221914D01*
X214079Y361929D02*
Y365261D01*
X215745Y366928D01*
X217411Y365261D01*
Y361929D01*
Y364428D01*
X214079D01*
X151079Y321929D02*
Y325261D01*
X152745Y326927D01*
X154411Y325261D01*
Y321929D01*
Y324428D01*
X151079D01*
X143185Y321929D02*
Y325261D01*
X144851Y326927D01*
X146517Y325261D01*
Y321929D01*
Y324428D01*
X143185D01*
X165079Y346927D02*
Y341929D01*
X167578D01*
X168411Y342762D01*
Y343595D01*
X167578Y344428D01*
X165079D01*
X167578D01*
X168411Y345261D01*
Y346094D01*
X167578Y346927D01*
X165079D01*
X133411Y356095D02*
X132578Y356927D01*
X130912D01*
X130079Y356095D01*
Y352762D01*
X130912Y351929D01*
X132578D01*
X133411Y352762D01*
X158411Y366094D02*
X157578Y366928D01*
X155912D01*
X155079Y366094D01*
Y362762D01*
X155912Y361929D01*
X157578D01*
X158411Y362762D01*
X145079Y346927D02*
Y341929D01*
X147578D01*
X148411Y342762D01*
Y346094D01*
X147578Y346927D01*
X145079D01*
X138411Y326095D02*
X137578Y326927D01*
X135912D01*
X135079Y326095D01*
Y322762D01*
X135912Y321929D01*
X137578D01*
X138411Y322762D01*
X163411Y336094D02*
X162578Y336928D01*
X160912D01*
X160079Y336094D01*
Y332762D01*
X160912Y331929D01*
X162578D01*
X163411Y332762D01*
X125079Y346927D02*
Y341929D01*
X127578D01*
X128411Y342762D01*
Y343595D01*
X127578Y344428D01*
X125079D01*
X127578D01*
X128411Y345261D01*
Y346094D01*
X127578Y346927D01*
X125079D01*
X146914Y361929D02*
Y365261D01*
X148580Y366928D01*
X150246Y365261D01*
Y361929D01*
Y364428D01*
X146914D01*
X139079Y361929D02*
Y365261D01*
X140745Y366928D01*
X142411Y365261D01*
Y361929D01*
Y364428D01*
X139079D01*
X64079Y361929D02*
Y365261D01*
X65745Y366928D01*
X67411Y365261D01*
Y361929D01*
Y364428D01*
X64079D01*
X71914Y361929D02*
Y365261D01*
X73580Y366928D01*
X75246Y365261D01*
Y361929D01*
Y364428D01*
X71914D01*
X50079Y346927D02*
Y341929D01*
X52578D01*
X53411Y342762D01*
Y343595D01*
X52578Y344428D01*
X50079D01*
X52578D01*
X53411Y345261D01*
Y346094D01*
X52578Y346927D01*
X50079D01*
X88411Y336094D02*
X87578Y336928D01*
X85912D01*
X85079Y336094D01*
Y332762D01*
X85912Y331929D01*
X87578D01*
X88411Y332762D01*
X63411Y326095D02*
X62578Y326927D01*
X60912D01*
X60079Y326095D01*
Y322762D01*
X60912Y321929D01*
X62578D01*
X63411Y322762D01*
X70079Y346927D02*
Y341929D01*
X72578D01*
X73411Y342762D01*
Y346094D01*
X72578Y346927D01*
X70079D01*
X83411Y366094D02*
X82578Y366928D01*
X80912D01*
X80079Y366094D01*
Y362762D01*
X80912Y361929D01*
X82578D01*
X83411Y362762D01*
X58411Y356095D02*
X57578Y356927D01*
X55912D01*
X55079Y356095D01*
Y352762D01*
X55912Y351929D01*
X57578D01*
X58411Y352762D01*
X90079Y346927D02*
Y341929D01*
X92578D01*
X93411Y342762D01*
Y343595D01*
X92578Y344428D01*
X90079D01*
X92578D01*
X93411Y345261D01*
Y346094D01*
X92578Y346927D01*
X90079D01*
X68185Y321929D02*
Y325261D01*
X69851Y326927D01*
X71517Y325261D01*
Y321929D01*
Y324428D01*
X68185D01*
X76079Y321929D02*
Y325261D01*
X77745Y326927D01*
X79411Y325261D01*
Y321929D01*
Y324428D01*
X76079D01*
X64079Y286732D02*
Y290065D01*
X65745Y291731D01*
X67411Y290065D01*
Y286732D01*
Y289231D01*
X64079D01*
X71914Y286732D02*
Y290065D01*
X73580Y291731D01*
X75246Y290065D01*
Y286732D01*
Y289231D01*
X71914D01*
X50079Y271731D02*
Y266732D01*
X52578D01*
X53411Y267565D01*
Y268398D01*
X52578Y269232D01*
X50079D01*
X52578D01*
X53411Y270065D01*
Y270898D01*
X52578Y271731D01*
X50079D01*
X88411Y260898D02*
X87578Y261731D01*
X85912D01*
X85079Y260898D01*
Y257565D01*
X85912Y256732D01*
X87578D01*
X88411Y257565D01*
X63411Y250898D02*
X62578Y251731D01*
X60912D01*
X60079Y250898D01*
Y247565D01*
X60912Y246732D01*
X62578D01*
X63411Y247565D01*
X70079Y271731D02*
Y266732D01*
X72578D01*
X73411Y267565D01*
Y270898D01*
X72578Y271731D01*
X70079D01*
X83411Y290898D02*
X82578Y291731D01*
X80912D01*
X80079Y290898D01*
Y287565D01*
X80912Y286732D01*
X82578D01*
X83411Y287565D01*
X58411Y280898D02*
X57578Y281731D01*
X55912D01*
X55079Y280898D01*
Y277565D01*
X55912Y276732D01*
X57578D01*
X58411Y277565D01*
X90079Y271731D02*
Y266732D01*
X92578D01*
X93411Y267565D01*
Y268398D01*
X92578Y269232D01*
X90079D01*
X92578D01*
X93411Y270065D01*
Y270898D01*
X92578Y271731D01*
X90079D01*
X68185Y246732D02*
Y250065D01*
X69851Y251731D01*
X71517Y250065D01*
Y246732D01*
Y249232D01*
X68185D01*
X76079Y246732D02*
Y250065D01*
X77745Y251731D01*
X79411Y250065D01*
Y246732D01*
Y249232D01*
X76079D01*
X151079Y246732D02*
Y250065D01*
X152745Y251731D01*
X154411Y250065D01*
Y246732D01*
Y249232D01*
X151079D01*
X143185Y246732D02*
Y250065D01*
X144851Y251731D01*
X146517Y250065D01*
Y246732D01*
Y249232D01*
X143185D01*
X165079Y271731D02*
Y266732D01*
X167578D01*
X168411Y267565D01*
Y268398D01*
X167578Y269232D01*
X165079D01*
X167578D01*
X168411Y270065D01*
Y270898D01*
X167578Y271731D01*
X165079D01*
X133411Y280898D02*
X132578Y281731D01*
X130912D01*
X130079Y280898D01*
Y277565D01*
X130912Y276732D01*
X132578D01*
X133411Y277565D01*
X158411Y290898D02*
X157578Y291731D01*
X155912D01*
X155079Y290898D01*
Y287565D01*
X155912Y286732D01*
X157578D01*
X158411Y287565D01*
X145079Y271731D02*
Y266732D01*
X147578D01*
X148411Y267565D01*
Y270898D01*
X147578Y271731D01*
X145079D01*
X138411Y250898D02*
X137578Y251731D01*
X135912D01*
X135079Y250898D01*
Y247565D01*
X135912Y246732D01*
X137578D01*
X138411Y247565D01*
X163411Y260898D02*
X162578Y261731D01*
X160912D01*
X160079Y260898D01*
Y257565D01*
X160912Y256732D01*
X162578D01*
X163411Y257565D01*
X125079Y271731D02*
Y266732D01*
X127578D01*
X128411Y267565D01*
Y268398D01*
X127578Y269232D01*
X125079D01*
X127578D01*
X128411Y270065D01*
Y270898D01*
X127578Y271731D01*
X125079D01*
X146914Y286732D02*
Y290065D01*
X148580Y291731D01*
X150246Y290065D01*
Y286732D01*
Y289231D01*
X146914D01*
X139079Y286732D02*
Y290065D01*
X140745Y291731D01*
X142411Y290065D01*
Y286732D01*
Y289231D01*
X139079D01*
X76079Y171929D02*
Y175261D01*
X77745Y176927D01*
X79411Y175261D01*
Y171929D01*
Y174428D01*
X76079D01*
X68185Y171929D02*
Y175261D01*
X69851Y176927D01*
X71517Y175261D01*
Y171929D01*
Y174428D01*
X68185D01*
X90079Y196927D02*
Y191929D01*
X92578D01*
X93411Y192762D01*
Y193595D01*
X92578Y194428D01*
X90079D01*
X92578D01*
X93411Y195261D01*
Y196095D01*
X92578Y196927D01*
X90079D01*
X58411Y206095D02*
X57578Y206927D01*
X55912D01*
X55079Y206095D01*
Y202762D01*
X55912Y201929D01*
X57578D01*
X58411Y202762D01*
X83411Y216094D02*
X82578Y216928D01*
X80912D01*
X80079Y216094D01*
Y212762D01*
X80912Y211929D01*
X82578D01*
X83411Y212762D01*
X70079Y196927D02*
Y191929D01*
X72578D01*
X73411Y192762D01*
Y196095D01*
X72578Y196927D01*
X70079D01*
X63411Y176094D02*
X62578Y176927D01*
X60912D01*
X60079Y176094D01*
Y172762D01*
X60912Y171929D01*
X62578D01*
X63411Y172762D01*
X88411Y186094D02*
X87578Y186927D01*
X85912D01*
X85079Y186094D01*
Y182762D01*
X85912Y181929D01*
X87578D01*
X88411Y182762D01*
X50079Y196927D02*
Y191929D01*
X52578D01*
X53411Y192762D01*
Y193595D01*
X52578Y194428D01*
X50079D01*
X52578D01*
X53411Y195261D01*
Y196095D01*
X52578Y196927D01*
X50079D01*
X71914Y211929D02*
Y215261D01*
X73580Y216928D01*
X75246Y215261D01*
Y211929D01*
Y214428D01*
X71914D01*
X64079Y211929D02*
Y215261D01*
X65745Y216928D01*
X67411Y215261D01*
Y211929D01*
Y214428D01*
X64079D01*
X139079Y211929D02*
Y215261D01*
X140745Y216928D01*
X142411Y215261D01*
Y211929D01*
Y214428D01*
X139079D01*
X146914Y211929D02*
Y215261D01*
X148580Y216928D01*
X150246Y215261D01*
Y211929D01*
Y214428D01*
X146914D01*
X125079Y196927D02*
Y191929D01*
X127578D01*
X128411Y192762D01*
Y193595D01*
X127578Y194428D01*
X125079D01*
X127578D01*
X128411Y195261D01*
Y196095D01*
X127578Y196927D01*
X125079D01*
X163411Y186094D02*
X162578Y186927D01*
X160912D01*
X160079Y186094D01*
Y182762D01*
X160912Y181929D01*
X162578D01*
X163411Y182762D01*
X138411Y176094D02*
X137578Y176927D01*
X135912D01*
X135079Y176094D01*
Y172762D01*
X135912Y171929D01*
X137578D01*
X138411Y172762D01*
X145079Y196927D02*
Y191929D01*
X147578D01*
X148411Y192762D01*
Y196095D01*
X147578Y196927D01*
X145079D01*
X158411Y216094D02*
X157578Y216928D01*
X155912D01*
X155079Y216094D01*
Y212762D01*
X155912Y211929D01*
X157578D01*
X158411Y212762D01*
X133411Y206095D02*
X132578Y206927D01*
X130912D01*
X130079Y206095D01*
Y202762D01*
X130912Y201929D01*
X132578D01*
X133411Y202762D01*
X165079Y196927D02*
Y191929D01*
X167578D01*
X168411Y192762D01*
Y193595D01*
X167578Y194428D01*
X165079D01*
X167578D01*
X168411Y195261D01*
Y196095D01*
X167578Y196927D01*
X165079D01*
X143185Y171929D02*
Y175261D01*
X144851Y176927D01*
X146517Y175261D01*
Y171929D01*
Y174428D01*
X143185D01*
X151079Y171929D02*
Y175261D01*
X152745Y176927D01*
X154411Y175261D01*
Y171929D01*
Y174428D01*
X151079D01*
X315079Y310528D02*
Y313860D01*
X316745Y315526D01*
X318411Y313860D01*
Y310528D01*
Y313027D01*
X315079D01*
Y302634D02*
Y305966D01*
X316745Y307632D01*
X318411Y305966D01*
Y302634D01*
Y305133D01*
X315079D01*
X295079Y329526D02*
Y324528D01*
X297578D01*
X298411Y325361D01*
Y326194D01*
X297578Y327027D01*
X295079D01*
X297578D01*
X298411Y327860D01*
Y328693D01*
X297578Y329526D01*
X295079D01*
X288411Y293693D02*
X287578Y294526D01*
X285912D01*
X285079Y293693D01*
Y290361D01*
X285912Y289528D01*
X287578D01*
X288411Y290361D01*
X278411Y318693D02*
X277578Y319526D01*
X275912D01*
X275079Y318693D01*
Y315361D01*
X275912Y314528D01*
X277578D01*
X278411Y315361D01*
X295079Y309526D02*
Y304528D01*
X297578D01*
X298411Y305361D01*
Y308693D01*
X297578Y309526D01*
X295079D01*
X318411Y298693D02*
X317578Y299526D01*
X315912D01*
X315079Y298693D01*
Y295361D01*
X315912Y294528D01*
X317578D01*
X318411Y295361D01*
X308411Y323693D02*
X307578Y324526D01*
X305912D01*
X305079Y323693D01*
Y320361D01*
X305912Y319528D01*
X307578D01*
X308411Y320361D01*
X295079Y289526D02*
Y284528D01*
X297578D01*
X298411Y285361D01*
Y286194D01*
X297578Y287027D01*
X295079D01*
X297578D01*
X298411Y287860D01*
Y288693D01*
X297578Y289526D01*
X295079D01*
X275079Y306363D02*
Y309695D01*
X276745Y311361D01*
X278411Y309695D01*
Y306363D01*
Y308862D01*
X275079D01*
Y298528D02*
Y301860D01*
X276745Y303526D01*
X278411Y301860D01*
Y298528D01*
Y301027D01*
X275079D01*
X289079Y436929D02*
Y440261D01*
X290745Y441927D01*
X292411Y440261D01*
Y436929D01*
Y439428D01*
X289079D01*
X296914Y436929D02*
Y440261D01*
X298580Y441927D01*
X300246Y440261D01*
Y436929D01*
Y439428D01*
X296914D01*
X275079Y421927D02*
Y416929D01*
X277578D01*
X278411Y417762D01*
Y418595D01*
X277578Y419428D01*
X275079D01*
X277578D01*
X278411Y420261D01*
Y421094D01*
X277578Y421927D01*
X275079D01*
X313411Y411094D02*
X312578Y411928D01*
X310912D01*
X310079Y411094D01*
Y407762D01*
X310912Y406929D01*
X312578D01*
X313411Y407762D01*
X288411Y401094D02*
X287578Y401928D01*
X285912D01*
X285079Y401094D01*
Y397762D01*
X285912Y396929D01*
X287578D01*
X288411Y397762D01*
X295079Y421927D02*
Y416929D01*
X297578D01*
X298411Y417762D01*
Y421094D01*
X297578Y421927D01*
X295079D01*
X308411Y441094D02*
X307578Y441927D01*
X305912D01*
X305079Y441094D01*
Y437762D01*
X305912Y436929D01*
X307578D01*
X308411Y437762D01*
X283411Y431094D02*
X282578Y431927D01*
X280912D01*
X280079Y431094D01*
Y427762D01*
X280912Y426929D01*
X282578D01*
X283411Y427762D01*
X315079Y421927D02*
Y416929D01*
X317578D01*
X318411Y417762D01*
Y418595D01*
X317578Y419428D01*
X315079D01*
X317578D01*
X318411Y420261D01*
Y421094D01*
X317578Y421927D01*
X315079D01*
X293185Y396929D02*
Y400261D01*
X294851Y401928D01*
X296517Y400261D01*
Y396929D01*
Y399428D01*
X293185D01*
X301079Y396929D02*
Y400261D01*
X302745Y401928D01*
X304411Y400261D01*
Y396929D01*
Y399428D01*
X301079D01*
X-17622Y321929D02*
Y325261D01*
X-15956Y326927D01*
X-14290Y325261D01*
Y321929D01*
Y324428D01*
X-17622D01*
X-25516Y321929D02*
Y325261D01*
X-23850Y326927D01*
X-22184Y325261D01*
Y321929D01*
Y324428D01*
X-25516D01*
X-3622Y346927D02*
Y341929D01*
X-1123D01*
X-290Y342762D01*
Y343595D01*
X-1123Y344428D01*
X-3622D01*
X-1123D01*
X-290Y345261D01*
Y346094D01*
X-1123Y346927D01*
X-3622D01*
X-35290Y356095D02*
X-36123Y356927D01*
X-37789D01*
X-38622Y356095D01*
Y352762D01*
X-37789Y351929D01*
X-36123D01*
X-35290Y352762D01*
X-10290Y366094D02*
X-11123Y366928D01*
X-12789D01*
X-13622Y366094D01*
Y362762D01*
X-12789Y361929D01*
X-11123D01*
X-10290Y362762D01*
X-23622Y346927D02*
Y341929D01*
X-21123D01*
X-20290Y342762D01*
Y346094D01*
X-21123Y346927D01*
X-23622D01*
X-30290Y326095D02*
X-31123Y326927D01*
X-32789D01*
X-33622Y326095D01*
Y322762D01*
X-32789Y321929D01*
X-31123D01*
X-30290Y322762D01*
X-5290Y336094D02*
X-6123Y336928D01*
X-7789D01*
X-8622Y336094D01*
Y332762D01*
X-7789Y331929D01*
X-6123D01*
X-5290Y332762D01*
X-43622Y346927D02*
Y341929D01*
X-41123D01*
X-40290Y342762D01*
Y343595D01*
X-41123Y344428D01*
X-43622D01*
X-41123D01*
X-40290Y345261D01*
Y346094D01*
X-41123Y346927D01*
X-43622D01*
X-21787Y361929D02*
Y365261D01*
X-20121Y366928D01*
X-18454Y365261D01*
Y361929D01*
Y364428D01*
X-21787D01*
X-29622Y361929D02*
Y365261D01*
X-27956Y366928D01*
X-26290Y365261D01*
Y361929D01*
Y364428D01*
X-29622D01*
X-17622Y396929D02*
Y400261D01*
X-15956Y401928D01*
X-14290Y400261D01*
Y396929D01*
Y399428D01*
X-17622D01*
X-25516Y396929D02*
Y400261D01*
X-23850Y401928D01*
X-22184Y400261D01*
Y396929D01*
Y399428D01*
X-25516D01*
X-3622Y421927D02*
Y416929D01*
X-1123D01*
X-290Y417762D01*
Y418595D01*
X-1123Y419428D01*
X-3622D01*
X-1123D01*
X-290Y420261D01*
Y421094D01*
X-1123Y421927D01*
X-3622D01*
X-35290Y431094D02*
X-36123Y431927D01*
X-37789D01*
X-38622Y431094D01*
Y427762D01*
X-37789Y426929D01*
X-36123D01*
X-35290Y427762D01*
X-10290Y441094D02*
X-11123Y441927D01*
X-12789D01*
X-13622Y441094D01*
Y437762D01*
X-12789Y436929D01*
X-11123D01*
X-10290Y437762D01*
X-23622Y421927D02*
Y416929D01*
X-21123D01*
X-20290Y417762D01*
Y421094D01*
X-21123Y421927D01*
X-23622D01*
X-30290Y401094D02*
X-31123Y401928D01*
X-32789D01*
X-33622Y401094D01*
Y397762D01*
X-32789Y396929D01*
X-31123D01*
X-30290Y397762D01*
X-5290Y411094D02*
X-6123Y411928D01*
X-7789D01*
X-8622Y411094D01*
Y407762D01*
X-7789Y406929D01*
X-6123D01*
X-5290Y407762D01*
X-43622Y421927D02*
Y416929D01*
X-41123D01*
X-40290Y417762D01*
Y418595D01*
X-41123Y419428D01*
X-43622D01*
X-41123D01*
X-40290Y420261D01*
Y421094D01*
X-41123Y421927D01*
X-43622D01*
X-21787Y436929D02*
Y440261D01*
X-20121Y441927D01*
X-18454Y440261D01*
Y436929D01*
Y439428D01*
X-21787D01*
X-29622Y436929D02*
Y440261D01*
X-27956Y441927D01*
X-26290Y440261D01*
Y436929D01*
Y439428D01*
X-29622D01*
X275079Y148331D02*
Y151663D01*
X276745Y153329D01*
X278411Y151663D01*
Y148331D01*
Y150830D01*
X275079D01*
Y156166D02*
Y159498D01*
X276745Y161164D01*
X278411Y159498D01*
Y156166D01*
Y158665D01*
X275079D01*
X295079Y139329D02*
Y134331D01*
X297578D01*
X298411Y135164D01*
Y135997D01*
X297578Y136830D01*
X295079D01*
X297578D01*
X298411Y137663D01*
Y138496D01*
X297578Y139329D01*
X295079D01*
X308411Y173496D02*
X307578Y174329D01*
X305912D01*
X305079Y173496D01*
Y170164D01*
X305912Y169331D01*
X307578D01*
X308411Y170164D01*
X318411Y148496D02*
X317578Y149329D01*
X315912D01*
X315079Y148496D01*
Y145164D01*
X315912Y144331D01*
X317578D01*
X318411Y145164D01*
X295079Y159329D02*
Y154331D01*
X297578D01*
X298411Y155164D01*
Y158496D01*
X297578Y159329D01*
X295079D01*
X278411Y168496D02*
X277578Y169329D01*
X275912D01*
X275079Y168496D01*
Y165164D01*
X275912Y164331D01*
X277578D01*
X278411Y165164D01*
X288411Y143496D02*
X287578Y144329D01*
X285912D01*
X285079Y143496D01*
Y140164D01*
X285912Y139331D01*
X287578D01*
X288411Y140164D01*
X295079Y179329D02*
Y174331D01*
X297578D01*
X298411Y175164D01*
Y175997D01*
X297578Y176830D01*
X295079D01*
X297578D01*
X298411Y177663D01*
Y178496D01*
X297578Y179329D01*
X295079D01*
X315079Y152437D02*
Y155769D01*
X316745Y157435D01*
X318411Y155769D01*
Y152437D01*
Y154936D01*
X315079D01*
Y160331D02*
Y163663D01*
X316745Y165329D01*
X318411Y163663D01*
Y160331D01*
Y162830D01*
X315079D01*
X-188932Y211579D02*
Y214912D01*
X-187266Y216578D01*
X-185600Y214912D01*
Y211579D01*
Y214079D01*
X-188932D01*
X-181097Y211579D02*
Y214912D01*
X-179430Y216578D01*
X-177764Y214912D01*
Y211579D01*
Y214079D01*
X-181097D01*
X-202932Y196578D02*
Y191579D01*
X-200433D01*
X-199600Y192413D01*
Y193246D01*
X-200433Y194079D01*
X-202932D01*
X-200433D01*
X-199600Y194912D01*
Y195745D01*
X-200433Y196578D01*
X-202932D01*
X-164600Y185745D02*
X-165433Y186578D01*
X-167099D01*
X-167932Y185745D01*
Y182413D01*
X-167099Y181579D01*
X-165433D01*
X-164600Y182413D01*
X-189600Y175745D02*
X-190433Y176578D01*
X-192099D01*
X-192932Y175745D01*
Y172413D01*
X-192099Y171580D01*
X-190433D01*
X-189600Y172413D01*
X-182932Y196578D02*
Y191579D01*
X-180433D01*
X-179600Y192413D01*
Y195745D01*
X-180433Y196578D01*
X-182932D01*
X-169600Y215745D02*
X-170433Y216578D01*
X-172099D01*
X-172932Y215745D01*
Y212413D01*
X-172099Y211579D01*
X-170433D01*
X-169600Y212413D01*
X-194600Y205745D02*
X-195433Y206578D01*
X-197099D01*
X-197932Y205745D01*
Y202413D01*
X-197099Y201579D01*
X-195433D01*
X-194600Y202413D01*
X-162932Y196578D02*
Y191579D01*
X-160433D01*
X-159600Y192413D01*
Y193246D01*
X-160433Y194079D01*
X-162932D01*
X-160433D01*
X-159600Y194912D01*
Y195745D01*
X-160433Y196578D01*
X-162932D01*
X-184826Y171580D02*
Y174912D01*
X-183159Y176578D01*
X-181493Y174912D01*
Y171580D01*
Y174079D01*
X-184826D01*
X-176932Y171580D02*
Y174912D01*
X-175266Y176578D01*
X-173600Y174912D01*
Y171580D01*
Y174079D01*
X-176932D01*
X226079Y96929D02*
Y100261D01*
X227745Y101927D01*
X229411Y100261D01*
Y96929D01*
Y99428D01*
X226079D01*
X218185Y96929D02*
Y100261D01*
X219851Y101927D01*
X221517Y100261D01*
Y96929D01*
Y99428D01*
X218185D01*
X240079Y121927D02*
Y116929D01*
X242578D01*
X243411Y117762D01*
Y118595D01*
X242578Y119428D01*
X240079D01*
X242578D01*
X243411Y120261D01*
Y121095D01*
X242578Y121927D01*
X240079D01*
X208411Y131095D02*
X207578Y131928D01*
X205912D01*
X205079Y131095D01*
Y127762D01*
X205912Y126929D01*
X207578D01*
X208411Y127762D01*
X233411Y141095D02*
X232578Y141928D01*
X230912D01*
X230079Y141095D01*
Y137762D01*
X230912Y136929D01*
X232578D01*
X233411Y137762D01*
X220079Y121927D02*
Y116929D01*
X222578D01*
X223411Y117762D01*
Y121095D01*
X222578Y121927D01*
X220079D01*
X213411Y101094D02*
X212578Y101927D01*
X210912D01*
X210079Y101094D01*
Y97762D01*
X210912Y96929D01*
X212578D01*
X213411Y97762D01*
X238411Y111094D02*
X237578Y111927D01*
X235912D01*
X235079Y111094D01*
Y107762D01*
X235912Y106929D01*
X237578D01*
X238411Y107762D01*
X200079Y121927D02*
Y116929D01*
X202578D01*
X203411Y117762D01*
Y118595D01*
X202578Y119428D01*
X200079D01*
X202578D01*
X203411Y120261D01*
Y121095D01*
X202578Y121927D01*
X200079D01*
X221914Y136929D02*
Y140261D01*
X223580Y141928D01*
X225246Y140261D01*
Y136929D01*
Y139428D01*
X221914D01*
X214079Y136929D02*
Y140261D01*
X215745Y141928D01*
X217411Y140261D01*
Y136929D01*
Y139428D01*
X214079D01*
X-92425Y78228D02*
Y81561D01*
X-90759Y83227D01*
X-89093Y81561D01*
Y78228D01*
Y80727D01*
X-92425D01*
X-100319Y78228D02*
Y81561D01*
X-98653Y83227D01*
X-96987Y81561D01*
Y78228D01*
Y80727D01*
X-100319D01*
X-78425Y103227D02*
Y98228D01*
X-75926D01*
X-75093Y99061D01*
Y99894D01*
X-75926Y100727D01*
X-78425D01*
X-75926D01*
X-75093Y101561D01*
Y102394D01*
X-75926Y103227D01*
X-78425D01*
X-110093Y112394D02*
X-110926Y113227D01*
X-112592D01*
X-113425Y112394D01*
Y109061D01*
X-112592Y108228D01*
X-110926D01*
X-110093Y109061D01*
X-85093Y122394D02*
X-85926Y123227D01*
X-87592D01*
X-88425Y122394D01*
Y119061D01*
X-87592Y118228D01*
X-85926D01*
X-85093Y119061D01*
X-98425Y103227D02*
Y98228D01*
X-95926D01*
X-95093Y99061D01*
Y102394D01*
X-95926Y103227D01*
X-98425D01*
X-105093Y82394D02*
X-105926Y83227D01*
X-107592D01*
X-108425Y82394D01*
Y79061D01*
X-107592Y78228D01*
X-105926D01*
X-105093Y79061D01*
X-80093Y92394D02*
X-80926Y93227D01*
X-82592D01*
X-83425Y92394D01*
Y89061D01*
X-82592Y88228D01*
X-80926D01*
X-80093Y89061D01*
X-118425Y103227D02*
Y98228D01*
X-115926D01*
X-115093Y99061D01*
Y99894D01*
X-115926Y100727D01*
X-118425D01*
X-115926D01*
X-115093Y101561D01*
Y102394D01*
X-115926Y103227D01*
X-118425D01*
X-96590Y118228D02*
Y121561D01*
X-94924Y123227D01*
X-93258Y121561D01*
Y118228D01*
Y120728D01*
X-96590D01*
X-104425Y118228D02*
Y121561D01*
X-102759Y123227D01*
X-101093Y121561D01*
Y118228D01*
Y120728D01*
X-104425D01*
X-29622Y118228D02*
Y121561D01*
X-27956Y123227D01*
X-26290Y121561D01*
Y118228D01*
Y120728D01*
X-29622D01*
X-21787Y118228D02*
Y121561D01*
X-20121Y123227D01*
X-18454Y121561D01*
Y118228D01*
Y120728D01*
X-21787D01*
X-43622Y103227D02*
Y98228D01*
X-41123D01*
X-40290Y99061D01*
Y99894D01*
X-41123Y100727D01*
X-43622D01*
X-41123D01*
X-40290Y101561D01*
Y102394D01*
X-41123Y103227D01*
X-43622D01*
X-5290Y92394D02*
X-6123Y93227D01*
X-7789D01*
X-8622Y92394D01*
Y89061D01*
X-7789Y88228D01*
X-6123D01*
X-5290Y89061D01*
X-30290Y82394D02*
X-31123Y83227D01*
X-32789D01*
X-33622Y82394D01*
Y79061D01*
X-32789Y78228D01*
X-31123D01*
X-30290Y79061D01*
X-23622Y103227D02*
Y98228D01*
X-21123D01*
X-20290Y99061D01*
Y102394D01*
X-21123Y103227D01*
X-23622D01*
X-10290Y122394D02*
X-11123Y123227D01*
X-12789D01*
X-13622Y122394D01*
Y119061D01*
X-12789Y118228D01*
X-11123D01*
X-10290Y119061D01*
X-35290Y112394D02*
X-36123Y113227D01*
X-37789D01*
X-38622Y112394D01*
Y109061D01*
X-37789Y108228D01*
X-36123D01*
X-35290Y109061D01*
X-3622Y103227D02*
Y98228D01*
X-1123D01*
X-290Y99061D01*
Y99894D01*
X-1123Y100727D01*
X-3622D01*
X-1123D01*
X-290Y101561D01*
Y102394D01*
X-1123Y103227D01*
X-3622D01*
X-25516Y78228D02*
Y81561D01*
X-23850Y83227D01*
X-22184Y81561D01*
Y78228D01*
Y80727D01*
X-25516D01*
X-17622Y78228D02*
Y81561D01*
X-15956Y83227D01*
X-14290Y81561D01*
Y78228D01*
Y80727D01*
X-17622D01*
X-673921Y96929D02*
Y100261D01*
X-672255Y101927D01*
X-670589Y100261D01*
Y96929D01*
Y99428D01*
X-673921D01*
X-681815Y96929D02*
Y100261D01*
X-680149Y101927D01*
X-678483Y100261D01*
Y96929D01*
Y99428D01*
X-681815D01*
X-659921Y121927D02*
Y116929D01*
X-657422D01*
X-656589Y117762D01*
Y118595D01*
X-657422Y119428D01*
X-659921D01*
X-657422D01*
X-656589Y120261D01*
Y121095D01*
X-657422Y121927D01*
X-659921D01*
X-691589Y131095D02*
X-692422Y131928D01*
X-694088D01*
X-694921Y131095D01*
Y127762D01*
X-694088Y126929D01*
X-692422D01*
X-691589Y127762D01*
X-666589Y141095D02*
X-667422Y141928D01*
X-669088D01*
X-669921Y141095D01*
Y137762D01*
X-669088Y136929D01*
X-667422D01*
X-666589Y137762D01*
X-679921Y121927D02*
Y116929D01*
X-677422D01*
X-676589Y117762D01*
Y121095D01*
X-677422Y121927D01*
X-679921D01*
X-686589Y101094D02*
X-687422Y101927D01*
X-689088D01*
X-689921Y101094D01*
Y97762D01*
X-689088Y96929D01*
X-687422D01*
X-686589Y97762D01*
X-661589Y111094D02*
X-662422Y111927D01*
X-664088D01*
X-664921Y111094D01*
Y107762D01*
X-664088Y106929D01*
X-662422D01*
X-661589Y107762D01*
X-699921Y121927D02*
Y116929D01*
X-697422D01*
X-696589Y117762D01*
Y118595D01*
X-697422Y119428D01*
X-699921D01*
X-697422D01*
X-696589Y120261D01*
Y121095D01*
X-697422Y121927D01*
X-699921D01*
X-678086Y136929D02*
Y140261D01*
X-676420Y141928D01*
X-674754Y140261D01*
Y136929D01*
Y139428D01*
X-678086D01*
X-685921Y136929D02*
Y140261D01*
X-684255Y141928D01*
X-682589Y140261D01*
Y136929D01*
Y139428D01*
X-685921D01*
X-742063Y286929D02*
Y290261D01*
X-740397Y291928D01*
X-738731Y290261D01*
Y286929D01*
Y289428D01*
X-742063D01*
X-734228Y286929D02*
Y290261D01*
X-732562Y291928D01*
X-730895Y290261D01*
Y286929D01*
Y289428D01*
X-734228D01*
X-756063Y271927D02*
Y266929D01*
X-753564D01*
X-752731Y267762D01*
Y268595D01*
X-753564Y269428D01*
X-756063D01*
X-753564D01*
X-752731Y270261D01*
Y271094D01*
X-753564Y271927D01*
X-756063D01*
X-717731Y261094D02*
X-718564Y261928D01*
X-720230D01*
X-721063Y261094D01*
Y257762D01*
X-720230Y256929D01*
X-718564D01*
X-717731Y257762D01*
X-742731Y251095D02*
X-743564Y251927D01*
X-745230D01*
X-746063Y251095D01*
Y247762D01*
X-745230Y246929D01*
X-743564D01*
X-742731Y247762D01*
X-736063Y271927D02*
Y266929D01*
X-733564D01*
X-732731Y267762D01*
Y271094D01*
X-733564Y271927D01*
X-736063D01*
X-722731Y291094D02*
X-723564Y291928D01*
X-725230D01*
X-726063Y291094D01*
Y287762D01*
X-725230Y286929D01*
X-723564D01*
X-722731Y287762D01*
X-747731Y281095D02*
X-748564Y281927D01*
X-750230D01*
X-751063Y281095D01*
Y277762D01*
X-750230Y276929D01*
X-748564D01*
X-747731Y277762D01*
X-716063Y271927D02*
Y266929D01*
X-713564D01*
X-712731Y267762D01*
Y268595D01*
X-713564Y269428D01*
X-716063D01*
X-713564D01*
X-712731Y270261D01*
Y271094D01*
X-713564Y271927D01*
X-716063D01*
X-737957Y246929D02*
Y250261D01*
X-736291Y251927D01*
X-734624Y250261D01*
Y246929D01*
Y249428D01*
X-737957D01*
X-730063Y246929D02*
Y250261D01*
X-728397Y251927D01*
X-726731Y250261D01*
Y246929D01*
Y249428D01*
X-730063D01*
X-1133173Y246929D02*
Y250261D01*
X-1131507Y251927D01*
X-1129841Y250261D01*
Y246929D01*
Y249428D01*
X-1133173D01*
X-1141067Y246929D02*
Y250261D01*
X-1139401Y251927D01*
X-1137735Y250261D01*
Y246929D01*
Y249428D01*
X-1141067D01*
X-1119173Y271927D02*
Y266929D01*
X-1116674D01*
X-1115841Y267762D01*
Y268595D01*
X-1116674Y269428D01*
X-1119173D01*
X-1116674D01*
X-1115841Y270261D01*
Y271094D01*
X-1116674Y271927D01*
X-1119173D01*
X-1150841Y281095D02*
X-1151674Y281927D01*
X-1153340D01*
X-1154173Y281095D01*
Y277762D01*
X-1153340Y276929D01*
X-1151674D01*
X-1150841Y277762D01*
X-1125841Y291094D02*
X-1126674Y291928D01*
X-1128340D01*
X-1129173Y291094D01*
Y287762D01*
X-1128340Y286929D01*
X-1126674D01*
X-1125841Y287762D01*
X-1139173Y271927D02*
Y266929D01*
X-1136674D01*
X-1135841Y267762D01*
Y271094D01*
X-1136674Y271927D01*
X-1139173D01*
X-1145841Y251095D02*
X-1146674Y251927D01*
X-1148340D01*
X-1149173Y251095D01*
Y247762D01*
X-1148340Y246929D01*
X-1146674D01*
X-1145841Y247762D01*
X-1120841Y261094D02*
X-1121674Y261928D01*
X-1123340D01*
X-1124173Y261094D01*
Y257762D01*
X-1123340Y256929D01*
X-1121674D01*
X-1120841Y257762D01*
X-1159173Y271927D02*
Y266929D01*
X-1156674D01*
X-1155841Y267762D01*
Y268595D01*
X-1156674Y269428D01*
X-1159173D01*
X-1156674D01*
X-1155841Y270261D01*
Y271094D01*
X-1156674Y271927D01*
X-1159173D01*
X-1114472Y171929D02*
Y175261D01*
X-1112806Y176927D01*
X-1111140Y175261D01*
Y171929D01*
Y174428D01*
X-1114472D01*
X-1122366Y171929D02*
Y175261D01*
X-1120700Y176927D01*
X-1119034Y175261D01*
Y171929D01*
Y174428D01*
X-1122366D01*
X-1100473Y196927D02*
Y191929D01*
X-1097973D01*
X-1097140Y192762D01*
Y193595D01*
X-1097973Y194428D01*
X-1100473D01*
X-1097973D01*
X-1097140Y195261D01*
Y196095D01*
X-1097973Y196927D01*
X-1100473D01*
X-1132140Y206095D02*
X-1132973Y206927D01*
X-1134639D01*
X-1135472Y206095D01*
Y202762D01*
X-1134639Y201929D01*
X-1132973D01*
X-1132140Y202762D01*
X-1107140Y216094D02*
X-1107973Y216928D01*
X-1109639D01*
X-1110472Y216094D01*
Y212762D01*
X-1109639Y211929D01*
X-1107973D01*
X-1107140Y212762D01*
X-1120473Y196927D02*
Y191929D01*
X-1117973D01*
X-1117140Y192762D01*
Y196095D01*
X-1117973Y196927D01*
X-1120473D01*
X-1127140Y176094D02*
X-1127973Y176927D01*
X-1129639D01*
X-1130472Y176094D01*
Y172762D01*
X-1129639Y171929D01*
X-1127973D01*
X-1127140Y172762D01*
X-1102140Y186094D02*
X-1102973Y186927D01*
X-1104639D01*
X-1105472Y186094D01*
Y182762D01*
X-1104639Y181929D01*
X-1102973D01*
X-1102140Y182762D01*
X-1140473Y196927D02*
Y191929D01*
X-1137973D01*
X-1137140Y192762D01*
Y193595D01*
X-1137973Y194428D01*
X-1140473D01*
X-1137973D01*
X-1137140Y195261D01*
Y196095D01*
X-1137973Y196927D01*
X-1140473D01*
X-1118637Y211929D02*
Y215261D01*
X-1116971Y216928D01*
X-1115305Y215261D01*
Y211929D01*
Y214428D01*
X-1118637D01*
X-1126472Y211929D02*
Y215261D01*
X-1124806Y216928D01*
X-1123140Y215261D01*
Y211929D01*
Y214428D01*
X-1126472D01*
X-1164071Y286929D02*
Y290261D01*
X-1162405Y291928D01*
X-1160739Y290261D01*
Y286929D01*
Y289428D01*
X-1164071D01*
X-1156236Y286929D02*
Y290261D01*
X-1154569Y291928D01*
X-1152903Y290261D01*
Y286929D01*
Y289428D01*
X-1156236D01*
X-1178071Y271927D02*
Y266929D01*
X-1175572D01*
X-1174739Y267762D01*
Y268595D01*
X-1175572Y269428D01*
X-1178071D01*
X-1175572D01*
X-1174739Y270261D01*
Y271094D01*
X-1175572Y271927D01*
X-1178071D01*
X-1139739Y261094D02*
X-1140572Y261928D01*
X-1142238D01*
X-1143071Y261094D01*
Y257762D01*
X-1142238Y256929D01*
X-1140572D01*
X-1139739Y257762D01*
X-1164739Y251095D02*
X-1165572Y251927D01*
X-1167238D01*
X-1168071Y251095D01*
Y247762D01*
X-1167238Y246929D01*
X-1165572D01*
X-1164739Y247762D01*
X-1158071Y271927D02*
Y266929D01*
X-1155572D01*
X-1154739Y267762D01*
Y271094D01*
X-1155572Y271927D01*
X-1158071D01*
X-1144739Y291094D02*
X-1145572Y291928D01*
X-1147238D01*
X-1148071Y291094D01*
Y287762D01*
X-1147238Y286929D01*
X-1145572D01*
X-1144739Y287762D01*
X-1169739Y281095D02*
X-1170572Y281927D01*
X-1172238D01*
X-1173071Y281095D01*
Y277762D01*
X-1172238Y276929D01*
X-1170572D01*
X-1169739Y277762D01*
X-1138071Y271927D02*
Y266929D01*
X-1135572D01*
X-1134739Y267762D01*
Y268595D01*
X-1135572Y269428D01*
X-1138071D01*
X-1135572D01*
X-1134739Y270261D01*
Y271094D01*
X-1135572Y271927D01*
X-1138071D01*
X-1142622Y321929D02*
Y325261D01*
X-1140956Y326927D01*
X-1139290Y325261D01*
Y321929D01*
Y324428D01*
X-1142622D01*
X-1150516Y321929D02*
Y325261D01*
X-1148850Y326927D01*
X-1147184Y325261D01*
Y321929D01*
Y324428D01*
X-1150516D01*
X-1128622Y346927D02*
Y341929D01*
X-1126123D01*
X-1125290Y342762D01*
Y343595D01*
X-1126123Y344428D01*
X-1128622D01*
X-1126123D01*
X-1125290Y345261D01*
Y346094D01*
X-1126123Y346927D01*
X-1128622D01*
X-1160290Y356095D02*
X-1161123Y356927D01*
X-1162789D01*
X-1163622Y356095D01*
Y352762D01*
X-1162789Y351929D01*
X-1161123D01*
X-1160290Y352762D01*
X-1135290Y366094D02*
X-1136123Y366928D01*
X-1137789D01*
X-1138622Y366094D01*
Y362762D01*
X-1137789Y361929D01*
X-1136123D01*
X-1135290Y362762D01*
X-1148622Y346927D02*
Y341929D01*
X-1146123D01*
X-1145290Y342762D01*
Y346094D01*
X-1146123Y346927D01*
X-1148622D01*
X-1155290Y326095D02*
X-1156123Y326927D01*
X-1157789D01*
X-1158622Y326095D01*
Y322762D01*
X-1157789Y321929D01*
X-1156123D01*
X-1155290Y322762D01*
X-1130290Y336094D02*
X-1131123Y336928D01*
X-1132789D01*
X-1133622Y336094D01*
Y332762D01*
X-1132789Y331929D01*
X-1131123D01*
X-1130290Y332762D01*
X-1168622Y346927D02*
Y341929D01*
X-1166123D01*
X-1165290Y342762D01*
Y343595D01*
X-1166123Y344428D01*
X-1168622D01*
X-1166123D01*
X-1165290Y345261D01*
Y346094D01*
X-1166123Y346927D01*
X-1168622D01*
X-1146787Y361929D02*
Y365261D01*
X-1145121Y366928D01*
X-1143454Y365261D01*
Y361929D01*
Y364428D01*
X-1146787D01*
X-1154622Y361929D02*
Y365261D01*
X-1152956Y366928D01*
X-1151290Y365261D01*
Y361929D01*
Y364428D01*
X-1154622D01*
X-29622Y193032D02*
Y196364D01*
X-27956Y198030D01*
X-26290Y196364D01*
Y193032D01*
Y195531D01*
X-29622D01*
X-21787Y193032D02*
Y196364D01*
X-20121Y198030D01*
X-18454Y196364D01*
Y193032D01*
Y195531D01*
X-21787D01*
X-43622Y178030D02*
Y173031D01*
X-41123D01*
X-40290Y173865D01*
Y174698D01*
X-41123Y175531D01*
X-43622D01*
X-41123D01*
X-40290Y176364D01*
Y177197D01*
X-41123Y178030D01*
X-43622D01*
X-5290Y167197D02*
X-6123Y168030D01*
X-7789D01*
X-8622Y167197D01*
Y163865D01*
X-7789Y163031D01*
X-6123D01*
X-5290Y163865D01*
X-30290Y157197D02*
X-31123Y158030D01*
X-32789D01*
X-33622Y157197D01*
Y153865D01*
X-32789Y153032D01*
X-31123D01*
X-30290Y153865D01*
X-23622Y178030D02*
Y173031D01*
X-21123D01*
X-20290Y173865D01*
Y177197D01*
X-21123Y178030D01*
X-23622D01*
X-10290Y197197D02*
X-11123Y198030D01*
X-12789D01*
X-13622Y197197D01*
Y193865D01*
X-12789Y193032D01*
X-11123D01*
X-10290Y193865D01*
X-35290Y187197D02*
X-36123Y188030D01*
X-37789D01*
X-38622Y187197D01*
Y183865D01*
X-37789Y183031D01*
X-36123D01*
X-35290Y183865D01*
X-3622Y178030D02*
Y173031D01*
X-1123D01*
X-290Y173865D01*
Y174698D01*
X-1123Y175531D01*
X-3622D01*
X-1123D01*
X-290Y176364D01*
Y177197D01*
X-1123Y178030D01*
X-3622D01*
X-25516Y153032D02*
Y156364D01*
X-23850Y158030D01*
X-22184Y156364D01*
Y153032D01*
Y155531D01*
X-25516D01*
X-17622Y153032D02*
Y156364D01*
X-15956Y158030D01*
X-14290Y156364D01*
Y153032D01*
Y155531D01*
X-17622D01*
X-111323Y171580D02*
Y174912D01*
X-109657Y176578D01*
X-107991Y174912D01*
Y171580D01*
Y174079D01*
X-111323D01*
X-119217Y171580D02*
Y174912D01*
X-117550Y176578D01*
X-115884Y174912D01*
Y171580D01*
Y174079D01*
X-119217D01*
X-97323Y196578D02*
Y191579D01*
X-94824D01*
X-93991Y192413D01*
Y193246D01*
X-94824Y194079D01*
X-97323D01*
X-94824D01*
X-93991Y194912D01*
Y195745D01*
X-94824Y196578D01*
X-97323D01*
X-128991Y205745D02*
X-129824Y206578D01*
X-131490D01*
X-132323Y205745D01*
Y202413D01*
X-131490Y201579D01*
X-129824D01*
X-128991Y202413D01*
X-103991Y215745D02*
X-104824Y216578D01*
X-106490D01*
X-107323Y215745D01*
Y212413D01*
X-106490Y211579D01*
X-104824D01*
X-103991Y212413D01*
X-117323Y196578D02*
Y191579D01*
X-114824D01*
X-113991Y192413D01*
Y195745D01*
X-114824Y196578D01*
X-117323D01*
X-123991Y175745D02*
X-124824Y176578D01*
X-126490D01*
X-127323Y175745D01*
Y172413D01*
X-126490Y171580D01*
X-124824D01*
X-123991Y172413D01*
X-98991Y185745D02*
X-99824Y186578D01*
X-101490D01*
X-102323Y185745D01*
Y182413D01*
X-101490Y181579D01*
X-99824D01*
X-98991Y182413D01*
X-137323Y196578D02*
Y191579D01*
X-134824D01*
X-133991Y192413D01*
Y193246D01*
X-134824Y194079D01*
X-137323D01*
X-134824D01*
X-133991Y194912D01*
Y195745D01*
X-134824Y196578D01*
X-137323D01*
X-115488Y211579D02*
Y214912D01*
X-113821Y216578D01*
X-112155Y214912D01*
Y211579D01*
Y214079D01*
X-115488D01*
X-123323Y211579D02*
Y214912D01*
X-121657Y216578D01*
X-119991Y214912D01*
Y211579D01*
Y214079D01*
X-123323D01*
X-226541Y211579D02*
Y214912D01*
X-224875Y216578D01*
X-223209Y214912D01*
Y211579D01*
Y214079D01*
X-226541D01*
X-218706Y211579D02*
Y214912D01*
X-217040Y216578D01*
X-215374Y214912D01*
Y211579D01*
Y214079D01*
X-218706D01*
X-240541Y196578D02*
Y191579D01*
X-238042D01*
X-237209Y192413D01*
Y193246D01*
X-238042Y194079D01*
X-240541D01*
X-238042D01*
X-237209Y194912D01*
Y195745D01*
X-238042Y196578D01*
X-240541D01*
X-202209Y185745D02*
X-203042Y186578D01*
X-204708D01*
X-205541Y185745D01*
Y182413D01*
X-204708Y181579D01*
X-203042D01*
X-202209Y182413D01*
X-227209Y175745D02*
X-228042Y176578D01*
X-229708D01*
X-230541Y175745D01*
Y172413D01*
X-229708Y171580D01*
X-228042D01*
X-227209Y172413D01*
X-220541Y196578D02*
Y191579D01*
X-218042D01*
X-217209Y192413D01*
Y195745D01*
X-218042Y196578D01*
X-220541D01*
X-207209Y215745D02*
X-208042Y216578D01*
X-209708D01*
X-210541Y215745D01*
Y212413D01*
X-209708Y211579D01*
X-208042D01*
X-207209Y212413D01*
X-232209Y205745D02*
X-233042Y206578D01*
X-234708D01*
X-235541Y205745D01*
Y202413D01*
X-234708Y201579D01*
X-233042D01*
X-232209Y202413D01*
X-200541Y196578D02*
Y191579D01*
X-198042D01*
X-197209Y192413D01*
Y193246D01*
X-198042Y194079D01*
X-200541D01*
X-198042D01*
X-197209Y194912D01*
Y195745D01*
X-198042Y196578D01*
X-200541D01*
X-222435Y171580D02*
Y174912D01*
X-220769Y176578D01*
X-219103Y174912D01*
Y171580D01*
Y174079D01*
X-222435D01*
X-214541Y171580D02*
Y174912D01*
X-212875Y176578D01*
X-211209Y174912D01*
Y171580D01*
Y174079D01*
X-214541D01*
X-317622Y171929D02*
Y175261D01*
X-315956Y176927D01*
X-314290Y175261D01*
Y171929D01*
Y174428D01*
X-317622D01*
X-325516Y171929D02*
Y175261D01*
X-323850Y176927D01*
X-322184Y175261D01*
Y171929D01*
Y174428D01*
X-325516D01*
X-303622Y196927D02*
Y191929D01*
X-301123D01*
X-300290Y192762D01*
Y193595D01*
X-301123Y194428D01*
X-303622D01*
X-301123D01*
X-300290Y195261D01*
Y196095D01*
X-301123Y196927D01*
X-303622D01*
X-335290Y206095D02*
X-336123Y206927D01*
X-337789D01*
X-338622Y206095D01*
Y202762D01*
X-337789Y201929D01*
X-336123D01*
X-335290Y202762D01*
X-310290Y216094D02*
X-311123Y216928D01*
X-312789D01*
X-313622Y216094D01*
Y212762D01*
X-312789Y211929D01*
X-311123D01*
X-310290Y212762D01*
X-323622Y196927D02*
Y191929D01*
X-321123D01*
X-320290Y192762D01*
Y196095D01*
X-321123Y196927D01*
X-323622D01*
X-330290Y176094D02*
X-331123Y176927D01*
X-332789D01*
X-333622Y176094D01*
Y172762D01*
X-332789Y171929D01*
X-331123D01*
X-330290Y172762D01*
X-305290Y186094D02*
X-306123Y186927D01*
X-307789D01*
X-308622Y186094D01*
Y182762D01*
X-307789Y181929D01*
X-306123D01*
X-305290Y182762D01*
X-343622Y196927D02*
Y191929D01*
X-341123D01*
X-340290Y192762D01*
Y193595D01*
X-341123Y194428D01*
X-343622D01*
X-341123D01*
X-340290Y195261D01*
Y196095D01*
X-341123Y196927D01*
X-343622D01*
X-321787Y211929D02*
Y215261D01*
X-320121Y216928D01*
X-318455Y215261D01*
Y211929D01*
Y214428D01*
X-321787D01*
X-329622Y211929D02*
Y215261D01*
X-327956Y216928D01*
X-326290Y215261D01*
Y211929D01*
Y214428D01*
X-329622D01*
X-404644Y211929D02*
Y215261D01*
X-402978Y216928D01*
X-401312Y215261D01*
Y211929D01*
Y214428D01*
X-404644D01*
X-396809Y211929D02*
Y215261D01*
X-395143Y216928D01*
X-393477Y215261D01*
Y211929D01*
Y214428D01*
X-396809D01*
X-418644Y196927D02*
Y191929D01*
X-416145D01*
X-415312Y192762D01*
Y193595D01*
X-416145Y194428D01*
X-418644D01*
X-416145D01*
X-415312Y195261D01*
Y196095D01*
X-416145Y196927D01*
X-418644D01*
X-380312Y186094D02*
X-381145Y186927D01*
X-382811D01*
X-383644Y186094D01*
Y182762D01*
X-382811Y181929D01*
X-381145D01*
X-380312Y182762D01*
X-405312Y176094D02*
X-406145Y176927D01*
X-407811D01*
X-408644Y176094D01*
Y172762D01*
X-407811Y171929D01*
X-406145D01*
X-405312Y172762D01*
X-398644Y196927D02*
Y191929D01*
X-396145D01*
X-395312Y192762D01*
Y196095D01*
X-396145Y196927D01*
X-398644D01*
X-385312Y216094D02*
X-386145Y216928D01*
X-387811D01*
X-388644Y216094D01*
Y212762D01*
X-387811Y211929D01*
X-386145D01*
X-385312Y212762D01*
X-410312Y206095D02*
X-411145Y206927D01*
X-412811D01*
X-413644Y206095D01*
Y202762D01*
X-412811Y201929D01*
X-411145D01*
X-410312Y202762D01*
X-378644Y196927D02*
Y191929D01*
X-376145D01*
X-375312Y192762D01*
Y193595D01*
X-376145Y194428D01*
X-378644D01*
X-376145D01*
X-375312Y195261D01*
Y196095D01*
X-376145Y196927D01*
X-378644D01*
X-400538Y171929D02*
Y175261D01*
X-398872Y176927D01*
X-397205Y175261D01*
Y171929D01*
Y174428D01*
X-400538D01*
X-392644Y171929D02*
Y175261D01*
X-390978Y176927D01*
X-389312Y175261D01*
Y171929D01*
Y174428D01*
X-392644D01*
X-467666Y171929D02*
Y175261D01*
X-466000Y176927D01*
X-464334Y175261D01*
Y171929D01*
Y174428D01*
X-467666D01*
X-475560Y171929D02*
Y175261D01*
X-473893Y176927D01*
X-472227Y175261D01*
Y171929D01*
Y174428D01*
X-475560D01*
X-453666Y196927D02*
Y191929D01*
X-451167D01*
X-450334Y192762D01*
Y193595D01*
X-451167Y194428D01*
X-453666D01*
X-451167D01*
X-450334Y195261D01*
Y196095D01*
X-451167Y196927D01*
X-453666D01*
X-485334Y206095D02*
X-486167Y206927D01*
X-487833D01*
X-488666Y206095D01*
Y202762D01*
X-487833Y201929D01*
X-486167D01*
X-485334Y202762D01*
X-460334Y216094D02*
X-461167Y216928D01*
X-462833D01*
X-463666Y216094D01*
Y212762D01*
X-462833Y211929D01*
X-461167D01*
X-460334Y212762D01*
X-473666Y196927D02*
Y191929D01*
X-471167D01*
X-470334Y192762D01*
Y196095D01*
X-471167Y196927D01*
X-473666D01*
X-480334Y176094D02*
X-481167Y176927D01*
X-482833D01*
X-483666Y176094D01*
Y172762D01*
X-482833Y171929D01*
X-481167D01*
X-480334Y172762D01*
X-455334Y186094D02*
X-456167Y186927D01*
X-457833D01*
X-458666Y186094D01*
Y182762D01*
X-457833Y181929D01*
X-456167D01*
X-455334Y182762D01*
X-493666Y196927D02*
Y191929D01*
X-491167D01*
X-490334Y192762D01*
Y193595D01*
X-491167Y194428D01*
X-493666D01*
X-491167D01*
X-490334Y195261D01*
Y196095D01*
X-491167Y196927D01*
X-493666D01*
X-471831Y211929D02*
Y215261D01*
X-470164Y216928D01*
X-468498Y215261D01*
Y211929D01*
Y214428D01*
X-471831D01*
X-479666Y211929D02*
Y215261D01*
X-478000Y216928D01*
X-476334Y215261D01*
Y211929D01*
Y214428D01*
X-479666D01*
X-554688Y211929D02*
Y215261D01*
X-553022Y216928D01*
X-551356Y215261D01*
Y211929D01*
Y214428D01*
X-554688D01*
X-546852Y211929D02*
Y215261D01*
X-545186Y216928D01*
X-543520Y215261D01*
Y211929D01*
Y214428D01*
X-546852D01*
X-568688Y196927D02*
Y191929D01*
X-566189D01*
X-565355Y192762D01*
Y193595D01*
X-566189Y194428D01*
X-568688D01*
X-566189D01*
X-565355Y195261D01*
Y196095D01*
X-566189Y196927D01*
X-568688D01*
X-530356Y186094D02*
X-531189Y186927D01*
X-532855D01*
X-533688Y186094D01*
Y182762D01*
X-532855Y181929D01*
X-531189D01*
X-530356Y182762D01*
X-555356Y176094D02*
X-556189Y176927D01*
X-557855D01*
X-558688Y176094D01*
Y172762D01*
X-557855Y171929D01*
X-556189D01*
X-555356Y172762D01*
X-548688Y196927D02*
Y191929D01*
X-546189D01*
X-545356Y192762D01*
Y196095D01*
X-546189Y196927D01*
X-548688D01*
X-535356Y216094D02*
X-536189Y216928D01*
X-537855D01*
X-538688Y216094D01*
Y212762D01*
X-537855Y211929D01*
X-536189D01*
X-535356Y212762D01*
X-560356Y206095D02*
X-561189Y206927D01*
X-562855D01*
X-563688Y206095D01*
Y202762D01*
X-562855Y201929D01*
X-561189D01*
X-560356Y202762D01*
X-528688Y196927D02*
Y191929D01*
X-526189D01*
X-525355Y192762D01*
Y193595D01*
X-526189Y194428D01*
X-528688D01*
X-526189D01*
X-525355Y195261D01*
Y196095D01*
X-526189Y196927D01*
X-528688D01*
X-550582Y171929D02*
Y175261D01*
X-548915Y176927D01*
X-547249Y175261D01*
Y171929D01*
Y174428D01*
X-550582D01*
X-542688Y171929D02*
Y175261D01*
X-541022Y176927D01*
X-539356Y175261D01*
Y171929D01*
Y174428D01*
X-542688D01*
X-617710Y171929D02*
Y175261D01*
X-616044Y176927D01*
X-614377Y175261D01*
Y171929D01*
Y174428D01*
X-617710D01*
X-625603Y171929D02*
Y175261D01*
X-623937Y176927D01*
X-622271Y175261D01*
Y171929D01*
Y174428D01*
X-625603D01*
X-603710Y196927D02*
Y191929D01*
X-601210D01*
X-600377Y192762D01*
Y193595D01*
X-601210Y194428D01*
X-603710D01*
X-601210D01*
X-600377Y195261D01*
Y196095D01*
X-601210Y196927D01*
X-603710D01*
X-635377Y206095D02*
X-636210Y206927D01*
X-637877D01*
X-638710Y206095D01*
Y202762D01*
X-637877Y201929D01*
X-636210D01*
X-635377Y202762D01*
X-610377Y216094D02*
X-611210Y216928D01*
X-612877D01*
X-613710Y216094D01*
Y212762D01*
X-612877Y211929D01*
X-611210D01*
X-610377Y212762D01*
X-623710Y196927D02*
Y191929D01*
X-621210D01*
X-620377Y192762D01*
Y196095D01*
X-621210Y196927D01*
X-623710D01*
X-630377Y176094D02*
X-631210Y176927D01*
X-632877D01*
X-633710Y176094D01*
Y172762D01*
X-632877Y171929D01*
X-631210D01*
X-630377Y172762D01*
X-605377Y186094D02*
X-606210Y186927D01*
X-607877D01*
X-608710Y186094D01*
Y182762D01*
X-607877Y181929D01*
X-606210D01*
X-605377Y182762D01*
X-643710Y196927D02*
Y191929D01*
X-641210D01*
X-640377Y192762D01*
Y193595D01*
X-641210Y194428D01*
X-643710D01*
X-641210D01*
X-640377Y195261D01*
Y196095D01*
X-641210Y196927D01*
X-643710D01*
X-621874Y211929D02*
Y215261D01*
X-620208Y216928D01*
X-618542Y215261D01*
Y211929D01*
Y214428D01*
X-621874D01*
X-629710Y211929D02*
Y215261D01*
X-628044Y216928D01*
X-626377Y215261D01*
Y211929D01*
Y214428D01*
X-629710D01*
X-704732Y211929D02*
Y215261D01*
X-703065Y216928D01*
X-701399Y215261D01*
Y211929D01*
Y214428D01*
X-704732D01*
X-696896Y211929D02*
Y215261D01*
X-695230Y216928D01*
X-693564Y215261D01*
Y211929D01*
Y214428D01*
X-696896D01*
X-718731Y196927D02*
Y191929D01*
X-716232D01*
X-715399Y192762D01*
Y193595D01*
X-716232Y194428D01*
X-718731D01*
X-716232D01*
X-715399Y195261D01*
Y196095D01*
X-716232Y196927D01*
X-718731D01*
X-680399Y186094D02*
X-681232Y186927D01*
X-682898D01*
X-683732Y186094D01*
Y182762D01*
X-682898Y181929D01*
X-681232D01*
X-680399Y182762D01*
X-705399Y176094D02*
X-706232Y176927D01*
X-707898D01*
X-708732Y176094D01*
Y172762D01*
X-707898Y171929D01*
X-706232D01*
X-705399Y172762D01*
X-698732Y196927D02*
Y191929D01*
X-696232D01*
X-695399Y192762D01*
Y196095D01*
X-696232Y196927D01*
X-698732D01*
X-685399Y216094D02*
X-686232Y216928D01*
X-687898D01*
X-688731Y216094D01*
Y212762D01*
X-687898Y211929D01*
X-686232D01*
X-685399Y212762D01*
X-710399Y206095D02*
X-711232Y206927D01*
X-712898D01*
X-713731Y206095D01*
Y202762D01*
X-712898Y201929D01*
X-711232D01*
X-710399Y202762D01*
X-678731Y196927D02*
Y191929D01*
X-676232D01*
X-675399Y192762D01*
Y193595D01*
X-676232Y194428D01*
X-678731D01*
X-676232D01*
X-675399Y195261D01*
Y196095D01*
X-676232Y196927D01*
X-678731D01*
X-700625Y171929D02*
Y175261D01*
X-698959Y176927D01*
X-697293Y175261D01*
Y171929D01*
Y174428D01*
X-700625D01*
X-692732Y171929D02*
Y175261D01*
X-691065Y176927D01*
X-689399Y175261D01*
Y171929D01*
Y174428D01*
X-692732D01*
X-767753Y171929D02*
Y175261D01*
X-766087Y176927D01*
X-764421Y175261D01*
Y171929D01*
Y174428D01*
X-767753D01*
X-775647Y171929D02*
Y175261D01*
X-773981Y176927D01*
X-772315Y175261D01*
Y171929D01*
Y174428D01*
X-775647D01*
X-753753Y196927D02*
Y191929D01*
X-751254D01*
X-750421Y192762D01*
Y193595D01*
X-751254Y194428D01*
X-753753D01*
X-751254D01*
X-750421Y195261D01*
Y196095D01*
X-751254Y196927D01*
X-753753D01*
X-785421Y206095D02*
X-786254Y206927D01*
X-787920D01*
X-788753Y206095D01*
Y202762D01*
X-787920Y201929D01*
X-786254D01*
X-785421Y202762D01*
X-760421Y216094D02*
X-761254Y216928D01*
X-762920D01*
X-763753Y216094D01*
Y212762D01*
X-762920Y211929D01*
X-761254D01*
X-760421Y212762D01*
X-773753Y196927D02*
Y191929D01*
X-771254D01*
X-770421Y192762D01*
Y196095D01*
X-771254Y196927D01*
X-773753D01*
X-780421Y176094D02*
X-781254Y176927D01*
X-782920D01*
X-783753Y176094D01*
Y172762D01*
X-782920Y171929D01*
X-781254D01*
X-780421Y172762D01*
X-755421Y186094D02*
X-756254Y186927D01*
X-757920D01*
X-758753Y186094D01*
Y182762D01*
X-757920Y181929D01*
X-756254D01*
X-755421Y182762D01*
X-793753Y196927D02*
Y191929D01*
X-791254D01*
X-790421Y192762D01*
Y193595D01*
X-791254Y194428D01*
X-793753D01*
X-791254D01*
X-790421Y195261D01*
Y196095D01*
X-791254Y196927D01*
X-793753D01*
X-771918Y211929D02*
Y215261D01*
X-770252Y216928D01*
X-768586Y215261D01*
Y211929D01*
Y214428D01*
X-771918D01*
X-779753Y211929D02*
Y215261D01*
X-778087Y216928D01*
X-776421Y215261D01*
Y211929D01*
Y214428D01*
X-779753D01*
X-854775Y211929D02*
Y215261D01*
X-853109Y216928D01*
X-851443Y215261D01*
Y211929D01*
Y214428D01*
X-854775D01*
X-846940Y211929D02*
Y215261D01*
X-845274Y216928D01*
X-843608Y215261D01*
Y211929D01*
Y214428D01*
X-846940D01*
X-868775Y196927D02*
Y191929D01*
X-866276D01*
X-865443Y192762D01*
Y193595D01*
X-866276Y194428D01*
X-868775D01*
X-866276D01*
X-865443Y195261D01*
Y196095D01*
X-866276Y196927D01*
X-868775D01*
X-830443Y186094D02*
X-831276Y186927D01*
X-832942D01*
X-833775Y186094D01*
Y182762D01*
X-832942Y181929D01*
X-831276D01*
X-830443Y182762D01*
X-855443Y176094D02*
X-856276Y176927D01*
X-857942D01*
X-858775Y176094D01*
Y172762D01*
X-857942Y171929D01*
X-856276D01*
X-855443Y172762D01*
X-848775Y196927D02*
Y191929D01*
X-846276D01*
X-845443Y192762D01*
Y196095D01*
X-846276Y196927D01*
X-848775D01*
X-835443Y216094D02*
X-836276Y216928D01*
X-837942D01*
X-838775Y216094D01*
Y212762D01*
X-837942Y211929D01*
X-836276D01*
X-835443Y212762D01*
X-860443Y206095D02*
X-861276Y206927D01*
X-862942D01*
X-863775Y206095D01*
Y202762D01*
X-862942Y201929D01*
X-861276D01*
X-860443Y202762D01*
X-828775Y196927D02*
Y191929D01*
X-826276D01*
X-825443Y192762D01*
Y193595D01*
X-826276Y194428D01*
X-828775D01*
X-826276D01*
X-825443Y195261D01*
Y196095D01*
X-826276Y196927D01*
X-828775D01*
X-850669Y171929D02*
Y175261D01*
X-849003Y176927D01*
X-847337Y175261D01*
Y171929D01*
Y174428D01*
X-850669D01*
X-842775Y171929D02*
Y175261D01*
X-841109Y176927D01*
X-839443Y175261D01*
Y171929D01*
Y174428D01*
X-842775D01*
X-917797Y171929D02*
Y175261D01*
X-916131Y176927D01*
X-914465Y175261D01*
Y171929D01*
Y174428D01*
X-917797D01*
X-925691Y171929D02*
Y175261D01*
X-924025Y176927D01*
X-922359Y175261D01*
Y171929D01*
Y174428D01*
X-925691D01*
X-903797Y196927D02*
Y191929D01*
X-901298D01*
X-900465Y192762D01*
Y193595D01*
X-901298Y194428D01*
X-903797D01*
X-901298D01*
X-900465Y195261D01*
Y196095D01*
X-901298Y196927D01*
X-903797D01*
X-935465Y206095D02*
X-936298Y206927D01*
X-937964D01*
X-938797Y206095D01*
Y202762D01*
X-937964Y201929D01*
X-936298D01*
X-935465Y202762D01*
X-910465Y216094D02*
X-911298Y216928D01*
X-912964D01*
X-913797Y216094D01*
Y212762D01*
X-912964Y211929D01*
X-911298D01*
X-910465Y212762D01*
X-923797Y196927D02*
Y191929D01*
X-921298D01*
X-920465Y192762D01*
Y196095D01*
X-921298Y196927D01*
X-923797D01*
X-930465Y176094D02*
X-931298Y176927D01*
X-932964D01*
X-933797Y176094D01*
Y172762D01*
X-932964Y171929D01*
X-931298D01*
X-930465Y172762D01*
X-905465Y186094D02*
X-906298Y186927D01*
X-907964D01*
X-908797Y186094D01*
Y182762D01*
X-907964Y181929D01*
X-906298D01*
X-905465Y182762D01*
X-943797Y196927D02*
Y191929D01*
X-941298D01*
X-940465Y192762D01*
Y193595D01*
X-941298Y194428D01*
X-943797D01*
X-941298D01*
X-940465Y195261D01*
Y196095D01*
X-941298Y196927D01*
X-943797D01*
X-921962Y211929D02*
Y215261D01*
X-920296Y216928D01*
X-918629Y215261D01*
Y211929D01*
Y214428D01*
X-921962D01*
X-929797Y211929D02*
Y215261D01*
X-928131Y216928D01*
X-926465Y215261D01*
Y211929D01*
Y214428D01*
X-929797D01*
X-1004819Y211929D02*
Y215261D01*
X-1003153Y216928D01*
X-1001487Y215261D01*
Y211929D01*
Y214428D01*
X-1004819D01*
X-996984Y211929D02*
Y215261D01*
X-995317Y216928D01*
X-993651Y215261D01*
Y211929D01*
Y214428D01*
X-996984D01*
X-1018819Y196927D02*
Y191929D01*
X-1016320D01*
X-1015487Y192762D01*
Y193595D01*
X-1016320Y194428D01*
X-1018819D01*
X-1016320D01*
X-1015487Y195261D01*
Y196095D01*
X-1016320Y196927D01*
X-1018819D01*
X-980487Y186094D02*
X-981320Y186927D01*
X-982986D01*
X-983819Y186094D01*
Y182762D01*
X-982986Y181929D01*
X-981320D01*
X-980487Y182762D01*
X-1005487Y176094D02*
X-1006320Y176927D01*
X-1007986D01*
X-1008819Y176094D01*
Y172762D01*
X-1007986Y171929D01*
X-1006320D01*
X-1005487Y172762D01*
X-998819Y196927D02*
Y191929D01*
X-996320D01*
X-995487Y192762D01*
Y196095D01*
X-996320Y196927D01*
X-998819D01*
X-985487Y216094D02*
X-986320Y216928D01*
X-987986D01*
X-988819Y216094D01*
Y212762D01*
X-987986Y211929D01*
X-986320D01*
X-985487Y212762D01*
X-1010487Y206095D02*
X-1011320Y206927D01*
X-1012986D01*
X-1013819Y206095D01*
Y202762D01*
X-1012986Y201929D01*
X-1011320D01*
X-1010487Y202762D01*
X-978819Y196927D02*
Y191929D01*
X-976320D01*
X-975487Y192762D01*
Y193595D01*
X-976320Y194428D01*
X-978819D01*
X-976320D01*
X-975487Y195261D01*
Y196095D01*
X-976320Y196927D01*
X-978819D01*
X-1000713Y171929D02*
Y175261D01*
X-999047Y176927D01*
X-997380Y175261D01*
Y171929D01*
Y174428D01*
X-1000713D01*
X-992819Y171929D02*
Y175261D01*
X-991153Y176927D01*
X-989487Y175261D01*
Y171929D01*
Y174428D01*
X-992819D01*
X-158370Y246929D02*
Y250261D01*
X-156704Y251927D01*
X-155038Y250261D01*
Y246929D01*
Y249428D01*
X-158370D01*
X-166264Y246929D02*
Y250261D01*
X-164598Y251927D01*
X-162932Y250261D01*
Y246929D01*
Y249428D01*
X-166264D01*
X-144370Y271927D02*
Y266929D01*
X-141871D01*
X-141038Y267762D01*
Y268595D01*
X-141871Y269428D01*
X-144370D01*
X-141871D01*
X-141038Y270261D01*
Y271094D01*
X-141871Y271927D01*
X-144370D01*
X-176038Y281095D02*
X-176871Y281927D01*
X-178537D01*
X-179370Y281095D01*
Y277762D01*
X-178537Y276929D01*
X-176871D01*
X-176038Y277762D01*
X-151038Y291094D02*
X-151871Y291928D01*
X-153537D01*
X-154370Y291094D01*
Y287762D01*
X-153537Y286929D01*
X-151871D01*
X-151038Y287762D01*
X-164370Y271927D02*
Y266929D01*
X-161871D01*
X-161038Y267762D01*
Y271094D01*
X-161871Y271927D01*
X-164370D01*
X-171038Y251095D02*
X-171871Y251927D01*
X-173537D01*
X-174370Y251095D01*
Y247762D01*
X-173537Y246929D01*
X-171871D01*
X-171038Y247762D01*
X-146038Y261094D02*
X-146871Y261928D01*
X-148537D01*
X-149370Y261094D01*
Y257762D01*
X-148537Y256929D01*
X-146871D01*
X-146038Y257762D01*
X-184370Y271927D02*
Y266929D01*
X-181871D01*
X-181038Y267762D01*
Y268595D01*
X-181871Y269428D01*
X-184370D01*
X-181871D01*
X-181038Y270261D01*
Y271094D01*
X-181871Y271927D01*
X-184370D01*
X-162535Y286929D02*
Y290261D01*
X-160869Y291928D01*
X-159203Y290261D01*
Y286929D01*
Y289428D01*
X-162535D01*
X-170370Y286929D02*
Y290261D01*
X-168704Y291928D01*
X-167038Y290261D01*
Y286929D01*
Y289428D01*
X-170370D01*
X-291827Y286929D02*
Y290261D01*
X-290161Y291928D01*
X-288494Y290261D01*
Y286929D01*
Y289428D01*
X-291827D01*
X-283992Y286929D02*
Y290261D01*
X-282325Y291928D01*
X-280659Y290261D01*
Y286929D01*
Y289428D01*
X-283992D01*
X-305827Y271927D02*
Y266929D01*
X-303328D01*
X-302495Y267762D01*
Y268595D01*
X-303328Y269428D01*
X-305827D01*
X-303328D01*
X-302495Y270261D01*
Y271094D01*
X-303328Y271927D01*
X-305827D01*
X-267495Y261094D02*
X-268328Y261928D01*
X-269994D01*
X-270827Y261094D01*
Y257762D01*
X-269994Y256929D01*
X-268328D01*
X-267495Y257762D01*
X-292495Y251095D02*
X-293328Y251927D01*
X-294994D01*
X-295827Y251095D01*
Y247762D01*
X-294994Y246929D01*
X-293328D01*
X-292495Y247762D01*
X-285827Y271927D02*
Y266929D01*
X-283328D01*
X-282494Y267762D01*
Y271094D01*
X-283328Y271927D01*
X-285827D01*
X-272495Y291094D02*
X-273328Y291928D01*
X-274994D01*
X-275827Y291094D01*
Y287762D01*
X-274994Y286929D01*
X-273328D01*
X-272495Y287762D01*
X-297495Y281095D02*
X-298328Y281927D01*
X-299994D01*
X-300827Y281095D01*
Y277762D01*
X-299994Y276929D01*
X-298328D01*
X-297495Y277762D01*
X-265827Y271927D02*
Y266929D01*
X-263328D01*
X-262494Y267762D01*
Y268595D01*
X-263328Y269428D01*
X-265827D01*
X-263328D01*
X-262494Y270261D01*
Y271094D01*
X-263328Y271927D01*
X-265827D01*
X-287720Y246929D02*
Y250261D01*
X-286054Y251927D01*
X-284388Y250261D01*
Y246929D01*
Y249428D01*
X-287720D01*
X-279827Y246929D02*
Y250261D01*
X-278161Y251927D01*
X-276495Y250261D01*
Y246929D01*
Y249428D01*
X-279827D01*
X-354866Y246929D02*
Y250261D01*
X-353200Y251927D01*
X-351534Y250261D01*
Y246929D01*
Y249428D01*
X-354866D01*
X-362760Y246929D02*
Y250261D01*
X-361094Y251927D01*
X-359428Y250261D01*
Y246929D01*
Y249428D01*
X-362760D01*
X-340866Y271927D02*
Y266929D01*
X-338367D01*
X-337534Y267762D01*
Y268595D01*
X-338367Y269428D01*
X-340866D01*
X-338367D01*
X-337534Y270261D01*
Y271094D01*
X-338367Y271927D01*
X-340866D01*
X-372534Y281095D02*
X-373367Y281927D01*
X-375033D01*
X-375866Y281095D01*
Y277762D01*
X-375033Y276929D01*
X-373367D01*
X-372534Y277762D01*
X-347534Y291094D02*
X-348367Y291928D01*
X-350033D01*
X-350866Y291094D01*
Y287762D01*
X-350033Y286929D01*
X-348367D01*
X-347534Y287762D01*
X-360866Y271927D02*
Y266929D01*
X-358367D01*
X-357534Y267762D01*
Y271094D01*
X-358367Y271927D01*
X-360866D01*
X-367534Y251095D02*
X-368367Y251927D01*
X-370033D01*
X-370866Y251095D01*
Y247762D01*
X-370033Y246929D01*
X-368367D01*
X-367534Y247762D01*
X-342534Y261094D02*
X-343367Y261928D01*
X-345033D01*
X-345866Y261094D01*
Y257762D01*
X-345033Y256929D01*
X-343367D01*
X-342534Y257762D01*
X-380866Y271927D02*
Y266929D01*
X-378367D01*
X-377534Y267762D01*
Y268595D01*
X-378367Y269428D01*
X-380866D01*
X-378367D01*
X-377534Y270261D01*
Y271094D01*
X-378367Y271927D01*
X-380866D01*
X-359031Y286929D02*
Y290261D01*
X-357365Y291928D01*
X-355699Y290261D01*
Y286929D01*
Y289428D01*
X-359031D01*
X-366866Y286929D02*
Y290261D01*
X-365200Y291928D01*
X-363534Y290261D01*
Y286929D01*
Y289428D01*
X-366866D01*
X-441905Y286929D02*
Y290261D01*
X-440239Y291928D01*
X-438573Y290261D01*
Y286929D01*
Y289428D01*
X-441905D01*
X-434070Y286929D02*
Y290261D01*
X-432404Y291928D01*
X-430738Y290261D01*
Y286929D01*
Y289428D01*
X-434070D01*
X-455905Y271927D02*
Y266929D01*
X-453406D01*
X-452573Y267762D01*
Y268595D01*
X-453406Y269428D01*
X-455905D01*
X-453406D01*
X-452573Y270261D01*
Y271094D01*
X-453406Y271927D01*
X-455905D01*
X-417573Y261094D02*
X-418406Y261928D01*
X-420073D01*
X-420905Y261094D01*
Y257762D01*
X-420073Y256929D01*
X-418406D01*
X-417573Y257762D01*
X-442573Y251095D02*
X-443406Y251927D01*
X-445073D01*
X-445905Y251095D01*
Y247762D01*
X-445073Y246929D01*
X-443406D01*
X-442573Y247762D01*
X-435906Y271927D02*
Y266929D01*
X-433406D01*
X-432573Y267762D01*
Y271094D01*
X-433406Y271927D01*
X-435906D01*
X-422573Y291094D02*
X-423406Y291928D01*
X-425072D01*
X-425906Y291094D01*
Y287762D01*
X-425072Y286929D01*
X-423406D01*
X-422573Y287762D01*
X-447573Y281095D02*
X-448406Y281927D01*
X-450072D01*
X-450906Y281095D01*
Y277762D01*
X-450072Y276929D01*
X-448406D01*
X-447573Y277762D01*
X-415906Y271927D02*
Y266929D01*
X-413406D01*
X-412573Y267762D01*
Y268595D01*
X-413406Y269428D01*
X-415906D01*
X-413406D01*
X-412573Y270261D01*
Y271094D01*
X-413406Y271927D01*
X-415906D01*
X-437799Y246929D02*
Y250261D01*
X-436133Y251927D01*
X-434467Y250261D01*
Y246929D01*
Y249428D01*
X-437799D01*
X-429906Y246929D02*
Y250261D01*
X-428239Y251927D01*
X-426573Y250261D01*
Y246929D01*
Y249428D01*
X-429906D01*
X-504945Y246929D02*
Y250261D01*
X-503279Y251927D01*
X-501613Y250261D01*
Y246929D01*
Y249428D01*
X-504945D01*
X-512839Y246929D02*
Y250261D01*
X-511172Y251927D01*
X-509506Y250261D01*
Y246929D01*
Y249428D01*
X-512839D01*
X-490945Y271927D02*
Y266929D01*
X-488446D01*
X-487613Y267762D01*
Y268595D01*
X-488446Y269428D01*
X-490945D01*
X-488446D01*
X-487613Y270261D01*
Y271094D01*
X-488446Y271927D01*
X-490945D01*
X-522613Y281095D02*
X-523446Y281927D01*
X-525112D01*
X-525945Y281095D01*
Y277762D01*
X-525112Y276929D01*
X-523446D01*
X-522613Y277762D01*
X-497613Y291094D02*
X-498446Y291928D01*
X-500112D01*
X-500945Y291094D01*
Y287762D01*
X-500112Y286929D01*
X-498446D01*
X-497613Y287762D01*
X-510945Y271927D02*
Y266929D01*
X-508446D01*
X-507613Y267762D01*
Y271094D01*
X-508446Y271927D01*
X-510945D01*
X-517613Y251095D02*
X-518446Y251927D01*
X-520112D01*
X-520945Y251095D01*
Y247762D01*
X-520112Y246929D01*
X-518446D01*
X-517613Y247762D01*
X-492613Y261094D02*
X-493446Y261928D01*
X-495112D01*
X-495945Y261094D01*
Y257762D01*
X-495112Y256929D01*
X-493446D01*
X-492613Y257762D01*
X-530945Y271927D02*
Y266929D01*
X-528446D01*
X-527613Y267762D01*
Y268595D01*
X-528446Y269428D01*
X-530945D01*
X-528446D01*
X-527613Y270261D01*
Y271094D01*
X-528446Y271927D01*
X-530945D01*
X-509110Y286929D02*
Y290261D01*
X-507444Y291928D01*
X-505777Y290261D01*
Y286929D01*
Y289428D01*
X-509110D01*
X-516945Y286929D02*
Y290261D01*
X-515279Y291928D01*
X-513613Y290261D01*
Y286929D01*
Y289428D01*
X-516945D01*
X-591984Y286929D02*
Y290261D01*
X-590318Y291928D01*
X-588652Y290261D01*
Y286929D01*
Y289428D01*
X-591984D01*
X-584149Y286929D02*
Y290261D01*
X-582483Y291928D01*
X-580817Y290261D01*
Y286929D01*
Y289428D01*
X-584149D01*
X-605984Y271927D02*
Y266929D01*
X-603485D01*
X-602652Y267762D01*
Y268595D01*
X-603485Y269428D01*
X-605984D01*
X-603485D01*
X-602652Y270261D01*
Y271094D01*
X-603485Y271927D01*
X-605984D01*
X-567652Y261094D02*
X-568485Y261928D01*
X-570151D01*
X-570984Y261094D01*
Y257762D01*
X-570151Y256929D01*
X-568485D01*
X-567652Y257762D01*
X-592652Y251095D02*
X-593485Y251927D01*
X-595151D01*
X-595984Y251095D01*
Y247762D01*
X-595151Y246929D01*
X-593485D01*
X-592652Y247762D01*
X-585984Y271927D02*
Y266929D01*
X-583485D01*
X-582652Y267762D01*
Y271094D01*
X-583485Y271927D01*
X-585984D01*
X-572652Y291094D02*
X-573485Y291928D01*
X-575151D01*
X-575984Y291094D01*
Y287762D01*
X-575151Y286929D01*
X-573485D01*
X-572652Y287762D01*
X-597652Y281095D02*
X-598485Y281927D01*
X-600151D01*
X-600984Y281095D01*
Y277762D01*
X-600151Y276929D01*
X-598485D01*
X-597652Y277762D01*
X-565984Y271927D02*
Y266929D01*
X-563485D01*
X-562652Y267762D01*
Y268595D01*
X-563485Y269428D01*
X-565984D01*
X-563485D01*
X-562652Y270261D01*
Y271094D01*
X-563485Y271927D01*
X-565984D01*
X-587878Y246929D02*
Y250261D01*
X-586212Y251927D01*
X-584546Y250261D01*
Y246929D01*
Y249428D01*
X-587878D01*
X-579984Y246929D02*
Y250261D01*
X-578318Y251927D01*
X-576652Y250261D01*
Y246929D01*
Y249428D01*
X-579984D01*
X-655024Y246929D02*
Y250261D01*
X-653358Y251927D01*
X-651691Y250261D01*
Y246929D01*
Y249428D01*
X-655024D01*
X-662917Y246929D02*
Y250261D01*
X-661251Y251927D01*
X-659585Y250261D01*
Y246929D01*
Y249428D01*
X-662917D01*
X-641024Y271927D02*
Y266929D01*
X-638524D01*
X-637691Y267762D01*
Y268595D01*
X-638524Y269428D01*
X-641024D01*
X-638524D01*
X-637691Y270261D01*
Y271094D01*
X-638524Y271927D01*
X-641024D01*
X-672691Y281095D02*
X-673524Y281927D01*
X-675191D01*
X-676024Y281095D01*
Y277762D01*
X-675191Y276929D01*
X-673524D01*
X-672691Y277762D01*
X-647691Y291094D02*
X-648524Y291928D01*
X-650191D01*
X-651024Y291094D01*
Y287762D01*
X-650191Y286929D01*
X-648524D01*
X-647691Y287762D01*
X-661024Y271927D02*
Y266929D01*
X-658524D01*
X-657691Y267762D01*
Y271094D01*
X-658524Y271927D01*
X-661024D01*
X-667691Y251095D02*
X-668524Y251927D01*
X-670191D01*
X-671024Y251095D01*
Y247762D01*
X-670191Y246929D01*
X-668524D01*
X-667691Y247762D01*
X-642691Y261094D02*
X-643524Y261928D01*
X-645191D01*
X-646024Y261094D01*
Y257762D01*
X-645191Y256929D01*
X-643524D01*
X-642691Y257762D01*
X-681024Y271927D02*
Y266929D01*
X-678524D01*
X-677691Y267762D01*
Y268595D01*
X-678524Y269428D01*
X-681024D01*
X-678524D01*
X-677691Y270261D01*
Y271094D01*
X-678524Y271927D01*
X-681024D01*
X-659188Y286929D02*
Y290261D01*
X-657522Y291928D01*
X-655856Y290261D01*
Y286929D01*
Y289428D01*
X-659188D01*
X-667024Y286929D02*
Y290261D01*
X-665357Y291928D01*
X-663691Y290261D01*
Y286929D01*
Y289428D01*
X-667024D01*
X-805102Y246929D02*
Y250261D01*
X-803436Y251927D01*
X-801770Y250261D01*
Y246929D01*
Y249428D01*
X-805102D01*
X-812996Y246929D02*
Y250261D01*
X-811330Y251927D01*
X-809664Y250261D01*
Y246929D01*
Y249428D01*
X-812996D01*
X-791102Y271927D02*
Y266929D01*
X-788603D01*
X-787770Y267762D01*
Y268595D01*
X-788603Y269428D01*
X-791102D01*
X-788603D01*
X-787770Y270261D01*
Y271094D01*
X-788603Y271927D01*
X-791102D01*
X-822770Y281095D02*
X-823603Y281927D01*
X-825269D01*
X-826102Y281095D01*
Y277762D01*
X-825269Y276929D01*
X-823603D01*
X-822770Y277762D01*
X-797770Y291094D02*
X-798603Y291928D01*
X-800269D01*
X-801102Y291094D01*
Y287762D01*
X-800269Y286929D01*
X-798603D01*
X-797770Y287762D01*
X-811102Y271927D02*
Y266929D01*
X-808603D01*
X-807770Y267762D01*
Y271094D01*
X-808603Y271927D01*
X-811102D01*
X-817770Y251095D02*
X-818603Y251927D01*
X-820269D01*
X-821102Y251095D01*
Y247762D01*
X-820269Y246929D01*
X-818603D01*
X-817770Y247762D01*
X-792770Y261094D02*
X-793603Y261928D01*
X-795269D01*
X-796102Y261094D01*
Y257762D01*
X-795269Y256929D01*
X-793603D01*
X-792770Y257762D01*
X-831102Y271927D02*
Y266929D01*
X-828603D01*
X-827770Y267762D01*
Y268595D01*
X-828603Y269428D01*
X-831102D01*
X-828603D01*
X-827770Y270261D01*
Y271094D01*
X-828603Y271927D01*
X-831102D01*
X-809267Y286929D02*
Y290261D01*
X-807601Y291928D01*
X-805935Y290261D01*
Y286929D01*
Y289428D01*
X-809267D01*
X-817102Y286929D02*
Y290261D01*
X-815436Y291928D01*
X-813770Y290261D01*
Y286929D01*
Y289428D01*
X-817102D01*
X-892142Y286929D02*
Y290261D01*
X-890476Y291928D01*
X-888809Y290261D01*
Y286929D01*
Y289428D01*
X-892142D01*
X-884306Y286929D02*
Y290261D01*
X-882640Y291928D01*
X-880974Y290261D01*
Y286929D01*
Y289428D01*
X-884306D01*
X-906142Y271927D02*
Y266929D01*
X-903642D01*
X-902810Y267762D01*
Y268595D01*
X-903642Y269428D01*
X-906142D01*
X-903642D01*
X-902810Y270261D01*
Y271094D01*
X-903642Y271927D01*
X-906142D01*
X-867809Y261094D02*
X-868643Y261928D01*
X-870309D01*
X-871142Y261094D01*
Y257762D01*
X-870309Y256929D01*
X-868643D01*
X-867809Y257762D01*
X-892809Y251095D02*
X-893643Y251927D01*
X-895309D01*
X-896142Y251095D01*
Y247762D01*
X-895309Y246929D01*
X-893643D01*
X-892809Y247762D01*
X-886142Y271927D02*
Y266929D01*
X-883642D01*
X-882810Y267762D01*
Y271094D01*
X-883642Y271927D01*
X-886142D01*
X-872810Y291094D02*
X-873643Y291928D01*
X-875309D01*
X-876142Y291094D01*
Y287762D01*
X-875309Y286929D01*
X-873643D01*
X-872810Y287762D01*
X-897810Y281095D02*
X-898643Y281927D01*
X-900309D01*
X-901142Y281095D01*
Y277762D01*
X-900309Y276929D01*
X-898643D01*
X-897810Y277762D01*
X-866142Y271927D02*
Y266929D01*
X-863643D01*
X-862809Y267762D01*
Y268595D01*
X-863643Y269428D01*
X-866142D01*
X-863643D01*
X-862809Y270261D01*
Y271094D01*
X-863643Y271927D01*
X-866142D01*
X-888035Y246929D02*
Y250261D01*
X-886369Y251927D01*
X-884703Y250261D01*
Y246929D01*
Y249428D01*
X-888035D01*
X-880142Y246929D02*
Y250261D01*
X-878476Y251927D01*
X-876810Y250261D01*
Y246929D01*
Y249428D01*
X-880142D01*
X-955181Y246929D02*
Y250261D01*
X-953515Y251927D01*
X-951849Y250261D01*
Y246929D01*
Y249428D01*
X-955181D01*
X-963075Y246929D02*
Y250261D01*
X-961409Y251927D01*
X-959743Y250261D01*
Y246929D01*
Y249428D01*
X-963075D01*
X-941181Y271927D02*
Y266929D01*
X-938682D01*
X-937849Y267762D01*
Y268595D01*
X-938682Y269428D01*
X-941181D01*
X-938682D01*
X-937849Y270261D01*
Y271094D01*
X-938682Y271927D01*
X-941181D01*
X-972849Y281095D02*
X-973682Y281927D01*
X-975348D01*
X-976181Y281095D01*
Y277762D01*
X-975348Y276929D01*
X-973682D01*
X-972849Y277762D01*
X-947849Y291094D02*
X-948682Y291928D01*
X-950348D01*
X-951181Y291094D01*
Y287762D01*
X-950348Y286929D01*
X-948682D01*
X-947849Y287762D01*
X-961181Y271927D02*
Y266929D01*
X-958682D01*
X-957849Y267762D01*
Y271094D01*
X-958682Y271927D01*
X-961181D01*
X-967849Y251095D02*
X-968682Y251927D01*
X-970348D01*
X-971181Y251095D01*
Y247762D01*
X-970348Y246929D01*
X-968682D01*
X-967849Y247762D01*
X-942849Y261094D02*
X-943682Y261928D01*
X-945348D01*
X-946181Y261094D01*
Y257762D01*
X-945348Y256929D01*
X-943682D01*
X-942849Y257762D01*
X-981181Y271927D02*
Y266929D01*
X-978682D01*
X-977849Y267762D01*
Y268595D01*
X-978682Y269428D01*
X-981181D01*
X-978682D01*
X-977849Y270261D01*
Y271094D01*
X-978682Y271927D01*
X-981181D01*
X-959346Y286929D02*
Y290261D01*
X-957680Y291928D01*
X-956013Y290261D01*
Y286929D01*
Y289428D01*
X-959346D01*
X-967181Y286929D02*
Y290261D01*
X-965515Y291928D01*
X-963849Y290261D01*
Y286929D01*
Y289428D01*
X-967181D01*
X-1042220Y286929D02*
Y290261D01*
X-1040554Y291928D01*
X-1038888Y290261D01*
Y286929D01*
Y289428D01*
X-1042220D01*
X-1034385Y286929D02*
Y290261D01*
X-1032719Y291928D01*
X-1031053Y290261D01*
Y286929D01*
Y289428D01*
X-1034385D01*
X-1056221Y271927D02*
Y266929D01*
X-1053721D01*
X-1052888Y267762D01*
Y268595D01*
X-1053721Y269428D01*
X-1056221D01*
X-1053721D01*
X-1052888Y270261D01*
Y271094D01*
X-1053721Y271927D01*
X-1056221D01*
X-1017888Y261094D02*
X-1018721Y261928D01*
X-1020387D01*
X-1021220Y261094D01*
Y257762D01*
X-1020387Y256929D01*
X-1018721D01*
X-1017888Y257762D01*
X-1042888Y251095D02*
X-1043721Y251927D01*
X-1045387D01*
X-1046220Y251095D01*
Y247762D01*
X-1045387Y246929D01*
X-1043721D01*
X-1042888Y247762D01*
X-1036220Y271927D02*
Y266929D01*
X-1033721D01*
X-1032888Y267762D01*
Y271094D01*
X-1033721Y271927D01*
X-1036220D01*
X-1022888Y291094D02*
X-1023721Y291928D01*
X-1025387D01*
X-1026221Y291094D01*
Y287762D01*
X-1025387Y286929D01*
X-1023721D01*
X-1022888Y287762D01*
X-1047888Y281095D02*
X-1048721Y281927D01*
X-1050387D01*
X-1051221Y281095D01*
Y277762D01*
X-1050387Y276929D01*
X-1048721D01*
X-1047888Y277762D01*
X-1016220Y271927D02*
Y266929D01*
X-1013721D01*
X-1012888Y267762D01*
Y268595D01*
X-1013721Y269428D01*
X-1016220D01*
X-1013721D01*
X-1012888Y270261D01*
Y271094D01*
X-1013721Y271927D01*
X-1016220D01*
X-1038114Y246929D02*
Y250261D01*
X-1036448Y251927D01*
X-1034782Y250261D01*
Y246929D01*
Y249428D01*
X-1038114D01*
X-1030221Y246929D02*
Y250261D01*
X-1028554Y251927D01*
X-1026888Y250261D01*
Y246929D01*
Y249428D01*
X-1030221D01*
X-142417Y361929D02*
Y365261D01*
X-140751Y366928D01*
X-139085Y365261D01*
Y361929D01*
Y364428D01*
X-142417D01*
X-134582Y361929D02*
Y365261D01*
X-132916Y366928D01*
X-131250Y365261D01*
Y361929D01*
Y364428D01*
X-134582D01*
X-156417Y346927D02*
Y341929D01*
X-153918D01*
X-153085Y342762D01*
Y343595D01*
X-153918Y344428D01*
X-156417D01*
X-153918D01*
X-153085Y345261D01*
Y346094D01*
X-153918Y346927D01*
X-156417D01*
X-118085Y336094D02*
X-118918Y336928D01*
X-120584D01*
X-121417Y336094D01*
Y332762D01*
X-120584Y331929D01*
X-118918D01*
X-118085Y332762D01*
X-143085Y326095D02*
X-143918Y326927D01*
X-145584D01*
X-146417Y326095D01*
Y322762D01*
X-145584Y321929D01*
X-143918D01*
X-143085Y322762D01*
X-136417Y346927D02*
Y341929D01*
X-133918D01*
X-133085Y342762D01*
Y346094D01*
X-133918Y346927D01*
X-136417D01*
X-123085Y366094D02*
X-123918Y366928D01*
X-125584D01*
X-126417Y366094D01*
Y362762D01*
X-125584Y361929D01*
X-123918D01*
X-123085Y362762D01*
X-148085Y356095D02*
X-148918Y356927D01*
X-150584D01*
X-151417Y356095D01*
Y352762D01*
X-150584Y351929D01*
X-148918D01*
X-148085Y352762D01*
X-116417Y346927D02*
Y341929D01*
X-113918D01*
X-113085Y342762D01*
Y343595D01*
X-113918Y344428D01*
X-116417D01*
X-113918D01*
X-113085Y345261D01*
Y346094D01*
X-113918Y346927D01*
X-116417D01*
X-138311Y321929D02*
Y325261D01*
X-136645Y326927D01*
X-134979Y325261D01*
Y321929D01*
Y324428D01*
X-138311D01*
X-130417Y321929D02*
Y325261D01*
X-128751Y326927D01*
X-127085Y325261D01*
Y321929D01*
Y324428D01*
X-130417D01*
X-223939Y321929D02*
Y325261D01*
X-222273Y326927D01*
X-220607Y325261D01*
Y321929D01*
Y324428D01*
X-223939D01*
X-231833Y321929D02*
Y325261D01*
X-230167Y326927D01*
X-228501Y325261D01*
Y321929D01*
Y324428D01*
X-231833D01*
X-209939Y346927D02*
Y341929D01*
X-207440D01*
X-206607Y342762D01*
Y343595D01*
X-207440Y344428D01*
X-209939D01*
X-207440D01*
X-206607Y345261D01*
Y346094D01*
X-207440Y346927D01*
X-209939D01*
X-241607Y356095D02*
X-242440Y356927D01*
X-244106D01*
X-244939Y356095D01*
Y352762D01*
X-244106Y351929D01*
X-242440D01*
X-241607Y352762D01*
X-216607Y366094D02*
X-217440Y366928D01*
X-219106D01*
X-219939Y366094D01*
Y362762D01*
X-219106Y361929D01*
X-217440D01*
X-216607Y362762D01*
X-229939Y346927D02*
Y341929D01*
X-227440D01*
X-226607Y342762D01*
Y346094D01*
X-227440Y346927D01*
X-229939D01*
X-236607Y326095D02*
X-237440Y326927D01*
X-239106D01*
X-239939Y326095D01*
Y322762D01*
X-239106Y321929D01*
X-237440D01*
X-236607Y322762D01*
X-211607Y336094D02*
X-212440Y336928D01*
X-214106D01*
X-214939Y336094D01*
Y332762D01*
X-214106Y331929D01*
X-212440D01*
X-211607Y332762D01*
X-249939Y346927D02*
Y341929D01*
X-247440D01*
X-246607Y342762D01*
Y343595D01*
X-247440Y344428D01*
X-249939D01*
X-247440D01*
X-246607Y345261D01*
Y346094D01*
X-247440Y346927D01*
X-249939D01*
X-228104Y361929D02*
Y365261D01*
X-226438Y366928D01*
X-224772Y365261D01*
Y361929D01*
Y364428D01*
X-228104D01*
X-235939Y361929D02*
Y365261D01*
X-234273Y366928D01*
X-232607Y365261D01*
Y361929D01*
Y364428D01*
X-235939D01*
X-310938Y361929D02*
Y365261D01*
X-309272Y366928D01*
X-307605Y365261D01*
Y361929D01*
Y364428D01*
X-310938D01*
X-303102Y361929D02*
Y365261D01*
X-301436Y366928D01*
X-299770Y365261D01*
Y361929D01*
Y364428D01*
X-303102D01*
X-324938Y346927D02*
Y341929D01*
X-322439D01*
X-321605Y342762D01*
Y343595D01*
X-322439Y344428D01*
X-324938D01*
X-322439D01*
X-321605Y345261D01*
Y346094D01*
X-322439Y346927D01*
X-324938D01*
X-286605Y336094D02*
X-287439Y336928D01*
X-289105D01*
X-289938Y336094D01*
Y332762D01*
X-289105Y331929D01*
X-287439D01*
X-286605Y332762D01*
X-311605Y326095D02*
X-312439Y326927D01*
X-314105D01*
X-314938Y326095D01*
Y322762D01*
X-314105Y321929D01*
X-312439D01*
X-311605Y322762D01*
X-304938Y346927D02*
Y341929D01*
X-302438D01*
X-301605Y342762D01*
Y346094D01*
X-302438Y346927D01*
X-304938D01*
X-291605Y366094D02*
X-292439Y366928D01*
X-294105D01*
X-294938Y366094D01*
Y362762D01*
X-294105Y361929D01*
X-292439D01*
X-291605Y362762D01*
X-316605Y356095D02*
X-317439Y356927D01*
X-319105D01*
X-319938Y356095D01*
Y352762D01*
X-319105Y351929D01*
X-317439D01*
X-316605Y352762D01*
X-284938Y346927D02*
Y341929D01*
X-282438D01*
X-281605Y342762D01*
Y343595D01*
X-282438Y344428D01*
X-284938D01*
X-282438D01*
X-281605Y345261D01*
Y346094D01*
X-282438Y346927D01*
X-284938D01*
X-306831Y321929D02*
Y325261D01*
X-305165Y326927D01*
X-303499Y325261D01*
Y321929D01*
Y324428D01*
X-306831D01*
X-298938Y321929D02*
Y325261D01*
X-297271Y326927D01*
X-295605Y325261D01*
Y321929D01*
Y324428D01*
X-298938D01*
X-373936Y321929D02*
Y325261D01*
X-372270Y326927D01*
X-370604Y325261D01*
Y321929D01*
Y324428D01*
X-373936D01*
X-381830Y321929D02*
Y325261D01*
X-380164Y326927D01*
X-378498Y325261D01*
Y321929D01*
Y324428D01*
X-381830D01*
X-359936Y346927D02*
Y341929D01*
X-357437D01*
X-356604Y342762D01*
Y343595D01*
X-357437Y344428D01*
X-359936D01*
X-357437D01*
X-356604Y345261D01*
Y346094D01*
X-357437Y346927D01*
X-359936D01*
X-391604Y356095D02*
X-392437Y356927D01*
X-394103D01*
X-394936Y356095D01*
Y352762D01*
X-394103Y351929D01*
X-392437D01*
X-391604Y352762D01*
X-366604Y366094D02*
X-367437Y366928D01*
X-369103D01*
X-369936Y366094D01*
Y362762D01*
X-369103Y361929D01*
X-367437D01*
X-366604Y362762D01*
X-379936Y346927D02*
Y341929D01*
X-377437D01*
X-376604Y342762D01*
Y346094D01*
X-377437Y346927D01*
X-379936D01*
X-386604Y326095D02*
X-387437Y326927D01*
X-389103D01*
X-389936Y326095D01*
Y322762D01*
X-389103Y321929D01*
X-387437D01*
X-386604Y322762D01*
X-361604Y336094D02*
X-362437Y336928D01*
X-364103D01*
X-364936Y336094D01*
Y332762D01*
X-364103Y331929D01*
X-362437D01*
X-361604Y332762D01*
X-399936Y346927D02*
Y341929D01*
X-397437D01*
X-396604Y342762D01*
Y343595D01*
X-397437Y344428D01*
X-399936D01*
X-397437D01*
X-396604Y345261D01*
Y346094D01*
X-397437Y346927D01*
X-399936D01*
X-378101Y361929D02*
Y365261D01*
X-376435Y366928D01*
X-374768Y365261D01*
Y361929D01*
Y364428D01*
X-378101D01*
X-385936Y361929D02*
Y365261D01*
X-384270Y366928D01*
X-382604Y365261D01*
Y361929D01*
Y364428D01*
X-385936D01*
X-460934Y361929D02*
Y365261D01*
X-459268Y366928D01*
X-457602Y365261D01*
Y361929D01*
Y364428D01*
X-460934D01*
X-453099Y361929D02*
Y365261D01*
X-451433Y366928D01*
X-449767Y365261D01*
Y361929D01*
Y364428D01*
X-453099D01*
X-474934Y346927D02*
Y341929D01*
X-472435D01*
X-471602Y342762D01*
Y343595D01*
X-472435Y344428D01*
X-474934D01*
X-472435D01*
X-471602Y345261D01*
Y346094D01*
X-472435Y346927D01*
X-474934D01*
X-436602Y336094D02*
X-437435Y336928D01*
X-439101D01*
X-439934Y336094D01*
Y332762D01*
X-439101Y331929D01*
X-437435D01*
X-436602Y332762D01*
X-461602Y326095D02*
X-462435Y326927D01*
X-464101D01*
X-464934Y326095D01*
Y322762D01*
X-464101Y321929D01*
X-462435D01*
X-461602Y322762D01*
X-454934Y346927D02*
Y341929D01*
X-452435D01*
X-451602Y342762D01*
Y346094D01*
X-452435Y346927D01*
X-454934D01*
X-441602Y366094D02*
X-442435Y366928D01*
X-444101D01*
X-444934Y366094D01*
Y362762D01*
X-444101Y361929D01*
X-442435D01*
X-441602Y362762D01*
X-466602Y356095D02*
X-467435Y356927D01*
X-469101D01*
X-469934Y356095D01*
Y352762D01*
X-469101Y351929D01*
X-467435D01*
X-466602Y352762D01*
X-434934Y346927D02*
Y341929D01*
X-432435D01*
X-431602Y342762D01*
Y343595D01*
X-432435Y344428D01*
X-434934D01*
X-432435D01*
X-431602Y345261D01*
Y346094D01*
X-432435Y346927D01*
X-434934D01*
X-456828Y321929D02*
Y325261D01*
X-455162Y326927D01*
X-453496Y325261D01*
Y321929D01*
Y324428D01*
X-456828D01*
X-448934Y321929D02*
Y325261D01*
X-447268Y326927D01*
X-445602Y325261D01*
Y321929D01*
Y324428D01*
X-448934D01*
X-523933Y321929D02*
Y325261D01*
X-522267Y326927D01*
X-520601Y325261D01*
Y321929D01*
Y324428D01*
X-523933D01*
X-531826Y321929D02*
Y325261D01*
X-530160Y326927D01*
X-528494Y325261D01*
Y321929D01*
Y324428D01*
X-531826D01*
X-509933Y346927D02*
Y341929D01*
X-507434D01*
X-506601Y342762D01*
Y343595D01*
X-507434Y344428D01*
X-509933D01*
X-507434D01*
X-506601Y345261D01*
Y346094D01*
X-507434Y346927D01*
X-509933D01*
X-541601Y356095D02*
X-542434Y356927D01*
X-544100D01*
X-544933Y356095D01*
Y352762D01*
X-544100Y351929D01*
X-542434D01*
X-541601Y352762D01*
X-516601Y366094D02*
X-517434Y366928D01*
X-519100D01*
X-519933Y366094D01*
Y362762D01*
X-519100Y361929D01*
X-517434D01*
X-516601Y362762D01*
X-529933Y346927D02*
Y341929D01*
X-527434D01*
X-526601Y342762D01*
Y346094D01*
X-527434Y346927D01*
X-529933D01*
X-536600Y326095D02*
X-537434Y326927D01*
X-539100D01*
X-539933Y326095D01*
Y322762D01*
X-539100Y321929D01*
X-537434D01*
X-536600Y322762D01*
X-511600Y336094D02*
X-512434Y336928D01*
X-514100D01*
X-514933Y336094D01*
Y332762D01*
X-514100Y331929D01*
X-512434D01*
X-511600Y332762D01*
X-549933Y346927D02*
Y341929D01*
X-547434D01*
X-546600Y342762D01*
Y343595D01*
X-547434Y344428D01*
X-549933D01*
X-547434D01*
X-546600Y345261D01*
Y346094D01*
X-547434Y346927D01*
X-549933D01*
X-528097Y361929D02*
Y365261D01*
X-526431Y366928D01*
X-524765Y365261D01*
Y361929D01*
Y364428D01*
X-528097D01*
X-535933Y361929D02*
Y365261D01*
X-534267Y366928D01*
X-532600Y365261D01*
Y361929D01*
Y364428D01*
X-535933D01*
X-610931Y361929D02*
Y365261D01*
X-609265Y366928D01*
X-607599Y365261D01*
Y361929D01*
Y364428D01*
X-610931D01*
X-603096Y361929D02*
Y365261D01*
X-601430Y366928D01*
X-599763Y365261D01*
Y361929D01*
Y364428D01*
X-603096D01*
X-624931Y346927D02*
Y341929D01*
X-622432D01*
X-621599Y342762D01*
Y343595D01*
X-622432Y344428D01*
X-624931D01*
X-622432D01*
X-621599Y345261D01*
Y346094D01*
X-622432Y346927D01*
X-624931D01*
X-586599Y336094D02*
X-587432Y336928D01*
X-589098D01*
X-589931Y336094D01*
Y332762D01*
X-589098Y331929D01*
X-587432D01*
X-586599Y332762D01*
X-611599Y326095D02*
X-612432Y326927D01*
X-614098D01*
X-614931Y326095D01*
Y322762D01*
X-614098Y321929D01*
X-612432D01*
X-611599Y322762D01*
X-604931Y346927D02*
Y341929D01*
X-602432D01*
X-601599Y342762D01*
Y346094D01*
X-602432Y346927D01*
X-604931D01*
X-591599Y366094D02*
X-592432Y366928D01*
X-594098D01*
X-594931Y366094D01*
Y362762D01*
X-594098Y361929D01*
X-592432D01*
X-591599Y362762D01*
X-616599Y356095D02*
X-617432Y356927D01*
X-619098D01*
X-619931Y356095D01*
Y352762D01*
X-619098Y351929D01*
X-617432D01*
X-616599Y352762D01*
X-584931Y346927D02*
Y341929D01*
X-582432D01*
X-581599Y342762D01*
Y343595D01*
X-582432Y344428D01*
X-584931D01*
X-582432D01*
X-581599Y345261D01*
Y346094D01*
X-582432Y346927D01*
X-584931D01*
X-606825Y321929D02*
Y325261D01*
X-605159Y326927D01*
X-603493Y325261D01*
Y321929D01*
Y324428D01*
X-606825D01*
X-598931Y321929D02*
Y325261D01*
X-597265Y326927D01*
X-595599Y325261D01*
Y321929D01*
Y324428D01*
X-598931D01*
X-673930Y321929D02*
Y325261D01*
X-672263Y326927D01*
X-670597Y325261D01*
Y321929D01*
Y324428D01*
X-673930D01*
X-681823Y321929D02*
Y325261D01*
X-680157Y326927D01*
X-678491Y325261D01*
Y321929D01*
Y324428D01*
X-681823D01*
X-659930Y346927D02*
Y341929D01*
X-657430D01*
X-656597Y342762D01*
Y343595D01*
X-657430Y344428D01*
X-659930D01*
X-657430D01*
X-656597Y345261D01*
Y346094D01*
X-657430Y346927D01*
X-659930D01*
X-691597Y356095D02*
X-692430Y356927D01*
X-694096D01*
X-694930Y356095D01*
Y352762D01*
X-694096Y351929D01*
X-692430D01*
X-691597Y352762D01*
X-666597Y366094D02*
X-667430Y366928D01*
X-669096D01*
X-669930Y366094D01*
Y362762D01*
X-669096Y361929D01*
X-667430D01*
X-666597Y362762D01*
X-679929Y346927D02*
Y341929D01*
X-677430D01*
X-676597Y342762D01*
Y346094D01*
X-677430Y346927D01*
X-679929D01*
X-686597Y326095D02*
X-687430Y326927D01*
X-689096D01*
X-689929Y326095D01*
Y322762D01*
X-689096Y321929D01*
X-687430D01*
X-686597Y322762D01*
X-661597Y336094D02*
X-662430Y336928D01*
X-664096D01*
X-664929Y336094D01*
Y332762D01*
X-664096Y331929D01*
X-662430D01*
X-661597Y332762D01*
X-699930Y346927D02*
Y341929D01*
X-697430D01*
X-696597Y342762D01*
Y343595D01*
X-697430Y344428D01*
X-699930D01*
X-697430D01*
X-696597Y345261D01*
Y346094D01*
X-697430Y346927D01*
X-699930D01*
X-678094Y361929D02*
Y365261D01*
X-676428Y366928D01*
X-674762Y365261D01*
Y361929D01*
Y364428D01*
X-678094D01*
X-685929Y361929D02*
Y365261D01*
X-684263Y366928D01*
X-682597Y365261D01*
Y361929D01*
Y364428D01*
X-685929D01*
X-760928Y361929D02*
Y365261D01*
X-759262Y366928D01*
X-757596Y365261D01*
Y361929D01*
Y364428D01*
X-760928D01*
X-753092Y361929D02*
Y365261D01*
X-751426Y366928D01*
X-749760Y365261D01*
Y361929D01*
Y364428D01*
X-753092D01*
X-774928Y346927D02*
Y341929D01*
X-772429D01*
X-771596Y342762D01*
Y343595D01*
X-772429Y344428D01*
X-774928D01*
X-772429D01*
X-771596Y345261D01*
Y346094D01*
X-772429Y346927D01*
X-774928D01*
X-736596Y336094D02*
X-737429Y336928D01*
X-739095D01*
X-739928Y336094D01*
Y332762D01*
X-739095Y331929D01*
X-737429D01*
X-736596Y332762D01*
X-761596Y326095D02*
X-762429Y326927D01*
X-764095D01*
X-764928Y326095D01*
Y322762D01*
X-764095Y321929D01*
X-762429D01*
X-761596Y322762D01*
X-754928Y346927D02*
Y341929D01*
X-752429D01*
X-751596Y342762D01*
Y346094D01*
X-752429Y346927D01*
X-754928D01*
X-741596Y366094D02*
X-742429Y366928D01*
X-744095D01*
X-744928Y366094D01*
Y362762D01*
X-744095Y361929D01*
X-742429D01*
X-741596Y362762D01*
X-766596Y356095D02*
X-767429Y356927D01*
X-769095D01*
X-769928Y356095D01*
Y352762D01*
X-769095Y351929D01*
X-767429D01*
X-766596Y352762D01*
X-734928Y346927D02*
Y341929D01*
X-732429D01*
X-731596Y342762D01*
Y343595D01*
X-732429Y344428D01*
X-734928D01*
X-732429D01*
X-731596Y345261D01*
Y346094D01*
X-732429Y346927D01*
X-734928D01*
X-756821Y321929D02*
Y325261D01*
X-755155Y326927D01*
X-753489Y325261D01*
Y321929D01*
Y324428D01*
X-756821D01*
X-748928Y321929D02*
Y325261D01*
X-747262Y326927D01*
X-745596Y325261D01*
Y321929D01*
Y324428D01*
X-748928D01*
X-823926Y321929D02*
Y325261D01*
X-822260Y326927D01*
X-820594Y325261D01*
Y321929D01*
Y324428D01*
X-823926D01*
X-831820Y321929D02*
Y325261D01*
X-830154Y326927D01*
X-828488Y325261D01*
Y321929D01*
Y324428D01*
X-831820D01*
X-809926Y346927D02*
Y341929D01*
X-807427D01*
X-806594Y342762D01*
Y343595D01*
X-807427Y344428D01*
X-809926D01*
X-807427D01*
X-806594Y345261D01*
Y346094D01*
X-807427Y346927D01*
X-809926D01*
X-841594Y356095D02*
X-842427Y356927D01*
X-844093D01*
X-844926Y356095D01*
Y352762D01*
X-844093Y351929D01*
X-842427D01*
X-841594Y352762D01*
X-816594Y366094D02*
X-817427Y366928D01*
X-819093D01*
X-819926Y366094D01*
Y362762D01*
X-819093Y361929D01*
X-817427D01*
X-816594Y362762D01*
X-829926Y346927D02*
Y341929D01*
X-827427D01*
X-826594Y342762D01*
Y346094D01*
X-827427Y346927D01*
X-829926D01*
X-836594Y326095D02*
X-837427Y326927D01*
X-839093D01*
X-839926Y326095D01*
Y322762D01*
X-839093Y321929D01*
X-837427D01*
X-836594Y322762D01*
X-811594Y336094D02*
X-812427Y336928D01*
X-814093D01*
X-814926Y336094D01*
Y332762D01*
X-814093Y331929D01*
X-812427D01*
X-811594Y332762D01*
X-849926Y346927D02*
Y341929D01*
X-847427D01*
X-846594Y342762D01*
Y343595D01*
X-847427Y344428D01*
X-849926D01*
X-847427D01*
X-846594Y345261D01*
Y346094D01*
X-847427Y346927D01*
X-849926D01*
X-828091Y361929D02*
Y365261D01*
X-826425Y366928D01*
X-824759Y365261D01*
Y361929D01*
Y364428D01*
X-828091D01*
X-835926Y361929D02*
Y365261D01*
X-834260Y366928D01*
X-832594Y365261D01*
Y361929D01*
Y364428D01*
X-835926D01*
X-910925Y361929D02*
Y365261D01*
X-909258Y366928D01*
X-907592Y365261D01*
Y361929D01*
Y364428D01*
X-910925D01*
X-903089Y361929D02*
Y365261D01*
X-901423Y366928D01*
X-899757Y365261D01*
Y361929D01*
Y364428D01*
X-903089D01*
X-924925Y346927D02*
Y341929D01*
X-922425D01*
X-921592Y342762D01*
Y343595D01*
X-922425Y344428D01*
X-924925D01*
X-922425D01*
X-921592Y345261D01*
Y346094D01*
X-922425Y346927D01*
X-924925D01*
X-886592Y336094D02*
X-887425Y336928D01*
X-889091D01*
X-889925Y336094D01*
Y332762D01*
X-889091Y331929D01*
X-887425D01*
X-886592Y332762D01*
X-911592Y326095D02*
X-912425Y326927D01*
X-914091D01*
X-914925Y326095D01*
Y322762D01*
X-914091Y321929D01*
X-912425D01*
X-911592Y322762D01*
X-904925Y346927D02*
Y341929D01*
X-902425D01*
X-901592Y342762D01*
Y346094D01*
X-902425Y346927D01*
X-904925D01*
X-891592Y366094D02*
X-892425Y366928D01*
X-894092D01*
X-894925Y366094D01*
Y362762D01*
X-894092Y361929D01*
X-892425D01*
X-891592Y362762D01*
X-916592Y356095D02*
X-917425Y356927D01*
X-919092D01*
X-919925Y356095D01*
Y352762D01*
X-919092Y351929D01*
X-917425D01*
X-916592Y352762D01*
X-884925Y346927D02*
Y341929D01*
X-882425D01*
X-881592Y342762D01*
Y343595D01*
X-882425Y344428D01*
X-884925D01*
X-882425D01*
X-881592Y345261D01*
Y346094D01*
X-882425Y346927D01*
X-884925D01*
X-906818Y321929D02*
Y325261D01*
X-905152Y326927D01*
X-903486Y325261D01*
Y321929D01*
Y324428D01*
X-906818D01*
X-898925Y321929D02*
Y325261D01*
X-897258Y326927D01*
X-895592Y325261D01*
Y321929D01*
Y324428D01*
X-898925D01*
X-973923Y321929D02*
Y325261D01*
X-972257Y326927D01*
X-970591Y325261D01*
Y321929D01*
Y324428D01*
X-973923D01*
X-981817Y321929D02*
Y325261D01*
X-980151Y326927D01*
X-978484Y325261D01*
Y321929D01*
Y324428D01*
X-981817D01*
X-959923Y346927D02*
Y341929D01*
X-957424D01*
X-956591Y342762D01*
Y343595D01*
X-957424Y344428D01*
X-959923D01*
X-957424D01*
X-956591Y345261D01*
Y346094D01*
X-957424Y346927D01*
X-959923D01*
X-991591Y356095D02*
X-992424Y356927D01*
X-994090D01*
X-994923Y356095D01*
Y352762D01*
X-994090Y351929D01*
X-992424D01*
X-991591Y352762D01*
X-966591Y366094D02*
X-967424Y366928D01*
X-969090D01*
X-969923Y366094D01*
Y362762D01*
X-969090Y361929D01*
X-967424D01*
X-966591Y362762D01*
X-979923Y346927D02*
Y341929D01*
X-977424D01*
X-976591Y342762D01*
Y346094D01*
X-977424Y346927D01*
X-979923D01*
X-986591Y326095D02*
X-987424Y326927D01*
X-989090D01*
X-989923Y326095D01*
Y322762D01*
X-989090Y321929D01*
X-987424D01*
X-986591Y322762D01*
X-961591Y336094D02*
X-962424Y336928D01*
X-964090D01*
X-964923Y336094D01*
Y332762D01*
X-964090Y331929D01*
X-962424D01*
X-961591Y332762D01*
X-999923Y346927D02*
Y341929D01*
X-997424D01*
X-996591Y342762D01*
Y343595D01*
X-997424Y344428D01*
X-999923D01*
X-997424D01*
X-996591Y345261D01*
Y346094D01*
X-997424Y346927D01*
X-999923D01*
X-978088Y361929D02*
Y365261D01*
X-976422Y366928D01*
X-974755Y365261D01*
Y361929D01*
Y364428D01*
X-978088D01*
X-985923Y361929D02*
Y365261D01*
X-984257Y366928D01*
X-982591Y365261D01*
Y361929D01*
Y364428D01*
X-985923D01*
X-1060921Y361929D02*
Y365261D01*
X-1059255Y366928D01*
X-1057589Y365261D01*
Y361929D01*
Y364428D01*
X-1060921D01*
X-1053086Y361929D02*
Y365261D01*
X-1051420Y366928D01*
X-1049754Y365261D01*
Y361929D01*
Y364428D01*
X-1053086D01*
X-1074921Y346927D02*
Y341929D01*
X-1072422D01*
X-1071589Y342762D01*
Y343595D01*
X-1072422Y344428D01*
X-1074921D01*
X-1072422D01*
X-1071589Y345261D01*
Y346094D01*
X-1072422Y346927D01*
X-1074921D01*
X-1036589Y336094D02*
X-1037422Y336928D01*
X-1039088D01*
X-1039921Y336094D01*
Y332762D01*
X-1039088Y331929D01*
X-1037422D01*
X-1036589Y332762D01*
X-1061589Y326095D02*
X-1062422Y326927D01*
X-1064088D01*
X-1064921Y326095D01*
Y322762D01*
X-1064088Y321929D01*
X-1062422D01*
X-1061589Y322762D01*
X-1054921Y346927D02*
Y341929D01*
X-1052422D01*
X-1051589Y342762D01*
Y346094D01*
X-1052422Y346927D01*
X-1054921D01*
X-1041589Y366094D02*
X-1042422Y366928D01*
X-1044088D01*
X-1044921Y366094D01*
Y362762D01*
X-1044088Y361929D01*
X-1042422D01*
X-1041589Y362762D01*
X-1066589Y356095D02*
X-1067422Y356927D01*
X-1069088D01*
X-1069921Y356095D01*
Y352762D01*
X-1069088Y351929D01*
X-1067422D01*
X-1066589Y352762D01*
X-1034921Y346927D02*
Y341929D01*
X-1032422D01*
X-1031589Y342762D01*
Y343595D01*
X-1032422Y344428D01*
X-1034921D01*
X-1032422D01*
X-1031589Y345261D01*
Y346094D01*
X-1032422Y346927D01*
X-1034921D01*
X-1056815Y321929D02*
Y325261D01*
X-1055149Y326927D01*
X-1053483Y325261D01*
Y321929D01*
Y324428D01*
X-1056815D01*
X-1048921Y321929D02*
Y325261D01*
X-1047255Y326927D01*
X-1045589Y325261D01*
Y321929D01*
Y324428D01*
X-1048921D01*
X-261520Y396929D02*
Y400261D01*
X-259854Y401928D01*
X-258188Y400261D01*
Y396929D01*
Y399428D01*
X-261520D01*
X-269414Y396929D02*
Y400261D01*
X-267747Y401928D01*
X-266081Y400261D01*
Y396929D01*
Y399428D01*
X-269414D01*
X-247520Y421927D02*
Y416929D01*
X-245021D01*
X-244188Y417762D01*
Y418595D01*
X-245021Y419428D01*
X-247520D01*
X-245021D01*
X-244188Y420261D01*
Y421094D01*
X-245021Y421927D01*
X-247520D01*
X-279188Y431094D02*
X-280021Y431927D01*
X-281687D01*
X-282520Y431094D01*
Y427762D01*
X-281687Y426929D01*
X-280021D01*
X-279188Y427762D01*
X-254188Y441094D02*
X-255021Y441927D01*
X-256687D01*
X-257520Y441094D01*
Y437762D01*
X-256687Y436929D01*
X-255021D01*
X-254188Y437762D01*
X-267520Y421927D02*
Y416929D01*
X-265021D01*
X-264188Y417762D01*
Y421094D01*
X-265021Y421927D01*
X-267520D01*
X-274188Y401094D02*
X-275021Y401928D01*
X-276687D01*
X-277520Y401094D01*
Y397762D01*
X-276687Y396929D01*
X-275021D01*
X-274188Y397762D01*
X-249188Y411094D02*
X-250021Y411928D01*
X-251687D01*
X-252520Y411094D01*
Y407762D01*
X-251687Y406929D01*
X-250021D01*
X-249188Y407762D01*
X-287520Y421927D02*
Y416929D01*
X-285021D01*
X-284188Y417762D01*
Y418595D01*
X-285021Y419428D01*
X-287520D01*
X-285021D01*
X-284188Y420261D01*
Y421094D01*
X-285021Y421927D01*
X-287520D01*
X-265685Y436929D02*
Y440261D01*
X-264018Y441927D01*
X-262352Y440261D01*
Y436929D01*
Y439428D01*
X-265685D01*
X-273520Y436929D02*
Y440261D01*
X-271854Y441927D01*
X-270188Y440261D01*
Y436929D01*
Y439428D01*
X-273520D01*
X-348503Y436929D02*
Y440261D01*
X-346837Y441927D01*
X-345171Y440261D01*
Y436929D01*
Y439428D01*
X-348503D01*
X-340668Y436929D02*
Y440261D01*
X-339002Y441927D01*
X-337336Y440261D01*
Y436929D01*
Y439428D01*
X-340668D01*
X-362504Y421927D02*
Y416929D01*
X-360004D01*
X-359171Y417762D01*
Y418595D01*
X-360004Y419428D01*
X-362504D01*
X-360004D01*
X-359171Y420261D01*
Y421094D01*
X-360004Y421927D01*
X-362504D01*
X-324171Y411094D02*
X-325004Y411928D01*
X-326670D01*
X-327503Y411094D01*
Y407762D01*
X-326670Y406929D01*
X-325004D01*
X-324171Y407762D01*
X-349171Y401094D02*
X-350004Y401928D01*
X-351670D01*
X-352503Y401094D01*
Y397762D01*
X-351670Y396929D01*
X-350004D01*
X-349171Y397762D01*
X-342503Y421927D02*
Y416929D01*
X-340004D01*
X-339171Y417762D01*
Y421094D01*
X-340004Y421927D01*
X-342503D01*
X-329171Y441094D02*
X-330004Y441927D01*
X-331670D01*
X-332504Y441094D01*
Y437762D01*
X-331670Y436929D01*
X-330004D01*
X-329171Y437762D01*
X-354171Y431094D02*
X-355004Y431927D01*
X-356670D01*
X-357504Y431094D01*
Y427762D01*
X-356670Y426929D01*
X-355004D01*
X-354171Y427762D01*
X-322503Y421927D02*
Y416929D01*
X-320004D01*
X-319171Y417762D01*
Y418595D01*
X-320004Y419428D01*
X-322503D01*
X-320004D01*
X-319171Y420261D01*
Y421094D01*
X-320004Y421927D01*
X-322503D01*
X-344397Y396929D02*
Y400261D01*
X-342731Y401928D01*
X-341065Y400261D01*
Y396929D01*
Y399428D01*
X-344397D01*
X-336504Y396929D02*
Y400261D01*
X-334837Y401928D01*
X-333171Y400261D01*
Y396929D01*
Y399428D01*
X-336504D01*
X-411487Y396929D02*
Y400261D01*
X-409821Y401928D01*
X-408155Y400261D01*
Y396929D01*
Y399428D01*
X-411487D01*
X-419381Y396929D02*
Y400261D01*
X-417715Y401928D01*
X-416048Y400261D01*
Y396929D01*
Y399428D01*
X-419381D01*
X-397487Y421927D02*
Y416929D01*
X-394988D01*
X-394155Y417762D01*
Y418595D01*
X-394988Y419428D01*
X-397487D01*
X-394988D01*
X-394155Y420261D01*
Y421094D01*
X-394988Y421927D01*
X-397487D01*
X-429155Y431094D02*
X-429988Y431927D01*
X-431654D01*
X-432487Y431094D01*
Y427762D01*
X-431654Y426929D01*
X-429988D01*
X-429155Y427762D01*
X-404155Y441094D02*
X-404988Y441927D01*
X-406654D01*
X-407487Y441094D01*
Y437762D01*
X-406654Y436929D01*
X-404988D01*
X-404155Y437762D01*
X-417487Y421927D02*
Y416929D01*
X-414988D01*
X-414155Y417762D01*
Y421094D01*
X-414988Y421927D01*
X-417487D01*
X-424155Y401094D02*
X-424988Y401928D01*
X-426654D01*
X-427487Y401094D01*
Y397762D01*
X-426654Y396929D01*
X-424988D01*
X-424155Y397762D01*
X-399155Y411094D02*
X-399988Y411928D01*
X-401654D01*
X-402487Y411094D01*
Y407762D01*
X-401654Y406929D01*
X-399988D01*
X-399155Y407762D01*
X-437487Y421927D02*
Y416929D01*
X-434988D01*
X-434155Y417762D01*
Y418595D01*
X-434988Y419428D01*
X-437487D01*
X-434988D01*
X-434155Y420261D01*
Y421094D01*
X-434988Y421927D01*
X-437487D01*
X-415652Y436929D02*
Y440261D01*
X-413986Y441927D01*
X-412320Y440261D01*
Y436929D01*
Y439428D01*
X-415652D01*
X-423487Y436929D02*
Y440261D01*
X-421821Y441927D01*
X-420155Y440261D01*
Y436929D01*
Y439428D01*
X-423487D01*
X-498471Y436929D02*
Y440261D01*
X-496805Y441927D01*
X-495138Y440261D01*
Y436929D01*
Y439428D01*
X-498471D01*
X-490635Y436929D02*
Y440261D01*
X-488969Y441927D01*
X-487303Y440261D01*
Y436929D01*
Y439428D01*
X-490635D01*
X-512471Y421927D02*
Y416929D01*
X-509971D01*
X-509138Y417762D01*
Y418595D01*
X-509971Y419428D01*
X-512471D01*
X-509971D01*
X-509138Y420261D01*
Y421094D01*
X-509971Y421927D01*
X-512471D01*
X-474138Y411094D02*
X-474971Y411928D01*
X-476638D01*
X-477471Y411094D01*
Y407762D01*
X-476638Y406929D01*
X-474971D01*
X-474138Y407762D01*
X-499138Y401094D02*
X-499971Y401928D01*
X-501638D01*
X-502471Y401094D01*
Y397762D01*
X-501638Y396929D01*
X-499971D01*
X-499138Y397762D01*
X-492471Y421927D02*
Y416929D01*
X-489971D01*
X-489138Y417762D01*
Y421094D01*
X-489971Y421927D01*
X-492471D01*
X-479138Y441094D02*
X-479971Y441927D01*
X-481638D01*
X-482471Y441094D01*
Y437762D01*
X-481638Y436929D01*
X-479971D01*
X-479138Y437762D01*
X-504138Y431094D02*
X-504971Y431927D01*
X-506638D01*
X-507471Y431094D01*
Y427762D01*
X-506638Y426929D01*
X-504971D01*
X-504138Y427762D01*
X-472471Y421927D02*
Y416929D01*
X-469971D01*
X-469138Y417762D01*
Y418595D01*
X-469971Y419428D01*
X-472471D01*
X-469971D01*
X-469138Y420261D01*
Y421094D01*
X-469971Y421927D01*
X-472471D01*
X-494364Y396929D02*
Y400261D01*
X-492698Y401928D01*
X-491032Y400261D01*
Y396929D01*
Y399428D01*
X-494364D01*
X-486471Y396929D02*
Y400261D01*
X-484804Y401928D01*
X-483138Y400261D01*
Y396929D01*
Y399428D01*
X-486471D01*
X-561454Y396929D02*
Y400261D01*
X-559788Y401928D01*
X-558122Y400261D01*
Y396929D01*
Y399428D01*
X-561454D01*
X-569348Y396929D02*
Y400261D01*
X-567682Y401928D01*
X-566016Y400261D01*
Y396929D01*
Y399428D01*
X-569348D01*
X-547454Y421927D02*
Y416929D01*
X-544955D01*
X-544122Y417762D01*
Y418595D01*
X-544955Y419428D01*
X-547454D01*
X-544955D01*
X-544122Y420261D01*
Y421094D01*
X-544955Y421927D01*
X-547454D01*
X-579122Y431094D02*
X-579955Y431927D01*
X-581621D01*
X-582454Y431094D01*
Y427762D01*
X-581621Y426929D01*
X-579955D01*
X-579122Y427762D01*
X-554122Y441094D02*
X-554955Y441927D01*
X-556621D01*
X-557454Y441094D01*
Y437762D01*
X-556621Y436929D01*
X-554955D01*
X-554122Y437762D01*
X-567454Y421927D02*
Y416929D01*
X-564955D01*
X-564122Y417762D01*
Y421094D01*
X-564955Y421927D01*
X-567454D01*
X-574122Y401094D02*
X-574955Y401928D01*
X-576621D01*
X-577454Y401094D01*
Y397762D01*
X-576621Y396929D01*
X-574955D01*
X-574122Y397762D01*
X-549122Y411094D02*
X-549955Y411928D01*
X-551621D01*
X-552454Y411094D01*
Y407762D01*
X-551621Y406929D01*
X-549955D01*
X-549122Y407762D01*
X-587454Y421927D02*
Y416929D01*
X-584955D01*
X-584122Y417762D01*
Y418595D01*
X-584955Y419428D01*
X-587454D01*
X-584955D01*
X-584122Y420261D01*
Y421094D01*
X-584955Y421927D01*
X-587454D01*
X-565619Y436929D02*
Y440261D01*
X-563953Y441927D01*
X-562287Y440261D01*
Y436929D01*
Y439428D01*
X-565619D01*
X-573454Y436929D02*
Y440261D01*
X-571788Y441927D01*
X-570122Y440261D01*
Y436929D01*
Y439428D01*
X-573454D01*
X-648438Y436929D02*
Y440261D01*
X-646772Y441927D01*
X-645106Y440261D01*
Y436929D01*
Y439428D01*
X-648438D01*
X-640602Y436929D02*
Y440261D01*
X-638936Y441927D01*
X-637270Y440261D01*
Y436929D01*
Y439428D01*
X-640602D01*
X-662438Y421927D02*
Y416929D01*
X-659939D01*
X-659105Y417762D01*
Y418595D01*
X-659939Y419428D01*
X-662438D01*
X-659939D01*
X-659105Y420261D01*
Y421094D01*
X-659939Y421927D01*
X-662438D01*
X-624106Y411094D02*
X-624939Y411928D01*
X-626605D01*
X-627438Y411094D01*
Y407762D01*
X-626605Y406929D01*
X-624939D01*
X-624106Y407762D01*
X-649106Y401094D02*
X-649939Y401928D01*
X-651605D01*
X-652438Y401094D01*
Y397762D01*
X-651605Y396929D01*
X-649939D01*
X-649106Y397762D01*
X-642438Y421927D02*
Y416929D01*
X-639939D01*
X-639106Y417762D01*
Y421094D01*
X-639939Y421927D01*
X-642438D01*
X-629106Y441094D02*
X-629939Y441927D01*
X-631605D01*
X-632438Y441094D01*
Y437762D01*
X-631605Y436929D01*
X-629939D01*
X-629106Y437762D01*
X-654106Y431094D02*
X-654939Y431927D01*
X-656605D01*
X-657438Y431094D01*
Y427762D01*
X-656605Y426929D01*
X-654939D01*
X-654106Y427762D01*
X-622438Y421927D02*
Y416929D01*
X-619939D01*
X-619105Y417762D01*
Y418595D01*
X-619939Y419428D01*
X-622438D01*
X-619939D01*
X-619105Y420261D01*
Y421094D01*
X-619939Y421927D01*
X-622438D01*
X-644332Y396929D02*
Y400261D01*
X-642665Y401928D01*
X-640999Y400261D01*
Y396929D01*
Y399428D01*
X-644332D01*
X-636438Y396929D02*
Y400261D01*
X-634772Y401928D01*
X-633106Y400261D01*
Y396929D01*
Y399428D01*
X-636438D01*
X-711421Y396929D02*
Y400261D01*
X-709755Y401928D01*
X-708089Y400261D01*
Y396929D01*
Y399428D01*
X-711421D01*
X-719315Y396929D02*
Y400261D01*
X-717649Y401928D01*
X-715983Y400261D01*
Y396929D01*
Y399428D01*
X-719315D01*
X-697421Y421927D02*
Y416929D01*
X-694922D01*
X-694089Y417762D01*
Y418595D01*
X-694922Y419428D01*
X-697421D01*
X-694922D01*
X-694089Y420261D01*
Y421094D01*
X-694922Y421927D01*
X-697421D01*
X-729089Y431094D02*
X-729922Y431927D01*
X-731588D01*
X-732421Y431094D01*
Y427762D01*
X-731588Y426929D01*
X-729922D01*
X-729089Y427762D01*
X-704089Y441094D02*
X-704922Y441927D01*
X-706588D01*
X-707421Y441094D01*
Y437762D01*
X-706588Y436929D01*
X-704922D01*
X-704089Y437762D01*
X-717421Y421927D02*
Y416929D01*
X-714922D01*
X-714089Y417762D01*
Y421094D01*
X-714922Y421927D01*
X-717421D01*
X-724089Y401094D02*
X-724922Y401928D01*
X-726588D01*
X-727421Y401094D01*
Y397762D01*
X-726588Y396929D01*
X-724922D01*
X-724089Y397762D01*
X-699089Y411094D02*
X-699922Y411928D01*
X-701588D01*
X-702421Y411094D01*
Y407762D01*
X-701588Y406929D01*
X-699922D01*
X-699089Y407762D01*
X-737421Y421927D02*
Y416929D01*
X-734922D01*
X-734089Y417762D01*
Y418595D01*
X-734922Y419428D01*
X-737421D01*
X-734922D01*
X-734089Y420261D01*
Y421094D01*
X-734922Y421927D01*
X-737421D01*
X-715586Y436929D02*
Y440261D01*
X-713920Y441927D01*
X-712254Y440261D01*
Y436929D01*
Y439428D01*
X-715586D01*
X-723421Y436929D02*
Y440261D01*
X-721755Y441927D01*
X-720089Y440261D01*
Y436929D01*
Y439428D01*
X-723421D01*
X-798405Y436929D02*
Y440261D01*
X-796739Y441927D01*
X-795073Y440261D01*
Y436929D01*
Y439428D01*
X-798405D01*
X-790570Y436929D02*
Y440261D01*
X-788904Y441927D01*
X-787237Y440261D01*
Y436929D01*
Y439428D01*
X-790570D01*
X-812405Y421927D02*
Y416929D01*
X-809906D01*
X-809073Y417762D01*
Y418595D01*
X-809906Y419428D01*
X-812405D01*
X-809906D01*
X-809073Y420261D01*
Y421094D01*
X-809906Y421927D01*
X-812405D01*
X-774073Y411094D02*
X-774906Y411928D01*
X-776572D01*
X-777405Y411094D01*
Y407762D01*
X-776572Y406929D01*
X-774906D01*
X-774073Y407762D01*
X-799073Y401094D02*
X-799906Y401928D01*
X-801572D01*
X-802405Y401094D01*
Y397762D01*
X-801572Y396929D01*
X-799906D01*
X-799073Y397762D01*
X-792405Y421927D02*
Y416929D01*
X-789906D01*
X-789073Y417762D01*
Y421094D01*
X-789906Y421927D01*
X-792405D01*
X-779073Y441094D02*
X-779906Y441927D01*
X-781572D01*
X-782405Y441094D01*
Y437762D01*
X-781572Y436929D01*
X-779906D01*
X-779073Y437762D01*
X-804073Y431094D02*
X-804906Y431927D01*
X-806572D01*
X-807405Y431094D01*
Y427762D01*
X-806572Y426929D01*
X-804906D01*
X-804073Y427762D01*
X-772405Y421927D02*
Y416929D01*
X-769906D01*
X-769073Y417762D01*
Y418595D01*
X-769906Y419428D01*
X-772405D01*
X-769906D01*
X-769073Y420261D01*
Y421094D01*
X-769906Y421927D01*
X-772405D01*
X-794299Y396929D02*
Y400261D01*
X-792632Y401928D01*
X-790966Y400261D01*
Y396929D01*
Y399428D01*
X-794299D01*
X-786405Y396929D02*
Y400261D01*
X-784739Y401928D01*
X-783073Y400261D01*
Y396929D01*
Y399428D01*
X-786405D01*
X-861388Y396929D02*
Y400261D01*
X-859722Y401928D01*
X-858056Y400261D01*
Y396929D01*
Y399428D01*
X-861388D01*
X-869282Y396929D02*
Y400261D01*
X-867616Y401928D01*
X-865950Y400261D01*
Y396929D01*
Y399428D01*
X-869282D01*
X-847388Y421927D02*
Y416929D01*
X-844889D01*
X-844056Y417762D01*
Y418595D01*
X-844889Y419428D01*
X-847388D01*
X-844889D01*
X-844056Y420261D01*
Y421094D01*
X-844889Y421927D01*
X-847388D01*
X-879056Y431094D02*
X-879889Y431927D01*
X-881555D01*
X-882388Y431094D01*
Y427762D01*
X-881555Y426929D01*
X-879889D01*
X-879056Y427762D01*
X-854056Y441094D02*
X-854889Y441927D01*
X-856555D01*
X-857388Y441094D01*
Y437762D01*
X-856555Y436929D01*
X-854889D01*
X-854056Y437762D01*
X-867389Y421927D02*
Y416929D01*
X-864889D01*
X-864056Y417762D01*
Y421094D01*
X-864889Y421927D01*
X-867389D01*
X-874056Y401094D02*
X-874889Y401928D01*
X-876556D01*
X-877388Y401094D01*
Y397762D01*
X-876556Y396929D01*
X-874889D01*
X-874056Y397762D01*
X-849056Y411094D02*
X-849889Y411928D01*
X-851556D01*
X-852388Y411094D01*
Y407762D01*
X-851556Y406929D01*
X-849889D01*
X-849056Y407762D01*
X-887389Y421927D02*
Y416929D01*
X-884889D01*
X-884056Y417762D01*
Y418595D01*
X-884889Y419428D01*
X-887389D01*
X-884889D01*
X-884056Y420261D01*
Y421094D01*
X-884889Y421927D01*
X-887389D01*
X-865553Y436929D02*
Y440261D01*
X-863887Y441927D01*
X-862221Y440261D01*
Y436929D01*
Y439428D01*
X-865553D01*
X-873388Y436929D02*
Y440261D01*
X-871722Y441927D01*
X-870056Y440261D01*
Y436929D01*
Y439428D01*
X-873388D01*
X-948372Y436929D02*
Y440261D01*
X-946706Y441927D01*
X-945040Y440261D01*
Y436929D01*
Y439428D01*
X-948372D01*
X-940537Y436929D02*
Y440261D01*
X-938871Y441927D01*
X-937204Y440261D01*
Y436929D01*
Y439428D01*
X-940537D01*
X-962372Y421927D02*
Y416929D01*
X-959873D01*
X-959040Y417762D01*
Y418595D01*
X-959873Y419428D01*
X-962372D01*
X-959873D01*
X-959040Y420261D01*
Y421094D01*
X-959873Y421927D01*
X-962372D01*
X-924040Y411094D02*
X-924873Y411928D01*
X-926539D01*
X-927372Y411094D01*
Y407762D01*
X-926539Y406929D01*
X-924873D01*
X-924040Y407762D01*
X-949040Y401094D02*
X-949873Y401928D01*
X-951539D01*
X-952372Y401094D01*
Y397762D01*
X-951539Y396929D01*
X-949873D01*
X-949040Y397762D01*
X-942372Y421927D02*
Y416929D01*
X-939873D01*
X-939040Y417762D01*
Y421094D01*
X-939873Y421927D01*
X-942372D01*
X-929040Y441094D02*
X-929873Y441927D01*
X-931539D01*
X-932372Y441094D01*
Y437762D01*
X-931539Y436929D01*
X-929873D01*
X-929040Y437762D01*
X-954040Y431094D02*
X-954873Y431927D01*
X-956539D01*
X-957372Y431094D01*
Y427762D01*
X-956539Y426929D01*
X-954873D01*
X-954040Y427762D01*
X-922372Y421927D02*
Y416929D01*
X-919873D01*
X-919040Y417762D01*
Y418595D01*
X-919873Y419428D01*
X-922372D01*
X-919873D01*
X-919040Y420261D01*
Y421094D01*
X-919873Y421927D01*
X-922372D01*
X-944266Y396929D02*
Y400261D01*
X-942600Y401928D01*
X-940934Y400261D01*
Y396929D01*
Y399428D01*
X-944266D01*
X-936372Y396929D02*
Y400261D01*
X-934706Y401928D01*
X-933040Y400261D01*
Y396929D01*
Y399428D01*
X-936372D01*
X-1011356Y396929D02*
Y400261D01*
X-1009690Y401928D01*
X-1008023Y400261D01*
Y396929D01*
Y399428D01*
X-1011356D01*
X-1019249Y396929D02*
Y400261D01*
X-1017583Y401928D01*
X-1015917Y400261D01*
Y396929D01*
Y399428D01*
X-1019249D01*
X-997356Y421927D02*
Y416929D01*
X-994856D01*
X-994023Y417762D01*
Y418595D01*
X-994856Y419428D01*
X-997356D01*
X-994856D01*
X-994023Y420261D01*
Y421094D01*
X-994856Y421927D01*
X-997356D01*
X-1029023Y431094D02*
X-1029856Y431927D01*
X-1031523D01*
X-1032356Y431094D01*
Y427762D01*
X-1031523Y426929D01*
X-1029856D01*
X-1029023Y427762D01*
X-1004023Y441094D02*
X-1004856Y441927D01*
X-1006523D01*
X-1007356Y441094D01*
Y437762D01*
X-1006523Y436929D01*
X-1004856D01*
X-1004023Y437762D01*
X-1017356Y421927D02*
Y416929D01*
X-1014857D01*
X-1014023Y417762D01*
Y421094D01*
X-1014857Y421927D01*
X-1017356D01*
X-1024023Y401094D02*
X-1024856Y401928D01*
X-1026523D01*
X-1027356Y401094D01*
Y397762D01*
X-1026523Y396929D01*
X-1024856D01*
X-1024023Y397762D01*
X-999023Y411094D02*
X-999856Y411928D01*
X-1001523D01*
X-1002356Y411094D01*
Y407762D01*
X-1001523Y406929D01*
X-999856D01*
X-999023Y407762D01*
X-1037356Y421927D02*
Y416929D01*
X-1034857D01*
X-1034023Y417762D01*
Y418595D01*
X-1034857Y419428D01*
X-1037356D01*
X-1034857D01*
X-1034023Y420261D01*
Y421094D01*
X-1034857Y421927D01*
X-1037356D01*
X-1015520Y436929D02*
Y440261D01*
X-1013854Y441927D01*
X-1012188Y440261D01*
Y436929D01*
Y439428D01*
X-1015520D01*
X-1023356Y436929D02*
Y440261D01*
X-1021690Y441927D01*
X-1020023Y440261D01*
Y436929D01*
Y439428D01*
X-1023356D01*
X-1098339Y436929D02*
Y440261D01*
X-1096673Y441927D01*
X-1095007Y440261D01*
Y436929D01*
Y439428D01*
X-1098339D01*
X-1090504Y436929D02*
Y440261D01*
X-1088838Y441927D01*
X-1087172Y440261D01*
Y436929D01*
Y439428D01*
X-1090504D01*
X-1112339Y421927D02*
Y416929D01*
X-1109840D01*
X-1109007Y417762D01*
Y418595D01*
X-1109840Y419428D01*
X-1112339D01*
X-1109840D01*
X-1109007Y420261D01*
Y421094D01*
X-1109840Y421927D01*
X-1112339D01*
X-1074007Y411094D02*
X-1074840Y411928D01*
X-1076506D01*
X-1077339Y411094D01*
Y407762D01*
X-1076506Y406929D01*
X-1074840D01*
X-1074007Y407762D01*
X-1099007Y401094D02*
X-1099840Y401928D01*
X-1101506D01*
X-1102339Y401094D01*
Y397762D01*
X-1101506Y396929D01*
X-1099840D01*
X-1099007Y397762D01*
X-1092339Y421927D02*
Y416929D01*
X-1089840D01*
X-1089007Y417762D01*
Y421094D01*
X-1089840Y421927D01*
X-1092339D01*
X-1079007Y441094D02*
X-1079840Y441927D01*
X-1081506D01*
X-1082339Y441094D01*
Y437762D01*
X-1081506Y436929D01*
X-1079840D01*
X-1079007Y437762D01*
X-1104007Y431094D02*
X-1104840Y431927D01*
X-1106506D01*
X-1107339Y431094D01*
Y427762D01*
X-1106506Y426929D01*
X-1104840D01*
X-1104007Y427762D01*
X-1072339Y421927D02*
Y416929D01*
X-1069840D01*
X-1069007Y417762D01*
Y418595D01*
X-1069840Y419428D01*
X-1072339D01*
X-1069840D01*
X-1069007Y420261D01*
Y421094D01*
X-1069840Y421927D01*
X-1072339D01*
X-1094233Y396929D02*
Y400261D01*
X-1092567Y401928D01*
X-1090901Y400261D01*
Y396929D01*
Y399428D01*
X-1094233D01*
X-1086339Y396929D02*
Y400261D01*
X-1084673Y401928D01*
X-1083007Y400261D01*
Y396929D01*
Y399428D01*
X-1086339D01*
X-18692Y287085D02*
Y282087D01*
Y283753D01*
X-15360Y287085D01*
X-17859Y284586D01*
X-15360Y282087D01*
X-28692Y287085D02*
Y282087D01*
Y283753D01*
X-25360Y287085D01*
X-27859Y284586D01*
X-25360Y282087D01*
X-52413Y287085D02*
Y282087D01*
Y283753D01*
X-49081Y287085D01*
X-51580Y284586D01*
X-49081Y282087D01*
X-42413Y287085D02*
Y282087D01*
Y283753D01*
X-39081Y287085D01*
X-41580Y284586D01*
X-39081Y282087D01*
X-208038Y304428D02*
X-211370D01*
Y301928D01*
X-209704D01*
X-211370D01*
Y299429D01*
X-114038Y304428D02*
X-117370D01*
Y301928D01*
X-115704D01*
X-117370D01*
Y299429D01*
X-208038Y244428D02*
X-211370D01*
Y239429D01*
X-208038D01*
X-211370Y241929D02*
X-209704D01*
X-114038Y244428D02*
X-117370D01*
Y239429D01*
X-114038D01*
X-117370Y241929D02*
X-115704D01*
X-451589Y95426D02*
X-454921D01*
Y90428D01*
X-451589D01*
X-454921Y92927D02*
X-453255D01*
X-451589Y155427D02*
X-454921D01*
Y152927D01*
X-453255D01*
X-454921D01*
Y150428D01*
X-901589Y155427D02*
X-904921D01*
Y152927D01*
X-903255D01*
X-904921D01*
Y150428D01*
X-901589Y95426D02*
X-904921D01*
Y90428D01*
X-901589D01*
X-904921Y92927D02*
X-903255D01*
X-123553Y436929D02*
Y440261D01*
X-121887Y441927D01*
X-120220Y440261D01*
Y436929D01*
Y439428D01*
X-123553D01*
X-115717Y436929D02*
Y440261D01*
X-114051Y441927D01*
X-112385Y440261D01*
Y436929D01*
Y439428D01*
X-115717D01*
X-137553Y421927D02*
Y416929D01*
X-135054D01*
X-134221Y417762D01*
Y418595D01*
X-135054Y419428D01*
X-137553D01*
X-135054D01*
X-134221Y420261D01*
Y421094D01*
X-135054Y421927D01*
X-137553D01*
X-99221Y411094D02*
X-100054Y411928D01*
X-101720D01*
X-102553Y411094D01*
Y407762D01*
X-101720Y406929D01*
X-100054D01*
X-99221Y407762D01*
X-124221Y401094D02*
X-125054Y401928D01*
X-126720D01*
X-127553Y401094D01*
Y397762D01*
X-126720Y396929D01*
X-125054D01*
X-124221Y397762D01*
X-117553Y421927D02*
Y416929D01*
X-115053D01*
X-114220Y417762D01*
Y421094D01*
X-115053Y421927D01*
X-117553D01*
X-104220Y441094D02*
X-105053Y441927D01*
X-106720D01*
X-107553Y441094D01*
Y437762D01*
X-106720Y436929D01*
X-105053D01*
X-104220Y437762D01*
X-129220Y431094D02*
X-130053Y431927D01*
X-131720D01*
X-132553Y431094D01*
Y427762D01*
X-131720Y426929D01*
X-130053D01*
X-129220Y427762D01*
X-97553Y421927D02*
Y416929D01*
X-95053D01*
X-94221Y417762D01*
Y418595D01*
X-95053Y419428D01*
X-97553D01*
X-95053D01*
X-94221Y420261D01*
Y421094D01*
X-95053Y421927D01*
X-97553D01*
X-119446Y396929D02*
Y400261D01*
X-117780Y401928D01*
X-116114Y400261D01*
Y396929D01*
Y399428D01*
X-119446D01*
X-111553Y396929D02*
Y400261D01*
X-109887Y401928D01*
X-108221Y400261D01*
Y396929D01*
Y399428D01*
X-111553D01*
X-198536Y436929D02*
Y440261D01*
X-196870Y441927D01*
X-195204Y440261D01*
Y436929D01*
Y439428D01*
X-198536D01*
X-190701Y436929D02*
Y440261D01*
X-189035Y441927D01*
X-187369Y440261D01*
Y436929D01*
Y439428D01*
X-190701D01*
X-212536Y421927D02*
Y416929D01*
X-210037D01*
X-209204Y417762D01*
Y418595D01*
X-210037Y419428D01*
X-212536D01*
X-210037D01*
X-209204Y420261D01*
Y421094D01*
X-210037Y421927D01*
X-212536D01*
X-174204Y411094D02*
X-175037Y411928D01*
X-176703D01*
X-177536Y411094D01*
Y407762D01*
X-176703Y406929D01*
X-175037D01*
X-174204Y407762D01*
X-199204Y401094D02*
X-200037Y401928D01*
X-201703D01*
X-202536Y401094D01*
Y397762D01*
X-201703Y396929D01*
X-200037D01*
X-199204Y397762D01*
X-192536Y421927D02*
Y416929D01*
X-190037D01*
X-189204Y417762D01*
Y421094D01*
X-190037Y421927D01*
X-192536D01*
X-179204Y441094D02*
X-180037Y441927D01*
X-181703D01*
X-182536Y441094D01*
Y437762D01*
X-181703Y436929D01*
X-180037D01*
X-179204Y437762D01*
X-204204Y431094D02*
X-205037Y431927D01*
X-206703D01*
X-207536Y431094D01*
Y427762D01*
X-206703Y426929D01*
X-205037D01*
X-204204Y427762D01*
X-172536Y421927D02*
Y416929D01*
X-170037D01*
X-169204Y417762D01*
Y418595D01*
X-170037Y419428D01*
X-172536D01*
X-170037D01*
X-169204Y420261D01*
Y421094D01*
X-170037Y421927D01*
X-172536D01*
X-194430Y396929D02*
Y400261D01*
X-192764Y401928D01*
X-191098Y400261D01*
Y396929D01*
Y399428D01*
X-194430D01*
X-186536Y396929D02*
Y400261D01*
X-184870Y401928D01*
X-183204Y400261D01*
Y396929D01*
Y399428D01*
X-186536D01*
X-156815Y373600D02*
Y378598D01*
X-154316D01*
X-153483Y377765D01*
Y376099D01*
X-154316Y375266D01*
X-156815D01*
X-1156600Y377600D02*
Y382598D01*
X-1154101D01*
X-1153268Y381765D01*
Y380099D01*
X-1154101Y379266D01*
X-1156600D01*
X-174606Y377500D02*
Y382498D01*
X-172107D01*
X-171274Y381665D01*
Y379999D01*
X-172107Y379166D01*
X-174606D01*
X-134582Y380500D02*
Y385498D01*
X-132083D01*
X-131250Y384665D01*
Y382999D01*
X-132083Y382166D01*
X-134582D01*
X-217158Y313053D02*
Y316385D01*
X-217991Y317218D01*
X-219657D01*
X-220490Y316385D01*
Y313053D01*
X-219657Y312220D01*
X-217991D01*
X-218824Y313886D02*
X-217158Y312220D01*
X-217991D02*
X-217158Y313053D01*
X-713927Y131351D02*
Y134684D01*
X-714760Y135517D01*
X-716426D01*
X-717259Y134684D01*
Y131351D01*
X-716426Y130518D01*
X-714760D01*
X-715593Y132184D02*
X-713927Y130518D01*
X-714760D02*
X-713927Y131351D01*
X-244779Y314961D02*
Y319959D01*
X-242280D01*
X-241447Y319126D01*
Y317460D01*
X-242280Y316627D01*
X-244779D01*
X36403Y251073D02*
X34737D01*
X35570D01*
Y246908D01*
X34737Y246075D01*
X33904D01*
X33071Y246908D01*
X32368Y159821D02*
X30702D01*
X31535D01*
Y155656D01*
X30702Y154823D01*
X29869D01*
X29035Y155656D01*
X-831299Y216535D02*
Y221534D01*
X-828800D01*
X-827967Y220701D01*
Y219035D01*
X-828800Y218202D01*
X-831299D01*
X5551Y376673D02*
Y381672D01*
X8050D01*
X8883Y380838D01*
Y379172D01*
X8050Y378339D01*
X5551D01*
X36222Y445888D02*
Y450886D01*
X38721D01*
X39555Y450053D01*
Y448387D01*
X38721Y447554D01*
X36222D01*
X-1025605Y377242D02*
X-1027271D01*
X-1026438D01*
Y373077D01*
X-1027271Y372244D01*
X-1028104D01*
X-1028937Y373077D01*
X-1025605Y365530D02*
X-1027271D01*
X-1026438D01*
Y361365D01*
X-1027271Y360531D01*
X-1028104D01*
X-1028937Y361365D01*
X8883Y401967D02*
X7217D01*
X8050D01*
Y397801D01*
X7217Y396968D01*
X6384D01*
X5551Y397801D01*
X15945Y306102D02*
Y311101D01*
X18444D01*
X19277Y310268D01*
Y308601D01*
X18444Y307769D01*
X15945D01*
X-609154Y121260D02*
Y126258D01*
X-606654D01*
X-605821Y125425D01*
Y123759D01*
X-606654Y122926D01*
X-609154D01*
X-613681Y117126D02*
Y122124D01*
X-611182D01*
X-610349Y121291D01*
Y119625D01*
X-611182Y118792D01*
X-613681D01*
X-617224Y125856D02*
Y130854D01*
X-614725D01*
X-613892Y130021D01*
Y128355D01*
X-614725Y127522D01*
X-617224D01*
X-619783Y120276D02*
Y125274D01*
X-617284D01*
X-616451Y124441D01*
Y122775D01*
X-617284Y121942D01*
X-619783D01*
X-622368Y128864D02*
Y133862D01*
X-619869D01*
X-619036Y133029D01*
Y131363D01*
X-619869Y130530D01*
X-622368D01*
X-605000Y148819D02*
Y153817D01*
X-602501D01*
X-601668Y152984D01*
Y151318D01*
X-602501Y150485D01*
X-605000D01*
X-566831Y138878D02*
Y143876D01*
X-564331D01*
X-563498Y143043D01*
Y141377D01*
X-564331Y140544D01*
X-566831D01*
X-16353Y307723D02*
Y311055D01*
X-17186Y311888D01*
X-18852D01*
X-19685Y311055D01*
Y307723D01*
X-18852Y306890D01*
X-17186D01*
X-18019Y308556D02*
X-16353Y306890D01*
X-17186D02*
X-16353Y307723D01*
X252165Y290748D02*
Y295746D01*
X254664D01*
X255498Y294913D01*
Y293247D01*
X254664Y292414D01*
X252165D01*
X225394Y296457D02*
Y301455D01*
X227893D01*
X228726Y300622D01*
Y298956D01*
X227893Y298123D01*
X225394D01*
X184238Y237447D02*
Y240779D01*
X183405Y241613D01*
X181739D01*
X180905Y240779D01*
Y237447D01*
X181739Y236614D01*
X183405D01*
X182572Y238280D02*
X184238Y236614D01*
X183405D02*
X184238Y237447D01*
X183844Y312447D02*
Y315779D01*
X183011Y316613D01*
X181344D01*
X180511Y315779D01*
Y312447D01*
X181344Y311614D01*
X183011D01*
X182178Y313280D02*
X183844Y311614D01*
X183011D02*
X183844Y312447D01*
X234041Y163825D02*
Y167157D01*
X233208Y167991D01*
X231542D01*
X230709Y167157D01*
Y163825D01*
X231542Y162992D01*
X233208D01*
X232375Y164658D02*
X234041Y162992D01*
X233208D02*
X234041Y163825D01*
X266535Y284646D02*
Y289644D01*
X269035D01*
X269868Y288811D01*
Y287145D01*
X269035Y286312D01*
X266535D01*
X256890Y320472D02*
Y325471D01*
X259389D01*
X260222Y324638D01*
Y322972D01*
X259389Y322139D01*
X256890D01*
X245458Y308904D02*
Y312236D01*
X244625Y313069D01*
X242959D01*
X242126Y312236D01*
Y308904D01*
X242959Y308071D01*
X244625D01*
X243792Y309737D02*
X245458Y308071D01*
X244625D02*
X245458Y308904D01*
X234041Y312447D02*
Y315779D01*
X233208Y316613D01*
X231542D01*
X230709Y315779D01*
Y312447D01*
X231542Y311614D01*
X233208D01*
X232375Y313280D02*
X234041Y311614D01*
X233208D02*
X234041Y312447D01*
X161403D02*
Y315779D01*
X160570Y316613D01*
X158904D01*
X158071Y315779D01*
Y312447D01*
X158904Y311614D01*
X160570D01*
X159737Y313280D02*
X161403Y311614D01*
X160570D02*
X161403Y312447D01*
X115551Y205434D02*
Y210433D01*
X118050D01*
X118883Y209600D01*
Y207933D01*
X118050Y207101D01*
X115551D01*
X185827Y203543D02*
Y208542D01*
X188326D01*
X189159Y207709D01*
Y206043D01*
X188326Y205209D01*
X185827D01*
X240537Y146502D02*
Y149835D01*
X239704Y150668D01*
X238038D01*
X237205Y149835D01*
Y146502D01*
X238038Y145669D01*
X239704D01*
X238871Y147335D02*
X240537Y145669D01*
X239704D02*
X240537Y146502D01*
X211417Y156102D02*
Y161101D01*
X213916D01*
X214750Y160268D01*
Y158601D01*
X213916Y157768D01*
X211417D01*
X252559Y132874D02*
Y137872D01*
X255058D01*
X255891Y137039D01*
Y135373D01*
X255058Y134540D01*
X252559D01*
X104207Y121727D02*
Y126725D01*
X106707D01*
X107540Y125892D01*
Y124226D01*
X106707Y123393D01*
X104207D01*
X-128937Y111417D02*
Y116416D01*
X-126438D01*
X-125605Y115583D01*
Y113917D01*
X-126438Y113083D01*
X-128937D01*
X-55118Y111733D02*
Y116732D01*
X-52619D01*
X-51786Y115899D01*
Y114233D01*
X-52619Y113400D01*
X-55118D01*
X21063Y111733D02*
Y116732D01*
X23562D01*
X24395Y115899D01*
Y114233D01*
X23562Y113400D01*
X21063D01*
X187598Y128740D02*
Y133739D01*
X190098D01*
X190931Y132905D01*
Y131239D01*
X190098Y130406D01*
X187598D01*
X-407480Y127953D02*
Y132951D01*
X-404981D01*
X-404148Y132118D01*
Y130452D01*
X-404981Y129619D01*
X-407480D01*
X-1121850Y150984D02*
Y155983D01*
X-1119351D01*
X-1118518Y155150D01*
Y153483D01*
X-1119351Y152650D01*
X-1121850D01*
X-1032677Y107874D02*
Y112872D01*
X-1030178D01*
X-1029345Y112039D01*
Y110373D01*
X-1030178Y109540D01*
X-1032677D01*
X-1021063Y130512D02*
Y135510D01*
X-1018564D01*
X-1017731Y134677D01*
Y133011D01*
X-1018564Y132178D01*
X-1021063D01*
X-1104134Y130512D02*
Y135510D01*
X-1101635D01*
X-1100802Y134677D01*
Y133011D01*
X-1101635Y132178D01*
X-1104134D01*
X-1013006Y146699D02*
Y150031D01*
X-1013839Y150865D01*
X-1015506D01*
X-1016339Y150031D01*
Y146699D01*
X-1015506Y145866D01*
X-1013839D01*
X-1014672Y147532D02*
X-1013006Y145866D01*
X-1013839D02*
X-1013006Y146699D01*
X-989384Y157723D02*
Y161055D01*
X-990217Y161888D01*
X-991883D01*
X-992717Y161055D01*
Y157723D01*
X-991883Y156890D01*
X-990217D01*
X-991050Y158556D02*
X-989384Y156890D01*
X-990217D02*
X-989384Y157723D01*
X-1113400Y146699D02*
Y150031D01*
X-1114233Y150865D01*
X-1115899D01*
X-1116732Y150031D01*
Y146699D01*
X-1115899Y145866D01*
X-1114233D01*
X-1115066Y147532D02*
X-1113400Y145866D01*
X-1114233D02*
X-1113400Y146699D01*
X-772679Y233505D02*
Y238504D01*
X-770179D01*
X-769346Y237671D01*
Y236004D01*
X-770179Y235171D01*
X-772679D01*
X-1141353Y309888D02*
Y313220D01*
X-1142186Y314053D01*
X-1143852D01*
X-1144685Y313220D01*
Y309888D01*
X-1143852Y309054D01*
X-1142186D01*
X-1143019Y310721D02*
X-1141353Y309054D01*
X-1142186D02*
X-1141353Y309888D01*
X-1157101Y382526D02*
Y385858D01*
X-1157934Y386691D01*
X-1159600D01*
X-1160433Y385858D01*
Y382526D01*
X-1159600Y381693D01*
X-1157934D01*
X-1158767Y383359D02*
X-1157101Y381693D01*
X-1157934D02*
X-1157101Y382526D01*
X-831496Y135433D02*
Y140431D01*
X-828997D01*
X-828164Y139598D01*
Y137932D01*
X-828997Y137099D01*
X-831496D01*
X-832677Y139567D02*
Y144565D01*
X-830178D01*
X-829345Y143732D01*
Y142066D01*
X-830178Y141233D01*
X-832677D01*
X-38386Y225197D02*
Y230195D01*
X-35887D01*
X-35054Y229362D01*
Y227696D01*
X-35887Y226863D01*
X-38386D01*
X24861Y221457D02*
Y226455D01*
X27360D01*
X28193Y225622D01*
Y223956D01*
X27360Y223123D01*
X24861D01*
X-639392Y152188D02*
Y157186D01*
X-636893D01*
X-636060Y156353D01*
Y154687D01*
X-636893Y153854D01*
X-639392D01*
X196457Y389370D02*
Y394368D01*
X198956D01*
X199789Y393535D01*
Y391869D01*
X198956Y391036D01*
X196457D01*
X233858Y389370D02*
Y394368D01*
X236357D01*
X237191Y393535D01*
Y391869D01*
X236357Y391036D01*
X233858D01*
X282072Y387053D02*
Y390386D01*
X281239Y391219D01*
X279573D01*
X278740Y390386D01*
Y387053D01*
X279573Y386221D01*
X281239D01*
X280406Y387887D02*
X282072Y386221D01*
X281239D02*
X282072Y387053D01*
X46850Y239173D02*
Y244172D01*
X49350D01*
X50183Y243338D01*
Y241672D01*
X49350Y240839D01*
X46850D01*
X128937Y239370D02*
Y244368D01*
X131436D01*
X132269Y243535D01*
Y241869D01*
X131436Y241036D01*
X128937D01*
X204528Y239370D02*
Y244368D01*
X207027D01*
X207860Y243535D01*
Y241869D01*
X207027Y241036D01*
X204528D01*
X157072Y237447D02*
Y240779D01*
X156239Y241613D01*
X154573D01*
X153740Y240779D01*
Y237447D01*
X154573Y236614D01*
X156239D01*
X155406Y238280D02*
X157072Y236614D01*
X156239D02*
X157072Y237447D01*
X226758Y236857D02*
Y240189D01*
X225924Y241022D01*
X224258D01*
X223425Y240189D01*
Y236857D01*
X224258Y236024D01*
X225924D01*
X225091Y237690D02*
X226758Y236024D01*
X225924D02*
X226758Y236857D01*
X80301Y234888D02*
Y238220D01*
X79468Y239054D01*
X77802D01*
X76968Y238220D01*
Y234888D01*
X77802Y234055D01*
X79468D01*
X78635Y235721D02*
X80301Y234055D01*
X79468D02*
X80301Y234888D01*
X234449Y227953D02*
Y232951D01*
X236948D01*
X237781Y232118D01*
Y230452D01*
X236948Y229619D01*
X234449D01*
X160630Y227362D02*
Y232361D01*
X163129D01*
X163962Y231527D01*
Y229861D01*
X163129Y229028D01*
X160630D01*
X279528Y232283D02*
Y237282D01*
X282027D01*
X282860Y236449D01*
Y234783D01*
X282027Y233950D01*
X279528D01*
X90945Y233268D02*
Y238266D01*
X93444D01*
X94277Y237433D01*
Y235767D01*
X93444Y234934D01*
X90945D01*
X-394Y127165D02*
Y132164D01*
X2105D01*
X2939Y131331D01*
Y129665D01*
X2105Y128832D01*
X-394D01*
X87598Y129134D02*
Y134132D01*
X90098D01*
X90931Y133299D01*
Y131633D01*
X90098Y130800D01*
X87598D01*
X160827Y149213D02*
Y154211D01*
X163326D01*
X164159Y153378D01*
Y151712D01*
X163326Y150879D01*
X160827D01*
X22199Y440354D02*
Y445353D01*
X24699D01*
X25532Y444520D01*
Y442853D01*
X24699Y442021D01*
X22199D01*
X10236Y445866D02*
Y450865D01*
X12735D01*
X13568Y450031D01*
Y448365D01*
X12735Y447532D01*
X10236D01*
X91535Y302362D02*
Y307361D01*
X94035D01*
X94868Y306527D01*
Y304861D01*
X94035Y304028D01*
X91535D01*
X-5709Y300000D02*
Y304998D01*
X-3210D01*
X-2376Y304165D01*
Y302499D01*
X-3210Y301666D01*
X-5709D01*
X-88888Y294685D02*
Y299683D01*
X-86389D01*
X-85556Y298850D01*
Y297184D01*
X-86389Y296351D01*
X-88888D01*
X-985054Y237447D02*
Y240779D01*
X-985887Y241613D01*
X-987553D01*
X-988386Y240779D01*
Y237447D01*
X-987553Y236614D01*
X-985887D01*
X-986720Y238280D02*
X-985054Y236614D01*
X-985887D02*
X-985054Y237447D01*
X-1004935Y312644D02*
Y315976D01*
X-1005768Y316809D01*
X-1007435D01*
X-1008268Y315976D01*
Y312644D01*
X-1007435Y311811D01*
X-1005768D01*
X-1006602Y313477D02*
X-1004935Y311811D01*
X-1005768D02*
X-1004935Y312644D01*
X210025Y387250D02*
Y390583D01*
X209192Y391416D01*
X207526D01*
X206693Y390583D01*
Y387250D01*
X207526Y386417D01*
X209192D01*
X208359Y388083D02*
X210025Y386417D01*
X209192D02*
X210025Y387250D01*
X151758Y392369D02*
Y395701D01*
X150924Y396534D01*
X149258D01*
X148425Y395701D01*
Y392369D01*
X149258Y391535D01*
X150924D01*
X150091Y393202D02*
X151758Y391535D01*
X150924D02*
X151758Y392369D01*
X61797Y385479D02*
Y388811D01*
X60964Y389644D01*
X59298D01*
X58465Y388811D01*
Y385479D01*
X59298Y384646D01*
X60964D01*
X60131Y386312D02*
X61797Y384646D01*
X60964D02*
X61797Y385479D01*
X-33282Y387250D02*
Y390583D01*
X-34115Y391416D01*
X-35781D01*
X-36614Y390583D01*
Y387250D01*
X-35781Y386417D01*
X-34115D01*
X-34948Y388083D02*
X-33282Y386417D01*
X-34115D02*
X-33282Y387250D01*
X-865114Y164764D02*
Y169762D01*
X-862615D01*
X-861782Y168929D01*
Y167263D01*
X-862615Y166430D01*
X-865114D01*
X-940136Y164764D02*
Y169762D01*
X-937636D01*
X-936803Y168929D01*
Y167263D01*
X-937636Y166430D01*
X-940136D01*
X-909638Y162447D02*
Y165779D01*
X-910471Y166613D01*
X-912137D01*
X-912970Y165779D01*
Y162447D01*
X-912137Y161614D01*
X-910471D01*
X-911304Y163280D02*
X-909638Y161614D01*
X-910471D02*
X-909638Y162447D01*
X-1015158Y164764D02*
Y169762D01*
X-1012658D01*
X-1011825Y168929D01*
Y167263D01*
X-1012658Y166430D01*
X-1015158D01*
X-302165Y239764D02*
Y244762D01*
X-299666D01*
X-298833Y243929D01*
Y242263D01*
X-299666Y241430D01*
X-302165D01*
X-271668Y237447D02*
Y240779D01*
X-272501Y241613D01*
X-274167D01*
X-275000Y240779D01*
Y237447D01*
X-274167Y236614D01*
X-272501D01*
X-273334Y238280D02*
X-271668Y236614D01*
X-272501D02*
X-271668Y237447D01*
X-377205Y239764D02*
Y244762D01*
X-374706D01*
X-373872Y243929D01*
Y242263D01*
X-374706Y241430D01*
X-377205D01*
X-346707Y237447D02*
Y240779D01*
X-347540Y241613D01*
X-349206D01*
X-350039Y240779D01*
Y237447D01*
X-349206Y236614D01*
X-347540D01*
X-348373Y238280D02*
X-346707Y236614D01*
X-347540D02*
X-346707Y237447D01*
X-452244Y239764D02*
Y244762D01*
X-449745D01*
X-448912Y243929D01*
Y242263D01*
X-449745Y241430D01*
X-452244D01*
X-421746Y237447D02*
Y240779D01*
X-422580Y241613D01*
X-424246D01*
X-425079Y240779D01*
Y237447D01*
X-424246Y236614D01*
X-422580D01*
X-423413Y238280D02*
X-421746Y236614D01*
X-422580D02*
X-421746Y237447D01*
X-527283Y239764D02*
Y244762D01*
X-524784D01*
X-523951Y243929D01*
Y242263D01*
X-524784Y241430D01*
X-527283D01*
X-496786Y237447D02*
Y240779D01*
X-497619Y241613D01*
X-499285D01*
X-500118Y240779D01*
Y237447D01*
X-499285Y236614D01*
X-497619D01*
X-498452Y238280D02*
X-496786Y236614D01*
X-497619D02*
X-496786Y237447D01*
X-602323Y239764D02*
Y244762D01*
X-599824D01*
X-598991Y243929D01*
Y242263D01*
X-599824Y241430D01*
X-602323D01*
X-571825Y237447D02*
Y240779D01*
X-572658Y241613D01*
X-574324D01*
X-575157Y240779D01*
Y237447D01*
X-574324Y236614D01*
X-572658D01*
X-573491Y238280D02*
X-571825Y236614D01*
X-572658D02*
X-571825Y237447D01*
X-677362Y239764D02*
Y244762D01*
X-674863D01*
X-674030Y243929D01*
Y242263D01*
X-674863Y241430D01*
X-677362D01*
X-646865Y237447D02*
Y240779D01*
X-647698Y241613D01*
X-649364D01*
X-650197Y240779D01*
Y237447D01*
X-649364Y236614D01*
X-647698D01*
X-648531Y238280D02*
X-646865Y236614D01*
X-647698D02*
X-646865Y237447D01*
X-752402Y239764D02*
Y244762D01*
X-749902D01*
X-749069Y243929D01*
Y242263D01*
X-749902Y241430D01*
X-752402D01*
X-721904Y237447D02*
Y240779D01*
X-722737Y241613D01*
X-724403D01*
X-725236Y240779D01*
Y237447D01*
X-724403Y236614D01*
X-722737D01*
X-723570Y238280D02*
X-721904Y236614D01*
X-722737D02*
X-721904Y237447D01*
X-796943D02*
Y240779D01*
X-797776Y241613D01*
X-799442D01*
X-800276Y240779D01*
Y237447D01*
X-799442Y236614D01*
X-797776D01*
X-798609Y238280D02*
X-796943Y236614D01*
X-797776D02*
X-796943Y237447D01*
X-871983D02*
Y240779D01*
X-872816Y241613D01*
X-874482D01*
X-875315Y240779D01*
Y237447D01*
X-874482Y236614D01*
X-872816D01*
X-873649Y238280D02*
X-871983Y236614D01*
X-872816D02*
X-871983Y237447D01*
X-977520Y239764D02*
Y244762D01*
X-975021D01*
X-974187Y243929D01*
Y242263D01*
X-975021Y241430D01*
X-977520D01*
X-947022Y237447D02*
Y240779D01*
X-947855Y241613D01*
X-949521D01*
X-950354Y240779D01*
Y237447D01*
X-949521Y236614D01*
X-947855D01*
X-948688Y238280D02*
X-947022Y236614D01*
X-947855D02*
X-947022Y237447D01*
X-1022061D02*
Y240779D01*
X-1022894Y241613D01*
X-1024561D01*
X-1025394Y240779D01*
Y237447D01*
X-1024561Y236614D01*
X-1022894D01*
X-1023728Y238280D02*
X-1022061Y236614D01*
X-1022894D02*
X-1022061Y237447D01*
X-1052559Y239764D02*
Y244762D01*
X-1050060D01*
X-1049227Y243929D01*
Y242263D01*
X-1050060Y241430D01*
X-1052559D01*
X-1041280Y312644D02*
Y315976D01*
X-1042113Y316809D01*
X-1043779D01*
X-1044612Y315976D01*
Y312644D01*
X-1043779Y311811D01*
X-1042113D01*
X-1042946Y313477D02*
X-1041280Y311811D01*
X-1042113D02*
X-1041280Y312644D01*
X-995055Y315354D02*
Y320353D01*
X-992556D01*
X-991723Y319520D01*
Y317853D01*
X-992556Y317021D01*
X-995055D01*
X-920106Y315354D02*
Y320353D01*
X-917607D01*
X-916774Y319520D01*
Y317853D01*
X-917607Y317021D01*
X-920106D01*
X-845158Y315354D02*
Y320353D01*
X-842658D01*
X-841825Y319520D01*
Y317853D01*
X-842658Y317021D01*
X-845158D01*
X-694472Y315354D02*
Y320353D01*
X-691973D01*
X-691140Y319520D01*
Y317853D01*
X-691973Y317021D01*
X-694472D01*
X-666833Y312841D02*
Y316173D01*
X-667666Y317006D01*
X-669333D01*
X-670166Y316173D01*
Y312841D01*
X-669333Y312008D01*
X-667666D01*
X-668500Y313674D02*
X-666833Y312008D01*
X-667666D02*
X-666833Y312841D01*
X-619523Y315354D02*
Y320353D01*
X-617024D01*
X-616191Y319520D01*
Y317853D01*
X-617024Y317021D01*
X-619523D01*
X-591885Y312841D02*
Y316173D01*
X-592718Y317006D01*
X-594384D01*
X-595217Y316173D01*
Y312841D01*
X-594384Y312008D01*
X-592718D01*
X-593551Y313674D02*
X-591885Y312008D01*
X-592718D02*
X-591885Y312841D01*
X-544575Y315354D02*
Y320353D01*
X-542075D01*
X-541242Y319520D01*
Y317853D01*
X-542075Y317021D01*
X-544575D01*
X-516936Y312841D02*
Y316173D01*
X-517769Y317006D01*
X-519435D01*
X-520268Y316173D01*
Y312841D01*
X-519435Y312008D01*
X-517769D01*
X-518602Y313674D02*
X-516936Y312008D01*
X-517769D02*
X-516936Y312841D01*
X-469626Y315354D02*
Y320353D01*
X-467127D01*
X-466293Y319520D01*
Y317853D01*
X-467127Y317021D01*
X-469626D01*
X-394677Y315354D02*
Y320353D01*
X-392178D01*
X-391345Y319520D01*
Y317853D01*
X-392178Y317021D01*
X-394677D01*
X-319728Y315354D02*
Y320353D01*
X-317229D01*
X-316396Y319520D01*
Y317853D01*
X-317229Y317021D01*
X-319728D01*
X-38217Y314370D02*
Y319369D01*
X-35717D01*
X-34885Y318535D01*
Y316869D01*
X-35717Y316036D01*
X-38217D01*
X56299Y314370D02*
Y319369D01*
X58798D01*
X59632Y318535D01*
Y316869D01*
X58798Y316036D01*
X56299D01*
X130118Y314370D02*
Y319369D01*
X132617D01*
X133450Y318535D01*
Y316869D01*
X132617Y316036D01*
X130118D01*
X-1069882Y314370D02*
Y319369D01*
X-1067383D01*
X-1066550Y318535D01*
Y316869D01*
X-1067383Y316036D01*
X-1069882D01*
X-38780Y390748D02*
Y395746D01*
X-36280D01*
X-35447Y394913D01*
Y393247D01*
X-36280Y392414D01*
X-38780D01*
X55315Y390748D02*
Y395746D01*
X57814D01*
X58647Y394913D01*
Y393247D01*
X57814Y392414D01*
X55315D01*
X128150Y390354D02*
Y395353D01*
X130649D01*
X131482Y394520D01*
Y392853D01*
X130649Y392021D01*
X128150D01*
X-1033399Y390748D02*
Y395746D01*
X-1030900D01*
X-1030067Y394913D01*
Y393247D01*
X-1030900Y392414D01*
X-1033399D01*
X-958465Y390748D02*
Y395746D01*
X-955965D01*
X-955132Y394913D01*
Y393247D01*
X-955965Y392414D01*
X-958465D01*
X-883530Y390748D02*
Y395746D01*
X-881031D01*
X-880198Y394913D01*
Y393247D01*
X-881031Y392414D01*
X-883530D01*
X-808596Y390748D02*
Y395746D01*
X-806097D01*
X-805264Y394913D01*
Y393247D01*
X-806097Y392414D01*
X-808596D01*
X-733661Y390748D02*
Y395746D01*
X-731162D01*
X-730329Y394913D01*
Y393247D01*
X-731162Y392414D01*
X-733661D01*
X-658727Y390748D02*
Y395746D01*
X-656228D01*
X-655395Y394913D01*
Y393247D01*
X-656228Y392414D01*
X-658727D01*
X-583793Y390748D02*
Y395746D01*
X-581293D01*
X-580460Y394913D01*
Y393247D01*
X-581293Y392414D01*
X-583793D01*
X-508858Y390748D02*
Y395746D01*
X-506359D01*
X-505526Y394913D01*
Y393247D01*
X-506359Y392414D01*
X-508858D01*
X-433924Y390748D02*
Y395746D01*
X-431425D01*
X-430592Y394913D01*
Y393247D01*
X-431425Y392414D01*
X-433924D01*
X-358990Y390748D02*
Y395746D01*
X-356490D01*
X-355657Y394913D01*
Y393247D01*
X-356490Y392414D01*
X-358990D01*
X-284055Y390748D02*
Y395746D01*
X-281556D01*
X-280723Y394913D01*
Y393247D01*
X-281556Y392414D01*
X-284055D01*
X-1106299Y389370D02*
Y394368D01*
X-1103800D01*
X-1102967Y393535D01*
Y391869D01*
X-1103800Y391036D01*
X-1106299D01*
X-253987Y388235D02*
Y391567D01*
X-254820Y392400D01*
X-256486D01*
X-257319Y391567D01*
Y388235D01*
X-256486Y387402D01*
X-254820D01*
X-255653Y389068D02*
X-253987Y387402D01*
X-254820D02*
X-253987Y388235D01*
X-329005D02*
Y391567D01*
X-329838Y392400D01*
X-331504D01*
X-332337Y391567D01*
Y388235D01*
X-331504Y387402D01*
X-329838D01*
X-330671Y389068D02*
X-329005Y387402D01*
X-329838D02*
X-329005Y388235D01*
X-404023D02*
Y391567D01*
X-404856Y392400D01*
X-406522D01*
X-407355Y391567D01*
Y388235D01*
X-406522Y387402D01*
X-404856D01*
X-405689Y389068D02*
X-404023Y387402D01*
X-404856D02*
X-404023Y388235D01*
X-479041D02*
Y391567D01*
X-479874Y392400D01*
X-481540D01*
X-482373Y391567D01*
Y388235D01*
X-481540Y387402D01*
X-479874D01*
X-480707Y389068D02*
X-479041Y387402D01*
X-479874D02*
X-479041Y388235D01*
X-554059D02*
Y391567D01*
X-554892Y392400D01*
X-556558D01*
X-557391Y391567D01*
Y388235D01*
X-556558Y387402D01*
X-554892D01*
X-555725Y389068D02*
X-554059Y387402D01*
X-554892D02*
X-554059Y388235D01*
X-629076D02*
Y391567D01*
X-629910Y392400D01*
X-631576D01*
X-632409Y391567D01*
Y388235D01*
X-631576Y387402D01*
X-629910D01*
X-630743Y389068D02*
X-629076Y387402D01*
X-629910D02*
X-629076Y388235D01*
X-779112D02*
Y391567D01*
X-779945Y392400D01*
X-781611D01*
X-782444Y391567D01*
Y388235D01*
X-781611Y387402D01*
X-779945D01*
X-780778Y389068D02*
X-779112Y387402D01*
X-779945D02*
X-779112Y388235D01*
X-854130D02*
Y391567D01*
X-854963Y392400D01*
X-856629D01*
X-857462Y391567D01*
Y388235D01*
X-856629Y387402D01*
X-854963D01*
X-855796Y389068D02*
X-854130Y387402D01*
X-854963D02*
X-854130Y388235D01*
X-929148D02*
Y391567D01*
X-929981Y392400D01*
X-931647D01*
X-932480Y391567D01*
Y388235D01*
X-931647Y387402D01*
X-929981D01*
X-930814Y389068D02*
X-929148Y387402D01*
X-929981D02*
X-929148Y388235D01*
X-1004345D02*
Y391567D01*
X-1005178Y392400D01*
X-1006844D01*
X-1007677Y391567D01*
Y388235D01*
X-1006844Y387402D01*
X-1005178D01*
X-1006011Y389068D02*
X-1004345Y387402D01*
X-1005178D02*
X-1004345Y388235D01*
X-1079542D02*
Y391567D01*
X-1080375Y392400D01*
X-1082041D01*
X-1082874Y391567D01*
Y388235D01*
X-1082041Y387402D01*
X-1080375D01*
X-1081208Y389068D02*
X-1079542Y387402D01*
X-1080375D02*
X-1079542Y388235D01*
X-581890Y220079D02*
Y225077D01*
X-579391D01*
X-578557Y224244D01*
Y222578D01*
X-579391Y221745D01*
X-581890D01*
X-514173Y224016D02*
Y229014D01*
X-511674D01*
X-510841Y228181D01*
Y226515D01*
X-511674Y225682D01*
X-514173D01*
X-438583Y224016D02*
Y229014D01*
X-436084D01*
X-435250Y228181D01*
Y226515D01*
X-436084Y225682D01*
X-438583D01*
X-357283Y224016D02*
Y229014D01*
X-354784D01*
X-353951Y228181D01*
Y226515D01*
X-354784Y225682D01*
X-357283D01*
X-263779Y224016D02*
Y229014D01*
X-261280D01*
X-260447Y228181D01*
Y226515D01*
X-261280Y225682D01*
X-263779D01*
X-155020Y203937D02*
Y208935D01*
X-152521D01*
X-151687Y208102D01*
Y206436D01*
X-152521Y205603D01*
X-155020D01*
X-189173Y241535D02*
Y246533D01*
X-186674D01*
X-185841Y245700D01*
Y244034D01*
X-186674Y243201D01*
X-189173D01*
X38976Y204528D02*
Y209526D01*
X41476D01*
X42309Y208693D01*
Y207027D01*
X41476Y206194D01*
X38976D01*
X-58268Y204528D02*
Y209526D01*
X-55769D01*
X-54935Y208693D01*
Y207027D01*
X-55769Y206194D01*
X-58268D01*
X87598Y142323D02*
Y147321D01*
X90098D01*
X90931Y146488D01*
Y144822D01*
X90098Y143989D01*
X87598D01*
X-95866Y138386D02*
Y143384D01*
X-93367D01*
X-92534Y142551D01*
Y140885D01*
X-93367Y140052D01*
X-95866D01*
X-92716Y155315D02*
Y160313D01*
X-90217D01*
X-89384Y159480D01*
Y157814D01*
X-90217Y156981D01*
X-92716D01*
X-47258Y217172D02*
Y220504D01*
X-48091Y221337D01*
X-49758D01*
X-50591Y220504D01*
Y217172D01*
X-49758Y216339D01*
X-48091D01*
X-48924Y218005D02*
X-47258Y216339D01*
X-48091D02*
X-47258Y217172D01*
X-235236Y128150D02*
Y133148D01*
X-232737D01*
X-231904Y132315D01*
Y130649D01*
X-232737Y129816D01*
X-235236D01*
X-154345Y226227D02*
Y229559D01*
X-155178Y230392D01*
X-156844D01*
X-157677Y229559D01*
Y226227D01*
X-156844Y225394D01*
X-155178D01*
X-156011Y227060D02*
X-154345Y225394D01*
X-155178D02*
X-154345Y226227D01*
X-600000Y160236D02*
Y165235D01*
X-597501D01*
X-596668Y164401D01*
Y162735D01*
X-597501Y161902D01*
X-600000D01*
X-558858Y97835D02*
Y102833D01*
X-556359D01*
X-555526Y102000D01*
Y100334D01*
X-556359Y99501D01*
X-558858D01*
X-712992Y103424D02*
Y108422D01*
X-710493D01*
X-709660Y107589D01*
Y105923D01*
X-710493Y105090D01*
X-712992D01*
X-653361Y135510D02*
X-655027D01*
X-654194D01*
Y131345D01*
X-655027Y130512D01*
X-655860D01*
X-656693Y131345D01*
X-735841Y128620D02*
X-737507D01*
X-736674D01*
Y124455D01*
X-737507Y123622D01*
X-738340D01*
X-739173Y124455D01*
X-840959Y160951D02*
Y164283D01*
X-841792Y165117D01*
X-843458D01*
X-844291Y164283D01*
Y160951D01*
X-843458Y160118D01*
X-841792D01*
X-842625Y161784D02*
X-840959Y160118D01*
X-841792D02*
X-840959Y160951D01*
X-838976Y150591D02*
Y155589D01*
X-836477D01*
X-835644Y154756D01*
Y153090D01*
X-836477Y152257D01*
X-838976D01*
X-659646Y219291D02*
Y224290D01*
X-657147D01*
X-656313Y223457D01*
Y221791D01*
X-657147Y220957D01*
X-659646D01*
X-739370Y219488D02*
Y224487D01*
X-736871D01*
X-736038Y223654D01*
Y221987D01*
X-736871Y221154D01*
X-739370D01*
X-802756Y203937D02*
Y208935D01*
X-800257D01*
X-799424Y208102D01*
Y206436D01*
X-800257Y205603D01*
X-802756D01*
X-931890Y99016D02*
Y104014D01*
X-929391D01*
X-928557Y103181D01*
Y101515D01*
X-929391Y100682D01*
X-931890D01*
X-763976Y120472D02*
Y125471D01*
X-761477D01*
X-760644Y124638D01*
Y122972D01*
X-761477Y122139D01*
X-763976D01*
X-892520Y134449D02*
Y139447D01*
X-890020D01*
X-889187Y138614D01*
Y136948D01*
X-890020Y136115D01*
X-892520D01*
X-979528Y151575D02*
Y156573D01*
X-977028D01*
X-976195Y155740D01*
Y154074D01*
X-977028Y153241D01*
X-979528D01*
X-826772Y205512D02*
Y210510D01*
X-824273D01*
X-823439Y209677D01*
Y208011D01*
X-824273Y207178D01*
X-826772D01*
X-820276Y223819D02*
Y228817D01*
X-817776D01*
X-816943Y227984D01*
Y226318D01*
X-817776Y225485D01*
X-820276D01*
X-827441Y239764D02*
Y244762D01*
X-824942D01*
X-824109Y243929D01*
Y242263D01*
X-824942Y241430D01*
X-827441D01*
X-809252Y228740D02*
Y233738D01*
X-806753D01*
X-805920Y232906D01*
Y231239D01*
X-806753Y230406D01*
X-809252D01*
X-747835Y146457D02*
Y151455D01*
X-745335D01*
X-744502Y150622D01*
Y148956D01*
X-745335Y148123D01*
X-747835D01*
X-769685Y121063D02*
Y126061D01*
X-767186D01*
X-766353Y125228D01*
Y123562D01*
X-767186Y122729D01*
X-769685D01*
X-750591Y107087D02*
Y112085D01*
X-748091D01*
X-747258Y111252D01*
Y109586D01*
X-748091Y108753D01*
X-750591D01*
X-737219Y144172D02*
X-738885D01*
X-738052D01*
Y140006D01*
X-738885Y139173D01*
X-739718D01*
X-740551Y140006D01*
X-748228Y167520D02*
Y172518D01*
X-745729D01*
X-744896Y171685D01*
Y170019D01*
X-745729Y169186D01*
X-748228D01*
X-750197Y164370D02*
Y169369D01*
X-747698D01*
X-746865Y168535D01*
Y166869D01*
X-747698Y166036D01*
X-750197D01*
X-752362Y161811D02*
Y166809D01*
X-749863D01*
X-749030Y165976D01*
Y164310D01*
X-749863Y163477D01*
X-752362D01*
X-751378Y176969D02*
Y181967D01*
X-748879D01*
X-748046Y181134D01*
Y179468D01*
X-748879Y178635D01*
X-751378D01*
X-770012Y315354D02*
Y320353D01*
X-767513D01*
X-766679Y319520D01*
Y317853D01*
X-767513Y317021D01*
X-770012D01*
X-569095Y157480D02*
Y162479D01*
X-566595D01*
X-565762Y161646D01*
Y159979D01*
X-566595Y159146D01*
X-569095D01*
X-322244Y121653D02*
Y126652D01*
X-319745D01*
X-318912Y125819D01*
Y124153D01*
X-319745Y123320D01*
X-322244D01*
X-967416Y312841D02*
Y316173D01*
X-968249Y317006D01*
X-969915D01*
X-970748Y316173D01*
Y312841D01*
X-969915Y312008D01*
X-968249D01*
X-969082Y313674D02*
X-967416Y312008D01*
X-968249D02*
X-967416Y312841D01*
X-892467D02*
Y316173D01*
X-893300Y317006D01*
X-894967D01*
X-895800Y316173D01*
Y312841D01*
X-894967Y312008D01*
X-893300D01*
X-894133Y313674D02*
X-892467Y312008D01*
X-893300D02*
X-892467Y312841D01*
X-742373D02*
Y316173D01*
X-743206Y317006D01*
X-744872D01*
X-745705Y316173D01*
Y312841D01*
X-744872Y312008D01*
X-743206D01*
X-744039Y313674D02*
X-742373Y312008D01*
X-743206D02*
X-742373Y312841D01*
X-817519D02*
Y316173D01*
X-818351Y317006D01*
X-820018D01*
X-820851Y316173D01*
Y312841D01*
X-820018Y312008D01*
X-818351D01*
X-819185Y313674D02*
X-817519Y312008D01*
X-818351D02*
X-817519Y312841D01*
X-650591Y147638D02*
Y152636D01*
X-648091D01*
X-647258Y151803D01*
Y150137D01*
X-648091Y149304D01*
X-650591D01*
X-656102Y148425D02*
Y153424D01*
X-653603D01*
X-652770Y152591D01*
Y150924D01*
X-653603Y150091D01*
X-656102D01*
X-658858Y150787D02*
Y155786D01*
X-656359D01*
X-655526Y154953D01*
Y153287D01*
X-656359Y152453D01*
X-658858D01*
X-654724Y144488D02*
Y149487D01*
X-652225D01*
X-651392Y148653D01*
Y146987D01*
X-652225Y146154D01*
X-654724D01*
X-725591Y128150D02*
Y133148D01*
X-723091D01*
X-722258Y132315D01*
Y130649D01*
X-723091Y129816D01*
X-725591D01*
X-732298Y214809D02*
Y218142D01*
X-733131Y218975D01*
X-734797D01*
X-735630Y218142D01*
Y214809D01*
X-734797Y213976D01*
X-733131D01*
X-733964Y215642D02*
X-732298Y213976D01*
X-733131D02*
X-732298Y214809D01*
X12205Y305511D02*
Y310510D01*
X14704D01*
X15537Y309677D01*
Y308010D01*
X14704Y307177D01*
X12205D01*
X-902480Y239764D02*
Y244762D01*
X-899981D01*
X-899148Y243929D01*
Y242263D01*
X-899981Y241430D01*
X-902480D01*
X-916535Y303740D02*
Y308738D01*
X-914036D01*
X-913203Y307906D01*
Y306239D01*
X-914036Y305406D01*
X-916535D01*
X-919685Y301575D02*
Y306573D01*
X-917186D01*
X-916353Y305740D01*
Y304074D01*
X-917186Y303241D01*
X-919685D01*
X-838780Y100640D02*
Y105638D01*
X-836280D01*
X-835447Y104805D01*
Y103139D01*
X-836280Y102306D01*
X-838780D01*
X114750Y237447D02*
Y240779D01*
X113917Y241613D01*
X112250D01*
X111417Y240779D01*
Y237447D01*
X112250Y236614D01*
X113917D01*
X113083Y238280D02*
X114750Y236614D01*
X113917D02*
X114750Y237447D01*
X-703164Y237644D02*
Y240976D01*
X-703997Y241809D01*
X-705663D01*
X-706496Y240976D01*
Y237644D01*
X-705663Y236811D01*
X-703997D01*
X-704830Y238477D02*
X-703164Y236811D01*
X-703997D02*
X-703164Y237644D01*
X-367038Y312841D02*
Y316173D01*
X-367871Y317006D01*
X-369537D01*
X-370370Y316173D01*
Y312841D01*
X-369537Y312008D01*
X-367871D01*
X-368704Y313674D02*
X-367038Y312008D01*
X-367871D02*
X-367038Y312841D01*
X-291746Y312841D02*
Y316173D01*
X-292580Y317006D01*
X-294246D01*
X-295079Y316173D01*
Y312841D01*
X-294246Y312008D01*
X-292580D01*
X-293413Y313674D02*
X-291746Y312008D01*
X-292580D02*
X-291746Y312841D01*
X-441987Y313038D02*
Y316370D01*
X-442820Y317203D01*
X-444486D01*
X-445319Y316370D01*
Y313038D01*
X-444486Y312205D01*
X-442820D01*
X-443653Y313871D02*
X-441987Y312205D01*
X-442820D02*
X-441987Y313038D01*
X-683479Y308345D02*
X-685145D01*
X-684312D01*
Y304180D01*
X-685145Y303346D01*
X-685978D01*
X-686811Y304180D01*
X-694488Y234252D02*
Y239250D01*
X-691989D01*
X-691156Y238417D01*
Y236751D01*
X-691989Y235918D01*
X-694488D01*
X-661825Y179211D02*
X-663491D01*
X-662658D01*
Y175046D01*
X-663491Y174213D01*
X-664324D01*
X-665158Y175046D01*
X-763400Y306770D02*
X-765066D01*
X-764233D01*
Y302605D01*
X-765066Y301772D01*
X-765899D01*
X-766732Y302605D01*
X-753346Y223622D02*
Y228620D01*
X-750847D01*
X-750014Y227787D01*
Y226121D01*
X-750847Y225288D01*
X-753346D01*
X-750197Y223622D02*
Y228620D01*
X-747698D01*
X-746865Y227787D01*
Y226121D01*
X-747698Y225288D01*
X-750197D01*
X-730132Y173896D02*
X-731798D01*
X-730965D01*
Y169731D01*
X-731798Y168898D01*
X-732631D01*
X-733465Y169731D01*
X-1188189Y130512D02*
Y135510D01*
X-1185690D01*
X-1184857Y134677D01*
Y133011D01*
X-1185690Y132178D01*
X-1188189D01*
X28346Y441928D02*
Y446927D01*
X30846D01*
X31679Y446094D01*
Y444427D01*
X30846Y443594D01*
X28346D01*
X-155897Y309678D02*
Y314676D01*
X-153398D01*
X-152565Y313843D01*
Y312177D01*
X-153398Y311344D01*
X-155897D01*
X-868420Y115230D02*
Y120228D01*
X-865921D01*
X-865088Y119395D01*
Y117729D01*
X-865921Y116896D01*
X-868420D01*
X-864020Y115010D02*
Y120008D01*
X-861521D01*
X-860688Y119175D01*
Y117509D01*
X-861521Y116676D01*
X-864020D01*
X-864730Y138779D02*
Y143778D01*
X-862231D01*
X-861398Y142945D01*
Y141279D01*
X-862231Y140446D01*
X-864730D01*
X-858570Y120010D02*
Y125008D01*
X-856071D01*
X-855238Y124175D01*
Y122509D01*
X-856071Y121676D01*
X-858570D01*
X-800640Y117480D02*
Y122478D01*
X-798141D01*
X-797308Y121645D01*
Y119979D01*
X-798141Y119146D01*
X-800640D01*
X-61965Y264305D02*
Y269303D01*
X-59465D01*
X-58632Y268470D01*
Y266804D01*
X-59465Y265971D01*
X-61965D01*
X17380Y236060D02*
Y241058D01*
X19880D01*
X20713Y240225D01*
Y238559D01*
X19880Y237726D01*
X17380D01*
X2441Y236060D02*
Y241058D01*
X4940D01*
X5773Y240225D01*
Y238559D01*
X4940Y237726D01*
X2441D01*
X9921Y221730D02*
Y226728D01*
X12420D01*
X13253Y225895D01*
Y224229D01*
X12420Y223396D01*
X9921D01*
X22432Y287830D02*
Y292828D01*
X24931D01*
X25764Y291995D01*
Y290329D01*
X24931Y289496D01*
X22432D01*
X-224000Y371000D02*
Y375998D01*
X-221501D01*
X-220668Y375165D01*
Y373499D01*
X-221501Y372666D01*
X-224000D01*
X-177879Y372700D02*
Y377698D01*
X-175380D01*
X-174546Y376865D01*
Y375199D01*
X-175380Y374366D01*
X-177879D01*
M02*
