%FSLAX25Y25*%
%MOIN*%
G70*
G01*
G75*
G04 Layer_Color=128*
%ADD10C,0.01500*%
%ADD11C,0.03937*%
%ADD12C,0.01000*%
%ADD13C,0.01575*%
%ADD14C,0.03150*%
%ADD15C,0.01400*%
%ADD16C,0.01969*%
%ADD17R,0.04724X0.06300*%
%ADD18O,0.04724X0.06300*%
%ADD19C,0.06689*%
%ADD20O,0.09840X0.08800*%
%ADD21O,0.08661X0.09840*%
%ADD22C,0.16929*%
%ADD23C,0.09840*%
%ADD24C,0.12000*%
%ADD25C,0.15700*%
%ADD26O,0.03937X0.09449*%
%ADD27C,0.02756*%
%ADD28C,0.02362*%
%ADD29O,0.05118X0.07087*%
%ADD30R,0.05118X0.07087*%
%ADD31O,0.07087X0.05906*%
%ADD32R,0.07087X0.05906*%
%ADD33C,0.07874*%
%ADD34C,0.07087*%
%ADD35C,0.13780*%
%ADD36O,0.14000X0.13000*%
%ADD37O,0.06300X0.04724*%
%ADD38R,0.06300X0.04724*%
%ADD39C,0.08661*%
G04:AMPARAMS|DCode=40|XSize=47.24mil|YSize=63mil|CornerRadius=0mil|HoleSize=0mil|Usage=FLASHONLY|Rotation=0.000|XOffset=0mil|YOffset=0mil|HoleType=Round|Shape=Octagon|*
%AMOCTAGOND40*
4,1,8,-0.01181,0.03150,0.01181,0.03150,0.02362,0.01969,0.02362,-0.01969,0.01181,-0.03150,-0.01181,-0.03150,-0.02362,-0.01969,-0.02362,0.01969,-0.01181,0.03150,0.0*
%
%ADD40OCTAGOND40*%

%ADD41O,0.08000X0.09840*%
%ADD42O,0.08661X0.09843*%
%ADD43C,0.06693*%
%ADD44O,0.08661X0.09839*%
%ADD45C,0.15669*%
%ADD46O,0.08661X0.09840*%
%ADD47O,0.09840X0.08661*%
%ADD48C,0.15669*%
%ADD49C,0.02441*%
%ADD50C,0.03150*%
%ADD51C,0.03937*%
%ADD52R,0.04331X0.04921*%
%ADD53R,0.00984X0.05118*%
%ADD54R,0.04921X0.04331*%
%ADD55R,0.05906X0.01969*%
%ADD56O,0.05906X0.01969*%
%ADD57O,0.07874X0.01969*%
%ADD58R,0.07874X0.01969*%
%ADD59R,0.01969X0.07874*%
%ADD60R,0.04724X0.03937*%
%ADD61R,0.03543X0.03937*%
%ADD62R,0.02559X0.07874*%
%ADD63O,0.02559X0.07874*%
%ADD64R,0.05118X0.04331*%
%ADD65R,0.03937X0.03937*%
%ADD66R,0.11811X0.09843*%
%ADD67R,0.03937X0.04724*%
%ADD68R,0.03937X0.03543*%
%ADD69R,0.19685X0.15748*%
%ADD70C,0.02362*%
%ADD71C,0.02756*%
%ADD72C,0.00394*%
%ADD73R,0.05524X0.07100*%
%ADD74O,0.05524X0.07100*%
%ADD75C,0.07489*%
%ADD76O,0.10640X0.09600*%
%ADD77O,0.09461X0.10640*%
%ADD78C,0.17729*%
%ADD79C,0.10640*%
%ADD80C,0.12800*%
%ADD81C,0.16500*%
%ADD82O,0.04737X0.10249*%
%ADD83C,0.03556*%
%ADD84C,0.03162*%
%ADD85O,0.05918X0.07887*%
%ADD86R,0.05918X0.07887*%
%ADD87O,0.07887X0.06706*%
%ADD88R,0.07887X0.06706*%
%ADD89C,0.08674*%
%ADD90C,0.07887*%
%ADD91C,0.14579*%
%ADD92O,0.14800X0.13800*%
%ADD93O,0.07100X0.05524*%
%ADD94R,0.07100X0.05524*%
%ADD95C,0.09461*%
G04:AMPARAMS|DCode=96|XSize=55.24mil|YSize=71mil|CornerRadius=0mil|HoleSize=0mil|Usage=FLASHONLY|Rotation=0.000|XOffset=0mil|YOffset=0mil|HoleType=Round|Shape=Octagon|*
%AMOCTAGOND96*
4,1,8,-0.01381,0.03550,0.01381,0.03550,0.02762,0.02169,0.02762,-0.02169,0.01381,-0.03550,-0.01381,-0.03550,-0.02762,-0.02169,-0.02762,0.02169,-0.01381,0.03550,0.0*
%
%ADD96OCTAGOND96*%

%ADD97O,0.08800X0.10640*%
%ADD98O,0.09461X0.10642*%
%ADD99C,0.07493*%
%ADD100O,0.09461X0.10639*%
%ADD101C,0.16469*%
%ADD102O,0.09461X0.10640*%
%ADD103O,0.10640X0.09461*%
%ADD104C,0.16469*%
%ADD105C,0.03950*%
%ADD106C,0.04737*%
%ADD107R,0.05131X0.05721*%
%ADD108R,0.01784X0.05918*%
%ADD109R,0.05721X0.05131*%
%ADD110R,0.06706X0.02769*%
%ADD111O,0.06706X0.02769*%
%ADD112O,0.08674X0.02769*%
%ADD113R,0.08674X0.02769*%
%ADD114R,0.02769X0.08674*%
%ADD115R,0.05524X0.04737*%
%ADD116R,0.04343X0.04737*%
%ADD117R,0.03359X0.08674*%
%ADD118O,0.03359X0.08674*%
%ADD119R,0.05918X0.05131*%
%ADD120R,0.04737X0.04737*%
%ADD121R,0.12611X0.10642*%
%ADD122R,0.04737X0.05524*%
%ADD123R,0.04737X0.04343*%
%ADD124R,0.20485X0.16548*%
D52*
X-86840Y427700D02*
D03*
X-79360Y427700D02*
D03*
X-804134Y206102D02*
D03*
X-796654Y206102D02*
D03*
X-724606D02*
D03*
X-732087Y206102D02*
D03*
X-655512D02*
D03*
X-648032Y206102D02*
D03*
X-570079D02*
D03*
X-577559Y206102D02*
D03*
X-506693D02*
D03*
X-499213Y206102D02*
D03*
X-425612D02*
D03*
X-433093Y206102D02*
D03*
X-353346D02*
D03*
X-345866Y206102D02*
D03*
X-249213D02*
D03*
X-256693Y206102D02*
D03*
X-155709D02*
D03*
X-148228Y206102D02*
D03*
X-48228Y184449D02*
D03*
X-55709Y184449D02*
D03*
X38386Y201575D02*
D03*
X45866Y201575D02*
D03*
X121260Y202756D02*
D03*
X113779Y202756D02*
D03*
X189173Y203346D02*
D03*
X196653Y203346D02*
D03*
X-1181890Y127165D02*
D03*
X-1189370Y127165D02*
D03*
X-1105709D02*
D03*
X-1098228Y127165D02*
D03*
X-1014567D02*
D03*
X-1022047Y127165D02*
D03*
X-394291Y127165D02*
D03*
X-401772Y127165D02*
D03*
X-316535D02*
D03*
X-309055Y127165D02*
D03*
X-225394D02*
D03*
X-232874Y127165D02*
D03*
X-130709Y107677D02*
D03*
X-123228Y107677D02*
D03*
X-48622Y107874D02*
D03*
X-56102Y107874D02*
D03*
X19291D02*
D03*
X26772Y107874D02*
D03*
X117126Y121260D02*
D03*
X109646Y121260D02*
D03*
X185630Y125394D02*
D03*
X193110Y125394D02*
D03*
X264173Y137402D02*
D03*
X256693Y137402D02*
D03*
X268504Y284646D02*
D03*
X275984Y284646D02*
D03*
X275197Y394291D02*
D03*
X267717Y394291D02*
D03*
X-1149213Y172441D02*
D03*
X-1141732Y172441D02*
D03*
X-793504Y94882D02*
D03*
X-786024Y94882D02*
D03*
X-1038189Y237992D02*
D03*
X-1030709Y237992D02*
D03*
X70079Y385433D02*
D03*
X62598Y385433D02*
D03*
X142126Y387008D02*
D03*
X149606Y387008D02*
D03*
X69291Y313189D02*
D03*
X76772Y313189D02*
D03*
X143701Y313189D02*
D03*
X151181Y313189D02*
D03*
X69685Y238189D02*
D03*
X77165Y238189D02*
D03*
X143110Y238189D02*
D03*
X150591Y238189D02*
D03*
X217520Y238189D02*
D03*
X225000Y238189D02*
D03*
X217717Y313189D02*
D03*
X225197Y313189D02*
D03*
X45472Y213386D02*
D03*
X37992Y213386D02*
D03*
X119685Y213976D02*
D03*
X112205Y213976D02*
D03*
X218701Y162992D02*
D03*
X226181Y162992D02*
D03*
X265551Y145669D02*
D03*
X258071Y145669D02*
D03*
X275984Y292126D02*
D03*
X268504Y292126D02*
D03*
X291142Y387008D02*
D03*
X283661Y387008D02*
D03*
X217913Y387008D02*
D03*
X210433Y387008D02*
D03*
X-819291Y95079D02*
D03*
X-826772Y95079D02*
D03*
X2441Y242430D02*
D03*
X9921Y242430D02*
D03*
X17380Y242430D02*
D03*
X24861Y242430D02*
D03*
X-44291Y246063D02*
D03*
X-51772Y246063D02*
D03*
X13620Y272480D02*
D03*
X21100Y272480D02*
D03*
X-1094488Y387795D02*
D03*
X-1087008Y387795D02*
D03*
X-944452Y387795D02*
D03*
X-936972Y387795D02*
D03*
X-869435Y387795D02*
D03*
X-861954Y387795D02*
D03*
X-794417Y387795D02*
D03*
X-786936Y387795D02*
D03*
X-719399Y387795D02*
D03*
X-711918Y387795D02*
D03*
X-644381Y387795D02*
D03*
X-636901Y387795D02*
D03*
X-569363Y387795D02*
D03*
X-561883Y387795D02*
D03*
X-494345Y387795D02*
D03*
X-486865Y387795D02*
D03*
X-419327Y387795D02*
D03*
X-411847Y387795D02*
D03*
X-344309Y387795D02*
D03*
X-336829Y387795D02*
D03*
X-269291Y387795D02*
D03*
X-261811Y387795D02*
D03*
X-24213Y387402D02*
D03*
X-31693Y387402D02*
D03*
X-1019470Y387795D02*
D03*
X-1011990Y387795D02*
D03*
X-1057087Y313386D02*
D03*
X-1049606Y313386D02*
D03*
X-982087Y313386D02*
D03*
X-974606Y313386D02*
D03*
X-907087Y313386D02*
D03*
X-899606Y313386D02*
D03*
X-832087Y313386D02*
D03*
X-824606Y313386D02*
D03*
X-757087Y313386D02*
D03*
X-749606Y313386D02*
D03*
X-682087Y313386D02*
D03*
X-674606Y313386D02*
D03*
X-607087Y313386D02*
D03*
X-599606Y313386D02*
D03*
X-532087Y313386D02*
D03*
X-524606Y313386D02*
D03*
X-457087Y313386D02*
D03*
X-449606Y313386D02*
D03*
X-382087Y313386D02*
D03*
X-374606Y313386D02*
D03*
X-307087Y313386D02*
D03*
X-299606Y313386D02*
D03*
X-232087Y313386D02*
D03*
X-224606Y313386D02*
D03*
X-138779Y313189D02*
D03*
X-131299Y313189D02*
D03*
X-25591Y313189D02*
D03*
X-18110Y313189D02*
D03*
X-963150Y237992D02*
D03*
X-955669Y237992D02*
D03*
X-888110Y237992D02*
D03*
X-880630Y237992D02*
D03*
X-813071Y237992D02*
D03*
X-805591Y237992D02*
D03*
X-738031Y237992D02*
D03*
X-730551Y237992D02*
D03*
X-662992Y237992D02*
D03*
X-655512Y237992D02*
D03*
X-587953Y237992D02*
D03*
X-580472Y237992D02*
D03*
X-512913Y237992D02*
D03*
X-505433Y237992D02*
D03*
X-437874Y237992D02*
D03*
X-430394Y237992D02*
D03*
X-362835Y237992D02*
D03*
X-355354Y237992D02*
D03*
X-287795Y237992D02*
D03*
X-280315Y237992D02*
D03*
X-172638Y237402D02*
D03*
X-165157Y237402D02*
D03*
X-1000787Y163189D02*
D03*
X-993307Y163189D02*
D03*
X-925748Y163189D02*
D03*
X-918268Y163189D02*
D03*
X-850709Y163189D02*
D03*
X-843228Y163189D02*
D03*
X-794291Y213386D02*
D03*
X-801772Y213386D02*
D03*
X-724606Y213386D02*
D03*
X-732087Y213386D02*
D03*
X-645866Y213386D02*
D03*
X-653346Y213386D02*
D03*
X-569744Y212598D02*
D03*
X-577224Y212598D02*
D03*
X-497485Y213386D02*
D03*
X-504965Y213386D02*
D03*
X-425197Y213386D02*
D03*
X-432677Y213386D02*
D03*
X-344685Y213386D02*
D03*
X-352165Y213386D02*
D03*
X-249016Y213386D02*
D03*
X-256496Y213386D02*
D03*
X-150197Y213386D02*
D03*
X-157677Y213386D02*
D03*
X-43110Y195472D02*
D03*
X-50591Y195472D02*
D03*
X-1175787Y137795D02*
D03*
X-1183268Y137795D02*
D03*
X-1092224Y137795D02*
D03*
X-1099705Y137795D02*
D03*
X-1008661Y137795D02*
D03*
X-1016142Y137795D02*
D03*
X-394291Y134252D02*
D03*
X-401772Y134252D02*
D03*
X-308858Y134252D02*
D03*
X-316339Y134252D02*
D03*
X-225590Y134252D02*
D03*
X-233071Y134252D02*
D03*
X-119488Y118898D02*
D03*
X-126969Y118898D02*
D03*
X-42323Y120079D02*
D03*
X-49803Y120079D02*
D03*
X32480Y120079D02*
D03*
X25000Y120079D02*
D03*
X117913Y127953D02*
D03*
X110433Y127953D02*
D03*
X194882Y135433D02*
D03*
X187402Y135433D02*
D03*
X-1167520Y386811D02*
D03*
X-1160039Y386811D02*
D03*
X-1152165Y313189D02*
D03*
X-1144685Y313189D02*
D03*
X-1152165Y303937D02*
D03*
X-1144685Y303937D02*
D03*
X-1124213Y161614D02*
D03*
X-1116732Y161614D02*
D03*
X-768898Y94882D02*
D03*
X-776378Y94882D02*
D03*
D53*
X11258Y450013D02*
D03*
X14408D02*
D03*
X16376D02*
D03*
X20313D02*
D03*
X26219D02*
D03*
X30156D02*
D03*
X32124D02*
D03*
X35274D02*
D03*
X36258D02*
D03*
X33109D02*
D03*
X28187D02*
D03*
X24250D02*
D03*
X22282D02*
D03*
X18345D02*
D03*
X13424D02*
D03*
X10274D02*
D03*
D54*
X-1111877Y388583D02*
D03*
X-1111877Y396063D02*
D03*
X-1036942D02*
D03*
X-1036942Y388583D02*
D03*
X-962008D02*
D03*
X-962008Y396063D02*
D03*
X-887074D02*
D03*
X-887074Y388583D02*
D03*
X-812139D02*
D03*
X-812139Y396063D02*
D03*
X-737205D02*
D03*
X-737205Y388583D02*
D03*
X-662270D02*
D03*
X-662270Y396063D02*
D03*
X-587336D02*
D03*
X-587336Y388583D02*
D03*
X-512402D02*
D03*
X-512402Y396063D02*
D03*
X-437467D02*
D03*
X-437467Y388583D02*
D03*
X-362533D02*
D03*
X-362533Y396063D02*
D03*
X-287598D02*
D03*
X-287598Y388583D02*
D03*
X-174606D02*
D03*
X-174606Y396063D02*
D03*
X-42323D02*
D03*
X-42323Y388583D02*
D03*
X51772D02*
D03*
X51772Y396063D02*
D03*
X124803D02*
D03*
X124803Y388583D02*
D03*
X-1074459Y313583D02*
D03*
X-1074459Y321063D02*
D03*
X-999386Y321813D02*
D03*
X-999386Y314332D02*
D03*
X-924437D02*
D03*
X-924437Y321813D02*
D03*
X-849488D02*
D03*
X-849488Y314332D02*
D03*
X-774342D02*
D03*
X-774342Y321813D02*
D03*
X-698803D02*
D03*
X-698803Y314332D02*
D03*
X-623854D02*
D03*
X-623854Y321813D02*
D03*
X-548905D02*
D03*
X-548905Y314332D02*
D03*
X-473956D02*
D03*
X-473956Y321813D02*
D03*
X-399008D02*
D03*
X-399008Y314332D02*
D03*
X-324059D02*
D03*
X-324059Y321813D02*
D03*
X-249110Y321419D02*
D03*
X-249110Y313939D02*
D03*
X-155897Y314332D02*
D03*
X-155897Y321813D02*
D03*
X-42547D02*
D03*
X-42547Y314332D02*
D03*
X51968D02*
D03*
X51968Y321813D02*
D03*
X125787D02*
D03*
X125787Y314332D02*
D03*
X-980791Y238779D02*
D03*
X-980791Y246260D02*
D03*
X-905752D02*
D03*
X-905752Y238779D02*
D03*
X-830713D02*
D03*
X-830713Y246260D02*
D03*
X-755673D02*
D03*
X-755673Y238779D02*
D03*
X-680634D02*
D03*
X-680634Y246260D02*
D03*
X-605595D02*
D03*
X-605595Y238779D02*
D03*
X-530555D02*
D03*
X-530555Y246260D02*
D03*
X-455516D02*
D03*
X-455516Y238779D02*
D03*
X-380476D02*
D03*
X-380476Y246260D02*
D03*
X-305437D02*
D03*
X-305437Y238779D02*
D03*
X-184252Y238386D02*
D03*
X-184252Y245866D02*
D03*
X49803D02*
D03*
X49803Y238386D02*
D03*
X126181D02*
D03*
X126181Y245866D02*
D03*
X201378D02*
D03*
X201378Y238386D02*
D03*
X201575Y314332D02*
D03*
X201575Y321813D02*
D03*
X-1018331Y171260D02*
D03*
X-1018331Y163779D02*
D03*
X-943311D02*
D03*
X-943311Y171260D02*
D03*
X-868291D02*
D03*
X-868291Y163779D02*
D03*
X-712795Y109840D02*
D03*
X-712795Y117321D02*
D03*
X200984Y387992D02*
D03*
X200984Y395472D02*
D03*
X-1186811Y399016D02*
D03*
X-1186811Y391535D02*
D03*
X-1169882Y317520D02*
D03*
X-1169882Y325000D02*
D03*
X-1176772Y246850D02*
D03*
X-1176772Y239370D02*
D03*
X-1055831Y246260D02*
D03*
X-1055831Y238779D02*
D03*
X-838780Y146260D02*
D03*
X-838780Y138779D02*
D03*
X-838780Y122677D02*
D03*
X-838780Y130157D02*
D03*
X-838780Y104921D02*
D03*
X-838780Y112402D02*
D03*
X-767520Y146653D02*
D03*
X-767520Y139173D02*
D03*
X-820079Y162601D02*
D03*
X-820079Y170082D02*
D03*
X-796063Y170003D02*
D03*
X-796063Y162523D02*
D03*
X-744995Y117655D02*
D03*
X-744995Y110175D02*
D03*
X-66110Y282087D02*
D03*
X-66110Y274606D02*
D03*
X-156815Y385940D02*
D03*
X-156815Y378460D02*
D03*
X-828740Y162523D02*
D03*
X-828740Y170003D02*
D03*
X-722859Y117655D02*
D03*
X-722859Y110175D02*
D03*
X29626Y407087D02*
D03*
X29626Y414567D02*
D03*
X18799Y407087D02*
D03*
X18799Y414567D02*
D03*
X4134Y421693D02*
D03*
X4134Y429173D02*
D03*
X11319Y421693D02*
D03*
X11319Y429173D02*
D03*
X-7150Y267548D02*
D03*
X-7150Y260068D02*
D03*
X-224000Y399528D02*
D03*
X-224000Y392047D02*
D03*
X-186536Y387076D02*
D03*
X-186536Y379596D02*
D03*
D55*
X18602Y421850D02*
D03*
D56*
Y425591D02*
D03*
Y429331D02*
D03*
X31250Y421850D02*
D03*
Y425591D02*
D03*
Y429331D02*
D03*
D57*
X-825984Y109646D02*
D03*
D58*
Y112795D02*
D03*
Y115945D02*
D03*
Y119095D02*
D03*
Y122244D02*
D03*
Y125394D02*
D03*
Y128543D02*
D03*
Y131693D02*
D03*
Y134843D02*
D03*
Y137992D02*
D03*
Y141142D02*
D03*
X-782677D02*
D03*
Y137992D02*
D03*
Y134843D02*
D03*
Y131693D02*
D03*
Y128543D02*
D03*
Y125394D02*
D03*
Y122244D02*
D03*
Y119095D02*
D03*
Y115945D02*
D03*
Y112795D02*
D03*
Y109646D02*
D03*
D59*
X-820079Y147047D02*
D03*
X-816929D02*
D03*
X-813780D02*
D03*
X-810630D02*
D03*
X-807480D02*
D03*
X-804331D02*
D03*
X-801181D02*
D03*
X-798032D02*
D03*
X-794882D02*
D03*
X-791732D02*
D03*
X-788583D02*
D03*
Y103740D02*
D03*
X-791732D02*
D03*
X-794882D02*
D03*
X-798032D02*
D03*
X-801181D02*
D03*
X-804331D02*
D03*
X-807480D02*
D03*
X-810630D02*
D03*
X-813780D02*
D03*
X-816929D02*
D03*
X-820079D02*
D03*
D60*
X-43317Y260624D02*
D03*
D61*
X-52694Y264305D02*
D03*
Y256824D02*
D03*
D62*
X-625000Y138976D02*
D03*
D63*
X-620000D02*
D03*
X-615000D02*
D03*
X-610000D02*
D03*
X-605000D02*
D03*
X-600000D02*
D03*
X-595000D02*
D03*
X-590000D02*
D03*
X-585000D02*
D03*
X-580000D02*
D03*
X-575000D02*
D03*
X-570000D02*
D03*
Y98976D02*
D03*
X-575000D02*
D03*
X-580000D02*
D03*
X-585000D02*
D03*
X-590000D02*
D03*
X-595000D02*
D03*
X-600000D02*
D03*
X-605000D02*
D03*
X-610000D02*
D03*
X-615000D02*
D03*
X-620000D02*
D03*
X-625000D02*
D03*
D64*
X-812598Y162759D02*
D03*
X-803543Y169845D02*
D03*
Y162759D02*
D03*
D65*
X-812598Y169845D02*
D03*
D66*
X-257087Y106890D02*
D03*
X-310433Y96850D02*
D03*
X-1044488Y106890D02*
D03*
X-1097835Y96850D02*
D03*
D67*
X-733508Y118269D02*
D03*
X6160Y260068D02*
D03*
X21100D02*
D03*
D68*
X-737189Y108891D02*
D03*
X-729708D02*
D03*
X2480Y250690D02*
D03*
X9960D02*
D03*
X17420D02*
D03*
X24900D02*
D03*
D69*
X23228Y468898D02*
D03*
M02*
