%FSLAX25Y25*%
%MOIN*%
G70*
G01*
G75*
%ADD10C,0.01500*%
%ADD11C,0.03937*%
%ADD12C,0.01000*%
%ADD13C,0.01575*%
%ADD14C,0.03150*%
%ADD15C,0.01400*%
%ADD16C,0.01969*%
%ADD17R,0.04724X0.06300*%
%ADD18O,0.04724X0.06300*%
%ADD19C,0.06689*%
%ADD20O,0.09840X0.08800*%
%ADD21O,0.08661X0.09840*%
%ADD22C,0.16929*%
%ADD23C,0.09840*%
%ADD24C,0.12000*%
%ADD25C,0.15700*%
%ADD26O,0.03937X0.09449*%
%ADD27C,0.02756*%
%ADD28C,0.02362*%
%ADD29O,0.05118X0.07087*%
%ADD30R,0.05118X0.07087*%
%ADD31O,0.07087X0.05906*%
%ADD32R,0.07087X0.05906*%
%ADD33C,0.07874*%
%ADD34C,0.07087*%
%ADD35C,0.13780*%
%ADD36O,0.14000X0.13000*%
%ADD37O,0.06300X0.04724*%
%ADD38R,0.06300X0.04724*%
%ADD39C,0.08661*%
G04:AMPARAMS|DCode=40|XSize=47.24mil|YSize=63mil|CornerRadius=0mil|HoleSize=0mil|Usage=FLASHONLY|Rotation=0.000|XOffset=0mil|YOffset=0mil|HoleType=Round|Shape=Octagon|*
%AMOCTAGOND40*
4,1,8,-0.01181,0.03150,0.01181,0.03150,0.02362,0.01969,0.02362,-0.01969,0.01181,-0.03150,-0.01181,-0.03150,-0.02362,-0.01969,-0.02362,0.01969,-0.01181,0.03150,0.0*
%
%ADD40OCTAGOND40*%

%ADD41O,0.08000X0.09840*%
%ADD42O,0.08661X0.09843*%
%ADD43C,0.06693*%
%ADD44O,0.08661X0.09839*%
%ADD45C,0.15669*%
%ADD46O,0.08661X0.09840*%
%ADD47O,0.09840X0.08661*%
%ADD48C,0.15669*%
%ADD49C,0.02441*%
%ADD50C,0.03150*%
%ADD51C,0.03937*%
%ADD52R,0.04331X0.04921*%
%ADD53R,0.00984X0.05118*%
%ADD54R,0.04921X0.04331*%
%ADD55R,0.05906X0.01969*%
%ADD56O,0.05906X0.01969*%
%ADD57O,0.07874X0.01969*%
%ADD58R,0.07874X0.01969*%
%ADD59R,0.01969X0.07874*%
%ADD60R,0.04724X0.03937*%
%ADD61R,0.03543X0.03937*%
%ADD62R,0.02559X0.07874*%
%ADD63O,0.02559X0.07874*%
%ADD64R,0.05118X0.04331*%
%ADD65R,0.03937X0.03937*%
%ADD66R,0.11811X0.09843*%
%ADD67R,0.03937X0.04724*%
%ADD68R,0.03937X0.03543*%
%ADD69R,0.19685X0.15748*%
%ADD70C,0.02362*%
%ADD71C,0.02756*%
%ADD72C,0.00394*%
%ADD73R,0.05524X0.07100*%
%ADD74O,0.05524X0.07100*%
%ADD75C,0.07489*%
%ADD76O,0.10640X0.09600*%
%ADD77O,0.09461X0.10640*%
%ADD78C,0.17729*%
%ADD79C,0.10640*%
%ADD80C,0.12800*%
%ADD81C,0.16500*%
%ADD82O,0.04737X0.10249*%
%ADD83C,0.03556*%
%ADD84C,0.03162*%
%ADD85O,0.05918X0.07887*%
%ADD86R,0.05918X0.07887*%
%ADD87O,0.07887X0.06706*%
%ADD88R,0.07887X0.06706*%
%ADD89C,0.08674*%
%ADD90C,0.07887*%
%ADD91C,0.14579*%
%ADD92O,0.14800X0.13800*%
%ADD93O,0.07100X0.05524*%
%ADD94R,0.07100X0.05524*%
%ADD95C,0.09461*%
G04:AMPARAMS|DCode=96|XSize=55.24mil|YSize=71mil|CornerRadius=0mil|HoleSize=0mil|Usage=FLASHONLY|Rotation=0.000|XOffset=0mil|YOffset=0mil|HoleType=Round|Shape=Octagon|*
%AMOCTAGOND96*
4,1,8,-0.01381,0.03550,0.01381,0.03550,0.02762,0.02169,0.02762,-0.02169,0.01381,-0.03550,-0.01381,-0.03550,-0.02762,-0.02169,-0.02762,0.02169,-0.01381,0.03550,0.0*
%
%ADD96OCTAGOND96*%

%ADD97O,0.08800X0.10640*%
%ADD98O,0.09461X0.10642*%
%ADD99C,0.07493*%
%ADD100O,0.09461X0.10639*%
%ADD101C,0.16469*%
%ADD102O,0.09461X0.10640*%
%ADD103O,0.10640X0.09461*%
%ADD104C,0.16469*%
%ADD105C,0.03950*%
%ADD106C,0.04737*%
%ADD107R,0.05131X0.05721*%
%ADD108R,0.01784X0.05918*%
%ADD109R,0.05721X0.05131*%
%ADD110R,0.06706X0.02769*%
%ADD111O,0.06706X0.02769*%
%ADD112O,0.08674X0.02769*%
%ADD113R,0.08674X0.02769*%
%ADD114R,0.02769X0.08674*%
%ADD115R,0.05524X0.04737*%
%ADD116R,0.04343X0.04737*%
%ADD117R,0.03359X0.08674*%
%ADD118O,0.03359X0.08674*%
%ADD119R,0.05918X0.05131*%
%ADD120R,0.04737X0.04737*%
%ADD121R,0.12611X0.10642*%
%ADD122R,0.04737X0.05524*%
%ADD123R,0.04737X0.04343*%
%ADD124R,0.20485X0.16548*%
%ADD125C,0.00787*%
%ADD126C,0.00197*%
%ADD127C,0.01200*%
%ADD128C,0.00591*%
%ADD129C,0.00472*%
%ADD130C,0.00500*%
D130*
X-162522Y436929D02*
X-159321D01*
X-160921Y435329D02*
Y438529D01*
X-154686Y436929D02*
X-151486D01*
X-153086Y435329D02*
Y438529D01*
X-178266Y416929D02*
X-171577D01*
X-174921Y413585D02*
Y420274D01*
X-142876Y406929D02*
X-136967D01*
X-139921Y403974D02*
Y409884D01*
X-167876Y396929D02*
X-161967D01*
X-164921Y393974D02*
Y399884D01*
X-162756Y416929D02*
X-147087D01*
X-154921Y409094D02*
Y424764D01*
X-147876Y436929D02*
X-141967D01*
X-144921Y433974D02*
Y439884D01*
X-172876Y426929D02*
X-166967D01*
X-169921Y423974D02*
Y429884D01*
X-138266Y416929D02*
X-131577D01*
X-134921Y413585D02*
Y420274D01*
X-158415Y396929D02*
X-155215D01*
X-156815Y395329D02*
Y398530D01*
X-150522Y396929D02*
X-147321D01*
X-148921Y395329D02*
Y398530D01*
X-1173472Y219429D02*
X-1161473D01*
X-1167472Y213429D02*
Y225429D01*
X-1079473Y219429D02*
X-1067472D01*
X-1073472Y213429D02*
Y225429D01*
X-1175323Y159429D02*
X-1159622D01*
X-1167472Y151579D02*
Y167279D01*
X-1081322Y159429D02*
X-1065623D01*
X-1073472Y151579D02*
Y167279D01*
X254729Y107331D02*
X270428D01*
X262579Y99481D02*
Y115181D01*
X254729Y201331D02*
X270428D01*
X262579Y193481D02*
Y209181D01*
X316579Y107331D02*
X328578D01*
X322579Y101331D02*
Y113331D01*
X316579Y201331D02*
X328578D01*
X322579Y195331D02*
Y207331D01*
X254729Y257528D02*
X270428D01*
X262579Y249678D02*
Y265378D01*
X254729Y351528D02*
X270428D01*
X262579Y343678D02*
Y359378D01*
X316579Y257528D02*
X328578D01*
X322579Y251528D02*
Y263528D01*
X316579Y351528D02*
X328578D01*
X322579Y345528D02*
Y357528D01*
X-115771Y384429D02*
X-100071D01*
X-107921Y376579D02*
Y392279D01*
X-209771Y384429D02*
X-194071D01*
X-201921Y376579D02*
Y392279D01*
X-113921Y444429D02*
X-101921D01*
X-107921Y438429D02*
Y450429D01*
X-207921Y444429D02*
X-195921D01*
X-201921Y438429D02*
Y450429D01*
X-237782Y224080D02*
X-222082D01*
X-229932Y216230D02*
Y231930D01*
X-143782Y224080D02*
X-128082D01*
X-135932Y216230D02*
Y231930D01*
X-235932Y164080D02*
X-223932D01*
X-229932Y158080D02*
Y170080D01*
X-141932Y164080D02*
X-129932D01*
X-135932Y158080D02*
Y170080D01*
X4861Y470052D02*
X7616D01*
X6239Y468674D02*
Y471430D01*
X38916Y470052D02*
X41672D01*
X40294Y468674D02*
Y471430D01*
X38916Y470052D02*
X41672D01*
X40294Y468674D02*
Y471430D01*
X38916Y470052D02*
X41672D01*
X40294Y468674D02*
Y471430D01*
X38916Y469659D02*
X41672D01*
X40294Y468281D02*
Y471036D01*
X38916Y469265D02*
X41672D01*
X40294Y467887D02*
Y470643D01*
X38916Y468871D02*
X41672D01*
X40294Y467493D02*
Y470249D01*
X38916Y468477D02*
X41672D01*
X40294Y467099D02*
Y469855D01*
X38916Y468084D02*
X41672D01*
X40294Y466706D02*
Y469462D01*
X38916Y467690D02*
X41672D01*
X40294Y466312D02*
Y469068D01*
X38916Y472414D02*
X41672D01*
X40294Y471036D02*
Y473792D01*
X38916Y472021D02*
X41672D01*
X40294Y470643D02*
Y473399D01*
X38916Y471627D02*
X41672D01*
X40294Y470249D02*
Y473005D01*
X38916Y471233D02*
X41672D01*
X40294Y469855D02*
Y472611D01*
X38916Y470840D02*
X41672D01*
X40294Y469462D02*
Y472218D01*
X38916Y470446D02*
X41672D01*
X40294Y469068D02*
Y471824D01*
X38916Y470052D02*
X41672D01*
X40294Y468674D02*
Y471430D01*
X38916Y470052D02*
X41672D01*
X40294Y468674D02*
Y471430D01*
X4861Y470052D02*
X7616D01*
X6239Y468674D02*
Y471430D01*
X4861Y470052D02*
X7616D01*
X6239Y468674D02*
Y471430D01*
X4861Y469659D02*
X7616D01*
X6239Y468281D02*
Y471036D01*
X4861Y469265D02*
X7616D01*
X6239Y467887D02*
Y470643D01*
X4861Y468871D02*
X7616D01*
X6239Y467493D02*
Y470249D01*
X4861Y468477D02*
X7616D01*
X6239Y467099D02*
Y469855D01*
X4861Y468084D02*
X7616D01*
X6239Y466706D02*
Y469462D01*
X4861Y467690D02*
X7616D01*
X6239Y466312D02*
Y469068D01*
X4861Y472414D02*
X7616D01*
X6239Y471036D02*
Y473792D01*
X4861Y472021D02*
X7616D01*
X6239Y470643D02*
Y473399D01*
X4861Y471627D02*
X7616D01*
X6239Y470249D02*
Y473005D01*
X4861Y471233D02*
X7616D01*
X6239Y469855D02*
Y472611D01*
X4861Y470840D02*
X7616D01*
X6239Y469462D02*
Y472218D01*
X4861Y470446D02*
X7616D01*
X6239Y469068D02*
Y471824D01*
X4861Y470052D02*
X7616D01*
X6239Y468674D02*
Y471430D01*
X4861Y470052D02*
X7616D01*
X6239Y468674D02*
Y471430D01*
X38916Y453595D02*
X41672D01*
X40294Y452218D02*
Y454973D01*
X38916Y453595D02*
X41672D01*
X40294Y452218D02*
Y454973D01*
X38916Y453202D02*
X41672D01*
X40294Y451824D02*
Y454580D01*
X38916Y452808D02*
X41672D01*
X40294Y451430D02*
Y454186D01*
X38916Y452414D02*
X41672D01*
X40294Y451036D02*
Y453792D01*
X38916Y452021D02*
X41672D01*
X40294Y450643D02*
Y453399D01*
X38916Y451627D02*
X41672D01*
X40294Y450249D02*
Y453005D01*
X38916Y451233D02*
X41672D01*
X40294Y449855D02*
Y452611D01*
X38916Y450840D02*
X41672D01*
X40294Y449462D02*
Y452217D01*
X38916Y456351D02*
X41672D01*
X40294Y454974D02*
Y457729D01*
X38916Y455958D02*
X41672D01*
X40294Y454580D02*
Y457336D01*
X38916Y455564D02*
X41672D01*
X40294Y454186D02*
Y456942D01*
X38916Y455170D02*
X41672D01*
X40294Y453792D02*
Y456548D01*
X38916Y454777D02*
X41672D01*
X40294Y453399D02*
Y456155D01*
X38916Y454383D02*
X41672D01*
X40294Y453005D02*
Y455761D01*
X38916Y453989D02*
X41672D01*
X40294Y452611D02*
Y455367D01*
X38916Y453595D02*
X41672D01*
X40294Y452218D02*
Y454973D01*
X38916Y453595D02*
X41672D01*
X40294Y452218D02*
Y454973D01*
X4861Y453595D02*
X7616D01*
X6239Y452218D02*
Y454973D01*
X4861Y453595D02*
X7616D01*
X6239Y452218D02*
Y454973D01*
X4861Y453989D02*
X7616D01*
X6239Y452611D02*
Y455367D01*
X4861Y454383D02*
X7616D01*
X6239Y453005D02*
Y455761D01*
X4861Y454777D02*
X7616D01*
X6239Y453399D02*
Y456155D01*
X4861Y455170D02*
X7616D01*
X6239Y453792D02*
Y456548D01*
X4861Y455564D02*
X7616D01*
X6239Y454186D02*
Y456942D01*
X4861Y455958D02*
X7616D01*
X6239Y454580D02*
Y457336D01*
X4861Y456351D02*
X7616D01*
X6239Y454974D02*
Y457729D01*
X4861Y450840D02*
X7616D01*
X6239Y449462D02*
Y452217D01*
X4861Y451233D02*
X7616D01*
X6239Y449855D02*
Y452611D01*
X4861Y451627D02*
X7616D01*
X6239Y450249D02*
Y453005D01*
X4861Y452021D02*
X7616D01*
X6239Y450643D02*
Y453399D01*
X4861Y452414D02*
X7616D01*
X6239Y451036D02*
Y453792D01*
X4861Y452808D02*
X7616D01*
X6239Y451430D02*
Y454186D01*
X4861Y453202D02*
X7616D01*
X6239Y451824D02*
Y454580D01*
X4861Y453595D02*
X7616D01*
X6239Y452218D02*
Y454973D01*
X4861Y453595D02*
X7616D01*
X6239Y452218D02*
Y454973D01*
X10717Y455512D02*
X13080D01*
X11898Y454331D02*
Y456693D01*
X33465Y455512D02*
X35827D01*
X34646Y454331D02*
Y456693D01*
X4861Y453595D02*
X7616D01*
X6239Y452218D02*
Y454973D01*
X38916Y453595D02*
X41672D01*
X40294Y452218D02*
Y454973D01*
X3453Y282087D02*
X6603D01*
X5028Y280512D02*
Y283661D01*
X-6547Y282087D02*
X-3397D01*
X-4972Y280512D02*
Y283661D01*
X-701181Y274961D02*
X-697638D01*
X-699409Y273189D02*
Y276732D01*
X-701181Y264961D02*
X-697638D01*
X-699409Y263189D02*
Y266732D01*
X43581Y118228D02*
X46782D01*
X45181Y116628D02*
Y119829D01*
X51416Y118228D02*
X54617D01*
X53016Y116628D02*
Y119829D01*
X27837Y98228D02*
X34526D01*
X31181Y94884D02*
Y101573D01*
X63226Y88228D02*
X69136D01*
X66181Y85274D02*
Y91183D01*
X38226Y78228D02*
X44136D01*
X41181Y75274D02*
Y81183D01*
X43347Y98228D02*
X59016D01*
X51181Y90394D02*
Y106063D01*
X58226Y118228D02*
X64136D01*
X61181Y115274D02*
Y121183D01*
X33226Y108228D02*
X39136D01*
X36181Y105274D02*
Y111183D01*
X67837Y98228D02*
X74526D01*
X71181Y94884D02*
Y101573D01*
X47687Y78228D02*
X50888D01*
X49287Y76628D02*
Y79829D01*
X55581Y78228D02*
X58781D01*
X57181Y76628D02*
Y79829D01*
X-269565Y116929D02*
X-262876D01*
X-266220Y113585D02*
Y120274D01*
X-294055Y116929D02*
X-278386D01*
X-286221Y109095D02*
Y124764D01*
X-302126Y96929D02*
X-290315D01*
X-296220Y91024D02*
Y102835D01*
X-277126Y106929D02*
X-265315D01*
X-271220Y101024D02*
Y112835D01*
X-309565Y116929D02*
X-302876D01*
X-306221Y113585D02*
Y120274D01*
X-285927Y136929D02*
X-282726D01*
X-284327Y135329D02*
Y138530D01*
X-293821Y136929D02*
X-290620D01*
X-292220Y135329D02*
Y138530D01*
X-209372Y136929D02*
X-206171D01*
X-207772Y135329D02*
Y138530D01*
X-201537Y136929D02*
X-198336D01*
X-199936Y135329D02*
Y138530D01*
X-225116Y116929D02*
X-218427D01*
X-221772Y113585D02*
Y120274D01*
X-189726Y106929D02*
X-183817D01*
X-186772Y103974D02*
Y109884D01*
X-214726Y96929D02*
X-208817D01*
X-211772Y93974D02*
Y99884D01*
X-209606Y116929D02*
X-193937D01*
X-201772Y109095D02*
Y124764D01*
X-194726Y136929D02*
X-188817D01*
X-191772Y133974D02*
Y139884D01*
X-219726Y126929D02*
X-213817D01*
X-216772Y123974D02*
Y129884D01*
X-185116Y116929D02*
X-178427D01*
X-181772Y113585D02*
Y120274D01*
X-205266Y96929D02*
X-202065D01*
X-203665Y95329D02*
Y98529D01*
X-197372Y96929D02*
X-194171D01*
X-195772Y95329D02*
Y98529D01*
X-378073Y136929D02*
X-374872D01*
X-376472Y135329D02*
Y138530D01*
X-370237Y136929D02*
X-367037D01*
X-368637Y135329D02*
Y138530D01*
X-393817Y116929D02*
X-387128D01*
X-390472Y113585D02*
Y120274D01*
X-358427Y106929D02*
X-352518D01*
X-355472Y103974D02*
Y109884D01*
X-383427Y96929D02*
X-377518D01*
X-380472Y93974D02*
Y99884D01*
X-378307Y116929D02*
X-362638D01*
X-370472Y109095D02*
Y124764D01*
X-363427Y136929D02*
X-357518D01*
X-360472Y133974D02*
Y139884D01*
X-388427Y126929D02*
X-382518D01*
X-385472Y123974D02*
Y129884D01*
X-353817Y116929D02*
X-347128D01*
X-350472Y113585D02*
Y120274D01*
X-373967Y96929D02*
X-370766D01*
X-372366Y95329D02*
Y98529D01*
X-366073Y96929D02*
X-362872D01*
X-364472Y95329D02*
Y98529D01*
X-996970Y136929D02*
X-993770D01*
X-995370Y135329D02*
Y138530D01*
X-989135Y136929D02*
X-985934D01*
X-987535Y135329D02*
Y138530D01*
X-1012715Y116929D02*
X-1006026D01*
X-1009370Y113585D02*
Y120274D01*
X-977325Y106929D02*
X-971415D01*
X-974370Y103974D02*
Y109884D01*
X-1002325Y96929D02*
X-996415D01*
X-999370Y93974D02*
Y99884D01*
X-997205Y116929D02*
X-981536D01*
X-989370Y109095D02*
Y124764D01*
X-982325Y136929D02*
X-976415D01*
X-979370Y133974D02*
Y139884D01*
X-1007325Y126929D02*
X-1001415D01*
X-1004370Y123974D02*
Y129884D01*
X-972715Y116929D02*
X-966026D01*
X-969370Y113585D02*
Y120274D01*
X-992864Y96929D02*
X-989663D01*
X-991264Y95329D02*
Y98529D01*
X-984970Y96929D02*
X-981770D01*
X-983370Y95329D02*
Y98529D01*
X-1056966Y116929D02*
X-1050278D01*
X-1053622Y113585D02*
Y120274D01*
X-1081457Y116929D02*
X-1065787D01*
X-1073622Y109095D02*
Y124764D01*
X-1089528Y96929D02*
X-1077717D01*
X-1083622Y91024D02*
Y102835D01*
X-1064528Y106929D02*
X-1052717D01*
X-1058622Y101024D02*
Y112835D01*
X-1096966Y116929D02*
X-1090278D01*
X-1093622Y113585D02*
Y120274D01*
X-1073329Y136929D02*
X-1070128D01*
X-1071728Y135329D02*
Y138530D01*
X-1081222Y136929D02*
X-1078022D01*
X-1079622Y135329D02*
Y138530D01*
X-1165671Y136929D02*
X-1162471D01*
X-1164071Y135329D02*
Y138530D01*
X-1157836Y136929D02*
X-1154635D01*
X-1156236Y135329D02*
Y138530D01*
X-1181415Y116929D02*
X-1174726D01*
X-1178071Y113585D02*
Y120274D01*
X-1146026Y106929D02*
X-1140116D01*
X-1143071Y103974D02*
Y109884D01*
X-1171026Y96929D02*
X-1165116D01*
X-1168071Y93974D02*
Y99884D01*
X-1165905Y116929D02*
X-1150236D01*
X-1158071Y109095D02*
Y124764D01*
X-1151026Y136929D02*
X-1145116D01*
X-1148071Y133974D02*
Y139884D01*
X-1176026Y126929D02*
X-1170116D01*
X-1173071Y123974D02*
Y129884D01*
X-1141415Y116929D02*
X-1134726D01*
X-1138071Y113585D02*
Y120274D01*
X-1161565Y96929D02*
X-1158364D01*
X-1159965Y95329D02*
Y98529D01*
X-1153671Y96929D02*
X-1150471D01*
X-1152071Y95329D02*
Y98529D01*
X212478Y286732D02*
X215679D01*
X214079Y285132D02*
Y288333D01*
X220314Y286732D02*
X223514D01*
X221914Y285132D02*
Y288333D01*
X196734Y266732D02*
X203423D01*
X200079Y263388D02*
Y270077D01*
X232124Y256732D02*
X238033D01*
X235079Y253778D02*
Y259687D01*
X207124Y246732D02*
X213033D01*
X210079Y243778D02*
Y249687D01*
X212244Y266732D02*
X227913D01*
X220079Y258898D02*
Y274567D01*
X227124Y286732D02*
X233033D01*
X230079Y283778D02*
Y289687D01*
X202124Y276732D02*
X208033D01*
X205079Y273778D02*
Y279687D01*
X236734Y266732D02*
X243423D01*
X240079Y263388D02*
Y270077D01*
X216585Y246732D02*
X219785D01*
X218185Y245132D02*
Y248333D01*
X224478Y246732D02*
X227679D01*
X226079Y245132D02*
Y248333D01*
X-1174923Y436929D02*
X-1171723D01*
X-1173323Y435329D02*
Y438529D01*
X-1167088Y436929D02*
X-1163887D01*
X-1165487Y435329D02*
Y438529D01*
X-1190667Y416929D02*
X-1183978D01*
X-1187323Y413585D02*
Y420274D01*
X-1155278Y406929D02*
X-1149368D01*
X-1152323Y403974D02*
Y409884D01*
X-1180278Y396929D02*
X-1174368D01*
X-1177323Y393974D02*
Y399884D01*
X-1175158Y416929D02*
X-1159488D01*
X-1167323Y409094D02*
Y424764D01*
X-1160278Y436929D02*
X-1154368D01*
X-1157323Y433974D02*
Y439884D01*
X-1185278Y426929D02*
X-1179368D01*
X-1182323Y423974D02*
Y429884D01*
X-1150667Y416929D02*
X-1143978D01*
X-1147323Y413585D02*
Y420274D01*
X-1170817Y396929D02*
X-1167616D01*
X-1169217Y395329D02*
Y398530D01*
X-1162923Y396929D02*
X-1159723D01*
X-1161323Y395329D02*
Y398530D01*
X137478Y136732D02*
X140679D01*
X139079Y135132D02*
Y138333D01*
X145314Y136732D02*
X148514D01*
X146914Y135132D02*
Y138333D01*
X121734Y116732D02*
X128423D01*
X125079Y113388D02*
Y120077D01*
X157124Y106732D02*
X163033D01*
X160079Y103778D02*
Y109687D01*
X132124Y96732D02*
X138033D01*
X135079Y93778D02*
Y99687D01*
X137244Y116732D02*
X152913D01*
X145079Y108898D02*
Y124567D01*
X152124Y136732D02*
X158033D01*
X155079Y133778D02*
Y139687D01*
X127124Y126732D02*
X133033D01*
X130079Y123778D02*
Y129687D01*
X161734Y116732D02*
X168423D01*
X165079Y113388D02*
Y120077D01*
X141585Y96732D02*
X144785D01*
X143185Y95132D02*
Y98333D01*
X149478Y96732D02*
X152679D01*
X151079Y95132D02*
Y98333D01*
X224478Y171929D02*
X227679D01*
X226079Y170329D02*
Y173530D01*
X216585Y171929D02*
X219785D01*
X218185Y170329D02*
Y173530D01*
X236734Y191929D02*
X243423D01*
X240079Y188585D02*
Y195274D01*
X202124Y201929D02*
X208033D01*
X205079Y198974D02*
Y204884D01*
X227124Y211929D02*
X233033D01*
X230079Y208974D02*
Y214884D01*
X212244Y191929D02*
X227913D01*
X220079Y184095D02*
Y199764D01*
X207124Y171929D02*
X213033D01*
X210079Y168974D02*
Y174884D01*
X232124Y181929D02*
X238033D01*
X235079Y178974D02*
Y184884D01*
X196734Y191929D02*
X203423D01*
X200079Y188585D02*
Y195274D01*
X220314Y211929D02*
X223514D01*
X221914Y210329D02*
Y213529D01*
X212478Y211929D02*
X215679D01*
X214079Y210329D02*
Y213529D01*
X62478Y436929D02*
X65679D01*
X64079Y435329D02*
Y438529D01*
X70314Y436929D02*
X73514D01*
X71914Y435329D02*
Y438529D01*
X46734Y416929D02*
X53423D01*
X50079Y413585D02*
Y420274D01*
X82124Y406929D02*
X88033D01*
X85079Y403974D02*
Y409884D01*
X57124Y396929D02*
X63033D01*
X60079Y393974D02*
Y399884D01*
X62244Y416929D02*
X77913D01*
X70079Y409094D02*
Y424764D01*
X77124Y436929D02*
X83033D01*
X80079Y433974D02*
Y439884D01*
X52124Y426929D02*
X58033D01*
X55079Y423974D02*
Y429884D01*
X86734Y416929D02*
X93423D01*
X90079Y413585D02*
Y420274D01*
X66585Y396929D02*
X69785D01*
X68185Y395329D02*
Y398530D01*
X74478Y396929D02*
X77679D01*
X76079Y395329D02*
Y398530D01*
X149478Y396929D02*
X152679D01*
X151079Y395329D02*
Y398530D01*
X141585Y396929D02*
X144785D01*
X143185Y395329D02*
Y398530D01*
X161734Y416929D02*
X168423D01*
X165079Y413585D02*
Y420274D01*
X127124Y426929D02*
X133033D01*
X130079Y423974D02*
Y429884D01*
X152124Y436929D02*
X158033D01*
X155079Y433974D02*
Y439884D01*
X137244Y416929D02*
X152913D01*
X145079Y409094D02*
Y424764D01*
X132124Y396929D02*
X138033D01*
X135079Y393974D02*
Y399884D01*
X157124Y406929D02*
X163033D01*
X160079Y403974D02*
Y409884D01*
X121734Y416929D02*
X128423D01*
X125079Y413585D02*
Y420274D01*
X145314Y436929D02*
X148514D01*
X146914Y435329D02*
Y438529D01*
X137478Y436929D02*
X140679D01*
X139079Y435329D02*
Y438529D01*
X224478Y396929D02*
X227679D01*
X226079Y395329D02*
Y398530D01*
X216585Y396929D02*
X219785D01*
X218185Y395329D02*
Y398530D01*
X236734Y416929D02*
X243423D01*
X240079Y413585D02*
Y420274D01*
X202124Y426929D02*
X208033D01*
X205079Y423974D02*
Y429884D01*
X227124Y436929D02*
X233033D01*
X230079Y433974D02*
Y439884D01*
X212244Y416929D02*
X227913D01*
X220079Y409094D02*
Y424764D01*
X207124Y396929D02*
X213033D01*
X210079Y393974D02*
Y399884D01*
X232124Y406929D02*
X238033D01*
X235079Y403974D02*
Y409884D01*
X196734Y416929D02*
X203423D01*
X200079Y413585D02*
Y420274D01*
X220314Y436929D02*
X223514D01*
X221914Y435329D02*
Y438529D01*
X212478Y436929D02*
X215679D01*
X214079Y435329D02*
Y438529D01*
X224478Y321929D02*
X227679D01*
X226079Y320329D02*
Y323530D01*
X216585Y321929D02*
X219785D01*
X218185Y320329D02*
Y323530D01*
X236734Y341929D02*
X243423D01*
X240079Y338585D02*
Y345274D01*
X202124Y351929D02*
X208033D01*
X205079Y348974D02*
Y354884D01*
X227124Y361929D02*
X233033D01*
X230079Y358974D02*
Y364884D01*
X212244Y341929D02*
X227913D01*
X220079Y334095D02*
Y349764D01*
X207124Y321929D02*
X213033D01*
X210079Y318974D02*
Y324884D01*
X232124Y331929D02*
X238033D01*
X235079Y328974D02*
Y334884D01*
X196734Y341929D02*
X203423D01*
X200079Y338585D02*
Y345274D01*
X220314Y361929D02*
X223514D01*
X221914Y360329D02*
Y363529D01*
X212478Y361929D02*
X215679D01*
X214079Y360329D02*
Y363529D01*
X149478Y321929D02*
X152679D01*
X151079Y320329D02*
Y323530D01*
X141585Y321929D02*
X144785D01*
X143185Y320329D02*
Y323530D01*
X161734Y341929D02*
X168423D01*
X165079Y338585D02*
Y345274D01*
X127124Y351929D02*
X133033D01*
X130079Y348974D02*
Y354884D01*
X152124Y361929D02*
X158033D01*
X155079Y358974D02*
Y364884D01*
X137244Y341929D02*
X152913D01*
X145079Y334095D02*
Y349764D01*
X132124Y321929D02*
X138033D01*
X135079Y318974D02*
Y324884D01*
X157124Y331929D02*
X163033D01*
X160079Y328974D02*
Y334884D01*
X121734Y341929D02*
X128423D01*
X125079Y338585D02*
Y345274D01*
X145314Y361929D02*
X148514D01*
X146914Y360329D02*
Y363529D01*
X137478Y361929D02*
X140679D01*
X139079Y360329D02*
Y363529D01*
X62478Y361929D02*
X65679D01*
X64079Y360329D02*
Y363529D01*
X70314Y361929D02*
X73514D01*
X71914Y360329D02*
Y363529D01*
X46734Y341929D02*
X53423D01*
X50079Y338585D02*
Y345274D01*
X82124Y331929D02*
X88033D01*
X85079Y328974D02*
Y334884D01*
X57124Y321929D02*
X63033D01*
X60079Y318974D02*
Y324884D01*
X62244Y341929D02*
X77913D01*
X70079Y334095D02*
Y349764D01*
X77124Y361929D02*
X83033D01*
X80079Y358974D02*
Y364884D01*
X52124Y351929D02*
X58033D01*
X55079Y348974D02*
Y354884D01*
X86734Y341929D02*
X93423D01*
X90079Y338585D02*
Y345274D01*
X66585Y321929D02*
X69785D01*
X68185Y320329D02*
Y323530D01*
X74478Y321929D02*
X77679D01*
X76079Y320329D02*
Y323530D01*
X62478Y286732D02*
X65679D01*
X64079Y285132D02*
Y288333D01*
X70314Y286732D02*
X73514D01*
X71914Y285132D02*
Y288333D01*
X46734Y266732D02*
X53423D01*
X50079Y263388D02*
Y270077D01*
X82124Y256732D02*
X88033D01*
X85079Y253778D02*
Y259687D01*
X57124Y246732D02*
X63033D01*
X60079Y243778D02*
Y249687D01*
X62244Y266732D02*
X77913D01*
X70079Y258898D02*
Y274567D01*
X77124Y286732D02*
X83033D01*
X80079Y283778D02*
Y289687D01*
X52124Y276732D02*
X58033D01*
X55079Y273778D02*
Y279687D01*
X86734Y266732D02*
X93423D01*
X90079Y263388D02*
Y270077D01*
X66585Y246732D02*
X69785D01*
X68185Y245132D02*
Y248333D01*
X74478Y246732D02*
X77679D01*
X76079Y245132D02*
Y248333D01*
X149478Y246732D02*
X152679D01*
X151079Y245132D02*
Y248333D01*
X141585Y246732D02*
X144785D01*
X143185Y245132D02*
Y248333D01*
X161734Y266732D02*
X168423D01*
X165079Y263388D02*
Y270077D01*
X127124Y276732D02*
X133033D01*
X130079Y273778D02*
Y279687D01*
X152124Y286732D02*
X158033D01*
X155079Y283778D02*
Y289687D01*
X137244Y266732D02*
X152913D01*
X145079Y258898D02*
Y274567D01*
X132124Y246732D02*
X138033D01*
X135079Y243778D02*
Y249687D01*
X157124Y256732D02*
X163033D01*
X160079Y253778D02*
Y259687D01*
X121734Y266732D02*
X128423D01*
X125079Y263388D02*
Y270077D01*
X145314Y286732D02*
X148514D01*
X146914Y285132D02*
Y288333D01*
X137478Y286732D02*
X140679D01*
X139079Y285132D02*
Y288333D01*
X74478Y171929D02*
X77679D01*
X76079Y170329D02*
Y173530D01*
X66585Y171929D02*
X69785D01*
X68185Y170329D02*
Y173530D01*
X86734Y191929D02*
X93423D01*
X90079Y188585D02*
Y195274D01*
X52124Y201929D02*
X58033D01*
X55079Y198974D02*
Y204884D01*
X77124Y211929D02*
X83033D01*
X80079Y208974D02*
Y214884D01*
X62244Y191929D02*
X77913D01*
X70079Y184095D02*
Y199764D01*
X57124Y171929D02*
X63033D01*
X60079Y168974D02*
Y174884D01*
X82124Y181929D02*
X88033D01*
X85079Y178974D02*
Y184884D01*
X46734Y191929D02*
X53423D01*
X50079Y188585D02*
Y195274D01*
X70314Y211929D02*
X73514D01*
X71914Y210329D02*
Y213529D01*
X62478Y211929D02*
X65679D01*
X64079Y210329D02*
Y213529D01*
X137478Y211929D02*
X140679D01*
X139079Y210329D02*
Y213529D01*
X145314Y211929D02*
X148514D01*
X146914Y210329D02*
Y213529D01*
X121734Y191929D02*
X128423D01*
X125079Y188585D02*
Y195274D01*
X157124Y181929D02*
X163033D01*
X160079Y178974D02*
Y184884D01*
X132124Y171929D02*
X138033D01*
X135079Y168974D02*
Y174884D01*
X137244Y191929D02*
X152913D01*
X145079Y184095D02*
Y199764D01*
X152124Y211929D02*
X158033D01*
X155079Y208974D02*
Y214884D01*
X127124Y201929D02*
X133033D01*
X130079Y198974D02*
Y204884D01*
X161734Y191929D02*
X168423D01*
X165079Y188585D02*
Y195274D01*
X141585Y171929D02*
X144785D01*
X143185Y170329D02*
Y173530D01*
X149478Y171929D02*
X152679D01*
X151079Y170329D02*
Y173530D01*
X313478Y310528D02*
X316679D01*
X315079Y308927D02*
Y312128D01*
X313478Y302634D02*
X316679D01*
X315079Y301033D02*
Y304234D01*
X291734Y324528D02*
X298423D01*
X295079Y321183D02*
Y327872D01*
X282124Y289528D02*
X288033D01*
X285079Y286573D02*
Y292482D01*
X272124Y314528D02*
X278033D01*
X275079Y311573D02*
Y317482D01*
X287244Y304528D02*
X302913D01*
X295079Y296693D02*
Y312362D01*
X312124Y294528D02*
X318033D01*
X315079Y291573D02*
Y297482D01*
X302124Y319528D02*
X308033D01*
X305079Y316573D02*
Y322482D01*
X291734Y284528D02*
X298423D01*
X295079Y281183D02*
Y287872D01*
X273478Y306363D02*
X276679D01*
X275079Y304763D02*
Y307963D01*
X273478Y298528D02*
X276679D01*
X275079Y296927D02*
Y300128D01*
X287478Y436929D02*
X290679D01*
X289079Y435329D02*
Y438529D01*
X295314Y436929D02*
X298514D01*
X296914Y435329D02*
Y438529D01*
X271734Y416929D02*
X278423D01*
X275079Y413585D02*
Y420274D01*
X307124Y406929D02*
X313033D01*
X310079Y403974D02*
Y409884D01*
X282124Y396929D02*
X288033D01*
X285079Y393974D02*
Y399884D01*
X287244Y416929D02*
X302913D01*
X295079Y409094D02*
Y424764D01*
X302124Y436929D02*
X308033D01*
X305079Y433974D02*
Y439884D01*
X277124Y426929D02*
X283033D01*
X280079Y423974D02*
Y429884D01*
X311734Y416929D02*
X318423D01*
X315079Y413585D02*
Y420274D01*
X291585Y396929D02*
X294785D01*
X293185Y395329D02*
Y398530D01*
X299478Y396929D02*
X302679D01*
X301079Y395329D02*
Y398530D01*
X-19222Y321929D02*
X-16022D01*
X-17622Y320329D02*
Y323530D01*
X-27116Y321929D02*
X-23915D01*
X-25516Y320329D02*
Y323530D01*
X-6966Y341929D02*
X-278D01*
X-3622Y338585D02*
Y345274D01*
X-41577Y351929D02*
X-35667D01*
X-38622Y348974D02*
Y354884D01*
X-16577Y361929D02*
X-10667D01*
X-13622Y358974D02*
Y364884D01*
X-31457Y341929D02*
X-15787D01*
X-23622Y334095D02*
Y349764D01*
X-36577Y321929D02*
X-30667D01*
X-33622Y318974D02*
Y324884D01*
X-11577Y331929D02*
X-5667D01*
X-8622Y328974D02*
Y334884D01*
X-46966Y341929D02*
X-40278D01*
X-43622Y338585D02*
Y345274D01*
X-23387Y361929D02*
X-20186D01*
X-21787Y360329D02*
Y363529D01*
X-31222Y361929D02*
X-28022D01*
X-29622Y360329D02*
Y363529D01*
X-19222Y396929D02*
X-16022D01*
X-17622Y395329D02*
Y398530D01*
X-27116Y396929D02*
X-23915D01*
X-25516Y395329D02*
Y398530D01*
X-6966Y416929D02*
X-278D01*
X-3622Y413585D02*
Y420274D01*
X-41577Y426929D02*
X-35667D01*
X-38622Y423974D02*
Y429884D01*
X-16577Y436929D02*
X-10667D01*
X-13622Y433974D02*
Y439884D01*
X-31457Y416929D02*
X-15787D01*
X-23622Y409094D02*
Y424764D01*
X-36577Y396929D02*
X-30667D01*
X-33622Y393974D02*
Y399884D01*
X-11577Y406929D02*
X-5667D01*
X-8622Y403974D02*
Y409884D01*
X-46966Y416929D02*
X-40278D01*
X-43622Y413585D02*
Y420274D01*
X-23387Y436929D02*
X-20186D01*
X-21787Y435329D02*
Y438529D01*
X-31222Y436929D02*
X-28022D01*
X-29622Y435329D02*
Y438529D01*
X273478Y148331D02*
X276679D01*
X275079Y146730D02*
Y149931D01*
X273478Y156166D02*
X276679D01*
X275079Y154566D02*
Y157766D01*
X291734Y134331D02*
X298423D01*
X295079Y130986D02*
Y137675D01*
X302124Y169331D02*
X308033D01*
X305079Y166376D02*
Y172285D01*
X312124Y144331D02*
X318033D01*
X315079Y141376D02*
Y147285D01*
X287244Y154331D02*
X302913D01*
X295079Y146496D02*
Y162165D01*
X272124Y164331D02*
X278033D01*
X275079Y161376D02*
Y167285D01*
X282124Y139331D02*
X288033D01*
X285079Y136376D02*
Y142285D01*
X291734Y174331D02*
X298423D01*
X295079Y170986D02*
Y177675D01*
X313478Y152437D02*
X316679D01*
X315079Y150837D02*
Y154037D01*
X313478Y160331D02*
X316679D01*
X315079Y158730D02*
Y161931D01*
X-190532Y211579D02*
X-187331D01*
X-188932Y209979D02*
Y213180D01*
X-182697Y211579D02*
X-179496D01*
X-181097Y209979D02*
Y213180D01*
X-206276Y191579D02*
X-199587D01*
X-202932Y188235D02*
Y194924D01*
X-170887Y181579D02*
X-164977D01*
X-167932Y178625D02*
Y184534D01*
X-195887Y171580D02*
X-189977D01*
X-192932Y168625D02*
Y174534D01*
X-190767Y191579D02*
X-175097D01*
X-182932Y183745D02*
Y199414D01*
X-175887Y211579D02*
X-169977D01*
X-172932Y208625D02*
Y214534D01*
X-200887Y201579D02*
X-194977D01*
X-197932Y198625D02*
Y204534D01*
X-166276Y191579D02*
X-159587D01*
X-162932Y188235D02*
Y194924D01*
X-186426Y171580D02*
X-183225D01*
X-184826Y169979D02*
Y173180D01*
X-178532Y171580D02*
X-175331D01*
X-176932Y169979D02*
Y173180D01*
X224478Y96929D02*
X227679D01*
X226079Y95329D02*
Y98529D01*
X216585Y96929D02*
X219785D01*
X218185Y95329D02*
Y98529D01*
X236734Y116929D02*
X243423D01*
X240079Y113585D02*
Y120274D01*
X202124Y126929D02*
X208033D01*
X205079Y123974D02*
Y129884D01*
X227124Y136929D02*
X233033D01*
X230079Y133974D02*
Y139884D01*
X212244Y116929D02*
X227913D01*
X220079Y109095D02*
Y124764D01*
X207124Y96929D02*
X213033D01*
X210079Y93974D02*
Y99884D01*
X232124Y106929D02*
X238033D01*
X235079Y103974D02*
Y109884D01*
X196734Y116929D02*
X203423D01*
X200079Y113585D02*
Y120274D01*
X220314Y136929D02*
X223514D01*
X221914Y135329D02*
Y138530D01*
X212478Y136929D02*
X215679D01*
X214079Y135329D02*
Y138530D01*
X-94026Y78228D02*
X-90825D01*
X-92425Y76628D02*
Y79829D01*
X-101919Y78228D02*
X-98719D01*
X-100319Y76628D02*
Y79829D01*
X-81770Y98228D02*
X-75081D01*
X-78425Y94884D02*
Y101573D01*
X-116380Y108228D02*
X-110470D01*
X-113425Y105274D02*
Y111183D01*
X-91380Y118228D02*
X-85470D01*
X-88425Y115274D02*
Y121183D01*
X-106260Y98228D02*
X-90591D01*
X-98425Y90394D02*
Y106063D01*
X-111380Y78228D02*
X-105471D01*
X-108425Y75274D02*
Y81183D01*
X-86380Y88228D02*
X-80471D01*
X-83425Y85274D02*
Y91183D01*
X-121770Y98228D02*
X-115081D01*
X-118425Y94884D02*
Y101573D01*
X-98190Y118228D02*
X-94990D01*
X-96590Y116628D02*
Y119829D01*
X-106026Y118228D02*
X-102825D01*
X-104425Y116628D02*
Y119829D01*
X-31222Y118228D02*
X-28022D01*
X-29622Y116628D02*
Y119829D01*
X-23387Y118228D02*
X-20186D01*
X-21787Y116628D02*
Y119829D01*
X-46966Y98228D02*
X-40278D01*
X-43622Y94884D02*
Y101573D01*
X-11577Y88228D02*
X-5667D01*
X-8622Y85274D02*
Y91183D01*
X-36577Y78228D02*
X-30667D01*
X-33622Y75274D02*
Y81183D01*
X-31457Y98228D02*
X-15787D01*
X-23622Y90394D02*
Y106063D01*
X-16577Y118228D02*
X-10667D01*
X-13622Y115274D02*
Y121183D01*
X-41577Y108228D02*
X-35667D01*
X-38622Y105274D02*
Y111183D01*
X-6966Y98228D02*
X-278D01*
X-3622Y94884D02*
Y101573D01*
X-27116Y78228D02*
X-23915D01*
X-25516Y76628D02*
Y79829D01*
X-19222Y78228D02*
X-16022D01*
X-17622Y76628D02*
Y79829D01*
X-675522Y96929D02*
X-672321D01*
X-673921Y95329D02*
Y98529D01*
X-683415Y96929D02*
X-680215D01*
X-681815Y95329D02*
Y98529D01*
X-663266Y116929D02*
X-656577D01*
X-659921Y113585D02*
Y120274D01*
X-697876Y126929D02*
X-691967D01*
X-694921Y123974D02*
Y129884D01*
X-672876Y136929D02*
X-666967D01*
X-669921Y133974D02*
Y139884D01*
X-687756Y116929D02*
X-672087D01*
X-679921Y109095D02*
Y124764D01*
X-692876Y96929D02*
X-686967D01*
X-689921Y93974D02*
Y99884D01*
X-667876Y106929D02*
X-661967D01*
X-664921Y103974D02*
Y109884D01*
X-703266Y116929D02*
X-696577D01*
X-699921Y113585D02*
Y120274D01*
X-679686Y136929D02*
X-676486D01*
X-678086Y135329D02*
Y138530D01*
X-687522Y136929D02*
X-684321D01*
X-685921Y135329D02*
Y138530D01*
X-743663Y286929D02*
X-740463D01*
X-742063Y285329D02*
Y288529D01*
X-735828Y286929D02*
X-732627D01*
X-734228Y285329D02*
Y288529D01*
X-759408Y266929D02*
X-752718D01*
X-756063Y263585D02*
Y270274D01*
X-724018Y256929D02*
X-718108D01*
X-721063Y253974D02*
Y259884D01*
X-749018Y246929D02*
X-743108D01*
X-746063Y243974D02*
Y249884D01*
X-743898Y266929D02*
X-728228D01*
X-736063Y259095D02*
Y274764D01*
X-729018Y286929D02*
X-723108D01*
X-726063Y283974D02*
Y289884D01*
X-754018Y276929D02*
X-748108D01*
X-751063Y273974D02*
Y279884D01*
X-719408Y266929D02*
X-712718D01*
X-716063Y263585D02*
Y270274D01*
X-739557Y246929D02*
X-736356D01*
X-737957Y245329D02*
Y248530D01*
X-731663Y246929D02*
X-728463D01*
X-730063Y245329D02*
Y248530D01*
X-1134774Y246929D02*
X-1131573D01*
X-1133173Y245329D02*
Y248530D01*
X-1142667Y246929D02*
X-1139466D01*
X-1141067Y245329D02*
Y248530D01*
X-1122518Y266929D02*
X-1115829D01*
X-1119173Y263585D02*
Y270274D01*
X-1157128Y276929D02*
X-1151219D01*
X-1154173Y273974D02*
Y279884D01*
X-1132128Y286929D02*
X-1126219D01*
X-1129173Y283974D02*
Y289884D01*
X-1147008Y266929D02*
X-1131339D01*
X-1139173Y259095D02*
Y274764D01*
X-1152128Y246929D02*
X-1146218D01*
X-1149173Y243974D02*
Y249884D01*
X-1127128Y256929D02*
X-1121218D01*
X-1124173Y253974D02*
Y259884D01*
X-1162518Y266929D02*
X-1155829D01*
X-1159173Y263585D02*
Y270274D01*
X-1116073Y171929D02*
X-1112872D01*
X-1114472Y170329D02*
Y173530D01*
X-1123967Y171929D02*
X-1120766D01*
X-1122366Y170329D02*
Y173530D01*
X-1103817Y191929D02*
X-1097128D01*
X-1100473Y188585D02*
Y195274D01*
X-1138427Y201929D02*
X-1132518D01*
X-1135472Y198974D02*
Y204884D01*
X-1113427Y211929D02*
X-1107518D01*
X-1110472Y208974D02*
Y214884D01*
X-1128307Y191929D02*
X-1112638D01*
X-1120473Y184095D02*
Y199764D01*
X-1133427Y171929D02*
X-1127518D01*
X-1130472Y168974D02*
Y174884D01*
X-1108427Y181929D02*
X-1102518D01*
X-1105472Y178974D02*
Y184884D01*
X-1143817Y191929D02*
X-1137128D01*
X-1140473Y188585D02*
Y195274D01*
X-1120238Y211929D02*
X-1117037D01*
X-1118637Y210329D02*
Y213529D01*
X-1128073Y211929D02*
X-1124872D01*
X-1126472Y210329D02*
Y213529D01*
X-1165671Y286929D02*
X-1162471D01*
X-1164071Y285329D02*
Y288529D01*
X-1157836Y286929D02*
X-1154635D01*
X-1156236Y285329D02*
Y288529D01*
X-1181415Y266929D02*
X-1174726D01*
X-1178071Y263585D02*
Y270274D01*
X-1146026Y256929D02*
X-1140116D01*
X-1143071Y253974D02*
Y259884D01*
X-1171026Y246929D02*
X-1165116D01*
X-1168071Y243974D02*
Y249884D01*
X-1165905Y266929D02*
X-1150236D01*
X-1158071Y259095D02*
Y274764D01*
X-1151026Y286929D02*
X-1145116D01*
X-1148071Y283974D02*
Y289884D01*
X-1176026Y276929D02*
X-1170116D01*
X-1173071Y273974D02*
Y279884D01*
X-1141415Y266929D02*
X-1134726D01*
X-1138071Y263585D02*
Y270274D01*
X-1144223Y321929D02*
X-1141022D01*
X-1142622Y320329D02*
Y323530D01*
X-1152116Y321929D02*
X-1148915D01*
X-1150516Y320329D02*
Y323530D01*
X-1131966Y341929D02*
X-1125278D01*
X-1128622Y338585D02*
Y345274D01*
X-1166577Y351929D02*
X-1160667D01*
X-1163622Y348974D02*
Y354884D01*
X-1141577Y361929D02*
X-1135667D01*
X-1138622Y358974D02*
Y364884D01*
X-1156457Y341929D02*
X-1140787D01*
X-1148622Y334095D02*
Y349764D01*
X-1161577Y321929D02*
X-1155667D01*
X-1158622Y318974D02*
Y324884D01*
X-1136577Y331929D02*
X-1130667D01*
X-1133622Y328974D02*
Y334884D01*
X-1171966Y341929D02*
X-1165278D01*
X-1168622Y338585D02*
Y345274D01*
X-1148387Y361929D02*
X-1145186D01*
X-1146787Y360329D02*
Y363529D01*
X-1156223Y361929D02*
X-1153022D01*
X-1154622Y360329D02*
Y363529D01*
X-31222Y193032D02*
X-28022D01*
X-29622Y191431D02*
Y194632D01*
X-23387Y193032D02*
X-20186D01*
X-21787Y191431D02*
Y194632D01*
X-46966Y173031D02*
X-40278D01*
X-43622Y169687D02*
Y176376D01*
X-11577Y163031D02*
X-5667D01*
X-8622Y160077D02*
Y165986D01*
X-36577Y153032D02*
X-30667D01*
X-33622Y150077D02*
Y155986D01*
X-31457Y173031D02*
X-15787D01*
X-23622Y165197D02*
Y180866D01*
X-16577Y193032D02*
X-10667D01*
X-13622Y190077D02*
Y195986D01*
X-41577Y183031D02*
X-35667D01*
X-38622Y180077D02*
Y185986D01*
X-6966Y173031D02*
X-278D01*
X-3622Y169687D02*
Y176376D01*
X-27116Y153032D02*
X-23915D01*
X-25516Y151431D02*
Y154632D01*
X-19222Y153032D02*
X-16022D01*
X-17622Y151431D02*
Y154632D01*
X-112923Y171580D02*
X-109722D01*
X-111323Y169979D02*
Y173180D01*
X-120817Y171580D02*
X-117616D01*
X-119217Y169979D02*
Y173180D01*
X-100667Y191579D02*
X-93978D01*
X-97323Y188235D02*
Y194924D01*
X-135278Y201579D02*
X-129368D01*
X-132323Y198625D02*
Y204534D01*
X-110278Y211579D02*
X-104368D01*
X-107323Y208625D02*
Y214534D01*
X-125157Y191579D02*
X-109488D01*
X-117323Y183745D02*
Y199414D01*
X-130278Y171580D02*
X-124368D01*
X-127323Y168625D02*
Y174534D01*
X-105278Y181579D02*
X-99368D01*
X-102323Y178625D02*
Y184534D01*
X-140667Y191579D02*
X-133978D01*
X-137323Y188235D02*
Y194924D01*
X-117088Y211579D02*
X-113887D01*
X-115488Y209979D02*
Y213180D01*
X-124923Y211579D02*
X-121722D01*
X-123323Y209979D02*
Y213180D01*
X-228141Y211579D02*
X-224941D01*
X-226541Y209979D02*
Y213180D01*
X-220306Y211579D02*
X-217106D01*
X-218706Y209979D02*
Y213180D01*
X-243886Y191579D02*
X-237197D01*
X-240541Y188235D02*
Y194924D01*
X-208496Y181579D02*
X-202586D01*
X-205541Y178625D02*
Y184534D01*
X-233496Y171580D02*
X-227586D01*
X-230541Y168625D02*
Y174534D01*
X-228376Y191579D02*
X-212706D01*
X-220541Y183745D02*
Y199414D01*
X-213496Y211579D02*
X-207586D01*
X-210541Y208625D02*
Y214534D01*
X-238496Y201579D02*
X-232586D01*
X-235541Y198625D02*
Y204534D01*
X-203886Y191579D02*
X-197197D01*
X-200541Y188235D02*
Y194924D01*
X-224035Y171580D02*
X-220834D01*
X-222435Y169979D02*
Y173180D01*
X-216142Y171580D02*
X-212941D01*
X-214541Y169979D02*
Y173180D01*
X-319223Y171929D02*
X-316022D01*
X-317622Y170329D02*
Y173530D01*
X-327116Y171929D02*
X-323916D01*
X-325516Y170329D02*
Y173530D01*
X-306967Y191929D02*
X-300278D01*
X-303622Y188585D02*
Y195274D01*
X-341577Y201929D02*
X-335667D01*
X-338622Y198974D02*
Y204884D01*
X-316577Y211929D02*
X-310667D01*
X-313622Y208974D02*
Y214884D01*
X-331457Y191929D02*
X-315788D01*
X-323622Y184095D02*
Y199764D01*
X-336577Y171929D02*
X-330667D01*
X-333622Y168974D02*
Y174884D01*
X-311577Y181929D02*
X-305667D01*
X-308622Y178974D02*
Y184884D01*
X-346967Y191929D02*
X-340278D01*
X-343622Y188585D02*
Y195274D01*
X-323387Y211929D02*
X-320186D01*
X-321787Y210329D02*
Y213529D01*
X-331223Y211929D02*
X-328022D01*
X-329622Y210329D02*
Y213529D01*
X-406244Y211929D02*
X-403044D01*
X-404644Y210329D02*
Y213529D01*
X-398409Y211929D02*
X-395208D01*
X-396809Y210329D02*
Y213529D01*
X-421988Y191929D02*
X-415300D01*
X-418644Y188585D02*
Y195274D01*
X-386599Y181929D02*
X-380689D01*
X-383644Y178974D02*
Y184884D01*
X-411599Y171929D02*
X-405689D01*
X-408644Y168974D02*
Y174884D01*
X-406479Y191929D02*
X-390809D01*
X-398644Y184095D02*
Y199764D01*
X-391599Y211929D02*
X-385689D01*
X-388644Y208974D02*
Y214884D01*
X-416599Y201929D02*
X-410689D01*
X-413644Y198974D02*
Y204884D01*
X-381989Y191929D02*
X-375300D01*
X-378644Y188585D02*
Y195274D01*
X-402138Y171929D02*
X-398937D01*
X-400538Y170329D02*
Y173530D01*
X-394244Y171929D02*
X-391044D01*
X-392644Y170329D02*
Y173530D01*
X-469266Y171929D02*
X-466066D01*
X-467666Y170329D02*
Y173530D01*
X-477160Y171929D02*
X-473959D01*
X-475560Y170329D02*
Y173530D01*
X-457010Y191929D02*
X-450321D01*
X-453666Y188585D02*
Y195274D01*
X-491621Y201929D02*
X-485711D01*
X-488666Y198974D02*
Y204884D01*
X-466621Y211929D02*
X-460711D01*
X-463666Y208974D02*
Y214884D01*
X-481500Y191929D02*
X-465831D01*
X-473666Y184095D02*
Y199764D01*
X-486621Y171929D02*
X-480711D01*
X-483666Y168974D02*
Y174884D01*
X-461621Y181929D02*
X-455711D01*
X-458666Y178974D02*
Y184884D01*
X-497010Y191929D02*
X-490321D01*
X-493666Y188585D02*
Y195274D01*
X-473431Y211929D02*
X-470230D01*
X-471831Y210329D02*
Y213529D01*
X-481266Y211929D02*
X-478065D01*
X-479666Y210329D02*
Y213529D01*
X-556288Y211929D02*
X-553087D01*
X-554688Y210329D02*
Y213529D01*
X-548453Y211929D02*
X-545252D01*
X-546852Y210329D02*
Y213529D01*
X-572032Y191929D02*
X-565343D01*
X-568688Y188585D02*
Y195274D01*
X-536643Y181929D02*
X-530733D01*
X-533688Y178974D02*
Y184884D01*
X-561643Y171929D02*
X-555733D01*
X-558688Y168974D02*
Y174884D01*
X-556522Y191929D02*
X-540853D01*
X-548688Y184095D02*
Y199764D01*
X-541643Y211929D02*
X-535733D01*
X-538688Y208974D02*
Y214884D01*
X-566643Y201929D02*
X-560733D01*
X-563688Y198974D02*
Y204884D01*
X-532032Y191929D02*
X-525343D01*
X-528688Y188585D02*
Y195274D01*
X-552182Y171929D02*
X-548981D01*
X-550582Y170329D02*
Y173530D01*
X-544288Y171929D02*
X-541087D01*
X-542688Y170329D02*
Y173530D01*
X-619310Y171929D02*
X-616109D01*
X-617710Y170329D02*
Y173530D01*
X-627204Y171929D02*
X-624003D01*
X-625603Y170329D02*
Y173530D01*
X-607054Y191929D02*
X-600365D01*
X-603710Y188585D02*
Y195274D01*
X-641664Y201929D02*
X-635755D01*
X-638710Y198974D02*
Y204884D01*
X-616664Y211929D02*
X-610755D01*
X-613710Y208974D02*
Y214884D01*
X-631544Y191929D02*
X-615875D01*
X-623710Y184095D02*
Y199764D01*
X-636664Y171929D02*
X-630755D01*
X-633710Y168974D02*
Y174884D01*
X-611664Y181929D02*
X-605755D01*
X-608710Y178974D02*
Y184884D01*
X-647054Y191929D02*
X-640365D01*
X-643710Y188585D02*
Y195274D01*
X-623475Y211929D02*
X-620274D01*
X-621874Y210329D02*
Y213529D01*
X-631310Y211929D02*
X-628109D01*
X-629710Y210329D02*
Y213529D01*
X-706332Y211929D02*
X-703131D01*
X-704732Y210329D02*
Y213529D01*
X-698497Y211929D02*
X-695296D01*
X-696896Y210329D02*
Y213529D01*
X-722076Y191929D02*
X-715387D01*
X-718731Y188585D02*
Y195274D01*
X-686686Y181929D02*
X-680777D01*
X-683732Y178974D02*
Y184884D01*
X-711686Y171929D02*
X-705777D01*
X-708732Y168974D02*
Y174884D01*
X-706566Y191929D02*
X-690897D01*
X-698732Y184095D02*
Y199764D01*
X-691686Y211929D02*
X-685777D01*
X-688731Y208974D02*
Y214884D01*
X-716686Y201929D02*
X-710777D01*
X-713731Y198974D02*
Y204884D01*
X-682076Y191929D02*
X-675387D01*
X-678731Y188585D02*
Y195274D01*
X-702226Y171929D02*
X-699025D01*
X-700625Y170329D02*
Y173530D01*
X-694332Y171929D02*
X-691131D01*
X-692732Y170329D02*
Y173530D01*
X-769354Y171929D02*
X-766153D01*
X-767753Y170329D02*
Y173530D01*
X-777247Y171929D02*
X-774047D01*
X-775647Y170329D02*
Y173530D01*
X-757098Y191929D02*
X-750409D01*
X-753753Y188585D02*
Y195274D01*
X-791708Y201929D02*
X-785799D01*
X-788753Y198974D02*
Y204884D01*
X-766708Y211929D02*
X-760799D01*
X-763753Y208974D02*
Y214884D01*
X-781588Y191929D02*
X-765919D01*
X-773753Y184095D02*
Y199764D01*
X-786708Y171929D02*
X-780799D01*
X-783753Y168974D02*
Y174884D01*
X-761708Y181929D02*
X-755799D01*
X-758753Y178974D02*
Y184884D01*
X-797098Y191929D02*
X-790409D01*
X-793753Y188585D02*
Y195274D01*
X-773518Y211929D02*
X-770318D01*
X-771918Y210329D02*
Y213529D01*
X-781354Y211929D02*
X-778153D01*
X-779753Y210329D02*
Y213529D01*
X-856376Y211929D02*
X-853175D01*
X-854775Y210329D02*
Y213529D01*
X-848540Y211929D02*
X-845339D01*
X-846940Y210329D02*
Y213529D01*
X-872120Y191929D02*
X-865431D01*
X-868775Y188585D02*
Y195274D01*
X-836730Y181929D02*
X-830820D01*
X-833775Y178974D02*
Y184884D01*
X-861730Y171929D02*
X-855820D01*
X-858775Y168974D02*
Y174884D01*
X-856610Y191929D02*
X-840941D01*
X-848775Y184095D02*
Y199764D01*
X-841730Y211929D02*
X-835820D01*
X-838775Y208974D02*
Y214884D01*
X-866730Y201929D02*
X-860820D01*
X-863775Y198974D02*
Y204884D01*
X-832120Y191929D02*
X-825431D01*
X-828775Y188585D02*
Y195274D01*
X-852269Y171929D02*
X-849069D01*
X-850669Y170329D02*
Y173530D01*
X-844376Y171929D02*
X-841175D01*
X-842775Y170329D02*
Y173530D01*
X-919397Y171929D02*
X-916197D01*
X-917797Y170329D02*
Y173530D01*
X-927291Y171929D02*
X-924090D01*
X-925691Y170329D02*
Y173530D01*
X-907141Y191929D02*
X-900453D01*
X-903797Y188585D02*
Y195274D01*
X-941752Y201929D02*
X-935842D01*
X-938797Y198974D02*
Y204884D01*
X-916752Y211929D02*
X-910842D01*
X-913797Y208974D02*
Y214884D01*
X-931632Y191929D02*
X-915962D01*
X-923797Y184095D02*
Y199764D01*
X-936752Y171929D02*
X-930842D01*
X-933797Y168974D02*
Y174884D01*
X-911752Y181929D02*
X-905842D01*
X-908797Y178974D02*
Y184884D01*
X-947141Y191929D02*
X-940453D01*
X-943797Y188585D02*
Y195274D01*
X-923562Y211929D02*
X-920361D01*
X-921962Y210329D02*
Y213529D01*
X-931397Y211929D02*
X-928197D01*
X-929797Y210329D02*
Y213529D01*
X-1006419Y211929D02*
X-1003218D01*
X-1004819Y210329D02*
Y213529D01*
X-998584Y211929D02*
X-995383D01*
X-996984Y210329D02*
Y213529D01*
X-1022163Y191929D02*
X-1015474D01*
X-1018819Y188585D02*
Y195274D01*
X-986774Y181929D02*
X-980864D01*
X-983819Y178974D02*
Y184884D01*
X-1011774Y171929D02*
X-1005864D01*
X-1008819Y168974D02*
Y174884D01*
X-1006653Y191929D02*
X-990984D01*
X-998819Y184095D02*
Y199764D01*
X-991774Y211929D02*
X-985864D01*
X-988819Y208974D02*
Y214884D01*
X-1016774Y201929D02*
X-1010864D01*
X-1013819Y198974D02*
Y204884D01*
X-982163Y191929D02*
X-975474D01*
X-978819Y188585D02*
Y195274D01*
X-1002313Y171929D02*
X-999112D01*
X-1000713Y170329D02*
Y173530D01*
X-994419Y171929D02*
X-991218D01*
X-992819Y170329D02*
Y173530D01*
X-159970Y246929D02*
X-156770D01*
X-158370Y245329D02*
Y248530D01*
X-167864Y246929D02*
X-164663D01*
X-166264Y245329D02*
Y248530D01*
X-147715Y266929D02*
X-141026D01*
X-144370Y263585D02*
Y270274D01*
X-182325Y276929D02*
X-176415D01*
X-179370Y273974D02*
Y279884D01*
X-157325Y286929D02*
X-151415D01*
X-154370Y283974D02*
Y289884D01*
X-172205Y266929D02*
X-156535D01*
X-164370Y259095D02*
Y274764D01*
X-177325Y246929D02*
X-171415D01*
X-174370Y243974D02*
Y249884D01*
X-152325Y256929D02*
X-146415D01*
X-149370Y253974D02*
Y259884D01*
X-187715Y266929D02*
X-181026D01*
X-184370Y263585D02*
Y270274D01*
X-164135Y286929D02*
X-160934D01*
X-162535Y285329D02*
Y288529D01*
X-171970Y286929D02*
X-168770D01*
X-170370Y285329D02*
Y288529D01*
X-293427Y286929D02*
X-290226D01*
X-291827Y285329D02*
Y288529D01*
X-285592Y286929D02*
X-282391D01*
X-283992Y285329D02*
Y288529D01*
X-309171Y266929D02*
X-302482D01*
X-305827Y263585D02*
Y270274D01*
X-273781Y256929D02*
X-267872D01*
X-270827Y253974D02*
Y259884D01*
X-298781Y246929D02*
X-292872D01*
X-295827Y243974D02*
Y249884D01*
X-293661Y266929D02*
X-277992D01*
X-285827Y259095D02*
Y274764D01*
X-278782Y286929D02*
X-272872D01*
X-275827Y283974D02*
Y289884D01*
X-303782Y276929D02*
X-297872D01*
X-300827Y273974D02*
Y279884D01*
X-269171Y266929D02*
X-262482D01*
X-265827Y263585D02*
Y270274D01*
X-289321Y246929D02*
X-286120D01*
X-287720Y245329D02*
Y248530D01*
X-281427Y246929D02*
X-278226D01*
X-279827Y245329D02*
Y248530D01*
X-356467Y246929D02*
X-353266D01*
X-354866Y245329D02*
Y248530D01*
X-364360Y246929D02*
X-361159D01*
X-362760Y245329D02*
Y248530D01*
X-344211Y266929D02*
X-337522D01*
X-340866Y263585D02*
Y270274D01*
X-378821Y276929D02*
X-372911D01*
X-375866Y273974D02*
Y279884D01*
X-353821Y286929D02*
X-347911D01*
X-350866Y283974D02*
Y289884D01*
X-368701Y266929D02*
X-353031D01*
X-360866Y259095D02*
Y274764D01*
X-373821Y246929D02*
X-367911D01*
X-370866Y243974D02*
Y249884D01*
X-348821Y256929D02*
X-342911D01*
X-345866Y253974D02*
Y259884D01*
X-384211Y266929D02*
X-377522D01*
X-380866Y263585D02*
Y270274D01*
X-360631Y286929D02*
X-357431D01*
X-359031Y285329D02*
Y288529D01*
X-368466Y286929D02*
X-365266D01*
X-366866Y285329D02*
Y288529D01*
X-443506Y286929D02*
X-440305D01*
X-441905Y285329D02*
Y288529D01*
X-435671Y286929D02*
X-432470D01*
X-434070Y285329D02*
Y288529D01*
X-459250Y266929D02*
X-452561D01*
X-455905Y263585D02*
Y270274D01*
X-423860Y256929D02*
X-417951D01*
X-420905Y253974D02*
Y259884D01*
X-448860Y246929D02*
X-442951D01*
X-445905Y243974D02*
Y249884D01*
X-443740Y266929D02*
X-428071D01*
X-435906Y259095D02*
Y274764D01*
X-428860Y286929D02*
X-422951D01*
X-425906Y283974D02*
Y289884D01*
X-453860Y276929D02*
X-447951D01*
X-450906Y273974D02*
Y279884D01*
X-419250Y266929D02*
X-412561D01*
X-415906Y263585D02*
Y270274D01*
X-439400Y246929D02*
X-436199D01*
X-437799Y245329D02*
Y248530D01*
X-431506Y246929D02*
X-428305D01*
X-429906Y245329D02*
Y248530D01*
X-506545Y246929D02*
X-503344D01*
X-504945Y245329D02*
Y248530D01*
X-514439Y246929D02*
X-511238D01*
X-512839Y245329D02*
Y248530D01*
X-494289Y266929D02*
X-487600D01*
X-490945Y263585D02*
Y270274D01*
X-528900Y276929D02*
X-522990D01*
X-525945Y273974D02*
Y279884D01*
X-503900Y286929D02*
X-497990D01*
X-500945Y283974D02*
Y289884D01*
X-518780Y266929D02*
X-503110D01*
X-510945Y259095D02*
Y274764D01*
X-523900Y246929D02*
X-517990D01*
X-520945Y243974D02*
Y249884D01*
X-498900Y256929D02*
X-492990D01*
X-495945Y253974D02*
Y259884D01*
X-534289Y266929D02*
X-527600D01*
X-530945Y263585D02*
Y270274D01*
X-510710Y286929D02*
X-507509D01*
X-509110Y285329D02*
Y288529D01*
X-518545Y286929D02*
X-515344D01*
X-516945Y285329D02*
Y288529D01*
X-593585Y286929D02*
X-590384D01*
X-591984Y285329D02*
Y288529D01*
X-585749Y286929D02*
X-582549D01*
X-584149Y285329D02*
Y288529D01*
X-609329Y266929D02*
X-602640D01*
X-605984Y263585D02*
Y270274D01*
X-573939Y256929D02*
X-568030D01*
X-570984Y253974D02*
Y259884D01*
X-598939Y246929D02*
X-593030D01*
X-595984Y243974D02*
Y249884D01*
X-593819Y266929D02*
X-578150D01*
X-585984Y259095D02*
Y274764D01*
X-578939Y286929D02*
X-573030D01*
X-575984Y283974D02*
Y289884D01*
X-603939Y276929D02*
X-598030D01*
X-600984Y273974D02*
Y279884D01*
X-569329Y266929D02*
X-562640D01*
X-565984Y263585D02*
Y270274D01*
X-589478Y246929D02*
X-586278D01*
X-587878Y245329D02*
Y248530D01*
X-581585Y246929D02*
X-578384D01*
X-579984Y245329D02*
Y248530D01*
X-656624Y246929D02*
X-653423D01*
X-655024Y245329D02*
Y248530D01*
X-664518Y246929D02*
X-661317D01*
X-662917Y245329D02*
Y248530D01*
X-644368Y266929D02*
X-637679D01*
X-641024Y263585D02*
Y270274D01*
X-678978Y276929D02*
X-673069D01*
X-676024Y273974D02*
Y279884D01*
X-653978Y286929D02*
X-648069D01*
X-651024Y283974D02*
Y289884D01*
X-668858Y266929D02*
X-653189D01*
X-661024Y259095D02*
Y274764D01*
X-673978Y246929D02*
X-668069D01*
X-671024Y243974D02*
Y249884D01*
X-648978Y256929D02*
X-643069D01*
X-646024Y253974D02*
Y259884D01*
X-684368Y266929D02*
X-677679D01*
X-681024Y263585D02*
Y270274D01*
X-660789Y286929D02*
X-657588D01*
X-659188Y285329D02*
Y288529D01*
X-668624Y286929D02*
X-665423D01*
X-667024Y285329D02*
Y288529D01*
X-806703Y246929D02*
X-803502D01*
X-805102Y245329D02*
Y248530D01*
X-814596Y246929D02*
X-811396D01*
X-812996Y245329D02*
Y248530D01*
X-794447Y266929D02*
X-787758D01*
X-791102Y263585D02*
Y270274D01*
X-829057Y276929D02*
X-823148D01*
X-826102Y273974D02*
Y279884D01*
X-804057Y286929D02*
X-798148D01*
X-801102Y283974D02*
Y289884D01*
X-818937Y266929D02*
X-803268D01*
X-811102Y259095D02*
Y274764D01*
X-824057Y246929D02*
X-818148D01*
X-821102Y243974D02*
Y249884D01*
X-799057Y256929D02*
X-793148D01*
X-796102Y253974D02*
Y259884D01*
X-834447Y266929D02*
X-827758D01*
X-831102Y263585D02*
Y270274D01*
X-810868Y286929D02*
X-807667D01*
X-809267Y285329D02*
Y288529D01*
X-818703Y286929D02*
X-815502D01*
X-817102Y285329D02*
Y288529D01*
X-893742Y286929D02*
X-890541D01*
X-892142Y285329D02*
Y288529D01*
X-885907Y286929D02*
X-882706D01*
X-884306Y285329D02*
Y288529D01*
X-909486Y266929D02*
X-902797D01*
X-906142Y263585D02*
Y270274D01*
X-874096Y256929D02*
X-868187D01*
X-871142Y253974D02*
Y259884D01*
X-899096Y246929D02*
X-893187D01*
X-896142Y243974D02*
Y249884D01*
X-893976Y266929D02*
X-878307D01*
X-886142Y259095D02*
Y274764D01*
X-879097Y286929D02*
X-873187D01*
X-876142Y283974D02*
Y289884D01*
X-904097Y276929D02*
X-898187D01*
X-901142Y273974D02*
Y279884D01*
X-869486Y266929D02*
X-862797D01*
X-866142Y263585D02*
Y270274D01*
X-889636Y246929D02*
X-886435D01*
X-888035Y245329D02*
Y248530D01*
X-881742Y246929D02*
X-878541D01*
X-880142Y245329D02*
Y248530D01*
X-956781Y246929D02*
X-953581D01*
X-955181Y245329D02*
Y248530D01*
X-964675Y246929D02*
X-961474D01*
X-963075Y245329D02*
Y248530D01*
X-944526Y266929D02*
X-937837D01*
X-941181Y263585D02*
Y270274D01*
X-979136Y276929D02*
X-973226D01*
X-976181Y273974D02*
Y279884D01*
X-954136Y286929D02*
X-948226D01*
X-951181Y283974D02*
Y289884D01*
X-969016Y266929D02*
X-953347D01*
X-961181Y259095D02*
Y274764D01*
X-974136Y246929D02*
X-968226D01*
X-971181Y243974D02*
Y249884D01*
X-949136Y256929D02*
X-943226D01*
X-946181Y253974D02*
Y259884D01*
X-984526Y266929D02*
X-977837D01*
X-981181Y263585D02*
Y270274D01*
X-960946Y286929D02*
X-957745D01*
X-959346Y285329D02*
Y288529D01*
X-968781Y286929D02*
X-965581D01*
X-967181Y285329D02*
Y288529D01*
X-1043821Y286929D02*
X-1040620D01*
X-1042220Y285329D02*
Y288529D01*
X-1035986Y286929D02*
X-1032785D01*
X-1034385Y285329D02*
Y288529D01*
X-1059565Y266929D02*
X-1052876D01*
X-1056221Y263585D02*
Y270274D01*
X-1024175Y256929D02*
X-1018266D01*
X-1021220Y253974D02*
Y259884D01*
X-1049175Y246929D02*
X-1043266D01*
X-1046220Y243974D02*
Y249884D01*
X-1044055Y266929D02*
X-1028386D01*
X-1036220Y259095D02*
Y274764D01*
X-1029175Y286929D02*
X-1023266D01*
X-1026221Y283974D02*
Y289884D01*
X-1054175Y276929D02*
X-1048266D01*
X-1051221Y273974D02*
Y279884D01*
X-1019565Y266929D02*
X-1012876D01*
X-1016220Y263585D02*
Y270274D01*
X-1039715Y246929D02*
X-1036514D01*
X-1038114Y245329D02*
Y248530D01*
X-1031821Y246929D02*
X-1028620D01*
X-1030221Y245329D02*
Y248530D01*
X-144018Y361929D02*
X-140817D01*
X-142417Y360329D02*
Y363529D01*
X-136182Y361929D02*
X-132982D01*
X-134582Y360329D02*
Y363529D01*
X-159762Y341929D02*
X-153073D01*
X-156417Y338585D02*
Y345274D01*
X-124372Y331929D02*
X-118463D01*
X-121417Y328974D02*
Y334884D01*
X-149372Y321929D02*
X-143463D01*
X-146417Y318974D02*
Y324884D01*
X-144252Y341929D02*
X-128583D01*
X-136417Y334095D02*
Y349764D01*
X-129372Y361929D02*
X-123463D01*
X-126417Y358974D02*
Y364884D01*
X-154372Y351929D02*
X-148463D01*
X-151417Y348974D02*
Y354884D01*
X-119762Y341929D02*
X-113073D01*
X-116417Y338585D02*
Y345274D01*
X-139911Y321929D02*
X-136711D01*
X-138311Y320329D02*
Y323530D01*
X-132018Y321929D02*
X-128817D01*
X-130417Y320329D02*
Y323530D01*
X-225540Y321929D02*
X-222339D01*
X-223939Y320329D02*
Y323530D01*
X-233433Y321929D02*
X-230233D01*
X-231833Y320329D02*
Y323530D01*
X-213284Y341929D02*
X-206595D01*
X-209939Y338585D02*
Y345274D01*
X-247894Y351929D02*
X-241985D01*
X-244939Y348974D02*
Y354884D01*
X-222894Y361929D02*
X-216985D01*
X-219939Y358974D02*
Y364884D01*
X-237774Y341929D02*
X-222105D01*
X-229939Y334095D02*
Y349764D01*
X-242894Y321929D02*
X-236985D01*
X-239939Y318974D02*
Y324884D01*
X-217894Y331929D02*
X-211985D01*
X-214939Y328974D02*
Y334884D01*
X-253284Y341929D02*
X-246595D01*
X-249939Y338585D02*
Y345274D01*
X-229704Y361929D02*
X-226504D01*
X-228104Y360329D02*
Y363529D01*
X-237540Y361929D02*
X-234339D01*
X-235939Y360329D02*
Y363529D01*
X-312538Y361929D02*
X-309337D01*
X-310938Y360329D02*
Y363529D01*
X-304703Y361929D02*
X-301502D01*
X-303102Y360329D02*
Y363529D01*
X-328282Y341929D02*
X-321593D01*
X-324938Y338585D02*
Y345274D01*
X-292892Y331929D02*
X-286983D01*
X-289938Y328974D02*
Y334884D01*
X-317892Y321929D02*
X-311983D01*
X-314938Y318974D02*
Y324884D01*
X-312772Y341929D02*
X-297103D01*
X-304938Y334095D02*
Y349764D01*
X-297892Y361929D02*
X-291983D01*
X-294938Y358974D02*
Y364884D01*
X-322892Y351929D02*
X-316983D01*
X-319938Y348974D02*
Y354884D01*
X-288282Y341929D02*
X-281593D01*
X-284938Y338585D02*
Y345274D01*
X-308432Y321929D02*
X-305231D01*
X-306831Y320329D02*
Y323530D01*
X-300538Y321929D02*
X-297337D01*
X-298938Y320329D02*
Y323530D01*
X-375536Y321929D02*
X-372336D01*
X-373936Y320329D02*
Y323530D01*
X-383430Y321929D02*
X-380229D01*
X-381830Y320329D02*
Y323530D01*
X-363281Y341929D02*
X-356592D01*
X-359936Y338585D02*
Y345274D01*
X-397891Y351929D02*
X-391981D01*
X-394936Y348974D02*
Y354884D01*
X-372891Y361929D02*
X-366981D01*
X-369936Y358974D02*
Y364884D01*
X-387771Y341929D02*
X-372101D01*
X-379936Y334095D02*
Y349764D01*
X-392891Y321929D02*
X-386981D01*
X-389936Y318974D02*
Y324884D01*
X-367891Y331929D02*
X-361981D01*
X-364936Y328974D02*
Y334884D01*
X-403280Y341929D02*
X-396592D01*
X-399936Y338585D02*
Y345274D01*
X-379701Y361929D02*
X-376500D01*
X-378101Y360329D02*
Y363529D01*
X-387536Y361929D02*
X-384336D01*
X-385936Y360329D02*
Y363529D01*
X-462535Y361929D02*
X-459334D01*
X-460934Y360329D02*
Y363529D01*
X-454700Y361929D02*
X-451499D01*
X-453099Y360329D02*
Y363529D01*
X-478279Y341929D02*
X-471590D01*
X-474934Y338585D02*
Y345274D01*
X-442889Y331929D02*
X-436980D01*
X-439934Y328974D02*
Y334884D01*
X-467889Y321929D02*
X-461980D01*
X-464934Y318974D02*
Y324884D01*
X-462769Y341929D02*
X-447100D01*
X-454934Y334095D02*
Y349764D01*
X-447889Y361929D02*
X-441980D01*
X-444934Y358974D02*
Y364884D01*
X-472889Y351929D02*
X-466980D01*
X-469934Y348974D02*
Y354884D01*
X-438279Y341929D02*
X-431590D01*
X-434934Y338585D02*
Y345274D01*
X-458428Y321929D02*
X-455228D01*
X-456828Y320329D02*
Y323530D01*
X-450535Y321929D02*
X-447334D01*
X-448934Y320329D02*
Y323530D01*
X-525533Y321929D02*
X-522332D01*
X-523933Y320329D02*
Y323530D01*
X-533427Y321929D02*
X-530226D01*
X-531826Y320329D02*
Y323530D01*
X-513277Y341929D02*
X-506588D01*
X-509933Y338585D02*
Y345274D01*
X-547888Y351929D02*
X-541978D01*
X-544933Y348974D02*
Y354884D01*
X-522888Y361929D02*
X-516978D01*
X-519933Y358974D02*
Y364884D01*
X-537767Y341929D02*
X-522098D01*
X-529933Y334095D02*
Y349764D01*
X-542887Y321929D02*
X-536978D01*
X-539933Y318974D02*
Y324884D01*
X-517887Y331929D02*
X-511978D01*
X-514933Y328974D02*
Y334884D01*
X-553277Y341929D02*
X-546588D01*
X-549933Y338585D02*
Y345274D01*
X-529698Y361929D02*
X-526497D01*
X-528097Y360329D02*
Y363529D01*
X-537533Y361929D02*
X-534332D01*
X-535933Y360329D02*
Y363529D01*
X-612532Y361929D02*
X-609331D01*
X-610931Y360329D02*
Y363529D01*
X-604696Y361929D02*
X-601495D01*
X-603096Y360329D02*
Y363529D01*
X-628276Y341929D02*
X-621587D01*
X-624931Y338585D02*
Y345274D01*
X-592886Y331929D02*
X-586976D01*
X-589931Y328974D02*
Y334884D01*
X-617886Y321929D02*
X-611976D01*
X-614931Y318974D02*
Y324884D01*
X-612766Y341929D02*
X-597096D01*
X-604931Y334095D02*
Y349764D01*
X-597886Y361929D02*
X-591976D01*
X-594931Y358974D02*
Y364884D01*
X-622886Y351929D02*
X-616976D01*
X-619931Y348974D02*
Y354884D01*
X-588276Y341929D02*
X-581587D01*
X-584931Y338585D02*
Y345274D01*
X-608425Y321929D02*
X-605224D01*
X-606825Y320329D02*
Y323530D01*
X-600531Y321929D02*
X-597331D01*
X-598931Y320329D02*
Y323530D01*
X-675530Y321929D02*
X-672329D01*
X-673930Y320329D02*
Y323530D01*
X-683424Y321929D02*
X-680223D01*
X-681823Y320329D02*
Y323530D01*
X-663274Y341929D02*
X-656585D01*
X-659930Y338585D02*
Y345274D01*
X-697884Y351929D02*
X-691975D01*
X-694930Y348974D02*
Y354884D01*
X-672884Y361929D02*
X-666975D01*
X-669930Y358974D02*
Y364884D01*
X-687764Y341929D02*
X-672095D01*
X-679929Y334095D02*
Y349764D01*
X-692884Y321929D02*
X-686975D01*
X-689929Y318974D02*
Y324884D01*
X-667884Y331929D02*
X-661975D01*
X-664929Y328974D02*
Y334884D01*
X-703274Y341929D02*
X-696585D01*
X-699930Y338585D02*
Y345274D01*
X-679695Y361929D02*
X-676494D01*
X-678094Y360329D02*
Y363529D01*
X-687530Y361929D02*
X-684329D01*
X-685929Y360329D02*
Y363529D01*
X-762528Y361929D02*
X-759327D01*
X-760928Y360329D02*
Y363529D01*
X-754693Y361929D02*
X-751492D01*
X-753092Y360329D02*
Y363529D01*
X-778272Y341929D02*
X-771583D01*
X-774928Y338585D02*
Y345274D01*
X-742882Y331929D02*
X-736973D01*
X-739928Y328974D02*
Y334884D01*
X-767882Y321929D02*
X-761973D01*
X-764928Y318974D02*
Y324884D01*
X-762762Y341929D02*
X-747093D01*
X-754928Y334095D02*
Y349764D01*
X-747883Y361929D02*
X-741973D01*
X-744928Y358974D02*
Y364884D01*
X-772883Y351929D02*
X-766973D01*
X-769928Y348974D02*
Y354884D01*
X-738272Y341929D02*
X-731583D01*
X-734928Y338585D02*
Y345274D01*
X-758422Y321929D02*
X-755221D01*
X-756821Y320329D02*
Y323530D01*
X-750528Y321929D02*
X-747327D01*
X-748928Y320329D02*
Y323530D01*
X-825527Y321929D02*
X-822326D01*
X-823926Y320329D02*
Y323530D01*
X-833420Y321929D02*
X-830219D01*
X-831820Y320329D02*
Y323530D01*
X-813271Y341929D02*
X-806582D01*
X-809926Y338585D02*
Y345274D01*
X-847881Y351929D02*
X-841971D01*
X-844926Y348974D02*
Y354884D01*
X-822881Y361929D02*
X-816971D01*
X-819926Y358974D02*
Y364884D01*
X-837761Y341929D02*
X-822092D01*
X-829926Y334095D02*
Y349764D01*
X-842881Y321929D02*
X-836971D01*
X-839926Y318974D02*
Y324884D01*
X-817881Y331929D02*
X-811971D01*
X-814926Y328974D02*
Y334884D01*
X-853271Y341929D02*
X-846582D01*
X-849926Y338585D02*
Y345274D01*
X-829691Y361929D02*
X-826490D01*
X-828091Y360329D02*
Y363529D01*
X-837527Y361929D02*
X-834326D01*
X-835926Y360329D02*
Y363529D01*
X-912525Y361929D02*
X-909324D01*
X-910925Y360329D02*
Y363529D01*
X-904690Y361929D02*
X-901489D01*
X-903089Y360329D02*
Y363529D01*
X-928269Y341929D02*
X-921580D01*
X-924925Y338585D02*
Y345274D01*
X-892879Y331929D02*
X-886970D01*
X-889925Y328974D02*
Y334884D01*
X-917879Y321929D02*
X-911970D01*
X-914925Y318974D02*
Y324884D01*
X-912759Y341929D02*
X-897090D01*
X-904925Y334095D02*
Y349764D01*
X-897879Y361929D02*
X-891970D01*
X-894925Y358974D02*
Y364884D01*
X-922879Y351929D02*
X-916970D01*
X-919925Y348974D02*
Y354884D01*
X-888269Y341929D02*
X-881580D01*
X-884925Y338585D02*
Y345274D01*
X-908419Y321929D02*
X-905218D01*
X-906818Y320329D02*
Y323530D01*
X-900525Y321929D02*
X-897324D01*
X-898925Y320329D02*
Y323530D01*
X-975523Y321929D02*
X-972322D01*
X-973923Y320329D02*
Y323530D01*
X-983417Y321929D02*
X-980216D01*
X-981817Y320329D02*
Y323530D01*
X-963267Y341929D02*
X-956578D01*
X-959923Y338585D02*
Y345274D01*
X-997878Y351929D02*
X-991968D01*
X-994923Y348974D02*
Y354884D01*
X-972878Y361929D02*
X-966968D01*
X-969923Y358974D02*
Y364884D01*
X-987757Y341929D02*
X-972088D01*
X-979923Y334095D02*
Y349764D01*
X-992878Y321929D02*
X-986968D01*
X-989923Y318974D02*
Y324884D01*
X-967878Y331929D02*
X-961968D01*
X-964923Y328974D02*
Y334884D01*
X-1003267Y341929D02*
X-996578D01*
X-999923Y338585D02*
Y345274D01*
X-979688Y361929D02*
X-976487D01*
X-978088Y360329D02*
Y363529D01*
X-987523Y361929D02*
X-984322D01*
X-985923Y360329D02*
Y363529D01*
X-1062522Y361929D02*
X-1059321D01*
X-1060921Y360329D02*
Y363529D01*
X-1054686Y361929D02*
X-1051486D01*
X-1053086Y360329D02*
Y363529D01*
X-1078266Y341929D02*
X-1071577D01*
X-1074921Y338585D02*
Y345274D01*
X-1042876Y331929D02*
X-1036967D01*
X-1039921Y328974D02*
Y334884D01*
X-1067876Y321929D02*
X-1061967D01*
X-1064921Y318974D02*
Y324884D01*
X-1062756Y341929D02*
X-1047087D01*
X-1054921Y334095D02*
Y349764D01*
X-1047876Y361929D02*
X-1041967D01*
X-1044921Y358974D02*
Y364884D01*
X-1072876Y351929D02*
X-1066967D01*
X-1069921Y348974D02*
Y354884D01*
X-1038266Y341929D02*
X-1031577D01*
X-1034921Y338585D02*
Y345274D01*
X-1058415Y321929D02*
X-1055215D01*
X-1056815Y320329D02*
Y323530D01*
X-1050522Y321929D02*
X-1047321D01*
X-1048921Y320329D02*
Y323530D01*
X-263120Y396929D02*
X-259920D01*
X-261520Y395329D02*
Y398530D01*
X-271014Y396929D02*
X-267813D01*
X-269414Y395329D02*
Y398530D01*
X-250864Y416929D02*
X-244175D01*
X-247520Y413585D02*
Y420274D01*
X-285475Y426929D02*
X-279565D01*
X-282520Y423974D02*
Y429884D01*
X-260475Y436929D02*
X-254565D01*
X-257520Y433974D02*
Y439884D01*
X-275355Y416929D02*
X-259685D01*
X-267520Y409094D02*
Y424764D01*
X-280475Y396929D02*
X-274565D01*
X-277520Y393974D02*
Y399884D01*
X-255475Y406929D02*
X-249565D01*
X-252520Y403974D02*
Y409884D01*
X-290864Y416929D02*
X-284175D01*
X-287520Y413585D02*
Y420274D01*
X-267285Y436929D02*
X-264084D01*
X-265685Y435329D02*
Y438529D01*
X-275120Y436929D02*
X-271919D01*
X-273520Y435329D02*
Y438529D01*
X-350104Y436929D02*
X-346903D01*
X-348503Y435329D02*
Y438529D01*
X-342269Y436929D02*
X-339068D01*
X-340668Y435329D02*
Y438529D01*
X-365848Y416929D02*
X-359159D01*
X-362504Y413585D02*
Y420274D01*
X-330458Y406929D02*
X-324549D01*
X-327503Y403974D02*
Y409884D01*
X-355458Y396929D02*
X-349549D01*
X-352503Y393974D02*
Y399884D01*
X-350338Y416929D02*
X-334669D01*
X-342503Y409094D02*
Y424764D01*
X-335458Y436929D02*
X-329549D01*
X-332504Y433974D02*
Y439884D01*
X-360458Y426929D02*
X-354549D01*
X-357504Y423974D02*
Y429884D01*
X-325848Y416929D02*
X-319159D01*
X-322503Y413585D02*
Y420274D01*
X-345998Y396929D02*
X-342797D01*
X-344397Y395329D02*
Y398530D01*
X-338104Y396929D02*
X-334903D01*
X-336504Y395329D02*
Y398530D01*
X-413087Y396929D02*
X-409887D01*
X-411487Y395329D02*
Y398530D01*
X-420981Y396929D02*
X-417780D01*
X-419381Y395329D02*
Y398530D01*
X-400832Y416929D02*
X-394143D01*
X-397487Y413585D02*
Y420274D01*
X-435442Y426929D02*
X-429532D01*
X-432487Y423974D02*
Y429884D01*
X-410442Y436929D02*
X-404532D01*
X-407487Y433974D02*
Y439884D01*
X-425322Y416929D02*
X-409652D01*
X-417487Y409094D02*
Y424764D01*
X-430442Y396929D02*
X-424532D01*
X-427487Y393974D02*
Y399884D01*
X-405442Y406929D02*
X-399532D01*
X-402487Y403974D02*
Y409884D01*
X-440832Y416929D02*
X-434143D01*
X-437487Y413585D02*
Y420274D01*
X-417252Y436929D02*
X-414051D01*
X-415652Y435329D02*
Y438529D01*
X-425087Y436929D02*
X-421887D01*
X-423487Y435329D02*
Y438529D01*
X-500071Y436929D02*
X-496870D01*
X-498471Y435329D02*
Y438529D01*
X-492236Y436929D02*
X-489035D01*
X-490635Y435329D02*
Y438529D01*
X-515815Y416929D02*
X-509126D01*
X-512471Y413585D02*
Y420274D01*
X-480425Y406929D02*
X-474516D01*
X-477471Y403974D02*
Y409884D01*
X-505425Y396929D02*
X-499516D01*
X-502471Y393974D02*
Y399884D01*
X-500305Y416929D02*
X-484636D01*
X-492471Y409094D02*
Y424764D01*
X-485425Y436929D02*
X-479516D01*
X-482471Y433974D02*
Y439884D01*
X-510425Y426929D02*
X-504516D01*
X-507471Y423974D02*
Y429884D01*
X-475815Y416929D02*
X-469126D01*
X-472471Y413585D02*
Y420274D01*
X-495965Y396929D02*
X-492764D01*
X-494364Y395329D02*
Y398530D01*
X-488071Y396929D02*
X-484870D01*
X-486471Y395329D02*
Y398530D01*
X-563055Y396929D02*
X-559854D01*
X-561454Y395329D02*
Y398530D01*
X-570948Y396929D02*
X-567747D01*
X-569348Y395329D02*
Y398530D01*
X-550799Y416929D02*
X-544110D01*
X-547454Y413585D02*
Y420274D01*
X-585409Y426929D02*
X-579499D01*
X-582454Y423974D02*
Y429884D01*
X-560409Y436929D02*
X-554499D01*
X-557454Y433974D02*
Y439884D01*
X-575289Y416929D02*
X-559620D01*
X-567454Y409094D02*
Y424764D01*
X-580409Y396929D02*
X-574500D01*
X-577454Y393974D02*
Y399884D01*
X-555409Y406929D02*
X-549500D01*
X-552454Y403974D02*
Y409884D01*
X-590799Y416929D02*
X-584110D01*
X-587454Y413585D02*
Y420274D01*
X-567219Y436929D02*
X-564018D01*
X-565619Y435329D02*
Y438529D01*
X-575055Y436929D02*
X-571854D01*
X-573454Y435329D02*
Y438529D01*
X-650038Y436929D02*
X-646837D01*
X-648438Y435329D02*
Y438529D01*
X-642203Y436929D02*
X-639002D01*
X-640602Y435329D02*
Y438529D01*
X-665782Y416929D02*
X-659093D01*
X-662438Y413585D02*
Y420274D01*
X-630393Y406929D02*
X-624483D01*
X-627438Y403974D02*
Y409884D01*
X-655393Y396929D02*
X-649483D01*
X-652438Y393974D02*
Y399884D01*
X-650272Y416929D02*
X-634603D01*
X-642438Y409094D02*
Y424764D01*
X-635393Y436929D02*
X-629483D01*
X-632438Y433974D02*
Y439884D01*
X-660393Y426929D02*
X-654483D01*
X-657438Y423974D02*
Y429884D01*
X-625782Y416929D02*
X-619093D01*
X-622438Y413585D02*
Y420274D01*
X-645932Y396929D02*
X-642731D01*
X-644332Y395329D02*
Y398530D01*
X-638038Y396929D02*
X-634837D01*
X-636438Y395329D02*
Y398530D01*
X-713022Y396929D02*
X-709821D01*
X-711421Y395329D02*
Y398530D01*
X-720916Y396929D02*
X-717715D01*
X-719315Y395329D02*
Y398530D01*
X-700766Y416929D02*
X-694077D01*
X-697421Y413585D02*
Y420274D01*
X-735376Y426929D02*
X-729467D01*
X-732421Y423974D02*
Y429884D01*
X-710376Y436929D02*
X-704467D01*
X-707421Y433974D02*
Y439884D01*
X-725256Y416929D02*
X-709587D01*
X-717421Y409094D02*
Y424764D01*
X-730376Y396929D02*
X-724467D01*
X-727421Y393974D02*
Y399884D01*
X-705376Y406929D02*
X-699467D01*
X-702421Y403974D02*
Y409884D01*
X-740766Y416929D02*
X-734077D01*
X-737421Y413585D02*
Y420274D01*
X-717186Y436929D02*
X-713986D01*
X-715586Y435329D02*
Y438529D01*
X-725022Y436929D02*
X-721821D01*
X-723421Y435329D02*
Y438529D01*
X-800005Y436929D02*
X-796805D01*
X-798405Y435329D02*
Y438529D01*
X-792170Y436929D02*
X-788969D01*
X-790570Y435329D02*
Y438529D01*
X-815749Y416929D02*
X-809060D01*
X-812405Y413585D02*
Y420274D01*
X-780360Y406929D02*
X-774450D01*
X-777405Y403974D02*
Y409884D01*
X-805360Y396929D02*
X-799450D01*
X-802405Y393974D02*
Y399884D01*
X-800240Y416929D02*
X-784570D01*
X-792405Y409094D02*
Y424764D01*
X-785360Y436929D02*
X-779450D01*
X-782405Y433974D02*
Y439884D01*
X-810360Y426929D02*
X-804450D01*
X-807405Y423974D02*
Y429884D01*
X-775749Y416929D02*
X-769061D01*
X-772405Y413585D02*
Y420274D01*
X-795899Y396929D02*
X-792698D01*
X-794299Y395329D02*
Y398530D01*
X-788005Y396929D02*
X-784805D01*
X-786405Y395329D02*
Y398530D01*
X-862989Y396929D02*
X-859788D01*
X-861388Y395329D02*
Y398530D01*
X-870883Y396929D02*
X-867682D01*
X-869282Y395329D02*
Y398530D01*
X-850733Y416929D02*
X-844044D01*
X-847388Y413585D02*
Y420274D01*
X-885343Y426929D02*
X-879434D01*
X-882388Y423974D02*
Y429884D01*
X-860343Y436929D02*
X-854434D01*
X-857388Y433974D02*
Y439884D01*
X-875223Y416929D02*
X-859554D01*
X-867389Y409094D02*
Y424764D01*
X-880343Y396929D02*
X-874434D01*
X-877388Y393974D02*
Y399884D01*
X-855343Y406929D02*
X-849434D01*
X-852388Y403974D02*
Y409884D01*
X-890733Y416929D02*
X-884044D01*
X-887389Y413585D02*
Y420274D01*
X-867154Y436929D02*
X-863953D01*
X-865553Y435329D02*
Y438529D01*
X-874989Y436929D02*
X-871788D01*
X-873388Y435329D02*
Y438529D01*
X-949973Y436929D02*
X-946772D01*
X-948372Y435329D02*
Y438529D01*
X-942137Y436929D02*
X-938936D01*
X-940537Y435329D02*
Y438529D01*
X-965717Y416929D02*
X-959028D01*
X-962372Y413585D02*
Y420274D01*
X-930327Y406929D02*
X-924417D01*
X-927372Y403974D02*
Y409884D01*
X-955327Y396929D02*
X-949417D01*
X-952372Y393974D02*
Y399884D01*
X-950207Y416929D02*
X-934538D01*
X-942372Y409094D02*
Y424764D01*
X-935327Y436929D02*
X-929417D01*
X-932372Y433974D02*
Y439884D01*
X-960327Y426929D02*
X-954417D01*
X-957372Y423974D02*
Y429884D01*
X-925717Y416929D02*
X-919028D01*
X-922372Y413585D02*
Y420274D01*
X-945866Y396929D02*
X-942665D01*
X-944266Y395329D02*
Y398530D01*
X-937973Y396929D02*
X-934772D01*
X-936372Y395329D02*
Y398530D01*
X-1012956Y396929D02*
X-1009755D01*
X-1011356Y395329D02*
Y398530D01*
X-1020850Y396929D02*
X-1017649D01*
X-1019249Y395329D02*
Y398530D01*
X-1000700Y416929D02*
X-994011D01*
X-997356Y413585D02*
Y420274D01*
X-1035310Y426929D02*
X-1029401D01*
X-1032356Y423974D02*
Y429884D01*
X-1010310Y436929D02*
X-1004401D01*
X-1007356Y433974D02*
Y439884D01*
X-1025190Y416929D02*
X-1009521D01*
X-1017356Y409094D02*
Y424764D01*
X-1030310Y396929D02*
X-1024401D01*
X-1027356Y393974D02*
Y399884D01*
X-1005310Y406929D02*
X-999401D01*
X-1002356Y403974D02*
Y409884D01*
X-1040700Y416929D02*
X-1034011D01*
X-1037356Y413585D02*
Y420274D01*
X-1017121Y436929D02*
X-1013920D01*
X-1015520Y435329D02*
Y438529D01*
X-1024956Y436929D02*
X-1021755D01*
X-1023356Y435329D02*
Y438529D01*
X-1099940Y436929D02*
X-1096739D01*
X-1098339Y435329D02*
Y438529D01*
X-1092104Y436929D02*
X-1088904D01*
X-1090504Y435329D02*
Y438529D01*
X-1115684Y416929D02*
X-1108995D01*
X-1112339Y413585D02*
Y420274D01*
X-1080294Y406929D02*
X-1074385D01*
X-1077339Y403974D02*
Y409884D01*
X-1105294Y396929D02*
X-1099385D01*
X-1102339Y393974D02*
Y399884D01*
X-1100174Y416929D02*
X-1084505D01*
X-1092339Y409094D02*
Y424764D01*
X-1085294Y436929D02*
X-1079385D01*
X-1082339Y433974D02*
Y439884D01*
X-1110294Y426929D02*
X-1104385D01*
X-1107339Y423974D02*
Y429884D01*
X-1075684Y416929D02*
X-1068995D01*
X-1072339Y413585D02*
Y420274D01*
X-1095833Y396929D02*
X-1092633D01*
X-1094233Y395329D02*
Y398530D01*
X-1087940Y396929D02*
X-1084739D01*
X-1086339Y395329D02*
Y398530D01*
X-20267Y282087D02*
X-17118D01*
X-18692Y280512D02*
Y283661D01*
X-30267Y282087D02*
X-27117D01*
X-28692Y280512D02*
Y283661D01*
X-53987Y282087D02*
X-50838D01*
X-52413Y280512D02*
Y283661D01*
X-43988Y282087D02*
X-40838D01*
X-42413Y280512D02*
Y283661D01*
X-219220Y299429D02*
X-203520D01*
X-211370Y291579D02*
Y307279D01*
X-125220Y299429D02*
X-109520D01*
X-117370Y291579D02*
Y307279D01*
X-217370Y239429D02*
X-205370D01*
X-211370Y233429D02*
Y245429D01*
X-123370Y239429D02*
X-111370D01*
X-117370Y233429D02*
Y245429D01*
X-460921Y90428D02*
X-448921D01*
X-454921Y84428D02*
Y96428D01*
X-462771Y150428D02*
X-447071D01*
X-454921Y142578D02*
Y158278D01*
X-912771Y150428D02*
X-897071D01*
X-904921Y142578D02*
Y158278D01*
X-910921Y90428D02*
X-898921D01*
X-904921Y84428D02*
Y96428D01*
X-125153Y436929D02*
X-121952D01*
X-123553Y435329D02*
Y438529D01*
X-117318Y436929D02*
X-114117D01*
X-115717Y435329D02*
Y438529D01*
X-140897Y416929D02*
X-134208D01*
X-137553Y413585D02*
Y420274D01*
X-105507Y406929D02*
X-99598D01*
X-102553Y403974D02*
Y409884D01*
X-130507Y396929D02*
X-124598D01*
X-127553Y393974D02*
Y399884D01*
X-125387Y416929D02*
X-109718D01*
X-117553Y409094D02*
Y424764D01*
X-110507Y436929D02*
X-104598D01*
X-107553Y433974D02*
Y439884D01*
X-135507Y426929D02*
X-129598D01*
X-132553Y423974D02*
Y429884D01*
X-100897Y416929D02*
X-94208D01*
X-97553Y413585D02*
Y420274D01*
X-121047Y396929D02*
X-117846D01*
X-119446Y395329D02*
Y398530D01*
X-113153Y396929D02*
X-109952D01*
X-111553Y395329D02*
Y398530D01*
X-200137Y436929D02*
X-196936D01*
X-198536Y435329D02*
Y438529D01*
X-192301Y436929D02*
X-189101D01*
X-190701Y435329D02*
Y438529D01*
X-215881Y416929D02*
X-209192D01*
X-212536Y413585D02*
Y420274D01*
X-180491Y406929D02*
X-174582D01*
X-177536Y403974D02*
Y409884D01*
X-205491Y396929D02*
X-199582D01*
X-202536Y393974D02*
Y399884D01*
X-200371Y416929D02*
X-184702D01*
X-192536Y409094D02*
Y424764D01*
X-185491Y436929D02*
X-179582D01*
X-182536Y433974D02*
Y439884D01*
X-210491Y426929D02*
X-204582D01*
X-207536Y423974D02*
Y429884D01*
X-175881Y416929D02*
X-169192D01*
X-172536Y413585D02*
Y420274D01*
X-196030Y396929D02*
X-192830D01*
X-194430Y395329D02*
Y398530D01*
X-188137Y396929D02*
X-184936D01*
X-186536Y395329D02*
Y398530D01*
X-157405Y373600D02*
X-156224D01*
X-156815Y373009D02*
Y374190D01*
X-1157191Y377600D02*
X-1156009D01*
X-1156600Y377010D02*
Y378190D01*
X-175197Y377500D02*
X-174016D01*
X-174606Y376909D02*
Y378091D01*
X-135173Y380500D02*
X-133992D01*
X-134582Y379909D02*
Y381090D01*
X-221474Y312220D02*
X-219506D01*
X-220490Y311236D02*
Y313204D01*
X-718244Y130518D02*
X-716275D01*
X-717259Y129534D02*
Y131502D01*
X-245370Y314961D02*
X-244189D01*
X-244779Y314370D02*
Y315551D01*
X31890Y246075D02*
X34252D01*
X33071Y244894D02*
Y247256D01*
X27854Y154823D02*
X30217D01*
X29035Y153642D02*
Y156004D01*
X-831890Y216535D02*
X-830709D01*
X-831299Y215945D02*
Y217126D01*
X4961Y376673D02*
X6142D01*
X5551Y376083D02*
Y377264D01*
X35632Y445888D02*
X36813D01*
X36222Y445297D02*
Y446478D01*
X-1030118Y372244D02*
X-1027756D01*
X-1028937Y371063D02*
Y373425D01*
X-1030118Y360531D02*
X-1027756D01*
X-1028937Y359350D02*
Y361713D01*
X4370Y396968D02*
X6732D01*
X5551Y395787D02*
Y398149D01*
X15354Y306102D02*
X16535D01*
X15945Y305512D02*
Y306693D01*
X-609744Y121260D02*
X-608563D01*
X-609154Y120669D02*
Y121850D01*
X-614272Y117126D02*
X-613091D01*
X-613681Y116535D02*
Y117717D01*
X-617815Y125856D02*
X-616634D01*
X-617224Y125265D02*
Y126446D01*
X-620374Y120276D02*
X-619193D01*
X-619783Y119685D02*
Y120866D01*
X-622959Y128864D02*
X-621777D01*
X-622368Y128273D02*
Y129455D01*
X-605590Y148819D02*
X-604409D01*
X-605000Y148228D02*
Y149409D01*
X-567421Y138878D02*
X-566240D01*
X-566831Y138287D02*
Y139469D01*
X-20669Y306890D02*
X-18701D01*
X-19685Y305906D02*
Y307874D01*
X251575Y290748D02*
X252756D01*
X252165Y290158D02*
Y291339D01*
X224803Y296457D02*
X225984D01*
X225394Y295866D02*
Y297047D01*
X179921Y236614D02*
X181890D01*
X180905Y235630D02*
Y237598D01*
X179527Y311614D02*
X181496D01*
X180511Y310630D02*
Y312598D01*
X229724Y162992D02*
X231693D01*
X230709Y162008D02*
Y163976D01*
X265945Y284646D02*
X267126D01*
X266535Y284055D02*
Y285236D01*
X256299Y320472D02*
X257480D01*
X256890Y319882D02*
Y321063D01*
X241142Y308071D02*
X243110D01*
X242126Y307087D02*
Y309055D01*
X229724Y311614D02*
X231693D01*
X230709Y310630D02*
Y312598D01*
X157087Y311614D02*
X159055D01*
X158071Y310630D02*
Y312598D01*
X114961Y205434D02*
X116142D01*
X115551Y204844D02*
Y206025D01*
X185236Y203543D02*
X186417D01*
X185827Y202953D02*
Y204134D01*
X236221Y145669D02*
X238189D01*
X237205Y144685D02*
Y146653D01*
X210827Y156102D02*
X212008D01*
X211417Y155512D02*
Y156693D01*
X251969Y132874D02*
X253150D01*
X252559Y132283D02*
Y133465D01*
X103617Y121727D02*
X104798D01*
X104207Y121136D02*
Y122318D01*
X-129528Y111417D02*
X-128347D01*
X-128937Y110827D02*
Y112008D01*
X-55709Y111733D02*
X-54528D01*
X-55118Y111143D02*
Y112324D01*
X20472Y111733D02*
X21654D01*
X21063Y111143D02*
Y112324D01*
X187008Y128740D02*
X188189D01*
X187598Y128150D02*
Y129331D01*
X-408071Y127953D02*
X-406890D01*
X-407480Y127362D02*
Y128543D01*
X-1122441Y150984D02*
X-1121260D01*
X-1121850Y150394D02*
Y151575D01*
X-1033268Y107874D02*
X-1032087D01*
X-1032677Y107283D02*
Y108465D01*
X-1021653Y130512D02*
X-1020472D01*
X-1021063Y129921D02*
Y131102D01*
X-1104724Y130512D02*
X-1103543D01*
X-1104134Y129921D02*
Y131102D01*
X-1017323Y145866D02*
X-1015354D01*
X-1016339Y144882D02*
Y146850D01*
X-993701Y156890D02*
X-991732D01*
X-992717Y155905D02*
Y157874D01*
X-1117717Y145866D02*
X-1115748D01*
X-1116732Y144882D02*
Y146850D01*
X-773269Y233505D02*
X-772088D01*
X-772679Y232915D02*
Y234096D01*
X-1145669Y309054D02*
X-1143701D01*
X-1144685Y308070D02*
Y310039D01*
X-1161417Y381693D02*
X-1159449D01*
X-1160433Y380709D02*
Y382677D01*
X-832087Y135433D02*
X-830906D01*
X-831496Y134843D02*
Y136024D01*
X-833268Y139567D02*
X-832087D01*
X-832677Y138976D02*
Y140157D01*
X-38976Y225197D02*
X-37795D01*
X-38386Y224606D02*
Y225787D01*
X24270Y221457D02*
X25451D01*
X24861Y220866D02*
Y222047D01*
X-639983Y152188D02*
X-638802D01*
X-639392Y151597D02*
Y152778D01*
X195866Y389370D02*
X197047D01*
X196457Y388779D02*
Y389961D01*
X233268Y389370D02*
X234449D01*
X233858Y388779D02*
Y389961D01*
X277756Y386221D02*
X279724D01*
X278740Y385236D02*
Y387205D01*
X46260Y239173D02*
X47441D01*
X46850Y238583D02*
Y239764D01*
X128346Y239370D02*
X129527D01*
X128937Y238779D02*
Y239961D01*
X203937Y239370D02*
X205118D01*
X204528Y238779D02*
Y239961D01*
X152756Y236614D02*
X154724D01*
X153740Y235630D02*
Y237598D01*
X222441Y236024D02*
X224410D01*
X223425Y235039D02*
Y237008D01*
X75984Y234055D02*
X77953D01*
X76968Y233071D02*
Y235039D01*
X233858Y227953D02*
X235039D01*
X234449Y227362D02*
Y228543D01*
X160039Y227362D02*
X161221D01*
X160630Y226772D02*
Y227953D01*
X278937Y232283D02*
X280118D01*
X279528Y231693D02*
Y232874D01*
X90354Y233268D02*
X91535D01*
X90945Y232677D02*
Y233858D01*
X-984Y127165D02*
X197D01*
X-394Y126575D02*
Y127756D01*
X87008Y129134D02*
X88189D01*
X87598Y128543D02*
Y129724D01*
X160236Y149213D02*
X161417D01*
X160827Y148622D02*
Y149803D01*
X21609Y440354D02*
X22790D01*
X22199Y439764D02*
Y440945D01*
X9646Y445866D02*
X10827D01*
X10236Y445276D02*
Y446457D01*
X90945Y302362D02*
X92126D01*
X91535Y301772D02*
Y302953D01*
X-6299Y300000D02*
X-5118D01*
X-5709Y299410D02*
Y300590D01*
X-89479Y294685D02*
X-88297D01*
X-88888Y294094D02*
Y295276D01*
X-989370Y236614D02*
X-987402D01*
X-988386Y235630D02*
Y237598D01*
X-1009252Y311811D02*
X-1007283D01*
X-1008268Y310827D02*
Y312795D01*
X205709Y386417D02*
X207677D01*
X206693Y385433D02*
Y387402D01*
X147441Y391535D02*
X149409D01*
X148425Y390551D02*
Y392520D01*
X57480Y384646D02*
X59449D01*
X58465Y383661D02*
Y385630D01*
X-37598Y386417D02*
X-35630D01*
X-36614Y385433D02*
Y387402D01*
X-865704Y164764D02*
X-864523D01*
X-865114Y164173D02*
Y165354D01*
X-940726Y164764D02*
X-939545D01*
X-940136Y164173D02*
Y165354D01*
X-913955Y161614D02*
X-911986D01*
X-912970Y160630D02*
Y162598D01*
X-1015748Y164764D02*
X-1014567D01*
X-1015158Y164173D02*
Y165354D01*
X-302756Y239764D02*
X-301575D01*
X-302165Y239173D02*
Y240354D01*
X-275984Y236614D02*
X-274016D01*
X-275000Y235630D02*
Y237598D01*
X-377795Y239764D02*
X-376614D01*
X-377205Y239173D02*
Y240354D01*
X-351024Y236614D02*
X-349055D01*
X-350039Y235630D02*
Y237598D01*
X-452835Y239764D02*
X-451653D01*
X-452244Y239173D02*
Y240354D01*
X-426063Y236614D02*
X-424094D01*
X-425079Y235630D02*
Y237598D01*
X-527874Y239764D02*
X-526693D01*
X-527283Y239173D02*
Y240354D01*
X-501102Y236614D02*
X-499134D01*
X-500118Y235630D02*
Y237598D01*
X-602913Y239764D02*
X-601732D01*
X-602323Y239173D02*
Y240354D01*
X-576142Y236614D02*
X-574173D01*
X-575157Y235630D02*
Y237598D01*
X-677953Y239764D02*
X-676772D01*
X-677362Y239173D02*
Y240354D01*
X-651181Y236614D02*
X-649213D01*
X-650197Y235630D02*
Y237598D01*
X-752992Y239764D02*
X-751811D01*
X-752402Y239173D02*
Y240354D01*
X-726221Y236614D02*
X-724252D01*
X-725236Y235630D02*
Y237598D01*
X-801260Y236614D02*
X-799291D01*
X-800276Y235630D02*
Y237598D01*
X-876299Y236614D02*
X-874331D01*
X-875315Y235630D02*
Y237598D01*
X-978110Y239764D02*
X-976929D01*
X-977520Y239173D02*
Y240354D01*
X-951339Y236614D02*
X-949370D01*
X-950354Y235630D02*
Y237598D01*
X-1026378Y236614D02*
X-1024409D01*
X-1025394Y235630D02*
Y237598D01*
X-1053150Y239764D02*
X-1051968D01*
X-1052559Y239173D02*
Y240354D01*
X-1045596Y311811D02*
X-1043628D01*
X-1044612Y310827D02*
Y312795D01*
X-995646Y315354D02*
X-994465D01*
X-995055Y314764D02*
Y315945D01*
X-920697Y315354D02*
X-919516D01*
X-920106Y314764D02*
Y315945D01*
X-845748Y315354D02*
X-844567D01*
X-845158Y314764D02*
Y315945D01*
X-695063Y315354D02*
X-693882D01*
X-694472Y314764D02*
Y315945D01*
X-671150Y312008D02*
X-669181D01*
X-670166Y311024D02*
Y312992D01*
X-620114Y315354D02*
X-618933D01*
X-619523Y314764D02*
Y315945D01*
X-596201Y312008D02*
X-594233D01*
X-595217Y311024D02*
Y312992D01*
X-545165Y315354D02*
X-543984D01*
X-544575Y314764D02*
Y315945D01*
X-521252Y312008D02*
X-519284D01*
X-520268Y311024D02*
Y312992D01*
X-470216Y315354D02*
X-469035D01*
X-469626Y314764D02*
Y315945D01*
X-395268Y315354D02*
X-394086D01*
X-394677Y314764D02*
Y315945D01*
X-320319Y315354D02*
X-319138D01*
X-319728Y314764D02*
Y315945D01*
X-38807Y314370D02*
X-37626D01*
X-38217Y313779D02*
Y314961D01*
X55709Y314370D02*
X56890D01*
X56299Y313779D02*
Y314961D01*
X129528Y314370D02*
X130709D01*
X130118Y313779D02*
Y314961D01*
X-1070472Y314370D02*
X-1069291D01*
X-1069882Y313779D02*
Y314961D01*
X-39370Y390748D02*
X-38189D01*
X-38780Y390158D02*
Y391339D01*
X54724Y390748D02*
X55905D01*
X55315Y390158D02*
Y391339D01*
X127559Y390354D02*
X128740D01*
X128150Y389764D02*
Y390945D01*
X-1033990Y390748D02*
X-1032808D01*
X-1033399Y390158D02*
Y391339D01*
X-959055Y390748D02*
X-957874D01*
X-958465Y390158D02*
Y391339D01*
X-884121Y390748D02*
X-882940D01*
X-883530Y390158D02*
Y391339D01*
X-809186Y390748D02*
X-808005D01*
X-808596Y390158D02*
Y391339D01*
X-734252Y390748D02*
X-733071D01*
X-733661Y390158D02*
Y391339D01*
X-659318Y390748D02*
X-658137D01*
X-658727Y390158D02*
Y391339D01*
X-584383Y390748D02*
X-583202D01*
X-583793Y390158D02*
Y391339D01*
X-509449Y390748D02*
X-508268D01*
X-508858Y390158D02*
Y391339D01*
X-434514Y390748D02*
X-433333D01*
X-433924Y390158D02*
Y391339D01*
X-359580Y390748D02*
X-358399D01*
X-358990Y390158D02*
Y391339D01*
X-284646Y390748D02*
X-283465D01*
X-284055Y390158D02*
Y391339D01*
X-1106890Y389370D02*
X-1105709D01*
X-1106299Y388779D02*
Y389961D01*
X-258303Y387402D02*
X-256335D01*
X-257319Y386417D02*
Y388386D01*
X-333321Y387402D02*
X-331353D01*
X-332337Y386417D02*
Y388386D01*
X-408339Y387402D02*
X-406371D01*
X-407355Y386417D02*
Y388386D01*
X-483357Y387402D02*
X-481389D01*
X-482373Y386417D02*
Y388386D01*
X-558375Y387402D02*
X-556407D01*
X-557391Y386417D02*
Y388386D01*
X-633393Y387402D02*
X-631425D01*
X-632409Y386417D02*
Y388386D01*
X-783429Y387402D02*
X-781460D01*
X-782444Y386417D02*
Y388386D01*
X-858447Y387402D02*
X-856478D01*
X-857462Y386417D02*
Y388386D01*
X-933465Y387402D02*
X-931496D01*
X-932480Y386417D02*
Y388386D01*
X-1008661Y387402D02*
X-1006693D01*
X-1007677Y386417D02*
Y388386D01*
X-1083858Y387402D02*
X-1081890D01*
X-1082874Y386417D02*
Y388386D01*
X-582480Y220079D02*
X-581299D01*
X-581890Y219488D02*
Y220669D01*
X-514764Y224016D02*
X-513583D01*
X-514173Y223425D02*
Y224606D01*
X-439173Y224016D02*
X-437992D01*
X-438583Y223425D02*
Y224606D01*
X-357874Y224016D02*
X-356693D01*
X-357283Y223425D02*
Y224606D01*
X-264370Y224016D02*
X-263189D01*
X-263779Y223425D02*
Y224606D01*
X-155610Y203937D02*
X-154429D01*
X-155020Y203346D02*
Y204528D01*
X-189763Y241535D02*
X-188582D01*
X-189173Y240945D02*
Y242126D01*
X38386Y204528D02*
X39567D01*
X38976Y203937D02*
Y205118D01*
X-58858Y204528D02*
X-57677D01*
X-58268Y203937D02*
Y205118D01*
X87008Y142323D02*
X88189D01*
X87598Y141732D02*
Y142913D01*
X-96457Y138386D02*
X-95276D01*
X-95866Y137795D02*
Y138976D01*
X-93307Y155315D02*
X-92126D01*
X-92716Y154724D02*
Y155905D01*
X-51575Y216339D02*
X-49606D01*
X-50591Y215354D02*
Y217323D01*
X-235827Y128150D02*
X-234646D01*
X-235236Y127559D02*
Y128740D01*
X-158661Y225394D02*
X-156693D01*
X-157677Y224410D02*
Y226378D01*
X-600591Y160236D02*
X-599409D01*
X-600000Y159646D02*
Y160827D01*
X-559449Y97835D02*
X-558268D01*
X-558858Y97244D02*
Y98425D01*
X-713583Y103424D02*
X-712402D01*
X-712992Y102833D02*
Y104015D01*
X-657874Y130512D02*
X-655512D01*
X-656693Y129331D02*
Y131693D01*
X-740354Y123622D02*
X-737992D01*
X-739173Y122441D02*
Y124803D01*
X-845276Y160118D02*
X-843307D01*
X-844291Y159134D02*
Y161102D01*
X-839567Y150591D02*
X-838386D01*
X-838976Y150000D02*
Y151181D01*
X-660236Y219291D02*
X-659055D01*
X-659646Y218701D02*
Y219882D01*
X-739961Y219488D02*
X-738779D01*
X-739370Y218898D02*
Y220079D01*
X-803347Y203937D02*
X-802165D01*
X-802756Y203346D02*
Y204528D01*
X-932480Y99016D02*
X-931299D01*
X-931890Y98425D02*
Y99606D01*
X-764567Y120472D02*
X-763386D01*
X-763976Y119882D02*
Y121063D01*
X-893110Y134449D02*
X-891929D01*
X-892520Y133858D02*
Y135039D01*
X-980118Y151575D02*
X-978937D01*
X-979528Y150984D02*
Y152165D01*
X-827362Y205512D02*
X-826181D01*
X-826772Y204921D02*
Y206102D01*
X-820866Y223819D02*
X-819685D01*
X-820276Y223228D02*
Y224410D01*
X-828032Y239764D02*
X-826850D01*
X-827441Y239173D02*
Y240354D01*
X-809842Y228740D02*
X-808661D01*
X-809252Y228150D02*
Y229331D01*
X-748425Y146457D02*
X-747244D01*
X-747835Y145866D02*
Y147047D01*
X-770276Y121063D02*
X-769095D01*
X-769685Y120472D02*
Y121653D01*
X-751181Y107087D02*
X-750000D01*
X-750591Y106496D02*
Y107677D01*
X-741732Y139173D02*
X-739370D01*
X-740551Y137992D02*
Y140354D01*
X-748819Y167520D02*
X-747638D01*
X-748228Y166929D02*
Y168110D01*
X-750787Y164370D02*
X-749606D01*
X-750197Y163779D02*
Y164961D01*
X-752953Y161811D02*
X-751772D01*
X-752362Y161221D02*
Y162402D01*
X-751968Y176969D02*
X-750787D01*
X-751378Y176378D02*
Y177559D01*
X-770602Y315354D02*
X-769421D01*
X-770012Y314764D02*
Y315945D01*
X-569685Y157480D02*
X-568504D01*
X-569095Y156890D02*
Y158071D01*
X-322835Y121653D02*
X-321654D01*
X-322244Y121063D02*
Y122244D01*
X-971733Y312008D02*
X-969764D01*
X-970748Y311024D02*
Y312992D01*
X-896784Y312008D02*
X-894815D01*
X-895800Y311024D02*
Y312992D01*
X-746689Y312008D02*
X-744721D01*
X-745705Y311024D02*
Y312992D01*
X-821835Y312008D02*
X-819866D01*
X-820851Y311024D02*
Y312992D01*
X-651181Y147638D02*
X-650000D01*
X-650591Y147047D02*
Y148228D01*
X-656693Y148425D02*
X-655512D01*
X-656102Y147835D02*
Y149016D01*
X-659449Y150787D02*
X-658268D01*
X-658858Y150197D02*
Y151378D01*
X-655315Y144488D02*
X-654134D01*
X-654724Y143898D02*
Y145079D01*
X-726181Y128150D02*
X-725000D01*
X-725591Y127559D02*
Y128740D01*
X-736614Y213976D02*
X-734646D01*
X-735630Y212992D02*
Y214961D01*
X11614Y305511D02*
X12795D01*
X12205Y304921D02*
Y306102D01*
X-903071Y239764D02*
X-901890D01*
X-902480Y239173D02*
Y240354D01*
X-917126Y303740D02*
X-915945D01*
X-916535Y303150D02*
Y304331D01*
X-920276Y301575D02*
X-919094D01*
X-919685Y300984D02*
Y302165D01*
X-839370Y100640D02*
X-838189D01*
X-838780Y100049D02*
Y101231D01*
X110433Y236614D02*
X112402D01*
X111417Y235630D02*
Y237598D01*
X-707480Y236811D02*
X-705512D01*
X-706496Y235827D02*
Y237795D01*
X-371354Y312008D02*
X-369386D01*
X-370370Y311024D02*
Y312992D01*
X-296063Y312008D02*
X-294094D01*
X-295079Y311024D02*
Y312992D01*
X-446303Y312205D02*
X-444335D01*
X-445319Y311221D02*
Y313189D01*
X-687992Y303346D02*
X-685630D01*
X-686811Y302165D02*
Y304528D01*
X-695079Y234252D02*
X-693898D01*
X-694488Y233661D02*
Y234842D01*
X-666339Y174213D02*
X-663976D01*
X-665158Y173031D02*
Y175394D01*
X-767913Y301772D02*
X-765551D01*
X-766732Y300590D02*
Y302953D01*
X-753937Y223622D02*
X-752756D01*
X-753346Y223031D02*
Y224213D01*
X-750787Y223622D02*
X-749606D01*
X-750197Y223031D02*
Y224213D01*
X-734646Y168898D02*
X-732283D01*
X-733465Y167717D02*
Y170079D01*
X-1188780Y130512D02*
X-1187598D01*
X-1188189Y129921D02*
Y131102D01*
X27756Y441928D02*
X28937D01*
X28346Y441338D02*
Y442519D01*
X-156488Y309678D02*
X-155307D01*
X-155897Y309087D02*
Y310268D01*
X-869011Y115230D02*
X-867829D01*
X-868420Y114639D02*
Y115821D01*
X-864610Y115010D02*
X-863429D01*
X-864020Y114419D02*
Y115601D01*
X-865321Y138779D02*
X-864140D01*
X-864730Y138189D02*
Y139370D01*
X-859161Y120010D02*
X-857979D01*
X-858570Y119420D02*
Y120600D01*
X-801231Y117480D02*
X-800049D01*
X-800640Y116890D02*
Y118071D01*
X-62555Y264305D02*
X-61374D01*
X-61965Y263714D02*
Y264895D01*
X16790Y236060D02*
X17971D01*
X17380Y235469D02*
Y236650D01*
X1850Y236060D02*
X3031D01*
X2441Y235469D02*
Y236650D01*
X9330Y221730D02*
X10511D01*
X9921Y221139D02*
Y222321D01*
X21841Y287830D02*
X23022D01*
X22432Y287239D02*
Y288421D01*
X-224590Y371000D02*
X-223410D01*
X-224000Y370409D02*
Y371590D01*
X-178469Y372700D02*
X-177288D01*
X-177879Y372110D02*
Y373290D01*
M02*
